<?xml version="1.0" encoding="utf-8"?>
<!-- Generator: Adobe Illustrator 26.0.1, SVG Export Plug-In . SVG Version: 6.00 Build 0)  -->
<svg version="1.1" id="Layer_1" xmlns="http://www.w3.org/2000/svg" xmlns:xlink="http://www.w3.org/1999/xlink" x="0px" y="0px"
	 viewBox="0 0 432 288" style="enable-background:new 0 0 432 288;" xml:space="preserve">
<style type="text/css">
	.st0{fill:#EFEFEF;}
	.st1{fill:#FFFFFF;stroke:#000000;stroke-width:2;stroke-miterlimit:10;}
	.st2{stroke:#000000;stroke-width:2;stroke-miterlimit:10;}
	.st3{fill:#741472;stroke:#000000;stroke-width:2;stroke-miterlimit:10;}
	.st4{fill:#3F3F6C;stroke:#000000;stroke-width:2;stroke-miterlimit:10;}
	.st5{fill:#2B2C6D;stroke:#000000;stroke-width:2;stroke-miterlimit:10;}
	.st6{fill:#702A38;stroke:#000000;stroke-width:2;stroke-miterlimit:10;}
	.st7{fill:#424343;stroke:#000000;stroke-width:2;stroke-miterlimit:10;}
	.st8{fill:#006F45;stroke:#000000;stroke-width:2;stroke-miterlimit:10;}
	.st9{fill:#5C5D4C;stroke:#000000;stroke-width:2;stroke-miterlimit:10;}
	.st10{fill:#68694A;stroke:#000000;stroke-width:2;stroke-miterlimit:10;}
	.st11{fill:#206682;stroke:#000000;stroke-width:2;stroke-miterlimit:10;}
	.st12{fill:#616262;stroke:#000000;stroke-width:2;stroke-miterlimit:10;}
	.st13{fill:#008FD5;stroke:#000000;stroke-width:2;stroke-miterlimit:10;}
	.st14{fill:#7877B8;stroke:#000000;stroke-width:2;stroke-miterlimit:10;}
	.st15{fill:#8786C0;stroke:#000000;stroke-width:2;stroke-miterlimit:10;}
	.st16{fill:#1994C1;stroke:#000000;stroke-width:2;stroke-miterlimit:10;}
	.st17{fill:#858686;stroke:#000000;stroke-width:2;stroke-miterlimit:10;}
	.st18{fill:#F7941E;stroke:#000000;stroke-width:2;stroke-miterlimit:10;}
	.st19{fill:#B6B637;stroke:#000000;stroke-width:2;stroke-miterlimit:10;}
	.st20{fill:#A1A13C;stroke:#000000;stroke-width:2;stroke-miterlimit:10;}
	.st21{fill:#F3839B;stroke:#000000;stroke-width:2;stroke-miterlimit:10;}
	.st22{fill:#A7A7A7;stroke:#000000;stroke-width:2;stroke-miterlimit:10;}
	.st23{fill:#ABD69C;stroke:#000000;stroke-width:2;stroke-miterlimit:10;}
	.st24{fill:#C9C9A3;stroke:#000000;stroke-width:2;stroke-miterlimit:10;}
	.st25{fill:#D2D2A2;stroke:#000000;stroke-width:2;stroke-miterlimit:10;}
	.st26{fill:#AFCBDC;stroke:#000000;stroke-width:2;stroke-miterlimit:10;}
	.st27{fill:#CCCBCB;stroke:#000000;stroke-width:2;stroke-miterlimit:10;}
	.st28{fill:#FFF200;stroke:#000000;stroke-width:2;stroke-miterlimit:10;}
	.st29{fill:#EFEC56;stroke:#000000;stroke-width:2;stroke-miterlimit:10;}
	.st30{fill:#EDEB54;stroke:#000000;stroke-width:2;stroke-miterlimit:10;}
	.st31{fill:#FBDCE4;stroke:#000000;stroke-width:2;stroke-miterlimit:10;}
	.st32{fill:#F2F2F3;stroke:#000000;stroke-width:2;stroke-miterlimit:10;}
</style>
<rect x="10.8" y="11.1" class="st0" width="410.4" height="265.7"/>
<rect x="62.1" y="34" class="st1" width="36.8" height="36.8"/>
<rect x="62.1" y="79.8" class="st1" width="36.8" height="36.8"/>
<rect x="62.1" y="125.5" class="st1" width="36.8" height="36.8"/>
<rect x="62.1" y="171.3" class="st1" width="36.8" height="36.8"/>
<rect x="62.1" y="217.1" class="st1" width="36.8" height="36.8"/>
<rect x="333.1" y="34" class="st2" width="36.8" height="36.8"/>
<rect x="333.1" y="79.8" class="st2" width="36.8" height="36.8"/>
<rect x="333.1" y="125.5" class="st2" width="36.8" height="36.8"/>
<rect x="333.1" y="171.3" class="st2" width="36.8" height="36.8"/>
<rect x="333.1" y="217.1" class="st2" width="36.8" height="36.8"/>
<rect x="289.7" y="34" class="st3" width="36.8" height="36.8"/>
<rect x="289.7" y="79.8" class="st4" width="36.8" height="36.8"/>
<rect x="289.7" y="125.5" class="st5" width="36.8" height="36.8"/>
<rect x="289.7" y="171.3" class="st6" width="36.8" height="36.8"/>
<rect x="289.7" y="217.1" class="st7" width="36.8" height="36.8"/>
<rect x="252.8" y="34" class="st8" width="36.8" height="36.8"/>
<rect x="252.8" y="79.8" class="st9" width="36.8" height="36.8"/>
<rect x="252.8" y="125.5" class="st10" width="36.8" height="36.8"/>
<rect x="252.8" y="171.3" class="st11" width="36.8" height="36.8"/>
<rect x="252.8" y="217.1" class="st12" width="36.8" height="36.8"/>
<rect x="216" y="34" class="st13" width="36.8" height="36.8"/>
<rect x="216" y="79.8" class="st14" width="36.8" height="36.8"/>
<rect x="216" y="125.5" class="st15" width="36.8" height="36.8"/>
<rect x="216" y="171.3" class="st16" width="36.8" height="36.8"/>
<rect x="216" y="217.1" class="st17" width="36.8" height="36.8"/>
<rect x="179.2" y="34" class="st18" width="36.8" height="36.8"/>
<rect x="179.2" y="79.8" class="st19" width="36.8" height="36.8"/>
<rect x="179.2" y="125.5" class="st20" width="36.8" height="36.8"/>
<rect x="179.2" y="171.3" class="st21" width="36.8" height="36.8"/>
<rect x="179.2" y="217.1" class="st22" width="36.8" height="36.8"/>
<rect x="142.3" y="34" class="st23" width="36.8" height="36.8"/>
<rect x="142.3" y="79.8" class="st24" width="36.8" height="36.8"/>
<rect x="142.3" y="125.5" class="st25" width="36.8" height="36.8"/>
<rect x="142.3" y="171.3" class="st26" width="36.8" height="36.8"/>
<rect x="142.3" y="217.1" class="st27" width="36.8" height="36.8"/>
<rect x="105.5" y="34" class="st28" width="36.8" height="36.8"/>
<rect x="105.5" y="79.8" class="st29" width="36.8" height="36.8"/>
<rect x="105.5" y="125.5" class="st30" width="36.8" height="36.8"/>
<rect x="105.5" y="171.3" class="st31" width="36.8" height="36.8"/>
<rect x="105.5" y="217.1" class="st32" width="36.8" height="36.8"/>
</svg>
