<?xml version="1.0" encoding="utf-8"?>
<!-- Generator: Adobe Illustrator 26.1.0, SVG Export Plug-In . SVG Version: 6.00 Build 0)  -->
<svg version="1.1" id="Layer_1" xmlns="http://www.w3.org/2000/svg" xmlns:xlink="http://www.w3.org/1999/xlink" x="0px" y="0px"
	 viewBox="0 0 432 288" style="enable-background:new 0 0 432 288;" xml:space="preserve">
<style type="text/css">
	.st0{fill:#EFEFEF;}
	.st1{fill:#C1C1C1;}
	.st2{fill:#121551;}
	.st3{fill:#257C29;}
</style>
<rect x="10.8" y="11.1" class="st0" width="410.4" height="265.7"/>
<path class="st1" d="M261.9,115.7c0.1,40.6-33.4,74.1-74,74.2c-41.2,0.1-74.7-33.3-74.7-74.6c0-40.7,33.5-74.2,74.1-74.2
	C228.6,41.1,261.9,74.3,261.9,115.7z M149.6,77.6c-4.4-0.6-7.1,1-7.2,4.3c-0.2,4.2,2.8,4.8,6.1,5.2c6.7,0.9,13.5,1.8,20.2,2.8
	c1.8,0.3,4.2,0,4.1,3c-0.6,11.6,1.5,23.2-1.9,34.7c-3.5,12.1-6.5,24.4-9.7,36.6c-1,3.9,0.4,7,3.4,8c3.2,1,5.6-0.6,7-4.9
	c1-2.9,1.9-5.9,2.7-8.8c3-9.7,5.9-19.5,8.9-29.2c0.4-1.2,1.4-2.4,2.5-3c0.7-0.4,2.2,0.2,2.9,0.9c0.7,0.7,0.9,2,1.2,3.1
	c4.1,12.1,8.2,24.2,12.4,36.2c1.6,4.6,4,6.4,7.2,5.3c3.3-1.1,4.3-3.9,3-8.4c-1.9-6.4-3.5-12.8-5.7-19c-5.4-15.4-8.9-31-7.5-47.5
	c0.5-6.5,0.1-6.4,6.5-7.2c7.4-0.9,14.8-1.9,22.1-2.8c3.2-0.4,4.7-2.4,4.5-5.2c-0.2-3-2.4-4.5-5.4-4.4c-1.5,0-2.9,0.3-4.4,0.4
	c-12.8,0.8-25.5,2.2-38.3,2.2C172.9,79.9,161.3,78.4,149.6,77.6z M195.9,65.5c0-5.1-4.1-9.4-9-9.5c-5.3-0.2-9.7,4-9.8,9.3
	c-0.1,5.2,4.1,9.7,9.3,9.8C191.5,75.2,195.9,70.8,195.9,65.5z"/>
<g>
	<g>
		<path class="st2" d="M113.1,216.1c-3.5-3.5-6.8-6.8-10.1-10.1c9.9-11.5,7.3-26.8-0.7-35c-8.2-8.4-23.5-11.6-35.6-1.4
			c-3.3-3.3-6.6-6.6-10-10c4.3-4,9.3-7,15.1-8.8c0.6-0.2,1.3-0.5,1.9-0.6c3.1-0.1,5-2.1,6.8-4.3c5.1-6,10.3-11.8,15.5-17.7
			c0.2-0.2,0.3-0.4,0.6-0.8c-3.6-2.1-7.2-4.3-10.8-6.4c-4.3,3.9-8.7,7.8-13,11.6c-4.3,3.8-10.4,2.6-12.7-2.6c-1.4-3.1-0.6-6.5,2.2-9
			c5.7-5.2,11.5-10.3,17.3-15.4c2.6-2.3,5.9-2.7,9-0.9c11.9,6.8,23.7,13.7,35.6,20.6c4.4,2.6,5.7,8.8,2.5,12.8
			c-3.6,4.6-7.6,8.8-11.4,13.2c-1.3,1.4-2.5,2.9-4,4.5c0.6,0.1,1,0.1,1.4,0.1c7.7-0.4,15.4-0.8,23.1-1.3c3.5-0.2,6.8-0.1,9.1,3.1
			c1.6,2.1,1.7,4.5,1.4,6.9c-0.4,5.2-0.9,10.3-1.3,15.5c-0.6,7.7-1.3,15.4-1.9,23.1c-0.3,3.7-2.8,6.6-6.1,7.2
			c-3.7,0.7-7.2-1-8.7-4.6c-0.6-1.4-0.7-3.2-0.6-4.8c0.3-5.1,0.8-10.1,1.2-15.2c0.4-5,0.8-10,1.2-15.3c-3.5,0.2-6.8,0.3-10.5,0.5
			c3.3,7.7,4.8,15.4,3.5,23.6C121.9,203,118.5,210.1,113.1,216.1z"/>
		<path class="st2" d="M52.4,164.4c0.2,0.1,0.4,0.2,0.5,0.4c3.2,3.2,6.4,6.4,9.6,9.6c-8,13-3.8,25.6,3.2,32.7
			c6.5,6.5,19.1,11.4,32.4,3.3c3.3,3.4,6.7,6.7,10,10c-11.6,10.3-35.6,13.3-52.3-3.1C39.8,201.7,41,177.8,52.4,164.4z"/>
		<path class="st2" d="M142.9,110.3c0.1,7-5.8,13-12.8,13.1c-7.1,0.1-13.3-5.8-13.4-12.7c-0.1-7.3,5.8-13.4,13-13.4
			C137,97.2,142.8,103,142.9,110.3z"/>
	</g>
</g>
<g>
	<path class="st3" d="M262.4,200.8c0,4.9,0.2,9.7,0.9,13H251l-1-6h-0.3c-3.2,4.2-8.9,7.2-16,7.2c-10.9,0-17-7.9-17-16.1
		c0-13.6,12.1-20.6,32.2-20.5v-0.9c0-3.6-1.4-9.5-11-9.5c-5.3,0-10.9,1.7-14.6,4l-2.7-8.9c4-2.4,11-4.8,19.6-4.8
		c17.4,0,22.4,11,22.4,22.9V200.8z M249.1,187.3c-9.7-0.1-18.9,1.9-18.9,10.1c0,5.3,3.5,7.8,7.8,7.8c5.6,0,9.5-3.6,10.8-7.5
		c0.3-1,0.3-2,0.3-3V187.3z"/>
	<path class="st3" d="M284.7,153.8h-0.2l-13.2,6.7l-2.3-10.4l17.7-8.7H298v72.4h-13.2V153.8z"/>
	<path class="st3" d="M324.9,153.8h-0.2l-13.2,6.7l-2.3-10.4l17.7-8.7h11.4v72.4h-13.2V153.8z"/>
	<path class="st3" d="M363.2,159.6l9.7,29.1c1.1,3.3,2.3,7.5,3.1,10.5h0.3c0.8-3,1.8-7.1,2.9-10.6l8.5-28.9h14.6l-13.6,37
		c-7.5,20.3-12.5,29.3-18.8,34.8c-5.5,4.7-11,6.5-14.4,6.9l-3.1-11.5c2.3-0.6,5.1-1.8,7.9-3.8c2.7-1.7,5.7-4.9,7.6-8.6
		c0.6-1,0.8-1.8,0.8-2.4c0-0.6-0.1-1.3-0.7-2.7L348,159.6H363.2z"/>
</g>
</svg>
