<?xml version="1.0" encoding="utf-8"?>
<!-- Generator: Adobe Illustrator 26.1.0, SVG Export Plug-In . SVG Version: 6.00 Build 0)  -->
<svg version="1.1" id="Layer_1" xmlns="http://www.w3.org/2000/svg" xmlns:xlink="http://www.w3.org/1999/xlink" x="0px" y="0px"
	 viewBox="0 0 432 288" style="enable-background:new 0 0 432 288;" xml:space="preserve">
<style type="text/css">
	.st0{fill:#EFEFEF;}
	.st1{fill:#2D3066;}
	.st2{fill:#FFFFFF;}
</style>
<rect x="10.8" y="11.1" class="st0" width="410.4" height="265.7"/>
<path class="st1" d="M165.9,119.5H50.2c-5.7,0-10.3-4.6-10.3-10.3V93.3c0-5.7,4.6-10.3,10.3-10.3h115.7c5.7,0,10.3,4.6,10.3,10.3
	v15.9C176.1,114.9,171.5,119.5,165.9,119.5z"/>
<g>
	<path class="st2" d="M79.6,109c-0.7,0.4-2.3,0.8-4.2,0.8c-4.5,0-7.8-2.8-7.8-8c0-5,3.4-8.3,8.3-8.3c1.9,0,3.2,0.4,3.8,0.7l-0.5,1.7
		c-0.8-0.4-1.9-0.7-3.2-0.7c-3.7,0-6.2,2.4-6.2,6.5c0,3.9,2.2,6.4,6.1,6.4c1.3,0,2.5-0.3,3.4-0.7L79.6,109z"/>
	<path class="st2" d="M82.1,92.8h2.1v16.7h-2.1V92.8z"/>
	<path class="st2" d="M89.9,94.9c0,0.7-0.5,1.3-1.3,1.3c-0.8,0-1.2-0.6-1.2-1.3c0-0.7,0.5-1.3,1.3-1.3
		C89.4,93.6,89.9,94.2,89.9,94.9z M87.6,109.5V98.1h2.1v11.4H87.6z"/>
	<path class="st2" d="M101.2,109.1c-0.5,0.3-1.7,0.7-3.3,0.7c-3.4,0-5.7-2.3-5.7-5.8c0-3.5,2.4-6.1,6.1-6.1c1.2,0,2.3,0.3,2.9,0.6
		l-0.5,1.6c-0.5-0.3-1.3-0.5-2.4-0.5c-2.6,0-4,1.9-4,4.3c0,2.6,1.7,4.2,3.9,4.2c1.2,0,1.9-0.3,2.5-0.5L101.2,109.1z"/>
	<path class="st2" d="M105.7,103.3L105.7,103.3c0.3-0.4,0.7-0.9,1-1.3l3.4-3.9h2.5l-4.4,4.7l5,6.7h-2.5l-3.9-5.4l-1.1,1.2v4.3h-2
		V92.8h2V103.3z"/>
	<path class="st2" d="M119.6,101.2c0-1.2,0-2.1-0.1-3.1h1.8l0.1,1.9h0.1c0.6-1.1,1.7-2.1,3.6-2.1c1.5,0,2.7,0.9,3.2,2.3h0
		c0.4-0.7,0.8-1.1,1.3-1.5c0.7-0.5,1.4-0.8,2.5-0.8c1.5,0,3.8,1,3.8,4.9v6.7h-2v-6.4c0-2.2-0.8-3.5-2.5-3.5c-1.2,0-2.1,0.9-2.5,1.9
		c-0.1,0.3-0.2,0.7-0.2,1v7h-2v-6.8c0-1.8-0.8-3.1-2.4-3.1c-1.3,0-2.2,1-2.6,2.1c-0.1,0.3-0.2,0.7-0.2,1v6.8h-2V101.2z"/>
	<path class="st2" d="M140.4,104.2c0,2.8,1.8,3.9,3.9,3.9c1.5,0,2.4-0.3,3.1-0.6l0.4,1.5c-0.7,0.3-2,0.7-3.8,0.7
		c-3.5,0-5.6-2.3-5.6-5.8c0-3.4,2-6.1,5.3-6.1c3.7,0,4.7,3.2,4.7,5.3c0,0.4,0,0.7-0.1,1H140.4z M146.4,102.7c0-1.3-0.5-3.3-2.9-3.3
		c-2.1,0-3,1.9-3.2,3.3H146.4z"/>
</g>
<g>
	<path class="st1" d="M231.8,102.4h-65.2c-0.7,0-1.2-0.6-1.2-1.2c0-0.7,0.6-1.2,1.2-1.2h65.2c0.7,0,1.2,0.6,1.2,1.2
		C233,101.8,232.4,102.4,231.8,102.4z"/>
</g>
<g>
	<path class="st1" d="M231.8,201.5h-46V101.1c0-0.7,0.6-1.2,1.2-1.2s1.2,0.6,1.2,1.2v97.9h43.5c0.7,0,1.2,0.6,1.2,1.2
		C233,201,232.4,201.5,231.8,201.5z"/>
</g>
<g>
	<path class="st1" d="M231.8,152H187c-0.7,0-1.2-0.6-1.2-1.2s0.6-1.2,1.2-1.2h44.8c0.7,0,1.2,0.6,1.2,1.2S232.4,152,231.8,152z"/>
</g>
<g>
	<path d="M246.3,95.2v1.4c1-0.7,1.7-1.2,2.3-1.4c0.6-0.2,1.1-0.4,1.6-0.4c0.8,0,1.5,0.3,2.2,0.8c0.5,0.4,0.7,0.8,0.7,1.2
		c0,0.3-0.1,0.6-0.3,0.8s-0.5,0.3-0.8,0.3c-0.3,0-0.6-0.1-0.9-0.4c-0.3-0.3-0.6-0.4-0.8-0.4c-0.3,0-0.8,0.2-1.5,0.6
		c-0.6,0.4-1.4,1-2.4,1.8v3.5h3.3c0.6,0,1,0.1,1.2,0.3c0.2,0.2,0.4,0.5,0.4,0.8c0,0.3-0.1,0.6-0.4,0.8c-0.2,0.2-0.6,0.3-1.2,0.3h-7
		c-0.6,0-1-0.1-1.2-0.3c-0.2-0.2-0.4-0.5-0.4-0.8c0-0.3,0.1-0.6,0.4-0.8c0.2-0.2,0.6-0.3,1.2-0.3h1.4v-5.6h-0.8
		c-0.6,0-1-0.1-1.2-0.3c-0.2-0.2-0.4-0.5-0.4-0.8c0-0.3,0.1-0.6,0.4-0.8c0.2-0.2,0.6-0.3,1.2-0.3H246.3z"/>
	<path d="M266.7,100.5c0,0.9-0.2,1.8-0.7,2.6c-0.5,0.8-1.2,1.5-2.2,2c-1,0.5-2,0.7-3.1,0.7c-1.1,0-2.1-0.2-3-0.7
		c-1-0.5-1.7-1.1-2.2-2c-0.5-0.8-0.8-1.7-0.8-2.6c0-0.9,0.3-1.8,0.8-2.7c0.5-0.9,1.2-1.6,2.2-2.1c1-0.5,2-0.8,3-0.8
		c1.1,0,2.1,0.3,3,0.8c1,0.5,1.7,1.2,2.2,2.1C266.4,98.6,266.7,99.6,266.7,100.5z M264.4,100.5c0-0.7-0.3-1.4-0.8-2.1
		c-0.7-0.8-1.7-1.3-2.9-1.3c-1,0-1.9,0.3-2.6,1c-0.7,0.7-1.1,1.4-1.1,2.3c0,0.7,0.4,1.4,1.1,2c0.7,0.6,1.6,0.9,2.6,0.9
		c1,0,1.9-0.3,2.6-0.9C264,101.9,264.4,101.2,264.4,100.5z"/>
	<path d="M275.7,90.8v12.3h2.8c0.6,0,1,0.1,1.2,0.3c0.2,0.2,0.4,0.5,0.4,0.8c0,0.3-0.1,0.6-0.4,0.8c-0.2,0.2-0.6,0.3-1.2,0.3h-7.9
		c-0.6,0-1-0.1-1.2-0.3c-0.2-0.2-0.4-0.5-0.4-0.8c0-0.3,0.1-0.6,0.4-0.8c0.2-0.2,0.6-0.3,1.2-0.3h2.8v-10h-1.9
		c-0.6,0-0.9-0.1-1.2-0.3c-0.2-0.2-0.4-0.5-0.4-0.8c0-0.3,0.1-0.6,0.4-0.8c0.2-0.2,0.6-0.3,1.2-0.3H275.7z"/>
	<path d="M294.3,101.5h-9.5c0.2,0.6,0.7,1.1,1.3,1.5c0.6,0.4,1.4,0.6,2.5,0.6c0.9,0,2-0.2,3.4-0.6c0.6-0.2,1-0.2,1.2-0.2
		c0.3,0,0.6,0.1,0.8,0.3s0.3,0.5,0.3,0.8c0,0.3-0.1,0.6-0.3,0.8c-0.3,0.3-1,0.5-2.2,0.8c-1.2,0.3-2.3,0.4-3.4,0.4
		c-1.9,0-3.3-0.5-4.4-1.6c-1.1-1-1.7-2.3-1.7-3.9c0-1.6,0.6-3,1.8-4c1.2-1,2.6-1.5,4.2-1.5c0.9,0,1.8,0.2,2.6,0.5
		c0.8,0.3,1.4,0.7,1.8,1.1c0.5,0.6,1,1.2,1.3,2.1c0.2,0.6,0.4,1.2,0.4,2V101.5z M291.7,99.2c-0.4-0.7-0.8-1.2-1.4-1.5
		c-0.6-0.3-1.3-0.5-2-0.5c-0.8,0-1.5,0.2-2,0.5s-1,0.8-1.4,1.5H291.7z"/>
</g>
<g>
	<path d="M248.9,154.9v-0.5c-0.6,0.3-1.2,0.5-1.9,0.7c-0.7,0.2-1.3,0.2-1.9,0.2c-1.2,0-2.3-0.3-3-1c-0.8-0.7-1.2-1.4-1.2-2.2
		c0-1,0.5-1.9,1.5-2.7c1-0.8,2.4-1.2,4.1-1.2c0.7,0,1.5,0.1,2.4,0.2v-0.6c0-0.3-0.1-0.6-0.4-0.8c-0.3-0.2-0.9-0.3-1.7-0.3
		c-0.7,0-1.6,0.1-2.7,0.4c-0.4,0.1-0.7,0.1-0.9,0.1c-0.3,0-0.6-0.1-0.8-0.3c-0.2-0.2-0.3-0.5-0.3-0.9c0-0.2,0-0.4,0.1-0.5
		c0.1-0.1,0.2-0.3,0.3-0.3c0.1-0.1,0.4-0.2,0.8-0.3c0.6-0.2,1.2-0.3,1.8-0.4c0.6-0.1,1.1-0.1,1.6-0.1c1.4,0,2.6,0.3,3.4,0.9
		c0.8,0.6,1.2,1.5,1.2,2.6v4.8h0.4c0.6,0,1,0.1,1.2,0.3c0.2,0.2,0.4,0.5,0.4,0.8c0,0.3-0.1,0.6-0.4,0.8c-0.2,0.2-0.6,0.3-1.2,0.3
		H248.9z M248.9,150.7c-0.9-0.2-1.8-0.3-2.6-0.3c-0.9,0-1.8,0.2-2.4,0.7c-0.4,0.3-0.6,0.6-0.6,0.9c0,0.2,0.1,0.4,0.3,0.5
		c0.4,0.2,0.9,0.4,1.5,0.4c0.6,0,1.2-0.1,1.9-0.3c0.7-0.2,1.3-0.5,1.9-0.9V150.7z"/>
	<path d="M260.2,144.6v1.4c1-0.7,1.7-1.2,2.3-1.4c0.6-0.2,1.1-0.4,1.6-0.4c0.8,0,1.5,0.3,2.2,0.8c0.5,0.4,0.7,0.8,0.7,1.2
		c0,0.3-0.1,0.6-0.3,0.8c-0.2,0.2-0.5,0.3-0.8,0.3c-0.3,0-0.6-0.1-0.9-0.4c-0.3-0.3-0.6-0.4-0.8-0.4c-0.3,0-0.8,0.2-1.5,0.6
		c-0.6,0.4-1.4,1-2.4,1.8v3.5h3.3c0.6,0,1,0.1,1.2,0.3c0.2,0.2,0.4,0.5,0.4,0.8c0,0.3-0.1,0.6-0.4,0.8c-0.2,0.2-0.6,0.3-1.2,0.3h-7
		c-0.6,0-1-0.1-1.2-0.3c-0.2-0.2-0.4-0.5-0.4-0.8c0-0.3,0.1-0.6,0.4-0.8c0.2-0.2,0.6-0.3,1.2-0.3h1.4v-5.6H257c-0.6,0-1-0.1-1.2-0.3
		c-0.2-0.2-0.4-0.5-0.4-0.8c0-0.3,0.1-0.6,0.4-0.8c0.2-0.2,0.6-0.3,1.2-0.3H260.2z"/>
	<path d="M275.7,144.6v7.9h2.8c0.6,0,1,0.1,1.2,0.3c0.2,0.2,0.4,0.5,0.4,0.8c0,0.3-0.1,0.6-0.4,0.8c-0.2,0.2-0.6,0.3-1.2,0.3h-7.9
		c-0.6,0-1-0.1-1.2-0.3c-0.2-0.2-0.4-0.5-0.4-0.8c0-0.3,0.1-0.6,0.4-0.8c0.2-0.2,0.6-0.3,1.2-0.3h2.8v-5.6h-1.9
		c-0.6,0-0.9-0.1-1.2-0.3c-0.2-0.2-0.4-0.5-0.4-0.8c0-0.3,0.1-0.6,0.4-0.8c0.2-0.2,0.6-0.3,1.2-0.3H275.7z M275.4,140.2v2.5h-2.8
		v-2.5H275.4z"/>
	<path d="M290.5,154.9v-0.5c-0.6,0.3-1.2,0.5-1.9,0.7c-0.7,0.2-1.3,0.2-1.9,0.2c-1.2,0-2.3-0.3-3-1c-0.8-0.7-1.2-1.4-1.2-2.2
		c0-1,0.5-1.9,1.5-2.7c1-0.8,2.4-1.2,4.1-1.2c0.7,0,1.5,0.1,2.4,0.2v-0.6c0-0.3-0.1-0.6-0.4-0.8c-0.3-0.2-0.9-0.3-1.7-0.3
		c-0.7,0-1.6,0.1-2.7,0.4c-0.4,0.1-0.7,0.1-0.9,0.1c-0.3,0-0.6-0.1-0.8-0.3c-0.2-0.2-0.3-0.5-0.3-0.9c0-0.2,0-0.4,0.1-0.5
		c0.1-0.1,0.2-0.3,0.3-0.3c0.1-0.1,0.4-0.2,0.8-0.3c0.6-0.2,1.2-0.3,1.8-0.4c0.6-0.1,1.1-0.1,1.6-0.1c1.4,0,2.6,0.3,3.4,0.9
		c0.8,0.6,1.2,1.5,1.2,2.6v4.8h0.4c0.6,0,1,0.1,1.2,0.3c0.2,0.2,0.4,0.5,0.4,0.8c0,0.3-0.1,0.6-0.4,0.8c-0.2,0.2-0.6,0.3-1.2,0.3
		H290.5z M290.5,150.7c-0.9-0.2-1.8-0.3-2.6-0.3c-0.9,0-1.8,0.2-2.4,0.7c-0.4,0.3-0.6,0.6-0.6,0.9c0,0.2,0.1,0.4,0.3,0.5
		c0.4,0.2,0.9,0.4,1.5,0.4c0.6,0,1.2-0.1,1.9-0.3c0.7-0.2,1.3-0.5,1.9-0.9V150.7z"/>
	<path d="M307.2,149.4h-9.7v-2.1h9.7V149.4z"/>
	<path d="M317.4,140.2v12.3h2.8c0.6,0,1,0.1,1.2,0.3c0.2,0.2,0.4,0.5,0.4,0.8c0,0.3-0.1,0.6-0.4,0.8c-0.2,0.2-0.6,0.3-1.2,0.3h-7.9
		c-0.6,0-1-0.1-1.2-0.3c-0.2-0.2-0.4-0.5-0.4-0.8c0-0.3,0.1-0.6,0.4-0.8c0.2-0.2,0.6-0.3,1.2-0.3h2.8v-10h-1.9
		c-0.6,0-0.9-0.1-1.2-0.3c-0.2-0.2-0.4-0.5-0.4-0.8c0-0.3,0.1-0.6,0.4-0.8c0.2-0.2,0.6-0.3,1.2-0.3H317.4z"/>
	<path d="M332.2,154.9v-0.5c-0.6,0.3-1.2,0.5-1.9,0.7c-0.7,0.2-1.3,0.2-1.9,0.2c-1.2,0-2.3-0.3-3-1c-0.8-0.7-1.2-1.4-1.2-2.2
		c0-1,0.5-1.9,1.5-2.7c1-0.8,2.4-1.2,4.1-1.2c0.7,0,1.5,0.1,2.4,0.2v-0.6c0-0.3-0.1-0.6-0.4-0.8c-0.3-0.2-0.9-0.3-1.7-0.3
		c-0.7,0-1.6,0.1-2.7,0.4c-0.4,0.1-0.7,0.1-0.9,0.1c-0.3,0-0.6-0.1-0.8-0.3c-0.2-0.2-0.3-0.5-0.3-0.9c0-0.2,0-0.4,0.1-0.5
		c0.1-0.1,0.2-0.3,0.3-0.3c0.1-0.1,0.4-0.2,0.8-0.3c0.6-0.2,1.2-0.3,1.8-0.4c0.6-0.1,1.1-0.1,1.6-0.1c1.4,0,2.6,0.3,3.4,0.9
		c0.8,0.6,1.2,1.5,1.2,2.6v4.8h0.4c0.6,0,1,0.1,1.2,0.3c0.2,0.2,0.4,0.5,0.4,0.8c0,0.3-0.1,0.6-0.4,0.8c-0.2,0.2-0.6,0.3-1.2,0.3
		H332.2z M332.2,150.7c-0.9-0.2-1.8-0.3-2.6-0.3c-0.9,0-1.8,0.2-2.4,0.7c-0.4,0.3-0.6,0.6-0.6,0.9c0,0.2,0.1,0.4,0.3,0.5
		c0.4,0.2,0.9,0.4,1.5,0.4c0.6,0,1.2-0.1,1.9-0.3c0.7-0.2,1.3-0.5,1.9-0.9V150.7z"/>
	<path d="M341.1,140.2v5.2c0.6-0.4,1.1-0.6,1.7-0.8c0.6-0.2,1.2-0.3,1.8-0.3c1.6,0,3,0.6,4.1,1.7c1.1,1.1,1.7,2.4,1.7,4
		c0,1.5-0.5,2.8-1.6,3.8c-1.1,1-2.5,1.5-4.2,1.5c-0.6,0-1.2-0.1-1.8-0.2c-0.6-0.2-1.1-0.4-1.7-0.7v0.6h-2.7c-0.6,0-1-0.1-1.2-0.3
		c-0.2-0.2-0.4-0.5-0.4-0.8c0-0.3,0.1-0.6,0.4-0.8c0.2-0.2,0.6-0.3,1.2-0.3h0.4v-10h-0.4c-0.6,0-1-0.1-1.2-0.3
		c-0.2-0.2-0.4-0.5-0.4-0.8c0-0.3,0.1-0.6,0.4-0.8c0.2-0.2,0.6-0.3,1.2-0.3H341.1z M348,150.1c0-1-0.3-1.8-1-2.4
		c-0.7-0.7-1.5-1-2.5-1c-1,0-1.8,0.3-2.5,1c-0.7,0.7-1,1.5-1,2.4c0,0.9,0.3,1.6,0.9,2.1c0.6,0.5,1.5,0.8,2.6,0.8
		c1.1,0,2-0.3,2.6-0.8C347.7,151.6,348,150.9,348,150.1z"/>
	<path d="M363.8,150.9h-9.5c0.2,0.6,0.7,1.1,1.3,1.5c0.6,0.4,1.4,0.6,2.5,0.6c0.9,0,2-0.2,3.4-0.6c0.6-0.2,1-0.2,1.2-0.2
		c0.3,0,0.6,0.1,0.8,0.3s0.3,0.5,0.3,0.8c0,0.3-0.1,0.6-0.3,0.8c-0.3,0.3-1,0.5-2.2,0.8c-1.2,0.3-2.3,0.4-3.4,0.4
		c-1.9,0-3.3-0.5-4.4-1.6c-1.1-1-1.7-2.3-1.7-3.9c0-1.6,0.6-3,1.8-4c1.2-1,2.6-1.5,4.2-1.5c0.9,0,1.8,0.2,2.6,0.5
		c0.8,0.3,1.4,0.7,1.8,1.1c0.5,0.6,1,1.2,1.3,2.1c0.2,0.6,0.4,1.2,0.4,2V150.9z M361.2,148.6c-0.4-0.7-0.8-1.2-1.4-1.5
		c-0.6-0.3-1.3-0.5-2-0.5c-0.8,0-1.5,0.2-2,0.5c-0.6,0.3-1,0.8-1.4,1.5H361.2z"/>
	<path d="M373,140.2v12.3h2.8c0.6,0,1,0.1,1.2,0.3c0.2,0.2,0.4,0.5,0.4,0.8c0,0.3-0.1,0.6-0.4,0.8c-0.2,0.2-0.6,0.3-1.2,0.3h-7.9
		c-0.6,0-1-0.1-1.2-0.3c-0.2-0.2-0.4-0.5-0.4-0.8c0-0.3,0.1-0.6,0.4-0.8c0.2-0.2,0.6-0.3,1.2-0.3h2.8v-10h-1.9
		c-0.6,0-0.9-0.1-1.2-0.3c-0.2-0.2-0.4-0.5-0.4-0.8c0-0.3,0.1-0.6,0.4-0.8c0.2-0.2,0.6-0.3,1.2-0.3H373z"/>
</g>
<g>
	<path d="M248.9,204.5v-0.5c-0.6,0.3-1.2,0.5-1.9,0.7c-0.7,0.2-1.3,0.2-1.9,0.2c-1.2,0-2.3-0.3-3-1c-0.8-0.7-1.2-1.4-1.2-2.2
		c0-1,0.5-1.9,1.5-2.7c1-0.8,2.4-1.2,4.1-1.2c0.7,0,1.5,0.1,2.4,0.2v-0.6c0-0.3-0.1-0.6-0.4-0.8c-0.3-0.2-0.9-0.3-1.7-0.3
		c-0.7,0-1.6,0.1-2.7,0.4c-0.4,0.1-0.7,0.1-0.9,0.1c-0.3,0-0.6-0.1-0.8-0.3c-0.2-0.2-0.3-0.5-0.3-0.9c0-0.2,0-0.4,0.1-0.5
		c0.1-0.1,0.2-0.3,0.3-0.3c0.1-0.1,0.4-0.2,0.8-0.3c0.6-0.2,1.2-0.3,1.8-0.4c0.6-0.1,1.1-0.1,1.6-0.1c1.4,0,2.6,0.3,3.4,0.9
		s1.2,1.5,1.2,2.5v4.8h0.4c0.6,0,1,0.1,1.2,0.3c0.2,0.2,0.4,0.5,0.4,0.8c0,0.3-0.1,0.6-0.4,0.8c-0.2,0.2-0.6,0.3-1.2,0.3H248.9z
		 M248.9,200.3c-0.9-0.2-1.8-0.3-2.6-0.3c-0.9,0-1.8,0.2-2.4,0.7c-0.4,0.3-0.6,0.6-0.6,0.9c0,0.2,0.1,0.4,0.3,0.5
		c0.4,0.2,0.9,0.4,1.5,0.4c0.6,0,1.2-0.1,1.9-0.3c0.7-0.2,1.3-0.5,1.9-0.9V200.3z"/>
	<path d="M260.2,194.2v1.4c1-0.7,1.7-1.2,2.3-1.4c0.6-0.2,1.1-0.4,1.6-0.4c0.8,0,1.5,0.3,2.2,0.8c0.5,0.4,0.7,0.8,0.7,1.2
		c0,0.3-0.1,0.6-0.3,0.8c-0.2,0.2-0.5,0.3-0.8,0.3c-0.3,0-0.6-0.1-0.9-0.4c-0.3-0.3-0.6-0.4-0.8-0.4c-0.3,0-0.8,0.2-1.5,0.6
		c-0.6,0.4-1.4,1-2.4,1.8v3.5h3.3c0.6,0,1,0.1,1.2,0.3c0.2,0.2,0.4,0.5,0.4,0.8c0,0.3-0.1,0.6-0.4,0.8c-0.2,0.2-0.6,0.3-1.2,0.3h-7
		c-0.6,0-1-0.1-1.2-0.3c-0.2-0.2-0.4-0.5-0.4-0.8c0-0.3,0.1-0.6,0.4-0.8c0.2-0.2,0.6-0.3,1.2-0.3h1.4v-5.6H257c-0.6,0-1-0.1-1.2-0.3
		c-0.2-0.2-0.4-0.5-0.4-0.8c0-0.3,0.1-0.6,0.4-0.8c0.2-0.2,0.6-0.3,1.2-0.3H260.2z"/>
	<path d="M275.7,194.2v7.9h2.8c0.6,0,1,0.1,1.2,0.3c0.2,0.2,0.4,0.5,0.4,0.8c0,0.3-0.1,0.6-0.4,0.8c-0.2,0.2-0.6,0.3-1.2,0.3h-7.9
		c-0.6,0-1-0.1-1.2-0.3c-0.2-0.2-0.4-0.5-0.4-0.8c0-0.3,0.1-0.6,0.4-0.8c0.2-0.2,0.6-0.3,1.2-0.3h2.8v-5.6h-1.9
		c-0.6,0-0.9-0.1-1.2-0.3c-0.2-0.2-0.4-0.5-0.4-0.8c0-0.3,0.1-0.6,0.4-0.8c0.2-0.2,0.6-0.3,1.2-0.3H275.7z M275.4,189.8v2.5h-2.8
		v-2.5H275.4z"/>
	<path d="M290.5,204.5v-0.5c-0.6,0.3-1.2,0.5-1.9,0.7c-0.7,0.2-1.3,0.2-1.9,0.2c-1.2,0-2.3-0.3-3-1c-0.8-0.7-1.2-1.4-1.2-2.2
		c0-1,0.5-1.9,1.5-2.7c1-0.8,2.4-1.2,4.1-1.2c0.7,0,1.5,0.1,2.4,0.2v-0.6c0-0.3-0.1-0.6-0.4-0.8c-0.3-0.2-0.9-0.3-1.7-0.3
		c-0.7,0-1.6,0.1-2.7,0.4c-0.4,0.1-0.7,0.1-0.9,0.1c-0.3,0-0.6-0.1-0.8-0.3c-0.2-0.2-0.3-0.5-0.3-0.9c0-0.2,0-0.4,0.1-0.5
		c0.1-0.1,0.2-0.3,0.3-0.3c0.1-0.1,0.4-0.2,0.8-0.3c0.6-0.2,1.2-0.3,1.8-0.4c0.6-0.1,1.1-0.1,1.6-0.1c1.4,0,2.6,0.3,3.4,0.9
		c0.8,0.6,1.2,1.5,1.2,2.5v4.8h0.4c0.6,0,1,0.1,1.2,0.3c0.2,0.2,0.4,0.5,0.4,0.8c0,0.3-0.1,0.6-0.4,0.8c-0.2,0.2-0.6,0.3-1.2,0.3
		H290.5z M290.5,200.3c-0.9-0.2-1.8-0.3-2.6-0.3c-0.9,0-1.8,0.2-2.4,0.7c-0.4,0.3-0.6,0.6-0.6,0.9c0,0.2,0.1,0.4,0.3,0.5
		c0.4,0.2,0.9,0.4,1.5,0.4c0.6,0,1.2-0.1,1.9-0.3c0.7-0.2,1.3-0.5,1.9-0.9V200.3z"/>
	<path d="M307.2,198.9h-9.7v-2.1h9.7V198.9z"/>
	<path d="M313.9,189.8v4.9c0.5-0.3,1-0.5,1.5-0.6c0.5-0.1,1-0.2,1.5-0.2c0.8,0,1.5,0.1,2.1,0.4c0.6,0.3,1.1,0.7,1.6,1.3
		c0.4,0.6,0.6,1.3,0.6,2.2v4.4c0.6,0,1,0.1,1.2,0.2c0.4,0.2,0.5,0.6,0.5,1c0,0.3-0.1,0.6-0.4,0.8c-0.2,0.2-0.6,0.3-1.2,0.3h-2.6
		c-0.6,0-0.9-0.1-1.2-0.3c-0.2-0.2-0.4-0.5-0.4-0.8c0-0.4,0.2-0.8,0.5-1c0.2-0.1,0.6-0.2,1.2-0.2v-4.2c0-0.6-0.1-1-0.4-1.3
		c-0.4-0.3-0.9-0.5-1.6-0.5c-0.5,0-1,0.1-1.4,0.3c-0.4,0.2-0.9,0.6-1.6,1.3v4.3c0.6,0,1,0.1,1.2,0.2c0.4,0.2,0.6,0.6,0.6,1
		c0,0.3-0.1,0.6-0.4,0.8c-0.2,0.2-0.6,0.3-1.2,0.3h-2.6c-0.6,0-1-0.1-1.2-0.3c-0.2-0.2-0.4-0.5-0.4-0.8c0-0.4,0.2-0.8,0.6-1
		c0.2-0.1,0.6-0.2,1.2-0.2v-10h-0.4c-0.6,0-1-0.1-1.2-0.3c-0.2-0.2-0.4-0.5-0.4-0.8c0-0.3,0.1-0.6,0.4-0.8c0.2-0.2,0.6-0.3,1.2-0.3
		H313.9z"/>
	<path d="M331.3,194.2v7.9h2.8c0.6,0,1,0.1,1.2,0.3c0.2,0.2,0.4,0.5,0.4,0.8c0,0.3-0.1,0.6-0.4,0.8c-0.2,0.2-0.6,0.3-1.2,0.3h-7.9
		c-0.6,0-1-0.1-1.2-0.3c-0.2-0.2-0.4-0.5-0.4-0.8c0-0.3,0.1-0.6,0.4-0.8c0.2-0.2,0.6-0.3,1.2-0.3h2.8v-5.6h-1.9
		c-0.6,0-0.9-0.1-1.2-0.3c-0.2-0.2-0.4-0.5-0.4-0.8c0-0.3,0.1-0.6,0.4-0.8c0.2-0.2,0.6-0.3,1.2-0.3H331.3z M331,189.8v2.5h-2.8v-2.5
		H331z"/>
	<path d="M349.4,189.8v12.3h0.4c0.6,0,0.9,0.1,1.2,0.3c0.2,0.2,0.4,0.5,0.4,0.8c0,0.3-0.1,0.6-0.4,0.8c-0.2,0.2-0.6,0.3-1.2,0.3H347
		v-0.6c-0.5,0.3-1.1,0.5-1.7,0.7c-0.6,0.2-1.2,0.2-1.8,0.2c-1.7,0-3.1-0.5-4.2-1.5c-1.1-1-1.6-2.3-1.6-3.8c0-1.6,0.6-2.9,1.7-4
		c1.1-1.1,2.5-1.7,4.1-1.7c0.6,0,1.2,0.1,1.8,0.3c0.6,0.2,1.2,0.5,1.7,0.8v-2.9h-0.4c-0.6,0-1-0.1-1.2-0.3c-0.2-0.2-0.4-0.5-0.4-0.8
		c0-0.3,0.1-0.6,0.4-0.8c0.2-0.2,0.6-0.3,1.2-0.3H349.4z M347,199.6c0-1-0.3-1.8-1-2.4c-0.7-0.7-1.5-1-2.5-1c-1,0-1.8,0.3-2.5,1
		c-0.7,0.7-1,1.5-1,2.4c0,0.9,0.3,1.6,0.9,2.1c0.6,0.5,1.5,0.8,2.6,0.8c1.1,0,1.9-0.3,2.6-0.8C346.7,201.1,347,200.5,347,199.6z"/>
	<path d="M363.3,189.8v12.3h0.4c0.6,0,0.9,0.1,1.2,0.3c0.2,0.2,0.4,0.5,0.4,0.8c0,0.3-0.1,0.6-0.4,0.8c-0.2,0.2-0.6,0.3-1.2,0.3
		h-2.7v-0.6c-0.5,0.3-1.1,0.5-1.7,0.7c-0.6,0.2-1.2,0.2-1.8,0.2c-1.7,0-3.1-0.5-4.2-1.5c-1.1-1-1.6-2.3-1.6-3.8c0-1.6,0.6-2.9,1.7-4
		c1.1-1.1,2.5-1.7,4.1-1.7c0.6,0,1.2,0.1,1.8,0.3c0.6,0.2,1.2,0.5,1.7,0.8v-2.9h-0.4c-0.6,0-1-0.1-1.2-0.3c-0.2-0.2-0.4-0.5-0.4-0.8
		c0-0.3,0.1-0.6,0.4-0.8c0.2-0.2,0.6-0.3,1.2-0.3H363.3z M360.9,199.6c0-1-0.3-1.8-1-2.4c-0.7-0.7-1.5-1-2.5-1c-1,0-1.8,0.3-2.5,1
		c-0.7,0.7-1,1.5-1,2.4c0,0.9,0.3,1.6,0.9,2.1c0.6,0.5,1.5,0.8,2.6,0.8c1.1,0,1.9-0.3,2.6-0.8C360.6,201.1,360.9,200.5,360.9,199.6z
		"/>
	<path d="M377.6,200.5h-9.5c0.2,0.6,0.7,1.1,1.3,1.5c0.6,0.4,1.4,0.6,2.5,0.6c0.9,0,2-0.2,3.4-0.6c0.6-0.2,1-0.2,1.2-0.2
		c0.3,0,0.6,0.1,0.8,0.3c0.2,0.2,0.3,0.5,0.3,0.8c0,0.3-0.1,0.6-0.3,0.8c-0.3,0.3-1,0.5-2.2,0.8c-1.2,0.3-2.3,0.4-3.4,0.4
		c-1.9,0-3.3-0.5-4.4-1.6s-1.7-2.3-1.7-3.9c0-1.6,0.6-3,1.8-4c1.2-1,2.6-1.5,4.2-1.5c0.9,0,1.8,0.2,2.6,0.5c0.8,0.3,1.4,0.7,1.8,1.1
		c0.5,0.6,1,1.2,1.3,2.1c0.2,0.6,0.4,1.2,0.4,2V200.5z M375.1,198.2c-0.4-0.7-0.8-1.2-1.4-1.5c-0.6-0.3-1.3-0.5-2-0.5
		c-0.8,0-1.5,0.2-2,0.5c-0.6,0.3-1,0.8-1.4,1.5H375.1z"/>
	<path d="M383.4,194.2v0.8c0.4-0.4,0.9-0.6,1.4-0.8c0.5-0.2,1.1-0.3,1.7-0.3c1.4,0,2.5,0.4,3.3,1.3c0.6,0.7,1,1.6,1,2.7v4.3
		c0.5,0,0.9,0.1,1.1,0.3c0.2,0.2,0.4,0.5,0.4,0.8c0,0.3-0.1,0.6-0.4,0.8c-0.2,0.2-0.6,0.3-1.2,0.3h-2.1c-0.6,0-1-0.1-1.2-0.3
		c-0.2-0.2-0.4-0.5-0.4-0.8c0-0.3,0.1-0.6,0.4-0.8c0.2-0.2,0.6-0.3,1.1-0.3v-4.4c0-0.5-0.1-0.9-0.4-1.1c-0.4-0.3-0.9-0.5-1.6-0.5
		c-0.5,0-1,0.1-1.4,0.3c-0.4,0.2-0.9,0.6-1.5,1.3v4.3c0.6,0,1,0.1,1.2,0.2c0.4,0.2,0.6,0.6,0.6,1c0,0.3-0.1,0.6-0.4,0.8
		c-0.2,0.2-0.6,0.3-1.2,0.3h-2.6c-0.6,0-1-0.1-1.2-0.3c-0.2-0.2-0.4-0.5-0.4-0.8c0-0.4,0.2-0.8,0.5-1c0.2-0.1,0.6-0.2,1.2-0.2v-5.6
		c-0.5,0-0.9-0.1-1.1-0.3c-0.2-0.2-0.4-0.5-0.4-0.8c0-0.3,0.1-0.6,0.4-0.8c0.2-0.2,0.6-0.3,1.2-0.3H383.4z"/>
</g>
</svg>
