<?xml version="1.0" encoding="utf-8"?>
<!-- Generator: Adobe Illustrator 26.0.3, SVG Export Plug-In . SVG Version: 6.00 Build 0)  -->
<svg version="1.1" id="Layer_1" xmlns="http://www.w3.org/2000/svg" xmlns:xlink="http://www.w3.org/1999/xlink" x="0px" y="0px"
	 viewBox="0 0 432 288" style="enable-background:new 0 0 432 288;" xml:space="preserve">
<style type="text/css">
	.st0{fill:#EFEFEF;}
	.st1{fill:#404040;}
	.st2{fill:#808080;}
</style>
<rect x="10.8" y="11.1" class="st0" width="410.4" height="265.7"/>
<g>
	<path class="st1" d="M194.1,99.2c-3.5,2.6-6.6,5.8-9.3,9.6c-6.8,9.8-10.4,22.9-10.4,38.1c0,3.3,0.3,6.6,0.8,9.9c-1,0.6-2,1.2-3,1.7
		c-0.1,0-0.1,0.1-0.2,0.1c-0.6,0.3-1.1,0.5-1.7,0.8c-0.1,0-0.1,0-0.2,0.1c-1.2,0.5-2.5,0.8-3.7,1.1c-0.2,0-0.3,0.1-0.5,0.1
		c-0.5,0.1-0.9,0.2-1.4,0.2c-0.2,0-0.3,0-0.5,0c-0.6,0.1-1.2,0.1-1.8,0.1c-0.6,0-1.2,0-1.8-0.1c-0.2,0-0.3,0-0.5,0
		c-0.4-0.1-0.9-0.1-1.3-0.2c-0.2,0-0.3-0.1-0.5-0.1c-1.2-0.3-2.5-0.6-3.7-1.1c-0.1,0-0.1,0-0.2-0.1c-0.6-0.2-1.1-0.5-1.7-0.8
		c-0.1,0-0.1-0.1-0.2-0.1c-1.9-0.9-3.8-2.1-5.7-3.5c-10.1-7.8-18.2-22.4-18.2-39.1c0-24.9,11.7-45.1,33.8-45.1
		C179.2,70.8,190,82.5,194.1,99.2z"/>
	<path class="st1" d="M194.5,192.3l-0.4,2.7c-0.7,5-1.6,7.5-2.3,8.8c-1.1,1.3-7.3,3.1-11.9,4.5c-1.3,0.4-2.6,0.8-4,1.2H86
		c12-34.6,53.4-32.4,57.8-40.3c1.3-2.3,2-5.7,2.5-9.4c5.1,3.5,10.7,5.4,16,5.4c4.6,0,9.3-1.4,13.8-4
		C179,173.4,185.5,184.6,194.5,192.3z"/>
</g>
<g>
	<path class="st2" d="M263.3,112.9L263.3,112.9C263.3,112.9,263.3,112.9,263.3,112.9c1.6,1.3,3.4,2.3,5.1,3.2c0.1,0,0.1,0.1,0.2,0.1
		c0.5,0.2,1,0.5,1.5,0.7c0.1,0,0.1,0,0.2,0.1c1.1,0.4,2.2,0.8,3.3,1c0.1,0,0.3,0.1,0.4,0.1c0.4,0.1,0.8,0.1,1.2,0.2
		c0.2,0,0.3,0,0.5,0.1c0.5,0,1.1,0.1,1.6,0.1c0.5,0,1.1,0,1.6-0.1c0.2,0,0.3,0,0.5-0.1c0.4,0,0.8-0.1,1.2-0.2c0.1,0,0.3-0.1,0.4-0.1
		c1.1-0.2,2.2-0.6,3.3-1c0.1,0,0.1,0,0.2-0.1c0.5-0.2,1-0.4,1.6-0.7c0.1,0,0.1-0.1,0.2-0.1c11.3-5.5,21.5-20.6,21.5-38.3
		c0-22.4-10.5-40.6-30.4-40.6c-19.9,0-30.4,18.2-30.4,40.6C246.9,92.7,254.2,105.9,263.3,112.9z"/>
	<path class="st2" d="M346,161.9h-89.1c1.1-4.7,1.8-9.7,1.8-15.1c0-6.6-0.7-12.8-2-18.5c1.9-0.8,3.3-1.7,3.9-2.8
		c1.1-2,1.8-5.1,2.3-8.5c4.6,3.1,9.6,4.8,14.4,4.8c4.8,0,9.8-1.7,14.4-4.8c0.4,3.3,1.1,6.4,2.3,8.5
		C297.9,132.7,335.2,130.8,346,161.9z"/>
</g>
<path d="M199.3,190.3L199.3,190.3C199.3,190.3,199.3,190.3,199.3,190.3c2,1.6,4.1,2.9,6.3,3.9c0.1,0,0.1,0.1,0.2,0.1
	c0.6,0.3,1.3,0.6,1.9,0.8c0.1,0,0.1,0.1,0.2,0.1c1.4,0.5,2.7,0.9,4.1,1.2c0.2,0,0.4,0.1,0.5,0.1c0.5,0.1,1,0.2,1.5,0.2
	c0.2,0,0.4,0,0.6,0.1c0.7,0.1,1.3,0.1,2,0.1c0.7,0,1.3,0,2-0.1c0.2,0,0.4,0,0.6-0.1c0.5-0.1,1-0.1,1.5-0.2c0.2,0,0.4-0.1,0.5-0.1
	c1.4-0.3,2.7-0.7,4.1-1.2c0.1,0,0.1-0.1,0.2-0.1c0.6-0.3,1.3-0.5,1.9-0.8c0.1,0,0.1-0.1,0.2-0.1c13.9-6.8,26.5-25.4,26.5-47.3
	c0-27.7-13-50.1-37.5-50.1c-24.6,0-37.5,22.4-37.5,50.1C179,165.4,188,181.6,199.3,190.3z"/>
<path d="M237.2,206c-1.4-2.5-2.3-6.3-2.8-10.4c-5.7,3.9-11.8,6-17.8,6c-6,0-12.1-2.1-17.8-6c-0.5,4.1-1.4,7.9-2.8,10.4
	c-4.9,8.8-50.9,6.4-64.2,44.8h84.9h84.9C288.1,212.4,242,214.8,237.2,206z"/>
</svg>
