<?xml version="1.0" encoding="utf-8"?>
<!-- Generator: Adobe Illustrator 26.0.3, SVG Export Plug-In . SVG Version: 6.00 Build 0)  -->
<svg version="1.1" id="Layer_1" xmlns="http://www.w3.org/2000/svg" xmlns:xlink="http://www.w3.org/1999/xlink" x="0px" y="0px"
	 viewBox="0 0 432 288" style="enable-background:new 0 0 432 288;" xml:space="preserve">
<style type="text/css">
	.st0{fill:#EFEFEF;}
	.st1{fill:#D3D3D3;}
	.st2{fill:#C6C6C6;}
	.st3{fill:#EAEAEA;}
	.st4{fill:none;stroke:#000000;stroke-width:6;stroke-linecap:round;stroke-miterlimit:10;}
	.st5{fill:none;stroke:#000000;stroke-width:3;stroke-linecap:round;stroke-miterlimit:10;}
</style>
<rect x="10.8" y="11.1" class="st0" width="410.4" height="265.7"/>
<path class="st1" d="M29.2,260.7c-1.6,0-3-1.2-3-2.7V29.7c0-1.4,1.4-2.7,3-2.7h373.6c1.6,0,3,1.2,3,2.7v228.5c0,1.4-1.4,2.7-3,2.7
	H29.2V260.7z"/>
<polygon class="st2" points="137.2,204.3 171,144.7 200.9,180.4 246.2,101.3 294.8,204.3 "/>
<circle class="st3" cx="182.7" cy="101.3" r="17.9"/>
<line class="st4" x1="146.7" y1="126.5" x2="285.3" y2="126.5"/>
<line class="st4" x1="168.8" y1="147.1" x2="263.2" y2="147.1"/>
<line class="st5" x1="147.5" y1="193.5" x2="284.5" y2="193.5"/>
<line class="st5" x1="118.8" y1="209" x2="313.2" y2="209"/>
<line class="st5" x1="126.6" y1="224.5" x2="305.4" y2="224.5"/>
</svg>
