<?xml version="1.0" encoding="utf-8"?>
<!-- Generator: Adobe Illustrator 26.2.1, SVG Export Plug-In . SVG Version: 6.00 Build 0)  -->
<svg version="1.1" id="Layer_1" xmlns="http://www.w3.org/2000/svg" xmlns:xlink="http://www.w3.org/1999/xlink" x="0px" y="0px"
	 viewBox="0 0 432 288" style="enable-background:new 0 0 432 288;" xml:space="preserve">
<style type="text/css">
	.st0{fill:#EFEFEF;}
	.st1{fill:#AD4242;}
	.st2{fill:#601818;}
	.st3{fill:#AA8743;}
	.st4{fill:#5E4719;}
</style>
<rect x="10.8" y="11.1" class="st0" width="410.4" height="265.7"/>
<g>
	<circle class="st1" cx="88.1" cy="68.3" r="13.5"/>
	<path class="st2" d="M88.1,83.9c-8.6,0-15.5-7-15.5-15.5s7-15.5,15.5-15.5s15.5,7,15.5,15.5S96.6,83.9,88.1,83.9z M88.1,56.8
		c-6.4,0-11.5,5.2-11.5,11.5s5.2,11.5,11.5,11.5s11.5-5.2,11.5-11.5S94.4,56.8,88.1,56.8z"/>
</g>
<g>
	<circle class="st3" cx="88.1" cy="181.4" r="13.5"/>
	<path class="st4" d="M88.1,196.9c-8.6,0-15.5-7-15.5-15.5s7-15.5,15.5-15.5s15.5,7,15.5,15.5S96.6,196.9,88.1,196.9z M88.1,169.8
		c-6.4,0-11.5,5.2-11.5,11.5c0,6.4,5.2,11.5,11.5,11.5s11.5-5.2,11.5-11.5C99.6,175,94.4,169.8,88.1,169.8z"/>
</g>
<path d="M282.8,81.9h-25.2c-1.1,0-2-0.9-2-2s0.9-2,2-2h21.2V58.7h-21.2c-1.1,0-2-0.9-2-2s0.9-2,2-2h25.2V81.9z"/>
<path d="M321.2,120.3h-25.2c-1.1,0-2-0.9-2-2s0.9-2,2-2h21.2V97h-21.2c-1.1,0-2-0.9-2-2s0.9-2,2-2h25.2V120.3z"/>
<path d="M359.5,158.6h-25.2c-1.1,0-2-0.9-2-2s0.9-2,2-2h21.2v-19.2h-21.2c-1.1,0-2-0.9-2-2s0.9-2,2-2h25.2V158.6z"/>
<path d="M359.5,196.9h-25.2c-1.1,0-2-0.9-2-2s0.9-2,2-2h21.2v-19.2h-21.2c-1.1,0-2-0.9-2-2s0.9-2,2-2h25.2V196.9z"/>
<path d="M359.5,235.2h-25.2c-1.1,0-2-0.9-2-2s0.9-2,2-2h21.2V212h-21.2c-1.1,0-2-0.9-2-2s0.9-2,2-2h25.2V235.2z"/>
<path d="M345.9,144H224.9v-36.3h82.6c0.6,0,1-0.4,1-1s-0.4-1-1-1h-82.6V69.3h44.3c0.6,0,1-0.4,1-1s-0.4-1-1-1H116.7
	c-0.6,0-1,0.4-1,1s0.4,1,1,1h106.2v37.3v1V146h122.9c0.6,0,1-0.4,1-1C346.9,144.4,346.4,144,345.9,144z"/>
<path d="M345.9,220.6H224.9v-36.3h120.9c0.6,0,1-0.4,1-1s-0.4-1-1-1H116.7c-0.6,0-1,0.4-1,1s0.4,1,1,1h106.2v38.3h122.9
	c0.6,0,1-0.4,1-1S346.4,220.6,345.9,220.6z"/>
</svg>
