<?xml version="1.0" encoding="utf-8"?>
<!-- Generator: Adobe Illustrator 26.0.3, SVG Export Plug-In . SVG Version: 6.00 Build 0)  -->
<svg version="1.1" id="Layer_1" xmlns="http://www.w3.org/2000/svg" xmlns:xlink="http://www.w3.org/1999/xlink" x="0px" y="0px"
	 viewBox="0 0 432 288" style="enable-background:new 0 0 432 288;" xml:space="preserve">
<style type="text/css">
	.st0{fill:#EFEFEF;}
	.st1{fill:#ADADAD;}
	.st2{fill:#727272;}
</style>
<rect x="10.8" y="11.1" class="st0" width="410.4" height="265.7"/>
<path class="st1" d="M38,40.8v32.6c0,1.4,1.2,2.6,2.8,2.6h56.5c1.5,0,2.8-1.2,2.8-2.6V40.8c0-1.4-1.2-2.6-2.8-2.6H40.7
	C39.2,38.3,38,39.4,38,40.8z"/>
<path class="st1" d="M144.5,76H197c1.5,0,2.8-1.2,2.8-2.6V40.8c0-1.4-1.2-2.6-2.8-2.6h-88.1c-1.5,0-2.8,1.2-2.8,2.6v32.6
	c0,1.4,1.2,2.6,2.8,2.6h29.4H144.5z"/>
<path class="st1" d="M239.5,38.3h-30.9c-1.5,0-2.8,1.2-2.8,2.6v32.6c0,1.4,1.2,2.6,2.8,2.6h30.9c1.5,0,2.8-1.2,2.8-2.6V40.8
	C242.3,39.4,241.1,38.3,239.5,38.3z"/>
<path class="st1" d="M311.1,76h79.8c1.5,0,2.8-1.2,2.8-2.6V40.8c0-1.4-1.2-2.6-2.8-2.6H251.2c-1.5,0-2.8,1.2-2.8,2.6v32.6
	c0,1.4,1.2,2.6,2.8,2.6H305H311.1z"/>
<path class="st1" d="M106.3,206.5h29.2c1.5,0,2.8-1.2,2.8-2.6v-35.2V163V84.3c0-1.4-1.2-2.6-2.8-2.6h-29.4H100H40.7
	c-1.5,0-2.8,1.2-2.8,2.6v119.5c0,1.4,1.2,2.6,2.8,2.6h65.6V206.5z"/>
<path class="st1" d="M197,163c1.5,0,2.8-1.2,2.8-2.6v-35.2v-5.7V84.3c0-1.4-1.2-2.6-2.8-2.6h-49.7c-1.5,0-2.8,1.2-2.8,2.6v76.1
	c0,1.4,1.2,2.6,2.8,2.6H197z"/>
<path class="st1" d="M305,117V84.3c0-1.4-1.2-2.6-2.8-2.6h-53.8h-6.2h-33.6c-1.5,0-2.8,1.2-2.8,2.6V117c0,1.4,1.2,2.6,2.8,2.6h93.6
	C303.7,119.5,305,118.4,305,117z"/>
<path class="st1" d="M393.7,117V84.3c0-1.4-1.2-2.6-2.8-2.6h-77c-1.5,0-2.8,1.2-2.8,2.6V117c0,1.4,1.2,2.6,2.8,2.6h77
	C392.4,119.5,393.7,118.4,393.7,117z"/>
<path class="st1" d="M208.6,125.3c-1.5,0-2.8,1.2-2.8,2.6V163v5.7V204c0,1.4,1.2,2.6,2.8,2.6h33.6h6.2H305h6.2h79.8
	c1.5,0,2.8-1.2,2.8-2.6v-76.1c0-1.4-1.2-2.6-2.8-2.6h-79.8H305H208.6z"/>
<path class="st1" d="M147.2,206.5H197c1.5,0,2.8-1.2,2.8-2.6v-32.6c0-1.4-1.2-2.6-2.8-2.6h-49.7c-1.5,0-2.8,1.2-2.8,2.6V204
	C144.5,205.4,145.7,206.5,147.2,206.5z"/>
<path class="st1" d="M38.1,214.8v32.5c0,1.4,1.2,2.6,2.8,2.6h56.3c1.5,0,2.8-1.2,2.8-2.6v-32.5c0-1.4-1.2-2.6-2.8-2.6H40.9
	C39.4,212.3,38.1,213.4,38.1,214.8z"/>
<rect x="38.1" y="212.1" class="st1" width="61.9" height="0.2"/>
<path class="st1" d="M199.7,212.3h-55.3h-6.2h-29.2c-1.5,0-2.8,1.2-2.8,2.6v32.6c0,1.4,1.2,2.6,2.8,2.6h130.5c1.5,0,2.8-1.2,2.8-2.6
	v-32.6c0-1.4-1.2-2.6-2.8-2.6h-33.6H199.7z"/>
<rect x="106.2" y="212.3" class="st1" width="0.2" height="37.8"/>
<path class="st1" d="M251.2,250h51c1.5,0,2.8-1.2,2.8-2.6v-32.6c0-1.4-1.2-2.6-2.8-2.6h-51c-1.5,0-2.8,1.2-2.8,2.6v32.6
	C248.5,248.9,249.7,250,251.2,250z"/>
<path class="st1" d="M393.7,247.5v-32.6c0-1.4-1.2-2.6-2.8-2.6h-77c-1.5,0-2.8,1.2-2.8,2.6v32.6c0,1.4,1.2,2.6,2.8,2.6h77
	C392.4,250,393.7,248.9,393.7,247.5z"/>
<g>
	<path class="st2" d="M34.4,28.5c-0.6,0-1-0.4-1-1v-3c0-0.6,0.4-1,1-1s1,0.4,1,1v3C35.4,28,35,28.5,34.4,28.5z"/>
	<path class="st2" d="M34.4,255.4c-0.6,0-1-0.4-1-1v-6c0-0.6,0.4-1,1-1s1,0.4,1,1v6C35.4,255,35,255.4,34.4,255.4z M34.4,243.5
		c-0.6,0-1-0.4-1-1v-6c0-0.6,0.4-1,1-1s1,0.4,1,1v6C35.4,243,35,243.5,34.4,243.5z M34.4,231.5c-0.6,0-1-0.4-1-1v-6c0-0.6,0.4-1,1-1
		s1,0.4,1,1v6C35.4,231.1,35,231.5,34.4,231.5z M34.4,219.6c-0.6,0-1-0.4-1-1v-6c0-0.6,0.4-1,1-1s1,0.4,1,1v6
		C35.4,219.2,35,219.6,34.4,219.6z M34.4,207.7c-0.6,0-1-0.4-1-1v-6c0-0.6,0.4-1,1-1s1,0.4,1,1v6C35.4,207.2,35,207.7,34.4,207.7z
		 M34.4,195.7c-0.6,0-1-0.4-1-1v-6c0-0.6,0.4-1,1-1s1,0.4,1,1v6C35.4,195.3,35,195.7,34.4,195.7z M34.4,183.8c-0.6,0-1-0.4-1-1v-6
		c0-0.6,0.4-1,1-1s1,0.4,1,1v6C35.4,183.3,35,183.8,34.4,183.8z M34.4,171.8c-0.6,0-1-0.4-1-1v-6c0-0.6,0.4-1,1-1s1,0.4,1,1v6
		C35.4,171.4,35,171.8,34.4,171.8z M34.4,159.9c-0.6,0-1-0.4-1-1v-6c0-0.6,0.4-1,1-1s1,0.4,1,1v6C35.4,159.4,35,159.9,34.4,159.9z
		 M34.4,147.9c-0.6,0-1-0.4-1-1v-6c0-0.6,0.4-1,1-1s1,0.4,1,1v6C35.4,147.5,35,147.9,34.4,147.9z M34.4,136c-0.6,0-1-0.4-1-1v-6
		c0-0.6,0.4-1,1-1s1,0.4,1,1v6C35.4,135.5,35,136,34.4,136z M34.4,124c-0.6,0-1-0.4-1-1v-6c0-0.6,0.4-1,1-1s1,0.4,1,1v6
		C35.4,123.6,35,124,34.4,124z M34.4,112.1c-0.6,0-1-0.4-1-1v-6c0-0.6,0.4-1,1-1s1,0.4,1,1v6C35.4,111.6,35,112.1,34.4,112.1z
		 M34.4,100.1c-0.6,0-1-0.4-1-1v-6c0-0.6,0.4-1,1-1s1,0.4,1,1v6C35.4,99.7,35,100.1,34.4,100.1z M34.4,88.2c-0.6,0-1-0.4-1-1v-6
		c0-0.6,0.4-1,1-1s1,0.4,1,1v6C35.4,87.8,35,88.2,34.4,88.2z M34.4,76.3c-0.6,0-1-0.4-1-1v-6c0-0.6,0.4-1,1-1s1,0.4,1,1v6
		C35.4,75.8,35,76.3,34.4,76.3z M34.4,64.3c-0.6,0-1-0.4-1-1v-6c0-0.6,0.4-1,1-1s1,0.4,1,1v6C35.4,63.9,35,64.3,34.4,64.3z
		 M34.4,52.4c-0.6,0-1-0.4-1-1v-6c0-0.6,0.4-1,1-1s1,0.4,1,1v6C35.4,51.9,35,52.4,34.4,52.4z M34.4,40.4c-0.6,0-1-0.4-1-1v-6
		c0-0.6,0.4-1,1-1s1,0.4,1,1v6C35.4,40,35,40.4,34.4,40.4z"/>
	<path class="st2" d="M34.4,264.4c-0.6,0-1-0.4-1-1v-3c0-0.6,0.4-1,1-1s1,0.4,1,1v3C35.4,264,35,264.4,34.4,264.4z"/>
</g>
<g>
	<path class="st2" d="M103.1,28.5c-0.6,0-1-0.4-1-1v-3c0-0.6,0.4-1,1-1s1,0.4,1,1v3C104.1,28,103.6,28.5,103.1,28.5z"/>
	<path class="st2" d="M103.1,255.4c-0.6,0-1-0.4-1-1v-6c0-0.6,0.4-1,1-1s1,0.4,1,1v6C104.1,255,103.6,255.4,103.1,255.4z
		 M103.1,243.5c-0.6,0-1-0.4-1-1v-6c0-0.6,0.4-1,1-1s1,0.4,1,1v6C104.1,243,103.6,243.5,103.1,243.5z M103.1,231.5c-0.6,0-1-0.4-1-1
		v-6c0-0.6,0.4-1,1-1s1,0.4,1,1v6C104.1,231.1,103.6,231.5,103.1,231.5z M103.1,219.6c-0.6,0-1-0.4-1-1v-6c0-0.6,0.4-1,1-1
		s1,0.4,1,1v6C104.1,219.2,103.6,219.6,103.1,219.6z M103.1,207.7c-0.6,0-1-0.4-1-1v-6c0-0.6,0.4-1,1-1s1,0.4,1,1v6
		C104.1,207.2,103.6,207.7,103.1,207.7z M103.1,195.7c-0.6,0-1-0.4-1-1v-6c0-0.6,0.4-1,1-1s1,0.4,1,1v6
		C104.1,195.3,103.6,195.7,103.1,195.7z M103.1,183.8c-0.6,0-1-0.4-1-1v-6c0-0.6,0.4-1,1-1s1,0.4,1,1v6
		C104.1,183.3,103.6,183.8,103.1,183.8z M103.1,171.8c-0.6,0-1-0.4-1-1v-6c0-0.6,0.4-1,1-1s1,0.4,1,1v6
		C104.1,171.4,103.6,171.8,103.1,171.8z M103.1,159.9c-0.6,0-1-0.4-1-1v-6c0-0.6,0.4-1,1-1s1,0.4,1,1v6
		C104.1,159.4,103.6,159.9,103.1,159.9z M103.1,147.9c-0.6,0-1-0.4-1-1v-6c0-0.6,0.4-1,1-1s1,0.4,1,1v6
		C104.1,147.5,103.6,147.9,103.1,147.9z M103.1,136c-0.6,0-1-0.4-1-1v-6c0-0.6,0.4-1,1-1s1,0.4,1,1v6
		C104.1,135.5,103.6,136,103.1,136z M103.1,124c-0.6,0-1-0.4-1-1v-6c0-0.6,0.4-1,1-1s1,0.4,1,1v6C104.1,123.6,103.6,124,103.1,124z
		 M103.1,112.1c-0.6,0-1-0.4-1-1v-6c0-0.6,0.4-1,1-1s1,0.4,1,1v6C104.1,111.6,103.6,112.1,103.1,112.1z M103.1,100.1
		c-0.6,0-1-0.4-1-1v-6c0-0.6,0.4-1,1-1s1,0.4,1,1v6C104.1,99.7,103.6,100.1,103.1,100.1z M103.1,88.2c-0.6,0-1-0.4-1-1v-6
		c0-0.6,0.4-1,1-1s1,0.4,1,1v6C104.1,87.8,103.6,88.2,103.1,88.2z M103.1,76.3c-0.6,0-1-0.4-1-1v-6c0-0.6,0.4-1,1-1s1,0.4,1,1v6
		C104.1,75.8,103.6,76.3,103.1,76.3z M103.1,64.3c-0.6,0-1-0.4-1-1v-6c0-0.6,0.4-1,1-1s1,0.4,1,1v6
		C104.1,63.9,103.6,64.3,103.1,64.3z M103.1,52.4c-0.6,0-1-0.4-1-1v-6c0-0.6,0.4-1,1-1s1,0.4,1,1v6
		C104.1,51.9,103.6,52.4,103.1,52.4z M103.1,40.4c-0.6,0-1-0.4-1-1v-6c0-0.6,0.4-1,1-1s1,0.4,1,1v6C104.1,40,103.6,40.4,103.1,40.4z
		"/>
	<path class="st2" d="M103.1,264.4c-0.6,0-1-0.4-1-1v-3c0-0.6,0.4-1,1-1s1,0.4,1,1v3C104.1,264,103.6,264.4,103.1,264.4z"/>
</g>
<g>
	<path class="st2" d="M141.4,28.5c-0.6,0-1-0.4-1-1v-3c0-0.6,0.4-1,1-1s1,0.4,1,1v3C142.4,28,141.9,28.5,141.4,28.5z"/>
	<path class="st2" d="M141.4,255.4c-0.6,0-1-0.4-1-1v-6c0-0.6,0.4-1,1-1s1,0.4,1,1v6C142.4,255,141.9,255.4,141.4,255.4z
		 M141.4,243.5c-0.6,0-1-0.4-1-1v-6c0-0.6,0.4-1,1-1s1,0.4,1,1v6C142.4,243,141.9,243.5,141.4,243.5z M141.4,231.5c-0.6,0-1-0.4-1-1
		v-6c0-0.6,0.4-1,1-1s1,0.4,1,1v6C142.4,231.1,141.9,231.5,141.4,231.5z M141.4,219.6c-0.6,0-1-0.4-1-1v-6c0-0.6,0.4-1,1-1
		s1,0.4,1,1v6C142.4,219.2,141.9,219.6,141.4,219.6z M141.4,207.7c-0.6,0-1-0.4-1-1v-6c0-0.6,0.4-1,1-1s1,0.4,1,1v6
		C142.4,207.2,141.9,207.7,141.4,207.7z M141.4,195.7c-0.6,0-1-0.4-1-1v-6c0-0.6,0.4-1,1-1s1,0.4,1,1v6
		C142.4,195.3,141.9,195.7,141.4,195.7z M141.4,183.8c-0.6,0-1-0.4-1-1v-6c0-0.6,0.4-1,1-1s1,0.4,1,1v6
		C142.4,183.3,141.9,183.8,141.4,183.8z M141.4,171.8c-0.6,0-1-0.4-1-1v-6c0-0.6,0.4-1,1-1s1,0.4,1,1v6
		C142.4,171.4,141.9,171.8,141.4,171.8z M141.4,159.9c-0.6,0-1-0.4-1-1v-6c0-0.6,0.4-1,1-1s1,0.4,1,1v6
		C142.4,159.4,141.9,159.9,141.4,159.9z M141.4,147.9c-0.6,0-1-0.4-1-1v-6c0-0.6,0.4-1,1-1s1,0.4,1,1v6
		C142.4,147.5,141.9,147.9,141.4,147.9z M141.4,136c-0.6,0-1-0.4-1-1v-6c0-0.6,0.4-1,1-1s1,0.4,1,1v6
		C142.4,135.5,141.9,136,141.4,136z M141.4,124c-0.6,0-1-0.4-1-1v-6c0-0.6,0.4-1,1-1s1,0.4,1,1v6C142.4,123.6,141.9,124,141.4,124z
		 M141.4,112.1c-0.6,0-1-0.4-1-1v-6c0-0.6,0.4-1,1-1s1,0.4,1,1v6C142.4,111.6,141.9,112.1,141.4,112.1z M141.4,100.1
		c-0.6,0-1-0.4-1-1v-6c0-0.6,0.4-1,1-1s1,0.4,1,1v6C142.4,99.7,141.9,100.1,141.4,100.1z M141.4,88.2c-0.6,0-1-0.4-1-1v-6
		c0-0.6,0.4-1,1-1s1,0.4,1,1v6C142.4,87.8,141.9,88.2,141.4,88.2z M141.4,76.3c-0.6,0-1-0.4-1-1v-6c0-0.6,0.4-1,1-1s1,0.4,1,1v6
		C142.4,75.8,141.9,76.3,141.4,76.3z M141.4,64.3c-0.6,0-1-0.4-1-1v-6c0-0.6,0.4-1,1-1s1,0.4,1,1v6
		C142.4,63.9,141.9,64.3,141.4,64.3z M141.4,52.4c-0.6,0-1-0.4-1-1v-6c0-0.6,0.4-1,1-1s1,0.4,1,1v6
		C142.4,51.9,141.9,52.4,141.4,52.4z M141.4,40.4c-0.6,0-1-0.4-1-1v-6c0-0.6,0.4-1,1-1s1,0.4,1,1v6C142.4,40,141.9,40.4,141.4,40.4z
		"/>
	<path class="st2" d="M141.4,264.4c-0.6,0-1-0.4-1-1v-3c0-0.6,0.4-1,1-1s1,0.4,1,1v3C142.4,264,141.9,264.4,141.4,264.4z"/>
</g>
<g>
	<path class="st2" d="M202.8,28.5c-0.6,0-1-0.4-1-1v-3c0-0.6,0.4-1,1-1s1,0.4,1,1v3C203.8,28,203.4,28.5,202.8,28.5z"/>
	<path class="st2" d="M202.8,255.4c-0.6,0-1-0.4-1-1v-6c0-0.6,0.4-1,1-1s1,0.4,1,1v6C203.8,255,203.4,255.4,202.8,255.4z
		 M202.8,243.5c-0.6,0-1-0.4-1-1v-6c0-0.6,0.4-1,1-1s1,0.4,1,1v6C203.8,243,203.4,243.5,202.8,243.5z M202.8,231.5c-0.6,0-1-0.4-1-1
		v-6c0-0.6,0.4-1,1-1s1,0.4,1,1v6C203.8,231.1,203.4,231.5,202.8,231.5z M202.8,219.6c-0.6,0-1-0.4-1-1v-6c0-0.6,0.4-1,1-1
		s1,0.4,1,1v6C203.8,219.2,203.4,219.6,202.8,219.6z M202.8,207.7c-0.6,0-1-0.4-1-1v-6c0-0.6,0.4-1,1-1s1,0.4,1,1v6
		C203.8,207.2,203.4,207.7,202.8,207.7z M202.8,195.7c-0.6,0-1-0.4-1-1v-6c0-0.6,0.4-1,1-1s1,0.4,1,1v6
		C203.8,195.3,203.4,195.7,202.8,195.7z M202.8,183.8c-0.6,0-1-0.4-1-1v-6c0-0.6,0.4-1,1-1s1,0.4,1,1v6
		C203.8,183.3,203.4,183.8,202.8,183.8z M202.8,171.8c-0.6,0-1-0.4-1-1v-6c0-0.6,0.4-1,1-1s1,0.4,1,1v6
		C203.8,171.4,203.4,171.8,202.8,171.8z M202.8,159.9c-0.6,0-1-0.4-1-1v-6c0-0.6,0.4-1,1-1s1,0.4,1,1v6
		C203.8,159.4,203.4,159.9,202.8,159.9z M202.8,147.9c-0.6,0-1-0.4-1-1v-6c0-0.6,0.4-1,1-1s1,0.4,1,1v6
		C203.8,147.5,203.4,147.9,202.8,147.9z M202.8,136c-0.6,0-1-0.4-1-1v-6c0-0.6,0.4-1,1-1s1,0.4,1,1v6
		C203.8,135.5,203.4,136,202.8,136z M202.8,124c-0.6,0-1-0.4-1-1v-6c0-0.6,0.4-1,1-1s1,0.4,1,1v6C203.8,123.6,203.4,124,202.8,124z
		 M202.8,112.1c-0.6,0-1-0.4-1-1v-6c0-0.6,0.4-1,1-1s1,0.4,1,1v6C203.8,111.6,203.4,112.1,202.8,112.1z M202.8,100.1
		c-0.6,0-1-0.4-1-1v-6c0-0.6,0.4-1,1-1s1,0.4,1,1v6C203.8,99.7,203.4,100.1,202.8,100.1z M202.8,88.2c-0.6,0-1-0.4-1-1v-6
		c0-0.6,0.4-1,1-1s1,0.4,1,1v6C203.8,87.8,203.4,88.2,202.8,88.2z M202.8,76.3c-0.6,0-1-0.4-1-1v-6c0-0.6,0.4-1,1-1s1,0.4,1,1v6
		C203.8,75.8,203.4,76.3,202.8,76.3z M202.8,64.3c-0.6,0-1-0.4-1-1v-6c0-0.6,0.4-1,1-1s1,0.4,1,1v6
		C203.8,63.9,203.4,64.3,202.8,64.3z M202.8,52.4c-0.6,0-1-0.4-1-1v-6c0-0.6,0.4-1,1-1s1,0.4,1,1v6
		C203.8,51.9,203.4,52.4,202.8,52.4z M202.8,40.4c-0.6,0-1-0.4-1-1v-6c0-0.6,0.4-1,1-1s1,0.4,1,1v6C203.8,40,203.4,40.4,202.8,40.4z
		"/>
	<path class="st2" d="M202.8,264.4c-0.6,0-1-0.4-1-1v-3c0-0.6,0.4-1,1-1s1,0.4,1,1v3C203.8,264,203.4,264.4,202.8,264.4z"/>
</g>
<g>
	<path class="st2" d="M245.4,28.5c-0.6,0-1-0.4-1-1v-3c0-0.6,0.4-1,1-1s1,0.4,1,1v3C246.4,28,245.9,28.5,245.4,28.5z"/>
	<path class="st2" d="M245.4,255.4c-0.6,0-1-0.4-1-1v-6c0-0.6,0.4-1,1-1s1,0.4,1,1v6C246.4,255,245.9,255.4,245.4,255.4z
		 M245.4,243.5c-0.6,0-1-0.4-1-1v-6c0-0.6,0.4-1,1-1s1,0.4,1,1v6C246.4,243,245.9,243.5,245.4,243.5z M245.4,231.5c-0.6,0-1-0.4-1-1
		v-6c0-0.6,0.4-1,1-1s1,0.4,1,1v6C246.4,231.1,245.9,231.5,245.4,231.5z M245.4,219.6c-0.6,0-1-0.4-1-1v-6c0-0.6,0.4-1,1-1
		s1,0.4,1,1v6C246.4,219.2,245.9,219.6,245.4,219.6z M245.4,207.7c-0.6,0-1-0.4-1-1v-6c0-0.6,0.4-1,1-1s1,0.4,1,1v6
		C246.4,207.2,245.9,207.7,245.4,207.7z M245.4,195.7c-0.6,0-1-0.4-1-1v-6c0-0.6,0.4-1,1-1s1,0.4,1,1v6
		C246.4,195.3,245.9,195.7,245.4,195.7z M245.4,183.8c-0.6,0-1-0.4-1-1v-6c0-0.6,0.4-1,1-1s1,0.4,1,1v6
		C246.4,183.3,245.9,183.8,245.4,183.8z M245.4,171.8c-0.6,0-1-0.4-1-1v-6c0-0.6,0.4-1,1-1s1,0.4,1,1v6
		C246.4,171.4,245.9,171.8,245.4,171.8z M245.4,159.9c-0.6,0-1-0.4-1-1v-6c0-0.6,0.4-1,1-1s1,0.4,1,1v6
		C246.4,159.4,245.9,159.9,245.4,159.9z M245.4,147.9c-0.6,0-1-0.4-1-1v-6c0-0.6,0.4-1,1-1s1,0.4,1,1v6
		C246.4,147.5,245.9,147.9,245.4,147.9z M245.4,136c-0.6,0-1-0.4-1-1v-6c0-0.6,0.4-1,1-1s1,0.4,1,1v6
		C246.4,135.5,245.9,136,245.4,136z M245.4,124c-0.6,0-1-0.4-1-1v-6c0-0.6,0.4-1,1-1s1,0.4,1,1v6C246.4,123.6,245.9,124,245.4,124z
		 M245.4,112.1c-0.6,0-1-0.4-1-1v-6c0-0.6,0.4-1,1-1s1,0.4,1,1v6C246.4,111.6,245.9,112.1,245.4,112.1z M245.4,100.1
		c-0.6,0-1-0.4-1-1v-6c0-0.6,0.4-1,1-1s1,0.4,1,1v6C246.4,99.7,245.9,100.1,245.4,100.1z M245.4,88.2c-0.6,0-1-0.4-1-1v-6
		c0-0.6,0.4-1,1-1s1,0.4,1,1v6C246.4,87.8,245.9,88.2,245.4,88.2z M245.4,76.3c-0.6,0-1-0.4-1-1v-6c0-0.6,0.4-1,1-1s1,0.4,1,1v6
		C246.4,75.8,245.9,76.3,245.4,76.3z M245.4,64.3c-0.6,0-1-0.4-1-1v-6c0-0.6,0.4-1,1-1s1,0.4,1,1v6
		C246.4,63.9,245.9,64.3,245.4,64.3z M245.4,52.4c-0.6,0-1-0.4-1-1v-6c0-0.6,0.4-1,1-1s1,0.4,1,1v6
		C246.4,51.9,245.9,52.4,245.4,52.4z M245.4,40.4c-0.6,0-1-0.4-1-1v-6c0-0.6,0.4-1,1-1s1,0.4,1,1v6C246.4,40,245.9,40.4,245.4,40.4z
		"/>
	<path class="st2" d="M245.4,264.4c-0.6,0-1-0.4-1-1v-3c0-0.6,0.4-1,1-1s1,0.4,1,1v3C246.4,264,245.9,264.4,245.4,264.4z"/>
</g>
<g>
	<path class="st2" d="M308,28.5c-0.6,0-1-0.4-1-1v-3c0-0.6,0.4-1,1-1s1,0.4,1,1v3C309,28,308.6,28.5,308,28.5z"/>
	<path class="st2" d="M308,255.4c-0.6,0-1-0.4-1-1v-6c0-0.6,0.4-1,1-1s1,0.4,1,1v6C309,255,308.6,255.4,308,255.4z M308,243.5
		c-0.6,0-1-0.4-1-1v-6c0-0.6,0.4-1,1-1s1,0.4,1,1v6C309,243,308.6,243.5,308,243.5z M308,231.5c-0.6,0-1-0.4-1-1v-6c0-0.6,0.4-1,1-1
		s1,0.4,1,1v6C309,231.1,308.6,231.5,308,231.5z M308,219.6c-0.6,0-1-0.4-1-1v-6c0-0.6,0.4-1,1-1s1,0.4,1,1v6
		C309,219.2,308.6,219.6,308,219.6z M308,207.7c-0.6,0-1-0.4-1-1v-6c0-0.6,0.4-1,1-1s1,0.4,1,1v6C309,207.2,308.6,207.7,308,207.7z
		 M308,195.7c-0.6,0-1-0.4-1-1v-6c0-0.6,0.4-1,1-1s1,0.4,1,1v6C309,195.3,308.6,195.7,308,195.7z M308,183.8c-0.6,0-1-0.4-1-1v-6
		c0-0.6,0.4-1,1-1s1,0.4,1,1v6C309,183.3,308.6,183.8,308,183.8z M308,171.8c-0.6,0-1-0.4-1-1v-6c0-0.6,0.4-1,1-1s1,0.4,1,1v6
		C309,171.4,308.6,171.8,308,171.8z M308,159.9c-0.6,0-1-0.4-1-1v-6c0-0.6,0.4-1,1-1s1,0.4,1,1v6C309,159.4,308.6,159.9,308,159.9z
		 M308,147.9c-0.6,0-1-0.4-1-1v-6c0-0.6,0.4-1,1-1s1,0.4,1,1v6C309,147.5,308.6,147.9,308,147.9z M308,136c-0.6,0-1-0.4-1-1v-6
		c0-0.6,0.4-1,1-1s1,0.4,1,1v6C309,135.5,308.6,136,308,136z M308,124c-0.6,0-1-0.4-1-1v-6c0-0.6,0.4-1,1-1s1,0.4,1,1v6
		C309,123.6,308.6,124,308,124z M308,112.1c-0.6,0-1-0.4-1-1v-6c0-0.6,0.4-1,1-1s1,0.4,1,1v6C309,111.6,308.6,112.1,308,112.1z
		 M308,100.1c-0.6,0-1-0.4-1-1v-6c0-0.6,0.4-1,1-1s1,0.4,1,1v6C309,99.7,308.6,100.1,308,100.1z M308,88.2c-0.6,0-1-0.4-1-1v-6
		c0-0.6,0.4-1,1-1s1,0.4,1,1v6C309,87.8,308.6,88.2,308,88.2z M308,76.3c-0.6,0-1-0.4-1-1v-6c0-0.6,0.4-1,1-1s1,0.4,1,1v6
		C309,75.8,308.6,76.3,308,76.3z M308,64.3c-0.6,0-1-0.4-1-1v-6c0-0.6,0.4-1,1-1s1,0.4,1,1v6C309,63.9,308.6,64.3,308,64.3z
		 M308,52.4c-0.6,0-1-0.4-1-1v-6c0-0.6,0.4-1,1-1s1,0.4,1,1v6C309,51.9,308.6,52.4,308,52.4z M308,40.4c-0.6,0-1-0.4-1-1v-6
		c0-0.6,0.4-1,1-1s1,0.4,1,1v6C309,40,308.6,40.4,308,40.4z"/>
	<path class="st2" d="M308,264.4c-0.6,0-1-0.4-1-1v-3c0-0.6,0.4-1,1-1s1,0.4,1,1v3C309,264,308.6,264.4,308,264.4z"/>
</g>
<g>
	<path class="st2" d="M396.7,28.5c-0.6,0-1-0.4-1-1v-3c0-0.6,0.4-1,1-1s1,0.4,1,1v3C397.7,28,397.3,28.5,396.7,28.5z"/>
	<path class="st2" d="M396.7,255.4c-0.6,0-1-0.4-1-1v-6c0-0.6,0.4-1,1-1s1,0.4,1,1v6C397.7,255,397.3,255.4,396.7,255.4z
		 M396.7,243.5c-0.6,0-1-0.4-1-1v-6c0-0.6,0.4-1,1-1s1,0.4,1,1v6C397.7,243,397.3,243.5,396.7,243.5z M396.7,231.5c-0.6,0-1-0.4-1-1
		v-6c0-0.6,0.4-1,1-1s1,0.4,1,1v6C397.7,231.1,397.3,231.5,396.7,231.5z M396.7,219.6c-0.6,0-1-0.4-1-1v-6c0-0.6,0.4-1,1-1
		s1,0.4,1,1v6C397.7,219.2,397.3,219.6,396.7,219.6z M396.7,207.7c-0.6,0-1-0.4-1-1v-6c0-0.6,0.4-1,1-1s1,0.4,1,1v6
		C397.7,207.2,397.3,207.7,396.7,207.7z M396.7,195.7c-0.6,0-1-0.4-1-1v-6c0-0.6,0.4-1,1-1s1,0.4,1,1v6
		C397.7,195.3,397.3,195.7,396.7,195.7z M396.7,183.8c-0.6,0-1-0.4-1-1v-6c0-0.6,0.4-1,1-1s1,0.4,1,1v6
		C397.7,183.3,397.3,183.8,396.7,183.8z M396.7,171.8c-0.6,0-1-0.4-1-1v-6c0-0.6,0.4-1,1-1s1,0.4,1,1v6
		C397.7,171.4,397.3,171.8,396.7,171.8z M396.7,159.9c-0.6,0-1-0.4-1-1v-6c0-0.6,0.4-1,1-1s1,0.4,1,1v6
		C397.7,159.4,397.3,159.9,396.7,159.9z M396.7,147.9c-0.6,0-1-0.4-1-1v-6c0-0.6,0.4-1,1-1s1,0.4,1,1v6
		C397.7,147.5,397.3,147.9,396.7,147.9z M396.7,136c-0.6,0-1-0.4-1-1v-6c0-0.6,0.4-1,1-1s1,0.4,1,1v6
		C397.7,135.5,397.3,136,396.7,136z M396.7,124c-0.6,0-1-0.4-1-1v-6c0-0.6,0.4-1,1-1s1,0.4,1,1v6C397.7,123.6,397.3,124,396.7,124z
		 M396.7,112.1c-0.6,0-1-0.4-1-1v-6c0-0.6,0.4-1,1-1s1,0.4,1,1v6C397.7,111.6,397.3,112.1,396.7,112.1z M396.7,100.1
		c-0.6,0-1-0.4-1-1v-6c0-0.6,0.4-1,1-1s1,0.4,1,1v6C397.7,99.7,397.3,100.1,396.7,100.1z M396.7,88.2c-0.6,0-1-0.4-1-1v-6
		c0-0.6,0.4-1,1-1s1,0.4,1,1v6C397.7,87.8,397.3,88.2,396.7,88.2z M396.7,76.3c-0.6,0-1-0.4-1-1v-6c0-0.6,0.4-1,1-1s1,0.4,1,1v6
		C397.7,75.8,397.3,76.3,396.7,76.3z M396.7,64.3c-0.6,0-1-0.4-1-1v-6c0-0.6,0.4-1,1-1s1,0.4,1,1v6
		C397.7,63.9,397.3,64.3,396.7,64.3z M396.7,52.4c-0.6,0-1-0.4-1-1v-6c0-0.6,0.4-1,1-1s1,0.4,1,1v6
		C397.7,51.9,397.3,52.4,396.7,52.4z M396.7,40.4c-0.6,0-1-0.4-1-1v-6c0-0.6,0.4-1,1-1s1,0.4,1,1v6C397.7,40,397.3,40.4,396.7,40.4z
		"/>
	<path class="st2" d="M396.7,264.4c-0.6,0-1-0.4-1-1v-3c0-0.6,0.4-1,1-1s1,0.4,1,1v3C397.7,264,397.3,264.4,396.7,264.4z"/>
</g>
<g>
	<path class="st2" d="M407.5,36.2h-3c-0.6,0-1-0.4-1-1s0.4-1,1-1h3c0.6,0,1,0.4,1,1S408.1,36.2,407.5,36.2z"/>
	<path class="st2" d="M398.6,36.2h-6c-0.6,0-1-0.4-1-1s0.4-1,1-1h6c0.6,0,1,0.4,1,1S399.1,36.2,398.6,36.2z M386.6,36.2h-6
		c-0.6,0-1-0.4-1-1s0.4-1,1-1h6c0.6,0,1,0.4,1,1S387.1,36.2,386.6,36.2z M374.6,36.2h-6c-0.6,0-1-0.4-1-1s0.4-1,1-1h6
		c0.6,0,1,0.4,1,1S375.2,36.2,374.6,36.2z M362.6,36.2h-6c-0.6,0-1-0.4-1-1s0.4-1,1-1h6c0.6,0,1,0.4,1,1S363.2,36.2,362.6,36.2z
		 M350.7,36.2h-6c-0.6,0-1-0.4-1-1s0.4-1,1-1h6c0.6,0,1,0.4,1,1S351.2,36.2,350.7,36.2z M338.7,36.2h-6c-0.6,0-1-0.4-1-1s0.4-1,1-1
		h6c0.6,0,1,0.4,1,1S339.3,36.2,338.7,36.2z M326.7,36.2h-6c-0.6,0-1-0.4-1-1s0.4-1,1-1h6c0.6,0,1,0.4,1,1S327.3,36.2,326.7,36.2z
		 M314.8,36.2h-6c-0.6,0-1-0.4-1-1s0.4-1,1-1h6c0.6,0,1,0.4,1,1S315.3,36.2,314.8,36.2z M302.8,36.2h-6c-0.6,0-1-0.4-1-1s0.4-1,1-1
		h6c0.6,0,1,0.4,1,1S303.3,36.2,302.8,36.2z M290.8,36.2h-6c-0.6,0-1-0.4-1-1s0.4-1,1-1h6c0.6,0,1,0.4,1,1S291.4,36.2,290.8,36.2z
		 M278.8,36.2h-6c-0.6,0-1-0.4-1-1s0.4-1,1-1h6c0.6,0,1,0.4,1,1S279.4,36.2,278.8,36.2z M266.9,36.2h-6c-0.6,0-1-0.4-1-1s0.4-1,1-1
		h6c0.6,0,1,0.4,1,1S267.4,36.2,266.9,36.2z M254.9,36.2h-6c-0.6,0-1-0.4-1-1s0.4-1,1-1h6c0.6,0,1,0.4,1,1S255.5,36.2,254.9,36.2z
		 M242.9,36.2h-6c-0.6,0-1-0.4-1-1s0.4-1,1-1h6c0.6,0,1,0.4,1,1S243.5,36.2,242.9,36.2z M231,36.2h-6c-0.6,0-1-0.4-1-1s0.4-1,1-1h6
		c0.6,0,1,0.4,1,1S231.5,36.2,231,36.2z M219,36.2h-6c-0.6,0-1-0.4-1-1s0.4-1,1-1h6c0.6,0,1,0.4,1,1S219.5,36.2,219,36.2z M207,36.2
		h-6c-0.6,0-1-0.4-1-1s0.4-1,1-1h6c0.6,0,1,0.4,1,1S207.6,36.2,207,36.2z M195.1,36.2h-6c-0.6,0-1-0.4-1-1s0.4-1,1-1h6
		c0.6,0,1,0.4,1,1S195.6,36.2,195.1,36.2z M183.1,36.2h-6c-0.6,0-1-0.4-1-1s0.4-1,1-1h6c0.6,0,1,0.4,1,1S183.6,36.2,183.1,36.2z
		 M171.1,36.2h-6c-0.6,0-1-0.4-1-1s0.4-1,1-1h6c0.6,0,1,0.4,1,1S171.7,36.2,171.1,36.2z M159.1,36.2h-6c-0.6,0-1-0.4-1-1s0.4-1,1-1
		h6c0.6,0,1,0.4,1,1S159.7,36.2,159.1,36.2z M147.2,36.2h-6c-0.6,0-1-0.4-1-1s0.4-1,1-1h6c0.6,0,1,0.4,1,1S147.7,36.2,147.2,36.2z
		 M135.2,36.2h-6c-0.6,0-1-0.4-1-1s0.4-1,1-1h6c0.6,0,1,0.4,1,1S135.8,36.2,135.2,36.2z M123.2,36.2h-6c-0.6,0-1-0.4-1-1s0.4-1,1-1
		h6c0.6,0,1,0.4,1,1S123.8,36.2,123.2,36.2z M111.3,36.2h-6c-0.6,0-1-0.4-1-1s0.4-1,1-1h6c0.6,0,1,0.4,1,1S111.8,36.2,111.3,36.2z
		 M99.3,36.2h-6c-0.6,0-1-0.4-1-1s0.4-1,1-1h6c0.6,0,1,0.4,1,1S99.8,36.2,99.3,36.2z M87.3,36.2h-6c-0.6,0-1-0.4-1-1s0.4-1,1-1h6
		c0.6,0,1,0.4,1,1S87.9,36.2,87.3,36.2z M75.3,36.2h-6c-0.6,0-1-0.4-1-1s0.4-1,1-1h6c0.6,0,1,0.4,1,1S75.9,36.2,75.3,36.2z
		 M63.4,36.2h-6c-0.6,0-1-0.4-1-1s0.4-1,1-1h6c0.6,0,1,0.4,1,1S63.9,36.2,63.4,36.2z M51.4,36.2h-6c-0.6,0-1-0.4-1-1s0.4-1,1-1h6
		c0.6,0,1,0.4,1,1S52,36.2,51.4,36.2z M39.4,36.2h-6c-0.6,0-1-0.4-1-1s0.4-1,1-1h6c0.6,0,1,0.4,1,1S40,36.2,39.4,36.2z"/>
	<path class="st2" d="M27.5,36.2h-3c-0.6,0-1-0.4-1-1s0.4-1,1-1h3c0.6,0,1,0.4,1,1S28,36.2,27.5,36.2z"/>
</g>
<g>
	<path class="st2" d="M407.5,79.9h-3c-0.6,0-1-0.4-1-1s0.4-1,1-1h3c0.6,0,1,0.4,1,1S408.1,79.9,407.5,79.9z"/>
	<path class="st2" d="M398.6,79.9h-6c-0.6,0-1-0.4-1-1s0.4-1,1-1h6c0.6,0,1,0.4,1,1S399.1,79.9,398.6,79.9z M386.6,79.9h-6
		c-0.6,0-1-0.4-1-1s0.4-1,1-1h6c0.6,0,1,0.4,1,1S387.1,79.9,386.6,79.9z M374.6,79.9h-6c-0.6,0-1-0.4-1-1s0.4-1,1-1h6
		c0.6,0,1,0.4,1,1S375.2,79.9,374.6,79.9z M362.6,79.9h-6c-0.6,0-1-0.4-1-1s0.4-1,1-1h6c0.6,0,1,0.4,1,1S363.2,79.9,362.6,79.9z
		 M350.7,79.9h-6c-0.6,0-1-0.4-1-1s0.4-1,1-1h6c0.6,0,1,0.4,1,1S351.2,79.9,350.7,79.9z M338.7,79.9h-6c-0.6,0-1-0.4-1-1s0.4-1,1-1
		h6c0.6,0,1,0.4,1,1S339.3,79.9,338.7,79.9z M326.7,79.9h-6c-0.6,0-1-0.4-1-1s0.4-1,1-1h6c0.6,0,1,0.4,1,1S327.3,79.9,326.7,79.9z
		 M314.8,79.9h-6c-0.6,0-1-0.4-1-1s0.4-1,1-1h6c0.6,0,1,0.4,1,1S315.3,79.9,314.8,79.9z M302.8,79.9h-6c-0.6,0-1-0.4-1-1s0.4-1,1-1
		h6c0.6,0,1,0.4,1,1S303.3,79.9,302.8,79.9z M290.8,79.9h-6c-0.6,0-1-0.4-1-1s0.4-1,1-1h6c0.6,0,1,0.4,1,1S291.4,79.9,290.8,79.9z
		 M278.8,79.9h-6c-0.6,0-1-0.4-1-1s0.4-1,1-1h6c0.6,0,1,0.4,1,1S279.4,79.9,278.8,79.9z M266.9,79.9h-6c-0.6,0-1-0.4-1-1s0.4-1,1-1
		h6c0.6,0,1,0.4,1,1S267.4,79.9,266.9,79.9z M254.9,79.9h-6c-0.6,0-1-0.4-1-1s0.4-1,1-1h6c0.6,0,1,0.4,1,1S255.5,79.9,254.9,79.9z
		 M242.9,79.9h-6c-0.6,0-1-0.4-1-1s0.4-1,1-1h6c0.6,0,1,0.4,1,1S243.5,79.9,242.9,79.9z M231,79.9h-6c-0.6,0-1-0.4-1-1s0.4-1,1-1h6
		c0.6,0,1,0.4,1,1S231.5,79.9,231,79.9z M219,79.9h-6c-0.6,0-1-0.4-1-1s0.4-1,1-1h6c0.6,0,1,0.4,1,1S219.5,79.9,219,79.9z M207,79.9
		h-6c-0.6,0-1-0.4-1-1s0.4-1,1-1h6c0.6,0,1,0.4,1,1S207.6,79.9,207,79.9z M195.1,79.9h-6c-0.6,0-1-0.4-1-1s0.4-1,1-1h6
		c0.6,0,1,0.4,1,1S195.6,79.9,195.1,79.9z M183.1,79.9h-6c-0.6,0-1-0.4-1-1s0.4-1,1-1h6c0.6,0,1,0.4,1,1S183.6,79.9,183.1,79.9z
		 M171.1,79.9h-6c-0.6,0-1-0.4-1-1s0.4-1,1-1h6c0.6,0,1,0.4,1,1S171.7,79.9,171.1,79.9z M159.1,79.9h-6c-0.6,0-1-0.4-1-1s0.4-1,1-1
		h6c0.6,0,1,0.4,1,1S159.7,79.9,159.1,79.9z M147.2,79.9h-6c-0.6,0-1-0.4-1-1s0.4-1,1-1h6c0.6,0,1,0.4,1,1S147.7,79.9,147.2,79.9z
		 M135.2,79.9h-6c-0.6,0-1-0.4-1-1s0.4-1,1-1h6c0.6,0,1,0.4,1,1S135.8,79.9,135.2,79.9z M123.2,79.9h-6c-0.6,0-1-0.4-1-1s0.4-1,1-1
		h6c0.6,0,1,0.4,1,1S123.8,79.9,123.2,79.9z M111.3,79.9h-6c-0.6,0-1-0.4-1-1s0.4-1,1-1h6c0.6,0,1,0.4,1,1S111.8,79.9,111.3,79.9z
		 M99.3,79.9h-6c-0.6,0-1-0.4-1-1s0.4-1,1-1h6c0.6,0,1,0.4,1,1S99.8,79.9,99.3,79.9z M87.3,79.9h-6c-0.6,0-1-0.4-1-1s0.4-1,1-1h6
		c0.6,0,1,0.4,1,1S87.9,79.9,87.3,79.9z M75.3,79.9h-6c-0.6,0-1-0.4-1-1s0.4-1,1-1h6c0.6,0,1,0.4,1,1S75.9,79.9,75.3,79.9z
		 M63.4,79.9h-6c-0.6,0-1-0.4-1-1s0.4-1,1-1h6c0.6,0,1,0.4,1,1S63.9,79.9,63.4,79.9z M51.4,79.9h-6c-0.6,0-1-0.4-1-1s0.4-1,1-1h6
		c0.6,0,1,0.4,1,1S52,79.9,51.4,79.9z M39.4,79.9h-6c-0.6,0-1-0.4-1-1s0.4-1,1-1h6c0.6,0,1,0.4,1,1S40,79.9,39.4,79.9z"/>
	<path class="st2" d="M27.5,79.9h-3c-0.6,0-1-0.4-1-1s0.4-1,1-1h3c0.6,0,1,0.4,1,1S28,79.9,27.5,79.9z"/>
</g>
<g>
	<path class="st2" d="M407.5,123.4h-3c-0.6,0-1-0.4-1-1s0.4-1,1-1h3c0.6,0,1,0.4,1,1S408.1,123.4,407.5,123.4z"/>
	<path class="st2" d="M398.6,123.4h-6c-0.6,0-1-0.4-1-1s0.4-1,1-1h6c0.6,0,1,0.4,1,1S399.1,123.4,398.6,123.4z M386.6,123.4h-6
		c-0.6,0-1-0.4-1-1s0.4-1,1-1h6c0.6,0,1,0.4,1,1S387.1,123.4,386.6,123.4z M374.6,123.4h-6c-0.6,0-1-0.4-1-1s0.4-1,1-1h6
		c0.6,0,1,0.4,1,1S375.2,123.4,374.6,123.4z M362.6,123.4h-6c-0.6,0-1-0.4-1-1s0.4-1,1-1h6c0.6,0,1,0.4,1,1S363.2,123.4,362.6,123.4
		z M350.7,123.4h-6c-0.6,0-1-0.4-1-1s0.4-1,1-1h6c0.6,0,1,0.4,1,1S351.2,123.4,350.7,123.4z M338.7,123.4h-6c-0.6,0-1-0.4-1-1
		s0.4-1,1-1h6c0.6,0,1,0.4,1,1S339.3,123.4,338.7,123.4z M326.7,123.4h-6c-0.6,0-1-0.4-1-1s0.4-1,1-1h6c0.6,0,1,0.4,1,1
		S327.3,123.4,326.7,123.4z M314.8,123.4h-6c-0.6,0-1-0.4-1-1s0.4-1,1-1h6c0.6,0,1,0.4,1,1S315.3,123.4,314.8,123.4z M302.8,123.4
		h-6c-0.6,0-1-0.4-1-1s0.4-1,1-1h6c0.6,0,1,0.4,1,1S303.3,123.4,302.8,123.4z M290.8,123.4h-6c-0.6,0-1-0.4-1-1s0.4-1,1-1h6
		c0.6,0,1,0.4,1,1S291.4,123.4,290.8,123.4z M278.8,123.4h-6c-0.6,0-1-0.4-1-1s0.4-1,1-1h6c0.6,0,1,0.4,1,1S279.4,123.4,278.8,123.4
		z M266.9,123.4h-6c-0.6,0-1-0.4-1-1s0.4-1,1-1h6c0.6,0,1,0.4,1,1S267.4,123.4,266.9,123.4z M254.9,123.4h-6c-0.6,0-1-0.4-1-1
		s0.4-1,1-1h6c0.6,0,1,0.4,1,1S255.5,123.4,254.9,123.4z M242.9,123.4h-6c-0.6,0-1-0.4-1-1s0.4-1,1-1h6c0.6,0,1,0.4,1,1
		S243.5,123.4,242.9,123.4z M231,123.4h-6c-0.6,0-1-0.4-1-1s0.4-1,1-1h6c0.6,0,1,0.4,1,1S231.5,123.4,231,123.4z M219,123.4h-6
		c-0.6,0-1-0.4-1-1s0.4-1,1-1h6c0.6,0,1,0.4,1,1S219.5,123.4,219,123.4z M207,123.4h-6c-0.6,0-1-0.4-1-1s0.4-1,1-1h6
		c0.6,0,1,0.4,1,1S207.6,123.4,207,123.4z M195.1,123.4h-6c-0.6,0-1-0.4-1-1s0.4-1,1-1h6c0.6,0,1,0.4,1,1S195.6,123.4,195.1,123.4z
		 M183.1,123.4h-6c-0.6,0-1-0.4-1-1s0.4-1,1-1h6c0.6,0,1,0.4,1,1S183.6,123.4,183.1,123.4z M171.1,123.4h-6c-0.6,0-1-0.4-1-1
		s0.4-1,1-1h6c0.6,0,1,0.4,1,1S171.7,123.4,171.1,123.4z M159.1,123.4h-6c-0.6,0-1-0.4-1-1s0.4-1,1-1h6c0.6,0,1,0.4,1,1
		S159.7,123.4,159.1,123.4z M147.2,123.4h-6c-0.6,0-1-0.4-1-1s0.4-1,1-1h6c0.6,0,1,0.4,1,1S147.7,123.4,147.2,123.4z M135.2,123.4
		h-6c-0.6,0-1-0.4-1-1s0.4-1,1-1h6c0.6,0,1,0.4,1,1S135.8,123.4,135.2,123.4z M123.2,123.4h-6c-0.6,0-1-0.4-1-1s0.4-1,1-1h6
		c0.6,0,1,0.4,1,1S123.8,123.4,123.2,123.4z M111.3,123.4h-6c-0.6,0-1-0.4-1-1s0.4-1,1-1h6c0.6,0,1,0.4,1,1S111.8,123.4,111.3,123.4
		z M99.3,123.4h-6c-0.6,0-1-0.4-1-1s0.4-1,1-1h6c0.6,0,1,0.4,1,1S99.8,123.4,99.3,123.4z M87.3,123.4h-6c-0.6,0-1-0.4-1-1s0.4-1,1-1
		h6c0.6,0,1,0.4,1,1S87.9,123.4,87.3,123.4z M75.3,123.4h-6c-0.6,0-1-0.4-1-1s0.4-1,1-1h6c0.6,0,1,0.4,1,1S75.9,123.4,75.3,123.4z
		 M63.4,123.4h-6c-0.6,0-1-0.4-1-1s0.4-1,1-1h6c0.6,0,1,0.4,1,1S63.9,123.4,63.4,123.4z M51.4,123.4h-6c-0.6,0-1-0.4-1-1s0.4-1,1-1
		h6c0.6,0,1,0.4,1,1S52,123.4,51.4,123.4z M39.4,123.4h-6c-0.6,0-1-0.4-1-1s0.4-1,1-1h6c0.6,0,1,0.4,1,1S40,123.4,39.4,123.4z"/>
	<path class="st2" d="M27.5,123.4h-3c-0.6,0-1-0.4-1-1s0.4-1,1-1h3c0.6,0,1,0.4,1,1S28,123.4,27.5,123.4z"/>
</g>
<g>
	<path class="st2" d="M407.5,166.9h-3c-0.6,0-1-0.4-1-1s0.4-1,1-1h3c0.6,0,1,0.4,1,1S408.1,166.9,407.5,166.9z"/>
	<path class="st2" d="M398.6,166.9h-6c-0.6,0-1-0.4-1-1s0.4-1,1-1h6c0.6,0,1,0.4,1,1S399.1,166.9,398.6,166.9z M386.6,166.9h-6
		c-0.6,0-1-0.4-1-1s0.4-1,1-1h6c0.6,0,1,0.4,1,1S387.1,166.9,386.6,166.9z M374.6,166.9h-6c-0.6,0-1-0.4-1-1s0.4-1,1-1h6
		c0.6,0,1,0.4,1,1S375.2,166.9,374.6,166.9z M362.6,166.9h-6c-0.6,0-1-0.4-1-1s0.4-1,1-1h6c0.6,0,1,0.4,1,1S363.2,166.9,362.6,166.9
		z M350.7,166.9h-6c-0.6,0-1-0.4-1-1s0.4-1,1-1h6c0.6,0,1,0.4,1,1S351.2,166.9,350.7,166.9z M338.7,166.9h-6c-0.6,0-1-0.4-1-1
		s0.4-1,1-1h6c0.6,0,1,0.4,1,1S339.3,166.9,338.7,166.9z M326.7,166.9h-6c-0.6,0-1-0.4-1-1s0.4-1,1-1h6c0.6,0,1,0.4,1,1
		S327.3,166.9,326.7,166.9z M314.8,166.9h-6c-0.6,0-1-0.4-1-1s0.4-1,1-1h6c0.6,0,1,0.4,1,1S315.3,166.9,314.8,166.9z M302.8,166.9
		h-6c-0.6,0-1-0.4-1-1s0.4-1,1-1h6c0.6,0,1,0.4,1,1S303.3,166.9,302.8,166.9z M290.8,166.9h-6c-0.6,0-1-0.4-1-1s0.4-1,1-1h6
		c0.6,0,1,0.4,1,1S291.4,166.9,290.8,166.9z M278.8,166.9h-6c-0.6,0-1-0.4-1-1s0.4-1,1-1h6c0.6,0,1,0.4,1,1S279.4,166.9,278.8,166.9
		z M266.9,166.9h-6c-0.6,0-1-0.4-1-1s0.4-1,1-1h6c0.6,0,1,0.4,1,1S267.4,166.9,266.9,166.9z M254.9,166.9h-6c-0.6,0-1-0.4-1-1
		s0.4-1,1-1h6c0.6,0,1,0.4,1,1S255.5,166.9,254.9,166.9z M242.9,166.9h-6c-0.6,0-1-0.4-1-1s0.4-1,1-1h6c0.6,0,1,0.4,1,1
		S243.5,166.9,242.9,166.9z M231,166.9h-6c-0.6,0-1-0.4-1-1s0.4-1,1-1h6c0.6,0,1,0.4,1,1S231.5,166.9,231,166.9z M219,166.9h-6
		c-0.6,0-1-0.4-1-1s0.4-1,1-1h6c0.6,0,1,0.4,1,1S219.5,166.9,219,166.9z M207,166.9h-6c-0.6,0-1-0.4-1-1s0.4-1,1-1h6
		c0.6,0,1,0.4,1,1S207.6,166.9,207,166.9z M195.1,166.9h-6c-0.6,0-1-0.4-1-1s0.4-1,1-1h6c0.6,0,1,0.4,1,1S195.6,166.9,195.1,166.9z
		 M183.1,166.9h-6c-0.6,0-1-0.4-1-1s0.4-1,1-1h6c0.6,0,1,0.4,1,1S183.6,166.9,183.1,166.9z M171.1,166.9h-6c-0.6,0-1-0.4-1-1
		s0.4-1,1-1h6c0.6,0,1,0.4,1,1S171.7,166.9,171.1,166.9z M159.1,166.9h-6c-0.6,0-1-0.4-1-1s0.4-1,1-1h6c0.6,0,1,0.4,1,1
		S159.7,166.9,159.1,166.9z M147.2,166.9h-6c-0.6,0-1-0.4-1-1s0.4-1,1-1h6c0.6,0,1,0.4,1,1S147.7,166.9,147.2,166.9z M135.2,166.9
		h-6c-0.6,0-1-0.4-1-1s0.4-1,1-1h6c0.6,0,1,0.4,1,1S135.8,166.9,135.2,166.9z M123.2,166.9h-6c-0.6,0-1-0.4-1-1s0.4-1,1-1h6
		c0.6,0,1,0.4,1,1S123.8,166.9,123.2,166.9z M111.3,166.9h-6c-0.6,0-1-0.4-1-1s0.4-1,1-1h6c0.6,0,1,0.4,1,1S111.8,166.9,111.3,166.9
		z M99.3,166.9h-6c-0.6,0-1-0.4-1-1s0.4-1,1-1h6c0.6,0,1,0.4,1,1S99.8,166.9,99.3,166.9z M87.3,166.9h-6c-0.6,0-1-0.4-1-1s0.4-1,1-1
		h6c0.6,0,1,0.4,1,1S87.9,166.9,87.3,166.9z M75.3,166.9h-6c-0.6,0-1-0.4-1-1s0.4-1,1-1h6c0.6,0,1,0.4,1,1S75.9,166.9,75.3,166.9z
		 M63.4,166.9h-6c-0.6,0-1-0.4-1-1s0.4-1,1-1h6c0.6,0,1,0.4,1,1S63.9,166.9,63.4,166.9z M51.4,166.9h-6c-0.6,0-1-0.4-1-1s0.4-1,1-1
		h6c0.6,0,1,0.4,1,1S52,166.9,51.4,166.9z M39.4,166.9h-6c-0.6,0-1-0.4-1-1s0.4-1,1-1h6c0.6,0,1,0.4,1,1S40,166.9,39.4,166.9z"/>
	<path class="st2" d="M27.5,166.9h-3c-0.6,0-1-0.4-1-1s0.4-1,1-1h3c0.6,0,1,0.4,1,1S28,166.9,27.5,166.9z"/>
</g>
<g>
	<path class="st2" d="M407.5,210.3h-3c-0.6,0-1-0.4-1-1s0.4-1,1-1h3c0.6,0,1,0.4,1,1S408.1,210.3,407.5,210.3z"/>
	<path class="st2" d="M398.6,210.3h-6c-0.6,0-1-0.4-1-1s0.4-1,1-1h6c0.6,0,1,0.4,1,1S399.1,210.3,398.6,210.3z M386.6,210.3h-6
		c-0.6,0-1-0.4-1-1s0.4-1,1-1h6c0.6,0,1,0.4,1,1S387.1,210.3,386.6,210.3z M374.6,210.3h-6c-0.6,0-1-0.4-1-1s0.4-1,1-1h6
		c0.6,0,1,0.4,1,1S375.2,210.3,374.6,210.3z M362.6,210.3h-6c-0.6,0-1-0.4-1-1s0.4-1,1-1h6c0.6,0,1,0.4,1,1S363.2,210.3,362.6,210.3
		z M350.7,210.3h-6c-0.6,0-1-0.4-1-1s0.4-1,1-1h6c0.6,0,1,0.4,1,1S351.2,210.3,350.7,210.3z M338.7,210.3h-6c-0.6,0-1-0.4-1-1
		s0.4-1,1-1h6c0.6,0,1,0.4,1,1S339.3,210.3,338.7,210.3z M326.7,210.3h-6c-0.6,0-1-0.4-1-1s0.4-1,1-1h6c0.6,0,1,0.4,1,1
		S327.3,210.3,326.7,210.3z M314.8,210.3h-6c-0.6,0-1-0.4-1-1s0.4-1,1-1h6c0.6,0,1,0.4,1,1S315.3,210.3,314.8,210.3z M302.8,210.3
		h-6c-0.6,0-1-0.4-1-1s0.4-1,1-1h6c0.6,0,1,0.4,1,1S303.3,210.3,302.8,210.3z M290.8,210.3h-6c-0.6,0-1-0.4-1-1s0.4-1,1-1h6
		c0.6,0,1,0.4,1,1S291.4,210.3,290.8,210.3z M278.8,210.3h-6c-0.6,0-1-0.4-1-1s0.4-1,1-1h6c0.6,0,1,0.4,1,1S279.4,210.3,278.8,210.3
		z M266.9,210.3h-6c-0.6,0-1-0.4-1-1s0.4-1,1-1h6c0.6,0,1,0.4,1,1S267.4,210.3,266.9,210.3z M254.9,210.3h-6c-0.6,0-1-0.4-1-1
		s0.4-1,1-1h6c0.6,0,1,0.4,1,1S255.5,210.3,254.9,210.3z M242.9,210.3h-6c-0.6,0-1-0.4-1-1s0.4-1,1-1h6c0.6,0,1,0.4,1,1
		S243.5,210.3,242.9,210.3z M231,210.3h-6c-0.6,0-1-0.4-1-1s0.4-1,1-1h6c0.6,0,1,0.4,1,1S231.5,210.3,231,210.3z M219,210.3h-6
		c-0.6,0-1-0.4-1-1s0.4-1,1-1h6c0.6,0,1,0.4,1,1S219.5,210.3,219,210.3z M207,210.3h-6c-0.6,0-1-0.4-1-1s0.4-1,1-1h6
		c0.6,0,1,0.4,1,1S207.6,210.3,207,210.3z M195.1,210.3h-6c-0.6,0-1-0.4-1-1s0.4-1,1-1h6c0.6,0,1,0.4,1,1S195.6,210.3,195.1,210.3z
		 M183.1,210.3h-6c-0.6,0-1-0.4-1-1s0.4-1,1-1h6c0.6,0,1,0.4,1,1S183.6,210.3,183.1,210.3z M171.1,210.3h-6c-0.6,0-1-0.4-1-1
		s0.4-1,1-1h6c0.6,0,1,0.4,1,1S171.7,210.3,171.1,210.3z M159.1,210.3h-6c-0.6,0-1-0.4-1-1s0.4-1,1-1h6c0.6,0,1,0.4,1,1
		S159.7,210.3,159.1,210.3z M147.2,210.3h-6c-0.6,0-1-0.4-1-1s0.4-1,1-1h6c0.6,0,1,0.4,1,1S147.7,210.3,147.2,210.3z M135.2,210.3
		h-6c-0.6,0-1-0.4-1-1s0.4-1,1-1h6c0.6,0,1,0.4,1,1S135.8,210.3,135.2,210.3z M123.2,210.3h-6c-0.6,0-1-0.4-1-1s0.4-1,1-1h6
		c0.6,0,1,0.4,1,1S123.8,210.3,123.2,210.3z M111.3,210.3h-6c-0.6,0-1-0.4-1-1s0.4-1,1-1h6c0.6,0,1,0.4,1,1S111.8,210.3,111.3,210.3
		z M99.3,210.3h-6c-0.6,0-1-0.4-1-1s0.4-1,1-1h6c0.6,0,1,0.4,1,1S99.8,210.3,99.3,210.3z M87.3,210.3h-6c-0.6,0-1-0.4-1-1s0.4-1,1-1
		h6c0.6,0,1,0.4,1,1S87.9,210.3,87.3,210.3z M75.3,210.3h-6c-0.6,0-1-0.4-1-1s0.4-1,1-1h6c0.6,0,1,0.4,1,1S75.9,210.3,75.3,210.3z
		 M63.4,210.3h-6c-0.6,0-1-0.4-1-1s0.4-1,1-1h6c0.6,0,1,0.4,1,1S63.9,210.3,63.4,210.3z M51.4,210.3h-6c-0.6,0-1-0.4-1-1s0.4-1,1-1
		h6c0.6,0,1,0.4,1,1S52,210.3,51.4,210.3z M39.4,210.3h-6c-0.6,0-1-0.4-1-1s0.4-1,1-1h6c0.6,0,1,0.4,1,1S40,210.3,39.4,210.3z"/>
	<path class="st2" d="M27.5,210.3h-3c-0.6,0-1-0.4-1-1s0.4-1,1-1h3c0.6,0,1,0.4,1,1S28,210.3,27.5,210.3z"/>
</g>
<g>
	<path class="st2" d="M407.5,254h-3c-0.6,0-1-0.4-1-1s0.4-1,1-1h3c0.6,0,1,0.4,1,1S408.1,254,407.5,254z"/>
	<path class="st2" d="M398.6,254h-6c-0.6,0-1-0.4-1-1s0.4-1,1-1h6c0.6,0,1,0.4,1,1S399.1,254,398.6,254z M386.6,254h-6
		c-0.6,0-1-0.4-1-1s0.4-1,1-1h6c0.6,0,1,0.4,1,1S387.1,254,386.6,254z M374.6,254h-6c-0.6,0-1-0.4-1-1s0.4-1,1-1h6c0.6,0,1,0.4,1,1
		S375.2,254,374.6,254z M362.6,254h-6c-0.6,0-1-0.4-1-1s0.4-1,1-1h6c0.6,0,1,0.4,1,1S363.2,254,362.6,254z M350.7,254h-6
		c-0.6,0-1-0.4-1-1s0.4-1,1-1h6c0.6,0,1,0.4,1,1S351.2,254,350.7,254z M338.7,254h-6c-0.6,0-1-0.4-1-1s0.4-1,1-1h6c0.6,0,1,0.4,1,1
		S339.3,254,338.7,254z M326.7,254h-6c-0.6,0-1-0.4-1-1s0.4-1,1-1h6c0.6,0,1,0.4,1,1S327.3,254,326.7,254z M314.8,254h-6
		c-0.6,0-1-0.4-1-1s0.4-1,1-1h6c0.6,0,1,0.4,1,1S315.3,254,314.8,254z M302.8,254h-6c-0.6,0-1-0.4-1-1s0.4-1,1-1h6c0.6,0,1,0.4,1,1
		S303.3,254,302.8,254z M290.8,254h-6c-0.6,0-1-0.4-1-1s0.4-1,1-1h6c0.6,0,1,0.4,1,1S291.4,254,290.8,254z M278.8,254h-6
		c-0.6,0-1-0.4-1-1s0.4-1,1-1h6c0.6,0,1,0.4,1,1S279.4,254,278.8,254z M266.9,254h-6c-0.6,0-1-0.4-1-1s0.4-1,1-1h6c0.6,0,1,0.4,1,1
		S267.4,254,266.9,254z M254.9,254h-6c-0.6,0-1-0.4-1-1s0.4-1,1-1h6c0.6,0,1,0.4,1,1S255.5,254,254.9,254z M242.9,254h-6
		c-0.6,0-1-0.4-1-1s0.4-1,1-1h6c0.6,0,1,0.4,1,1S243.5,254,242.9,254z M231,254h-6c-0.6,0-1-0.4-1-1s0.4-1,1-1h6c0.6,0,1,0.4,1,1
		S231.5,254,231,254z M219,254h-6c-0.6,0-1-0.4-1-1s0.4-1,1-1h6c0.6,0,1,0.4,1,1S219.5,254,219,254z M207,254h-6c-0.6,0-1-0.4-1-1
		s0.4-1,1-1h6c0.6,0,1,0.4,1,1S207.6,254,207,254z M195.1,254h-6c-0.6,0-1-0.4-1-1s0.4-1,1-1h6c0.6,0,1,0.4,1,1S195.6,254,195.1,254
		z M183.1,254h-6c-0.6,0-1-0.4-1-1s0.4-1,1-1h6c0.6,0,1,0.4,1,1S183.6,254,183.1,254z M171.1,254h-6c-0.6,0-1-0.4-1-1s0.4-1,1-1h6
		c0.6,0,1,0.4,1,1S171.7,254,171.1,254z M159.1,254h-6c-0.6,0-1-0.4-1-1s0.4-1,1-1h6c0.6,0,1,0.4,1,1S159.7,254,159.1,254z
		 M147.2,254h-6c-0.6,0-1-0.4-1-1s0.4-1,1-1h6c0.6,0,1,0.4,1,1S147.7,254,147.2,254z M135.2,254h-6c-0.6,0-1-0.4-1-1s0.4-1,1-1h6
		c0.6,0,1,0.4,1,1S135.8,254,135.2,254z M123.2,254h-6c-0.6,0-1-0.4-1-1s0.4-1,1-1h6c0.6,0,1,0.4,1,1S123.8,254,123.2,254z
		 M111.3,254h-6c-0.6,0-1-0.4-1-1s0.4-1,1-1h6c0.6,0,1,0.4,1,1S111.8,254,111.3,254z M99.3,254h-6c-0.6,0-1-0.4-1-1s0.4-1,1-1h6
		c0.6,0,1,0.4,1,1S99.8,254,99.3,254z M87.3,254h-6c-0.6,0-1-0.4-1-1s0.4-1,1-1h6c0.6,0,1,0.4,1,1S87.9,254,87.3,254z M75.3,254h-6
		c-0.6,0-1-0.4-1-1s0.4-1,1-1h6c0.6,0,1,0.4,1,1S75.9,254,75.3,254z M63.4,254h-6c-0.6,0-1-0.4-1-1s0.4-1,1-1h6c0.6,0,1,0.4,1,1
		S63.9,254,63.4,254z M51.4,254h-6c-0.6,0-1-0.4-1-1s0.4-1,1-1h6c0.6,0,1,0.4,1,1S52,254,51.4,254z M39.4,254h-6c-0.6,0-1-0.4-1-1
		s0.4-1,1-1h6c0.6,0,1,0.4,1,1S40,254,39.4,254z"/>
	<path class="st2" d="M27.5,254h-3c-0.6,0-1-0.4-1-1s0.4-1,1-1h3c0.6,0,1,0.4,1,1S28,254,27.5,254z"/>
</g>
</svg>
