<?xml version="1.0" encoding="utf-8"?>
<!-- Generator: Adobe Illustrator 26.0.3, SVG Export Plug-In . SVG Version: 6.00 Build 0)  -->
<svg version="1.1" id="Layer_1" xmlns="http://www.w3.org/2000/svg" xmlns:xlink="http://www.w3.org/1999/xlink" x="0px" y="0px"
	 viewBox="0 0 432 288" style="enable-background:new 0 0 432 288;" xml:space="preserve">
<style type="text/css">
	.st0{fill:#EFEFEF;}
	.st1{fill:#454A59;}
</style>
<rect x="10.8" y="11.1" class="st0" width="410.4" height="265.7"/>
<path class="st1" d="M289.1,36.9H284h-84.5v25.3h-50.9v25.3H97.7V251h129.5v-25.3h50.9v-25.3H329V82.1V77L289.1,36.9z M291.2,49.4
	l25.5,25.5h-25.5V49.4z M220,243.8H104.9l0,0V95l0,0h43.7v130.7H220L220,243.8z M270.9,218.5h-43.7H220h-64V95v-7.4V69.7h43.7V100
	v10.3v15.3v7.2v67.6H220h7.4h43.7L270.9,218.5z M278.1,193.2h-7.2h-43.7h-7.4h-13.1v-60.4v-7.2v-8.1v-10.3V69.7v-7.4V44.3h77.1v37.8
	h37.8l0.2,110.9h-43.7V193.2z"/>
</svg>
