<?xml version="1.0" encoding="utf-8"?>
<!-- Generator: Adobe Illustrator 26.0.3, SVG Export Plug-In . SVG Version: 6.00 Build 0)  -->
<svg version="1.1" id="Layer_1" xmlns="http://www.w3.org/2000/svg" xmlns:xlink="http://www.w3.org/1999/xlink" x="0px" y="0px"
	 viewBox="0 0 432 288" style="enable-background:new 0 0 432 288;" xml:space="preserve">
<style type="text/css">
	.st0{fill:#EFEFEF;}
	.st1{fill:none;stroke:#000000;stroke-width:2;stroke-miterlimit:10;}
	.st2{fill:#FFFFFF;stroke:#000000;stroke-miterlimit:10;}
</style>
<rect x="10.8" y="11.1" class="st0" width="410.4" height="265.7"/>
<line class="st1" x1="119" y1="53.4" x2="197.1" y2="53.4"/>
<line class="st1" x1="119" y1="68.5" x2="197.1" y2="68.5"/>
<line class="st1" x1="119" y1="83.6" x2="197.1" y2="83.6"/>
<line class="st1" x1="119" y1="98.7" x2="197.1" y2="98.7"/>
<line class="st1" x1="119" y1="113.8" x2="197.1" y2="113.8"/>
<line class="st1" x1="34" y1="128.9" x2="197.1" y2="128.9"/>
<line class="st1" x1="34" y1="144" x2="145.5" y2="144"/>
<line class="st1" x1="34" y1="174.2" x2="197.1" y2="174.2"/>
<line class="st1" x1="34" y1="189.3" x2="197.1" y2="189.3"/>
<line class="st1" x1="34" y1="204.4" x2="197.1" y2="204.4"/>
<line class="st1" x1="34" y1="219.5" x2="197.1" y2="219.5"/>
<line class="st1" x1="34" y1="234.6" x2="197.1" y2="234.6"/>
<line class="st1" x1="234.9" y1="53.4" x2="398" y2="53.4"/>
<line class="st1" x1="234.9" y1="68.5" x2="370" y2="68.5"/>
<line class="st1" x1="234.9" y1="98.7" x2="398" y2="98.7"/>
<line class="st1" x1="234.9" y1="113.8" x2="398" y2="113.8"/>
<line class="st1" x1="234.9" y1="128.9" x2="313.8" y2="128.9"/>
<line class="st1" x1="234.9" y1="144" x2="313.8" y2="144"/>
<line class="st1" x1="234.9" y1="159.1" x2="313.8" y2="159.1"/>
<line class="st1" x1="234.9" y1="174.2" x2="313.8" y2="174.2"/>
<line class="st1" x1="234.9" y1="189.3" x2="313.8" y2="189.3"/>
<line class="st1" x1="234.9" y1="204.4" x2="398" y2="204.4"/>
<line class="st1" x1="234.9" y1="219.5" x2="398" y2="219.5"/>
<line class="st1" x1="234.9" y1="234.6" x2="323" y2="234.6"/>
<rect x="34" y="52.1" class="st2" width="70.3" height="62.5"/>
<rect x="327.7" y="127.9" class="st2" width="70.3" height="62.5"/>
</svg>
