<?xml version="1.0" encoding="utf-8"?>
<!-- Generator: Adobe Illustrator 26.0.2, SVG Export Plug-In . SVG Version: 6.00 Build 0)  -->
<svg version="1.1" id="Layer_1" xmlns="http://www.w3.org/2000/svg" xmlns:xlink="http://www.w3.org/1999/xlink" x="0px" y="0px"
	 viewBox="0 0 432 288" style="enable-background:new 0 0 432 288;" xml:space="preserve">
<style type="text/css">
	.st0{fill:#EFEFEF;}
	.st1{fill:#ADADAD;}
	.st2{fill:#FFFFFF;}
	.st3{fill:#545454;}
</style>
<rect x="10.8" y="11.1" class="st0" width="410.4" height="265.7"/>
<path class="st1" d="M219.7,174H65.6c-9.2,0-16.6-7.5-16.6-16.6V61.5c0-9.2,7.5-16.6,16.6-16.6h154.1c9.2,0,16.6,7.5,16.6,16.6v95.9
	C236.3,166.6,228.9,174,219.7,174z"/>
<g>
	<path class="st1" d="M195.7,250.7c-0.8,0-1.5-0.7-1.5-1.5V120.1c0-0.8,0.7-1.5,1.5-1.5H383c0.8,0,1.5,0.7,1.5,1.5v129.2
		c0,0.8-0.7,1.5-1.5,1.5H195.7z"/>
	<path class="st0" d="M383,120.1v129.2H195.7V120.1H383 M383,117.1H195.7c-1.7,0-3,1.3-3,3v129.2c0,1.7,1.3,3,3,3H383
		c1.7,0,3-1.3,3-3V120.1C386,118.4,384.7,117.1,383,117.1L383,117.1z"/>
</g>
<path class="st2" d="M158.4,131.3h-31.4c-7.7,0-13.9-6.2-13.9-13.9v-15.9c0-7.7,6.2-13.9,13.9-13.9h31.4c7.7,0,13.9,6.2,13.9,13.9
	v15.9C172.3,125.1,166,131.3,158.4,131.3z"/>
<polygon class="st3" points="154.3,109.4 135.9,98.8 135.9,120.1 "/>
<polygon class="st3" points="244.8,218.8 263.9,185.1 280.8,205.3 306.4,160.6 333.9,218.8 "/>
<circle class="st2" cx="270.5" cy="160.6" r="10.1"/>
</svg>
