<?xml version="1.0" encoding="utf-8"?>
<!-- Generator: Adobe Illustrator 26.0.3, SVG Export Plug-In . SVG Version: 6.00 Build 0)  -->
<svg version="1.1" id="Layer_1" xmlns="http://www.w3.org/2000/svg" xmlns:xlink="http://www.w3.org/1999/xlink" x="0px" y="0px"
	 viewBox="0 0 432 288" style="enable-background:new 0 0 432 288;" xml:space="preserve">
<style type="text/css">
	.st0{fill:#EFEFEF;}
	.st1{fill:#ADADAD;}
	.st2{fill:#FFFFFF;}
	.st3{fill:#545454;}
</style>
<rect x="10.8" y="11.1" class="st0" width="410.4" height="265.7"/>
<g>
	<path class="st1" d="M383,130.8v107.8c0,5.9-4.8,10.7-10.7,10.7H206.4c-5.9,0-10.7-4.8-10.7-10.7V130.8c0-5.9,4.8-10.7,10.7-10.7
		h165.9C378.2,120.1,383,124.9,383,130.8z"/>
</g>
<path class="st1" d="M236.3,61.5v55.6h-29.9c-7.6,0-13.7,6.1-13.7,13.7V174H65.6c-9.2,0-16.6-7.5-16.6-16.6V61.5
	c0-9.2,7.5-16.6,16.6-16.6h154.1C228.9,44.9,236.3,52.4,236.3,61.5z"/>
<path class="st2" d="M158.4,131.3H127c-7.7,0-13.9-6.2-13.9-13.9v-15.9c0-7.7,6.2-13.9,13.9-13.9h31.4c7.7,0,13.9,6.2,13.9,13.9
	v15.9C172.3,125.1,166,131.3,158.4,131.3z"/>
<polygon class="st3" points="154.3,109.4 135.9,98.8 135.9,120.1 "/>
<path class="st2" d="M308.8,213.8c7.7-7.7,12.1-18.2,12.1-29.1c0-10.9-4.3-21.4-12.1-29.1l-3.4,3.4c6.8,6.8,10.7,16.1,10.6,25.7
	c0,10-4.1,19.1-10.6,25.7C305.4,210.4,308.8,213.8,308.8,213.8z"/>
<path class="st2" d="M302,207c5.9-5.9,9.2-13.9,9.2-22.3c0-8.4-3.3-16.4-9.2-22.3l-3.4,3.4c5,5,7.8,11.8,7.8,18.8
	c0,7.1-2.8,13.9-7.8,18.8C298.6,203.5,302,207,302,207z"/>
<path class="st2" d="M295.1,200.1c4.1-4.1,6.4-9.6,6.4-15.4c0-5.8-2.3-11.3-6.4-15.4l-3.4,3.4c3.2,3.2,5,7.5,5,12
	c0,4.5-1.8,8.8-5,12L295.1,200.1z"/>
<path class="st3" d="M285.5,163.1c0.8,0.4,1.4,1.3,1.4,2.2v38.8c0,1.3-1.1,2.4-2.4,2.4c-0.5,0-1.1-0.2-1.5-0.5l-11.4-9.2h-11.3
	c-1.3,0-2.4-1.1-2.4-2.4V175c0-1.3,1.1-2.4,2.4-2.4h11.3l11.4-9.2C283.7,162.8,284.7,162.7,285.5,163.1z"/>
</svg>
