<?xml version="1.0" encoding="utf-8"?>
<!-- Generator: Adobe Illustrator 26.0.1, SVG Export Plug-In . SVG Version: 6.00 Build 0)  -->
<svg version="1.1" id="Layer_1" xmlns="http://www.w3.org/2000/svg" xmlns:xlink="http://www.w3.org/1999/xlink" x="0px" y="0px"
	 viewBox="0 0 432 288" style="enable-background:new 0 0 432 288;" xml:space="preserve">
<style type="text/css">
	.st0{fill:#EFEFEF;}
</style>
<rect x="10.8" y="11.1" class="st0" width="410.4" height="265.7"/>
<path d="M67,43.3c6.2-1.4,12.3,2.4,13.6,8.4c1.4,6.1-2.5,12.1-8.8,13.5c-6.3,1.4-12.4-2.3-13.8-8.4C56.7,50.7,60.6,44.7,67,43.3
	L67,43.3z M67.4,46c-4.4,1-7,5.4-5.9,10c1,4.5,5.2,7.4,9.8,6.4c4.6-1,7.1-5.5,6.1-10S72.1,45,67.4,46L67.4,46z M69.1,59.7L66,60.4
	l-2.3-10.1c0.7-0.3,2.3-0.9,4.4-1.4c2.3-0.5,3.4-0.4,4.2-0.1c0.7,0.3,1.3,1,1.6,2c0.2,1-0.5,2.1-1.8,2.8l0,0.1
	c1.2,0.1,2,0.7,2.7,2.1c0.6,1.4,1,1.9,1.2,2.3l-3.5,0.8c-0.4-0.3-0.8-1.2-1.2-2c-0.4-1-1-1.4-2.1-1.1l-1,0.2L69.1,59.7z M68,53.9
	l0.9-0.2c1.1-0.3,1.8-0.9,1.6-1.6c-0.2-0.8-1-1.1-2.1-0.9c-0.4,0.1-0.7,0.2-1,0.3L68,53.9z"/>
<path d="M157,46.7c10.8-2.4,21.2,4.4,23.7,15.2c2.5,10.9-4.1,21.6-14.9,24c-10.9,2.5-21.5-4.3-24-15.3C139.3,59.9,146,49.2,157,46.7
	L157,46.7z M157.6,50.4c-8.4,1.9-13.7,10.5-11.7,19.4c2,8.9,10.5,14.4,18.9,12.5c8.4-1.8,13.7-10.5,11.7-19.4
	C174.5,54,166.1,48.5,157.6,50.4L157.6,50.4z M167.4,58.3c-0.9-0.3-3.5-0.7-6.3,0c-4.9,1.1-7.2,4.7-6.1,9.6c1,4.6,4.9,7.2,9.6,6.2
	c2.6-0.6,4.8-1.7,6-3l1.7,3.1c-1.9,2-4.6,3.2-7.4,3.8c-7.4,1.7-12.9-2.4-14.3-8.8c-1.6-7.3,3.2-13.1,9.7-14.6c3-0.7,6.4-0.5,7.4,0.2
	L167.4,58.3z"/>
<path d="M280.3,31.5l1,4.2l-4.9,1.1l2.9,13.1l-5.3,1.2L271.1,38l-4.9,1.1l-1-4.2L280.3,31.5z M302.9,44.6l-2-7.5
	c-0.5-1.9-0.9-4.1-1.6-6.7l-0.3,0.1c0,2.5,0.1,5,0.1,7.1l-0.1,7.7l-5,1.1l-3.2-7c-0.6-1.6-1.7-4.2-2.6-6.4l-0.3,0.1
	c0.5,2.3,1,4.8,1.4,6.8l1.3,7.7l-4.9,1.1L282.7,31l8.1-1.8l2.1,4c0.6,1.3,1.2,2.6,2.3,5.3l0.1,0c0-2.2,0-4,0-5.8l0.3-4.5l7.5-1.7
	l4.9,17.1L302.9,44.6z"/>
<path d="M76,167.3c-1.1-0.8-2.2-1.5-3.5-2.4c-2.3,2.8-5.8,5.2-10.9,6.4c-10.3,2.3-16.3-2.8-17.6-8.8c-1.3-5.6,1-10.4,5.4-14.1
	l-0.1-0.3c-2.3-1.6-4.4-4.5-5.1-7.5c-1.2-5.4,1.7-12.2,10.3-14.2c6.6-1.5,12.5,1.3,13.9,7.4c1,4.3-0.7,8.6-6,12.9l0,0.3
	c3.1,2.2,6.4,4.7,9,6.4c1.1-3,1.6-7.3,1.3-11.2l8.6-1.9c0.3,6.7-0.6,12.7-3.4,17.8c3,2.2,6.1,4.4,9.4,6.7L76,167.3z M61.4,163.9
	c2.5-0.6,4.4-2,5.3-3.5c-3.3-2.1-7.6-5.1-12-8.3c-1.5,1.7-2.7,3.9-2,6.7C53.6,162.4,57,164.9,61.4,163.9L61.4,163.9z M55.4,132.6
	c-2.4,0.5-3.3,3-2.8,5.2c0.5,2.2,1.9,3.8,4.3,5.5c2.6-2.9,3.8-4.9,3.3-7.3C59.7,133.9,58,132,55.4,132.6L55.4,132.6z"/>
<path d="M159.2,126.2c5.6-1.3,10.5,2.1,11.6,7c1.2,5.5-2.4,10.4-7.6,11.6c-5.6,1.3-10.5-2-11.6-7
	C150.4,132.6,153.7,127.4,159.2,126.2L159.2,126.2z M160.1,130.6c-2.7,0.6-4,3.4-3.4,6c0.6,2.7,3.1,4.4,5.7,3.8
	c2.6-0.6,4-3.1,3.4-5.9C165.2,132.1,163,130,160.1,130.6L160.1,130.6z"/>
<path d="M245.3,110.6l26.1-5.9l1.8,7.9l-16.4,3.7l2.2,9.8l15.3-3.5l1.8,7.9l-15.3,3.5l3.9,17.2l-9.7,2.2L245.3,110.6z"/>
<path d="M350,96.3l-4.2-18.7l-0.1,0l-4.5,3.3l-2.2-5l6.4-4.6l6.5-1.5l5.6,24.7L350,96.3z M355.8,113.4l13.8-47.9l5.2-1.2L361,112.2
	L355.8,113.4z M376.1,104.4l3.1-4.4c3.9-5.3,6-8.1,5.4-10.8c-0.4-1.8-2.1-2.7-4.4-2.2c-2.1,0.5-3.9,1.7-5.1,3l-3.1-4.4
	c1.7-2,4.8-4,8.6-4.8C387,79.3,391,82,392,86.3c1,4.5-1.8,8.2-4.9,12.2l-1.2,1.5l0,0.1l9.3-2.1l1.2,5.5l-19.5,4.4L376.1,104.4z"/>
<path d="M59.3,244.7L55,226l-0.1,0l-4.6,3.4l-2.2-5l6.4-4.6l6.5-1.5l5.6,24.7L59.3,244.7z M65.8,261.6l13.8-47.9l5.2-1.2l-13.7,47.9
	L65.8,261.6z M95,254.3l-1.3-5.7l-12.4,2.8l-0.9-4l7.3-17.7l8.5-1.9l3.3,14.6l3.4-0.8l1.1,4.7l-3.4,0.8l1.3,5.7L95,254.3z
	 M91.6,239.2c-0.4-1.6-0.6-3.2-0.8-4.7l-0.2,0c-0.4,1.7-0.8,3.2-1.4,4.6l-2.4,5.9l0.2,0.1l5.6-1.3L91.6,239.2z"/>
<path d="M173.5,214.9c1.6-1.6,4.7-3.2,8.4-4c6.2-1.4,9.8,0.7,10.6,4.2c0.6,2.7-1.1,5.2-3.9,6.8l0,0.1c3.6-0.4,6.7,1.2,7.5,4.4
	c1,4.4-2.8,8.6-9.8,10.1c-3.4,0.8-6.9,0.8-8.9,0.1l0.3-5.3c1.5,0.4,4.3,0.8,6.6,0.2c2.7-0.6,4.3-2.2,3.9-3.9
	c-0.5-2.2-3.4-2.6-6.2-1.9l-1.9,0.4l-1-4.3l1.8-0.4c2.2-0.5,4.7-1.8,4.3-3.8c-0.3-1.3-1.5-2-3.8-1.5c-2.3,0.5-4.4,1.9-5.4,2.8
	L173.5,214.9z M193,253.1l13.7-47.9l5.3-1.2l-13.7,47.9L193,253.1z M220.7,246.2l-1.3-5.7l-12.4,2.8l-0.9-4l7.3-17.7l8.4-1.9
	l3.3,14.6l3.4-0.8l1.1,4.7l-3.4,0.8l1.3,5.7L220.7,246.2z M217.3,231.1c-0.4-1.6-0.5-3.2-0.8-4.7l-0.1,0c-0.5,1.7-0.9,3.3-1.4,4.6
	l-2.4,5.9l0.2,0.1l5.6-1.3L217.3,231.1z"/>
<path d="M295.4,212.7l10.3,10.4l-6.7,1.5l-10.1-10.5l4.6-13.8l6.7-1.5L295.4,212.7z M307.7,210l10.3,10.4l-6.7,1.5l-10.1-10.5
	l4.6-13.8l6.7-1.5L307.7,210z"/>
<path d="M367.9,226.1l6.6-1.5l10.1,10.4l-4.7,13.8l-6.6,1.5l4.8-13.8L367.9,226.1z M380,223.4l6.7-1.5l10.1,10.4l-4.7,13.8l-6.7,1.5
	l4.9-13.8L380,223.4z"/>
</svg>
