<?xml version="1.0" encoding="utf-8"?>
<!-- Generator: Adobe Illustrator 26.3.1, SVG Export Plug-In . SVG Version: 6.00 Build 0)  -->
<svg version="1.1" id="Layer_1" xmlns="http://www.w3.org/2000/svg" xmlns:xlink="http://www.w3.org/1999/xlink" x="0px" y="0px"
	 viewBox="0 0 432 288" style="enable-background:new 0 0 432 288;" xml:space="preserve">
<style type="text/css">
	.st0{fill:#EFEFEF;}
	.st1{fill:#D52828;}
	.st2{fill:#FFFFFF;}
</style>
<rect x="10.8" y="11.1" class="st0" width="410.4" height="265.7"/>
<circle class="st1" cx="216" cy="144" r="90.7"/>
<g>
	<path class="st2" d="M220.4,170.5h-8.9c-2.6,0-4.8-2.1-4.8-4.8l-1.1-74.4c0-2.7,2.1-4.9,4.8-4.9h11.1c2.7,0,4.9,2.2,4.8,4.9
		l-1.1,74.4C225.3,168.3,223.1,170.5,220.4,170.5z"/>
	<path class="st2" d="M219.1,201.6h-6.2c-3.4,0-6.1-2.7-6.1-6.1v-6.2c0-3.4,2.7-6.1,6.1-6.1h6.2c3.4,0,6.1,2.7,6.1,6.1v6.2
		C225.2,198.9,222.5,201.6,219.1,201.6z"/>
</g>
</svg>
