<?xml version="1.0" encoding="utf-8"?>
<!-- Generator: Adobe Illustrator 26.0.2, SVG Export Plug-In . SVG Version: 6.00 Build 0)  -->
<svg version="1.1" id="Layer_1" xmlns="http://www.w3.org/2000/svg" xmlns:xlink="http://www.w3.org/1999/xlink" x="0px" y="0px"
	 viewBox="0 0 432 288" style="enable-background:new 0 0 432 288;" xml:space="preserve">
<style type="text/css">
	.st0{fill:#EFEFEF;}
	.st1{fill:#FFFFFF;stroke:#444444;stroke-miterlimit:10;}
	.st2{fill:#9E9E9E;}
</style>
<rect x="10.8" y="9.3" class="st0" width="410.4" height="265.7"/>
<path class="st1" d="M399.6,114.6H32.4c-3.3,0-6-2.7-6-6V88.4c0-3.3,2.7-6,6-6h367.3c3.3,0,6,2.7,6,6v20.2
	C405.6,111.9,403,114.6,399.6,114.6z"/>
<g>
	<path class="st2" d="M40.6,100.9l-1.1,3.3h-1.4l3.5-10.4h1.6l3.5,10.4h-1.4l-1.1-3.3H40.6z M44.1,99.9l-1-3
		c-0.2-0.7-0.4-1.3-0.5-1.9h0c-0.2,0.6-0.3,1.2-0.5,1.9l-1,3H44.1z"/>
	<path class="st2" d="M54.5,93.3v9c0,0.7,0,1.4,0.1,1.9h-1.2l-0.1-1.3h0c-0.4,0.8-1.3,1.5-2.5,1.5c-1.8,0-3.2-1.5-3.2-3.8
		c0-2.5,1.5-4,3.3-4c1.2,0,1.9,0.5,2.2,1.1h0v-4.4H54.5z M53.2,99.8c0-0.2,0-0.4-0.1-0.6c-0.2-0.8-0.9-1.6-2-1.6
		c-1.4,0-2.2,1.2-2.2,2.9c0,1.5,0.8,2.8,2.2,2.8c0.9,0,1.7-0.6,2-1.6c0-0.2,0.1-0.4,0.1-0.6V99.8z"/>
	<path class="st2" d="M63.2,93.3v9c0,0.7,0,1.4,0.1,1.9h-1.2l-0.1-1.3h0c-0.4,0.8-1.3,1.5-2.5,1.5c-1.8,0-3.2-1.5-3.2-3.8
		c0-2.5,1.5-4,3.3-4c1.2,0,1.9,0.5,2.2,1.1h0v-4.4H63.2z M61.9,99.8c0-0.2,0-0.4-0.1-0.6c-0.2-0.8-0.9-1.6-2-1.6
		c-1.4,0-2.2,1.2-2.2,2.9c0,1.5,0.8,2.8,2.2,2.8c0.9,0,1.7-0.6,2-1.6c0-0.2,0.1-0.4,0.1-0.6V99.8z"/>
	<path class="st2" d="M65.5,99.1c0-0.9,0-1.6-0.1-2.3h1.2l0.1,1.5h0c0.3-1,1.2-1.6,2.1-1.6c0.1,0,0.2,0,0.4,0v1.3
		c-0.1,0-0.3,0-0.5,0c-1,0-1.6,0.7-1.8,1.7c0,0.2,0,0.4,0,0.6v4h-1.4V99.1z"/>
	<path class="st2" d="M71.1,100.7c0,1.8,1.2,2.6,2.6,2.6c1,0,1.6-0.2,2.1-0.4l0.2,1c-0.5,0.2-1.3,0.5-2.5,0.5
		c-2.3,0-3.7-1.5-3.7-3.8c0-2.2,1.3-4,3.5-4c2.4,0,3.1,2.1,3.1,3.5c0,0.3,0,0.5,0,0.6H71.1z M75.1,99.7c0-0.8-0.4-2.2-1.9-2.2
		c-1.4,0-2,1.2-2.1,2.2H75.1z"/>
	<path class="st2" d="M77.9,102.8c0.4,0.2,1.1,0.5,1.8,0.5c1,0,1.4-0.5,1.4-1.1c0-0.6-0.4-1-1.4-1.4c-1.4-0.5-2-1.2-2-2.1
		c0-1.2,1-2.2,2.6-2.2c0.8,0,1.4,0.2,1.8,0.5l-0.3,1c-0.3-0.2-0.8-0.4-1.5-0.4c-0.8,0-1.2,0.5-1.2,1c0,0.6,0.4,0.9,1.4,1.3
		c1.3,0.5,2,1.1,2,2.2c0,1.3-1,2.2-2.8,2.2c-0.8,0-1.6-0.2-2.1-0.5L77.9,102.8z"/>
	<path class="st2" d="M83.9,102.8c0.4,0.2,1.1,0.5,1.8,0.5c1,0,1.4-0.5,1.4-1.1c0-0.6-0.4-1-1.4-1.4c-1.4-0.5-2-1.2-2-2.1
		c0-1.2,1-2.2,2.6-2.2c0.8,0,1.4,0.2,1.8,0.5l-0.3,1c-0.3-0.2-0.8-0.4-1.5-0.4c-0.8,0-1.2,0.5-1.2,1c0,0.6,0.4,0.9,1.4,1.3
		c1.3,0.5,2,1.1,2,2.2c0,1.3-1,2.2-2.8,2.2c-0.8,0-1.6-0.2-2.1-0.5L83.9,102.8z"/>
	<path class="st2" d="M93.5,93.3h1.4v10.9h-1.4V93.3z"/>
	<path class="st2" d="M98.6,94.7c0,0.5-0.3,0.8-0.9,0.8c-0.5,0-0.8-0.4-0.8-0.8s0.3-0.8,0.8-0.8C98.3,93.8,98.6,94.2,98.6,94.7z
		 M97.1,104.2v-7.4h1.4v7.4H97.1z"/>
	<path class="st2" d="M100.7,98.8c0-0.8,0-1.4-0.1-2h1.2l0.1,1.2h0c0.4-0.7,1.2-1.4,2.5-1.4c1,0,2.6,0.6,2.6,3.2v4.4h-1.4v-4.3
		c0-1.2-0.4-2.2-1.7-2.2c-0.9,0-1.6,0.6-1.8,1.4c-0.1,0.2-0.1,0.4-0.1,0.6v4.5h-1.4V98.8z"/>
	<path class="st2" d="M110,100.7c0,1.8,1.2,2.6,2.6,2.6c1,0,1.6-0.2,2.1-0.4l0.2,1c-0.5,0.2-1.3,0.5-2.5,0.5c-2.3,0-3.7-1.5-3.7-3.8
		c0-2.2,1.3-4,3.5-4c2.4,0,3.1,2.1,3.1,3.5c0,0.3,0,0.5,0,0.6H110z M113.9,99.7c0-0.8-0.4-2.2-1.9-2.2c-1.4,0-2,1.2-2.1,2.2H113.9z"
		/>
	<path class="st2" d="M122.7,95.5L122.7,95.5l-1.8,0.9l-0.3-1l2.2-1.2h1.2v10h-1.3V95.5z"/>
</g>
<path class="st1" d="M399.6,158.2H32.4c-3.3,0-6-2.7-6-6V132c0-3.3,2.7-6,6-6h367.3c3.3,0,6,2.7,6,6v20.2
	C405.6,155.5,403,158.2,399.6,158.2z"/>
<g>
	<path class="st2" d="M40.6,144.6l-1.1,3.3h-1.4l3.5-10.4h1.6l3.5,10.4h-1.4l-1.1-3.3H40.6z M44.1,143.5l-1-3
		c-0.2-0.7-0.4-1.3-0.5-1.9h0c-0.2,0.6-0.3,1.2-0.5,1.9l-1,3H44.1z"/>
	<path class="st2" d="M54.5,136.9v9c0,0.7,0,1.4,0.1,1.9h-1.2l-0.1-1.3h0c-0.4,0.8-1.3,1.5-2.5,1.5c-1.8,0-3.2-1.5-3.2-3.8
		c0-2.5,1.5-4,3.3-4c1.2,0,1.9,0.5,2.2,1.1h0v-4.4H54.5z M53.2,143.4c0-0.2,0-0.4-0.1-0.6c-0.2-0.8-0.9-1.6-2-1.6
		c-1.4,0-2.2,1.2-2.2,2.9c0,1.5,0.8,2.8,2.2,2.8c0.9,0,1.7-0.6,2-1.6c0-0.2,0.1-0.4,0.1-0.6V143.4z"/>
	<path class="st2" d="M63.2,136.9v9c0,0.7,0,1.4,0.1,1.9h-1.2l-0.1-1.3h0c-0.4,0.8-1.3,1.5-2.5,1.5c-1.8,0-3.2-1.5-3.2-3.8
		c0-2.5,1.5-4,3.3-4c1.2,0,1.9,0.5,2.2,1.1h0v-4.4H63.2z M61.9,143.4c0-0.2,0-0.4-0.1-0.6c-0.2-0.8-0.9-1.6-2-1.6
		c-1.4,0-2.2,1.2-2.2,2.9c0,1.5,0.8,2.8,2.2,2.8c0.9,0,1.7-0.6,2-1.6c0-0.2,0.1-0.4,0.1-0.6V143.4z"/>
	<path class="st2" d="M65.5,142.7c0-0.9,0-1.6-0.1-2.3h1.2l0.1,1.5h0c0.3-1,1.2-1.6,2.1-1.6c0.1,0,0.2,0,0.4,0v1.3
		c-0.1,0-0.3,0-0.5,0c-1,0-1.6,0.7-1.8,1.7c0,0.2,0,0.4,0,0.6v4h-1.4V142.7z"/>
	<path class="st2" d="M71.1,144.3c0,1.8,1.2,2.6,2.6,2.6c1,0,1.6-0.2,2.1-0.4l0.2,1c-0.5,0.2-1.3,0.5-2.5,0.5
		c-2.3,0-3.7-1.5-3.7-3.8s1.3-4,3.5-4c2.4,0,3.1,2.1,3.1,3.5c0,0.3,0,0.5,0,0.6H71.1z M75.1,143.4c0-0.8-0.4-2.2-1.9-2.2
		c-1.4,0-2,1.2-2.1,2.2H75.1z"/>
	<path class="st2" d="M77.9,146.4c0.4,0.2,1.1,0.5,1.8,0.5c1,0,1.4-0.5,1.4-1.1c0-0.6-0.4-1-1.4-1.4c-1.4-0.5-2-1.2-2-2.1
		c0-1.2,1-2.2,2.6-2.2c0.8,0,1.4,0.2,1.8,0.5l-0.3,1c-0.3-0.2-0.8-0.4-1.5-0.4c-0.8,0-1.2,0.5-1.2,1c0,0.6,0.4,0.9,1.4,1.3
		c1.3,0.5,2,1.1,2,2.2c0,1.3-1,2.2-2.8,2.2c-0.8,0-1.6-0.2-2.1-0.5L77.9,146.4z"/>
	<path class="st2" d="M83.9,146.4c0.4,0.2,1.1,0.5,1.8,0.5c1,0,1.4-0.5,1.4-1.1c0-0.6-0.4-1-1.4-1.4c-1.4-0.5-2-1.2-2-2.1
		c0-1.2,1-2.2,2.6-2.2c0.8,0,1.4,0.2,1.8,0.5l-0.3,1c-0.3-0.2-0.8-0.4-1.5-0.4c-0.8,0-1.2,0.5-1.2,1c0,0.6,0.4,0.9,1.4,1.3
		c1.3,0.5,2,1.1,2,2.2c0,1.3-1,2.2-2.8,2.2c-0.8,0-1.6-0.2-2.1-0.5L83.9,146.4z"/>
	<path class="st2" d="M93.5,136.9h1.4v10.9h-1.4V136.9z"/>
	<path class="st2" d="M98.6,138.3c0,0.5-0.3,0.8-0.9,0.8c-0.5,0-0.8-0.4-0.8-0.8s0.3-0.8,0.8-0.8C98.3,137.4,98.6,137.8,98.6,138.3z
		 M97.1,147.8v-7.4h1.4v7.4H97.1z"/>
	<path class="st2" d="M100.7,142.4c0-0.8,0-1.4-0.1-2h1.2l0.1,1.2h0c0.4-0.7,1.2-1.4,2.5-1.4c1,0,2.6,0.6,2.6,3.2v4.4h-1.4v-4.3
		c0-1.2-0.4-2.2-1.7-2.2c-0.9,0-1.6,0.6-1.8,1.4c-0.1,0.2-0.1,0.4-0.1,0.6v4.5h-1.4V142.4z"/>
	<path class="st2" d="M110,144.3c0,1.8,1.2,2.6,2.6,2.6c1,0,1.6-0.2,2.1-0.4l0.2,1c-0.5,0.2-1.3,0.5-2.5,0.5c-2.3,0-3.7-1.5-3.7-3.8
		s1.3-4,3.5-4c2.4,0,3.1,2.1,3.1,3.5c0,0.3,0,0.5,0,0.6H110z M113.9,143.4c0-0.8-0.4-2.2-1.9-2.2c-1.4,0-2,1.2-2.1,2.2H113.9z"/>
	<path class="st2" d="M119.7,147.8V147l1.1-1c2.6-2.4,3.7-3.7,3.7-5.2c0-1-0.5-2-2-2c-0.9,0-1.7,0.5-2.1,0.8l-0.4-1
		c0.7-0.6,1.7-1,2.8-1c2.2,0,3.1,1.5,3.1,2.9c0,1.8-1.3,3.3-3.4,5.4l-0.8,0.7v0h4.5v1.1H119.7z"/>
</g>
<path class="st1" d="M197.9,201.8H32.4c-3.3,0-6-2.7-6-6v-20.2c0-3.3,2.7-6,6-6h165.5c3.3,0,6,2.7,6,6v20.2
	C203.9,199.2,201.2,201.8,197.9,201.8z"/>
<g>
	<path class="st2" d="M46.2,191.1c-0.5,0.2-1.5,0.5-2.7,0.5c-2.9,0-5.1-1.8-5.1-5.3c0-3.3,2.2-5.4,5.4-5.4c1.3,0,2.1,0.3,2.5,0.5
		l-0.3,1.1c-0.5-0.2-1.2-0.4-2.1-0.4c-2.4,0-4,1.6-4,4.3c0,2.6,1.5,4.2,4,4.2c0.8,0,1.7-0.2,2.2-0.4L46.2,191.1z"/>
	<path class="st2" d="M49.3,181.9c0,0.5-0.3,0.8-0.9,0.8c-0.5,0-0.8-0.4-0.8-0.8s0.3-0.8,0.8-0.8C49,181.1,49.3,181.4,49.3,181.9z
		 M47.8,191.4V184h1.4v7.4H47.8z"/>
	<path class="st2" d="M53,182.2v1.8h1.9v1H53v4c0,0.9,0.3,1.4,1,1.4c0.4,0,0.6,0,0.8-0.1l0.1,1c-0.3,0.1-0.7,0.2-1.2,0.2
		c-0.6,0-1.1-0.2-1.5-0.6c-0.4-0.4-0.5-1.1-0.5-2V185h-1.2v-1h1.2v-1.4L53,182.2z"/>
	<path class="st2" d="M57.1,184l1.6,4.4c0.2,0.5,0.4,1.1,0.5,1.5h0c0.1-0.4,0.3-1,0.5-1.6l1.5-4.4h1.4l-2,5.3
		c-1,2.6-1.6,3.8-2.6,4.7c-0.7,0.6-1.3,0.8-1.7,0.9l-0.3-1.1c0.3-0.1,0.8-0.3,1.2-0.7c0.4-0.3,0.8-0.8,1.1-1.5
		c0.1-0.1,0.1-0.2,0.1-0.3s0-0.2-0.1-0.4l-2.7-6.9H57.1z"/>
</g>
<path class="st1" d="M280.7,201.8h-59.4c-3.3,0-6-2.7-6-6v-20.2c0-3.3,2.7-6,6-6h59.4c3.3,0,6,2.7,6,6v20.2
	C286.7,199.2,284,201.8,280.7,201.8z"/>
<g>
	<path class="st2" d="M227.7,189.8c0.6,0.4,1.5,0.7,2.4,0.7c1.4,0,2.2-0.7,2.2-1.8c0-1-0.6-1.5-2-2c-1.7-0.6-2.7-1.5-2.7-3
		c0-1.6,1.3-2.8,3.3-2.8c1,0,1.8,0.2,2.3,0.5l-0.4,1.1c-0.3-0.2-1-0.5-2-0.5c-1.4,0-2,0.8-2,1.6c0,1,0.6,1.4,2.1,2
		c1.8,0.7,2.6,1.5,2.6,3c0,1.6-1.2,3-3.6,3c-1,0-2.1-0.3-2.6-0.7L227.7,189.8z"/>
	<path class="st2" d="M237,182.2v1.8h1.9v1H237v4c0,0.9,0.3,1.4,1,1.4c0.4,0,0.6,0,0.8-0.1l0.1,1c-0.3,0.1-0.7,0.2-1.2,0.2
		c-0.6,0-1.1-0.2-1.5-0.6c-0.4-0.4-0.5-1.1-0.5-2V185h-1.2v-1h1.2v-1.4L237,182.2z"/>
	<path class="st2" d="M245.7,189.6c0,0.6,0,1.3,0.1,1.8h-1.2l-0.1-0.9h0c-0.4,0.6-1.2,1.1-2.3,1.1c-1.5,0-2.3-1.1-2.3-2.1
		c0-1.8,1.6-2.8,4.5-2.8v-0.2c0-0.6-0.2-1.7-1.7-1.7c-0.7,0-1.4,0.2-2,0.6l-0.3-0.9c0.6-0.4,1.5-0.6,2.5-0.6c2.3,0,2.8,1.6,2.8,3
		V189.6z M244.4,187.6c-1.5,0-3.2,0.2-3.2,1.7c0,0.9,0.6,1.3,1.3,1.3c1,0,1.6-0.6,1.8-1.2c0-0.2,0.1-0.3,0.1-0.4V187.6z"/>
	<path class="st2" d="M249.4,182.2v1.8h1.9v1h-1.9v4c0,0.9,0.3,1.4,1,1.4c0.4,0,0.6,0,0.8-0.1l0.1,1c-0.3,0.1-0.7,0.2-1.2,0.2
		c-0.6,0-1.1-0.2-1.5-0.6c-0.4-0.4-0.5-1.1-0.5-2V185H247v-1h1.2v-1.4L249.4,182.2z"/>
	<path class="st2" d="M253.6,188c0,1.8,1.2,2.6,2.6,2.6c1,0,1.6-0.2,2.1-0.4l0.2,1c-0.5,0.2-1.3,0.5-2.5,0.5c-2.3,0-3.7-1.5-3.7-3.8
		s1.3-4,3.5-4c2.4,0,3.1,2.1,3.1,3.5c0,0.3,0,0.5,0,0.6H253.6z M257.5,187c0-0.8-0.4-2.2-1.9-2.2c-1.4,0-2,1.2-2.1,2.2H257.5z"/>
</g>
<path class="st1" d="M399.6,201.8h-95.6c-3.3,0-6-2.7-6-6v-20.2c0-3.3,2.7-6,6-6h95.6c3.3,0,6,2.7,6,6v20.2
	C405.6,199.2,403,201.8,399.6,201.8z"/>
<g>
	<path class="st2" d="M310,190.6l5.7-8.4v0h-5.2v-1.1h7v0.8l-5.7,8.4v0h5.8v1.1H310V190.6z"/>
	<path class="st2" d="M320.5,181.1v10.4h-1.4v-10.4H320.5z"/>
	<path class="st2" d="M322.9,181.2c0.6-0.1,1.5-0.2,2.6-0.2c1.3,0,2.3,0.3,2.9,0.9c0.6,0.5,0.9,1.2,0.9,2.2c0,0.9-0.3,1.7-0.8,2.2
		c-0.7,0.8-1.9,1.1-3.2,1.1c-0.4,0-0.8,0-1.1-0.1v4.1h-1.3V181.2z M324.2,186.2c0.3,0.1,0.7,0.1,1.1,0.1c1.6,0,2.6-0.8,2.6-2.2
		c0-1.4-1-2-2.4-2c-0.6,0-1,0-1.3,0.1V186.2z"/>
</g>
</svg>
