<?xml version="1.0" encoding="utf-8"?>
<!-- Generator: Adobe Illustrator 26.1.0, SVG Export Plug-In . SVG Version: 6.00 Build 0)  -->
<svg version="1.1" id="Layer_1" xmlns="http://www.w3.org/2000/svg" xmlns:xlink="http://www.w3.org/1999/xlink" x="0px" y="0px"
	 viewBox="0 0 432 288" style="enable-background:new 0 0 432 288;" xml:space="preserve">
<style type="text/css">
	.st0{fill:#EFEFEF;}
	.st1{fill:#C9455E;}
	.st2{fill:#FFFFFF;}
	.st3{fill:#F7BF21;}
</style>
<rect x="10.8" y="11.1" class="st0" width="410.4" height="265.7"/>
<ellipse class="st1" cx="77.6" cy="144" rx="35.6" ry="24.3"/>
<path d="M77.6,170.3c-20.7,0-37.6-11.8-37.6-26.3c0-14.5,16.8-26.3,37.6-26.3c20.7,0,37.6,11.8,37.6,26.3
	C115.2,158.5,98.4,170.3,77.6,170.3z M77.6,121.7c-18.5,0-33.6,10-33.6,22.3s15.1,22.3,33.6,22.3s33.6-10,33.6-22.3
	S96.1,121.7,77.6,121.7z"/>
<g>
	<line class="st2" x1="113.2" y1="144" x2="160.9" y2="144"/>
	<g>
		<rect x="113.2" y="142" width="33.3" height="4"/>
		<g>
			<polygon points="143.6,154 160.9,144 143.6,134 			"/>
		</g>
	</g>
</g>
<g>
	<line class="st2" x1="271.1" y1="144" x2="318.8" y2="144"/>
	<g>
		<rect x="271.1" y="142" width="33.3" height="4"/>
		<g>
			<polygon points="301.5,154 318.8,144 301.5,134 			"/>
		</g>
	</g>
</g>
<g>
	<path d="M164.3,171.4l3.2-3.3c1.4,0.6,2.9,0.9,4.4,0.9c2.1,0,3.8-0.7,5-2.2c1.2-1.5,2-3.9,2.6-7.2l4.3-25.6h-5l1.6-1.7h3.8l0.1-0.3
		c0.9-4.3,2.8-7.9,5.9-10.6s6.7-4.1,10.7-4.1c1.3,0,2.5,0.1,3.6,0.4l-3.2,3.4c-1.4-0.9-2.8-1.3-4.3-1.3c-2.2,0-3.9,0.7-5,2
		c-1.1,1.3-2,3.8-2.7,7.3l-0.7,3.2h8.4l-1.8,2c-1.9-0.2-3.8-0.3-5.7-0.3h-1.2l-3.3,19.3c-1,5.9-3,10.4-5.9,13.6
		c-3,3.2-6.7,4.8-11.1,4.8C166.8,171.7,165.5,171.6,164.3,171.4z"/>
	<path d="M204.8,162.1l-0.3,1.2c-4.5-3.4-6.7-8.8-6.7-16.3c0-5.7,1.5-11.4,4.5-17c3-5.6,6.8-9.7,11.2-12.2l-0.4,1.8
		c-2.7,2.2-4.9,5.1-6.6,8.8c-1.4,3.1-2.6,6.8-3.6,11.2c-1,4.3-1.5,8.1-1.5,11.4C201.6,155.6,202.7,159.3,204.8,162.1z"/>
	<path d="M212,156.7l2-4.1c0.6,0.3,1.2,0.5,1.9,0.5c2.3,0,5.1-2.1,8.6-6.2l1.3-1.6l-3.1-7.2c-0.8-1.8-1.5-2.7-2.2-2.7
		c-0.9,0-2.3,1.2-4.1,3.7l0.6-2.9c2.2-2.9,4.1-4.3,5.6-4.3c1.5,0,2.8,1.5,4.1,4.4l2.6,5.9l1.5-1.9c4.4-5.6,8-8.4,10.8-8.4
		c0.8,0,1.5,0.2,2.3,0.7l-2.3,4.1c-0.6-0.4-1.2-0.6-1.8-0.6c-2.5,0-5.4,2.1-8.8,6.2l-1.1,1.3l3.4,7.8c0.8,1.9,1.6,2.8,2.3,2.8
		c1.1,0,2.5-1.1,4.5-3.4l-0.5,2.7c-2.3,2.5-4.3,3.8-6.1,3.8c-1.7,0-3.1-1.2-4.1-3.7l-2.9-6.9l-1.8,2.3c-4.3,5.5-7.7,8.3-10.2,8.3
		C213.8,157.3,213,157.1,212,156.7z"/>
	<path d="M252.1,119.1l0.3-1.2c4.5,3.4,6.7,8.8,6.7,16.2c0,5.8-1.5,11.4-4.5,17c-3,5.6-6.8,9.7-11.2,12.2l0.4-1.8
		c2.7-2.2,4.9-5.1,6.6-8.8c1.4-3.1,2.6-6.8,3.6-11.2c1-4.4,1.5-8.2,1.5-11.4C255.3,125.7,254.2,121.9,252.1,119.1z"/>
</g>
<rect x="318.8" y="119.7" class="st3" width="71.1" height="48.7"/>
<path d="M391.9,170.3h-75.1v-52.7h75.1V170.3z M320.8,166.3h67.1v-44.7h-67.1V166.3z"/>
</svg>
