<?xml version="1.0" encoding="utf-8"?>
<!-- Generator: Adobe Illustrator 26.1.0, SVG Export Plug-In . SVG Version: 6.00 Build 0)  -->
<svg version="1.1" id="Layer_1" xmlns="http://www.w3.org/2000/svg" xmlns:xlink="http://www.w3.org/1999/xlink" x="0px" y="0px"
	 viewBox="0 0 432 288" style="enable-background:new 0 0 432 288;" xml:space="preserve">
<style type="text/css">
	.st0{fill:#EFEFEF;}
	.st1{fill:#F1672C;}
	.st2{fill:#E55126;}
	.st3{fill:#F1BF26;}
	.st4{fill:#E5A228;}
	.st5{fill:#30A9DC;}
	.st6{fill:#0C73B8;}
</style>
<rect x="10.8" y="11.1" class="st0" width="410.4" height="265.7"/>
<path class="st1" d="M306.5,86.1l-11.6,0.9c-1.8-6.9-4.7-13.2-8.6-18.9l8.4-9.7c1.1-1.3,1-3.4-0.3-4.5l-16.6-14.2
	c-1.3-1.1-3.4-1-4.5,0.3l-7.6,8.9c-6.7-3.9-14.1-6.5-22-7.7l-0.9-12.2c-0.1-1.8-1.7-3.1-3.4-2.9l-21.8,1.6c-1.8,0.1-3.1,1.7-2.9,3.4
	l0.9,12.3c-6.7,2.1-12.9,5.3-18.4,9.4l-9.4-8.1c-1.3-1.1-3.4-1-4.5,0.3l-14.2,16.6c-1.1,1.3-1,3.4,0.3,4.5l9.4,8.1
	c-3.6,6.8-5.9,14.3-6.8,22.2L160,97.1c-1.8,0.1-3.1,1.7-2.9,3.4l1.6,21.8c0.1,1.8,1.7,3.1,3.4,2.9l13-1c2.4,6.6,5.8,12.6,10.1,18
	l-7.7,9c-1.1,1.3-1,3.4,0.3,4.5l16.6,14.2c1.3,1.1,3.4,1,4.5-0.3l8.5-9.9c5.4,2.6,11.2,4.4,17.2,5.3l0.9,12.3
	c0.1,1.8,1.7,3.1,3.4,2.9l21.8-1.6c1.8-0.1,3.1-1.7,2.9-3.4l-0.9-12.2c6.8-2.1,13-5.3,18.5-9.3l9.3,8c1.3,1.1,3.4,1,4.5-0.3
	l14.2-16.6c1.1-1.3,1-3.4-0.3-4.5l-9.2-7.9c2.8-5.3,4.9-11.1,6-17.1l12.8-1c1.8-0.1,3.1-1.7,2.9-3.4L309.9,89
	C309.7,87.3,308.2,85.9,306.5,86.1z M237.7,148.4c-25,1.9-46.8-16.9-48.7-41.9c-1.9-25,16.9-46.8,41.9-48.7
	c25-1.9,46.8,16.9,48.7,41.9C281.4,124.7,262.7,146.5,237.7,148.4z"/>
<circle class="st2" cx="234.3" cy="103.1" r="8.3"/>
<path class="st3" d="M185.5,168.4l-9.2,0.2c-1.1-5.5-3.1-10.6-5.9-15.3l7-7.3c1-1,0.9-2.6-0.1-3.6l-12.4-12c-1-1-2.6-0.9-3.6,0.1
	l-6.4,6.6c-5.1-3.4-10.8-5.8-17-7.1l-0.2-9.7c0-1.4-1.2-2.5-2.6-2.5l-17.3,0.3c-1.4,0-2.5,1.2-2.5,2.6l0.2,9.7
	c-5.4,1.3-10.4,3.6-15,6.5l-7-6.8c-1-1-2.6-0.9-3.6,0.1l-12,12.4c-1,1-0.9,2.6,0.1,3.6l7,6.8c-3.1,5.2-5.3,11-6.4,17.2l-9.4,0.2
	c-1.4,0-2.5,1.2-2.5,2.6l0.3,17.3c0,1.4,1.2,2.5,2.6,2.5l10.3-0.2c1.6,5.3,4,10.2,7.1,14.6l-6.5,6.7c-1,1-0.9,2.6,0.1,3.6l12.4,12
	c1,1,2.6,0.9,3.6-0.1l7.1-7.4c4.1,2.3,8.6,4,13.3,5l0.2,9.7c0,1.4,1.2,2.5,2.6,2.5l17.3-0.3c1.4,0,2.5-1.2,2.5-2.6l-0.2-9.7
	c5.4-1.3,10.5-3.6,15-6.5l6.9,6.7c1,1,2.6,0.9,3.6-0.1l12-12.4c1-1,0.9-2.6-0.1-3.6l-6.9-6.7c2.5-4.1,4.3-8.5,5.6-13.2l10.1-0.2
	c1.4,0,2.5-1.2,2.5-2.6l-0.3-17.3C188,169.4,186.8,168.3,185.5,168.4z M128.3,214.3c-19.8,0.3-36.1-15.5-36.5-35.3
	c-0.3-19.8,15.5-36.1,35.3-36.5s36.1,15.5,36.5,35.3C163.9,197.6,148.2,213.9,128.3,214.3z"/>
<circle class="st4" cx="127.3" cy="178.5" r="7.4"/>
<path class="st5" d="M339.8,243.1l-5.2-6.5c3.3-3.8,6-8.1,7.8-12.7l9.1,1.1c1.3,0.1,2.4-0.8,2.5-2l1.8-15.6c0.1-1.3-0.8-2.4-2-2.5
	l-8.3-1c-0.4-5.5-1.8-11-4.3-16.2l6.9-5.5c1-0.8,1.2-2.2,0.4-3.2l-9.7-12.3c-0.8-1-2.2-1.2-3.2-0.4l-6.9,5.5
	c-3.9-3.1-8.3-5.6-13-7.2l1-8.8c0.1-1.3-0.8-2.4-2-2.5l-15.6-1.8c-1.3-0.1-2.4,0.8-2.5,2l-1,8.8c-5.5,0.6-10.9,2.2-15.9,4.9
	l-5.3-6.7c-0.8-1-2.2-1.2-3.2-0.4l-12.3,9.7c-1,0.8-1.2,2.2-0.4,3.2l5.8,7.3c-3,4-5.2,8.5-6.6,13.2l-8.4-1c-1.3-0.1-2.4,0.8-2.5,2
	l-1.8,15.6c-0.1,1.3,0.8,2.4,2,2.5l9.3,1.1c0.6,4.2,1.9,8.4,3.8,12.4l-6.9,5.5c-1,0.8-1.2,2.2-0.4,3.2l9.7,12.3
	c0.8,1,2.2,1.2,3.2,0.4l6.9-5.5c3.9,3.2,8.3,5.6,13,7.3l-1,8.7c-0.1,1.3,0.8,2.4,2,2.5l15.6,1.8c1.3,0.1,2.4-0.8,2.5-2l1-8.7
	c4.3-0.5,8.5-1.6,12.6-3.3l5.7,7.2c0.8,1,2.2,1.2,3.2,0.4l12.3-9.7C340.4,245.5,340.6,244.1,339.8,243.1z M275.2,227.2
	c-11.2-14.1-8.8-34.6,5.3-45.8c14.1-11.2,34.6-8.8,45.8,5.3c11.2,14.1,8.8,34.6-5.3,45.8C306.8,243.7,286.4,241.3,275.2,227.2z"/>
<circle class="st6" cx="300.5" cy="206.8" r="8.3"/>
</svg>
