<?xml version="1.0" encoding="utf-8"?>
<!-- Generator: Adobe Illustrator 26.0.2, SVG Export Plug-In . SVG Version: 6.00 Build 0)  -->
<svg version="1.1" id="Layer_1" xmlns="http://www.w3.org/2000/svg" xmlns:xlink="http://www.w3.org/1999/xlink" x="0px" y="0px"
	 viewBox="0 0 432 288" style="enable-background:new 0 0 432 288;" xml:space="preserve">
<style type="text/css">
	.st0{fill:#EFEFEF;}
	.st1{fill:#686868;}
</style>
<rect x="10.8" y="11.1" class="st0" width="410.4" height="265.7"/>
<path d="M227.3,185.1l-83.5,23c-13.8,3.8-28.1-4.3-31.9-18.1c-3.8-13.8,4.3-28.1,18.1-31.9l35.1-9.7l4.3-1.2l4.3-1.2l15.9-4.4
	l4.5-1.2l4.6-1.3l14.9-4.1c7.9-2.2,15.9-0.4,22.1,4l17.9-4.9c-10.2-12.9-27.5-19.2-44.3-14.6l-14.3,3.9l-4.7,1.3l-4.5,1.2l-16.1,4.4
	l-4.3,1.2l-4.3,1.2l-35.3,9.7c-22.4,6.2-35.5,29.4-29.4,51.7s29.4,35.5,51.7,29.4l83.5-23c16.4-4.5,27.8-18.2,30.3-33.9l-18.4,5.1
	C240.4,178.1,234.7,183.1,227.3,185.1z"/>
<path class="st1" d="M333,86.6c-0.7-1.4-1.4-2.7-2.2-4c-0.8-1.3-1.7-2.6-2.7-3.8C318,66,300.7,59.7,283.9,64.3l-14.3,3.9l-4.7,1.3
	l-4.5,1.2l-16.1,4.4l-4.3,1.2l-4.3,1.2l-35.3,9.7c-16.4,4.5-27.8,18.2-30.3,33.9l18.4-5.1c3.2-6.3,8.9-11.3,16.2-13.3l35.1-9.7
	L244,92l4.3-1.2l15.9-4.4l4.5-1.2l4.6-1.3l14.9-4.1c7.9-2.2,15.9-0.4,22.1,4c1.4,1,2.7,2.2,3.9,3.5c1.1,1.2,2,2.4,2.9,3.8
	c1.3,2.1,2.4,4.4,3,6.9c0.8,2.9,1,5.9,0.8,8.7c-0.1,1.6-0.4,3.2-0.8,4.8c-0.5,1.8-1.1,3.5-1.9,5.1c-3.2,6.3-8.9,11.3-16.2,13.3
	l-35.1,9.7l-4.3,1.2l-4.3,1.2l-15.9,4.4l-4.5,1.2l-4.6,1.3l-14.9,4.1c-7.9,2.2-15.9,0.4-22.1-4l-17.9,4.9
	c10.2,12.9,27.5,19.2,44.3,14.6l14.3-3.9l4.7-1.3l4.5-1.2l16.1-4.4l4.3-1.2l4.3-1.2l35.3-9.7c16.4-4.5,27.8-18.2,30.3-33.9
	c0.2-1.5,0.4-3.1,0.5-4.7c0.1-1.5,0.1-3,0-4.5c-0.2-2.8-0.6-5.7-1.4-8.6C335,91.2,334.1,88.9,333,86.6z"/>
</svg>
