<?xml version="1.0" encoding="utf-8"?>
<!-- Generator: Adobe Illustrator 26.3.1, SVG Export Plug-In . SVG Version: 6.00 Build 0)  -->
<svg version="1.1" id="Layer_1" xmlns="http://www.w3.org/2000/svg" xmlns:xlink="http://www.w3.org/1999/xlink" x="0px" y="0px"
	 viewBox="0 0 432 288" style="enable-background:new 0 0 432 288;" xml:space="preserve">
<style type="text/css">
	.st0{fill:#EFEFEF;}
	.st1{fill:#3A3A3A;}
	.st2{fill:#777777;}
</style>
<rect x="13.5" y="11.1" class="st0" width="410.4" height="265.7"/>
<path class="st1" d="M106.2,94.4h184.6c2.5,0,4.5-2,4.5-4.5V62.4c0-2.5-2-4.5-4.5-4.5H106.2c-2.5,0-4.5,2-4.5,4.5v27.5
	C101.7,92.4,103.7,94.4,106.2,94.4z"/>
<path class="st1" d="M106.2,138.3h184.6c2.5,0,4.5-2,4.5-4.5v-27.5c0-2.5-2-4.5-4.5-4.5H106.2c-2.5,0-4.5,2-4.5,4.5v27.5
	C101.7,136.3,103.7,138.3,106.2,138.3z"/>
<path class="st1" d="M106.2,182.3h184.6c2.5,0,4.5-2,4.5-4.5v-27.5c0-2.5-2-4.5-4.5-4.5H106.2c-2.5,0-4.5,2-4.5,4.5v27.5
	C101.7,180.3,103.7,182.3,106.2,182.3z"/>
<circle class="st0" cx="208" cy="69.2" r="4.5"/>
<circle class="st0" cx="226.9" cy="69.2" r="4.5"/>
<circle class="st0" cx="245.8" cy="69.2" r="4.5"/>
<circle class="st0" cx="264.7" cy="69.2" r="4.5"/>
<circle class="st0" cx="217.5" cy="83.1" r="4.5"/>
<circle class="st0" cx="236.4" cy="83.1" r="4.5"/>
<circle class="st0" cx="255.3" cy="83.1" r="4.5"/>
<circle class="st0" cx="274.2" cy="83.1" r="4.5"/>
<circle class="st0" cx="283.6" cy="69.2" r="4.5"/>
<circle class="st0" cx="208" cy="113.2" r="4.5"/>
<circle class="st0" cx="226.9" cy="113.2" r="4.5"/>
<circle class="st0" cx="245.8" cy="113.2" r="4.5"/>
<circle class="st0" cx="264.7" cy="113.2" r="4.5"/>
<circle class="st0" cx="217.5" cy="127.1" r="4.5"/>
<circle class="st0" cx="236.4" cy="127.1" r="4.5"/>
<circle class="st0" cx="255.3" cy="127.1" r="4.5"/>
<circle class="st0" cx="274.2" cy="127.1" r="4.5"/>
<circle class="st0" cx="283.6" cy="113.2" r="4.5"/>
<circle class="st0" cx="208" cy="157.1" r="4.5"/>
<circle class="st0" cx="226.9" cy="157.1" r="4.5"/>
<circle class="st0" cx="245.8" cy="157.1" r="4.5"/>
<circle class="st0" cx="264.7" cy="157.1" r="4.5"/>
<circle class="st0" cx="217.5" cy="171" r="4.5"/>
<circle class="st0" cx="236.4" cy="171" r="4.5"/>
<circle class="st0" cx="255.3" cy="171" r="4.5"/>
<circle class="st0" cx="274.2" cy="171" r="4.5"/>
<circle class="st0" cx="283.6" cy="157.1" r="4.5"/>
<path class="st0" d="M335.6,130.6c-0.6-5.1-6.3-9.8-16.3-13.2c-10.2-3.5-23.9-5.4-38.6-5.4c-14.7,0-28.4,1.9-38.6,5.4
	c-10.1,3.5-15.9,8.2-16.3,13.4l0,0v7.2V157v0.8v6.6v18.9v0.9v6.6v19.8c0,5.5,5.8,10.5,16.3,14.1c10.2,3.5,23.9,5.4,38.6,5.4
	c14.7,0,28.4-1.9,38.6-5.4c10.5-3.6,16.3-8.6,16.3-14.1v-19.8v-6.6v-1v-18.8v-6.6V157v-18.9L335.6,130.6L335.6,130.6z"/>
<g>
	<path class="st2" d="M332.6,131.5c0,4.2-6,8.6-15.9,11.7c-9.8,3.1-22.6,4.8-36,4.8c-13.4,0-26.2-1.7-36-4.8c-10-3.1-16-7.5-16-11.7
		c0-8,20.9-16.5,51.9-16.5S332.6,123.6,332.6,131.5z"/>
</g>
<g>
	<path class="st2" d="M332.6,138.1v19.8c0,4.2-6,8.6-15.9,11.7c-9.8,3.1-22.6,4.8-36,4.8c-13.4,0-26.2-1.7-36-4.8
		c-10-3.1-16-7.5-16-11.7v-19.8c0,0,0.1,0.1,0.1,0.1c0.3,0.3,0.7,0.6,1,0.9c0.2,0.2,0.4,0.3,0.6,0.5c0.2,0.2,0.4,0.3,0.6,0.5
		c0.2,0.2,0.4,0.3,0.6,0.5c1.5,1.1,3.3,2,5.3,3c0.6,0.3,1.3,0.6,2,0.9c0.8,0.3,1.5,0.6,2.4,0.9c0.4,0.1,0.8,0.3,1.2,0.4
		c0.5,0.1,0.9,0.3,1.4,0.4c10.1,3.2,23.2,4.9,36.9,4.9c13.7,0,26.8-1.7,36.9-4.9c0.5-0.1,0.9-0.3,1.4-0.4c0.4-0.1,0.8-0.3,1.2-0.4
		c0.8-0.3,1.6-0.6,2.4-0.9c0.4-0.1,0.7-0.3,1.1-0.5c0.6-0.3,1.2-0.5,1.7-0.8c0.2-0.1,0.5-0.2,0.7-0.4c1.8-0.9,3.4-1.9,4.7-3
		c0.2-0.2,0.5-0.4,0.7-0.5C331.8,138.9,332.2,138.5,332.6,138.1z"/>
</g>
<g>
	<path class="st2" d="M332.6,164.4v19.8c0,4.2-6,8.6-15.9,11.7c-9.8,3.1-22.5,4.8-36,4.8s-26.2-1.7-36-4.8c-10-3.2-16-7.5-16-11.7
		v-19.8c0.3,0.3,0.7,0.7,1.1,1c0,0,0.1,0.1,0.1,0.1c0.2,0.2,0.4,0.4,0.7,0.6c0.7,0.5,1.5,1.1,2.4,1.6c0.3,0.2,0.6,0.3,0.9,0.5
		c0.9,0.5,1.9,1,2.9,1.5c0.4,0.2,0.7,0.3,1.1,0.5c0.7,0.3,1.5,0.6,2.3,0.9c0.4,0.1,0.8,0.3,1.2,0.4c0.4,0.1,0.8,0.3,1.2,0.4
		c0.5,0.2,0.9,0.3,1.4,0.4c10.1,3.2,23.2,4.9,36.9,4.9c13.7,0,26.8-1.7,36.9-4.9c0.5-0.1,0.9-0.3,1.4-0.4c0.4-0.1,0.8-0.3,1.2-0.4
		c0.4-0.1,0.8-0.3,1.2-0.4c0.9-0.3,1.8-0.7,2.6-1.1c0.3-0.1,0.5-0.2,0.8-0.3c0.2-0.1,0.5-0.2,0.7-0.3c0.2-0.1,0.5-0.2,0.7-0.4
		c1.8-0.9,3.4-1.9,4.7-3c0.2-0.2,0.5-0.4,0.7-0.6c0,0,0.1-0.1,0.1-0.1C331.9,165.1,332.3,164.8,332.6,164.4z"/>
</g>
<g>
	<path class="st2" d="M332.6,190.8v19.8c0,8-20.9,16.5-51.9,16.5s-51.9-8.5-51.9-16.5v-19.8c0.5,0.5,1,1,1.7,1.5
		c0.2,0.2,0.4,0.3,0.6,0.5c0.2,0.2,0.4,0.3,0.6,0.5c1.7,1.2,3.8,2.3,6.2,3.4c0.4,0.2,0.7,0.3,1.1,0.5c0.8,0.3,1.5,0.6,2.4,0.9
		c0.4,0.1,0.8,0.3,1.2,0.4c0.5,0.2,0.9,0.3,1.4,0.4c10,3.2,23.1,4.9,36.9,4.9c13.7,0,26.8-1.7,36.9-4.9c0.5-0.2,0.9-0.3,1.4-0.4
		c0.4-0.1,0.8-0.3,1.2-0.4c0.8-0.3,1.6-0.6,2.4-0.9c0.3-0.1,0.5-0.2,0.8-0.3c0.7-0.3,1.4-0.6,2-0.9c0.2-0.1,0.5-0.2,0.7-0.3
		c0.3-0.2,0.7-0.4,1-0.5c0.2-0.1,0.4-0.2,0.6-0.4c1-0.6,1.9-1.2,2.7-1.8c0.2-0.2,0.4-0.3,0.6-0.5
		C331.6,191.8,332.1,191.3,332.6,190.8z"/>
</g>
<path class="st0" d="M124.1,67.8c4.6,0,8.4,3.8,8.4,8.4s-3.8,8.4-8.4,8.4s-8.4-3.8-8.4-8.4S119.4,67.8,124.1,67.8 M124.1,62.8
	c-7.4,0-13.4,6-13.4,13.4c0,7.4,6,13.4,13.4,13.4c7.4,0,13.4-6,13.4-13.4C137.5,68.8,131.5,62.8,124.1,62.8L124.1,62.8z"/>
<path class="st0" d="M124.1,111.7c4.6,0,8.4,3.8,8.4,8.4s-3.8,8.4-8.4,8.4s-8.4-3.8-8.4-8.4S119.4,111.7,124.1,111.7 M124.1,106.7
	c-7.4,0-13.4,6-13.4,13.4c0,7.4,6,13.4,13.4,13.4c7.4,0,13.4-6,13.4-13.4C137.5,112.7,131.5,106.7,124.1,106.7L124.1,106.7z"/>
<path class="st0" d="M124.1,155.7c4.6,0,8.4,3.8,8.4,8.4s-3.8,8.4-8.4,8.4s-8.4-3.8-8.4-8.4S119.4,155.7,124.1,155.7 M124.1,150.7
	c-7.4,0-13.4,6-13.4,13.4c0,7.4,6,13.4,13.4,13.4c7.4,0,13.4-6,13.4-13.4C137.5,156.7,131.5,150.7,124.1,150.7L124.1,150.7z"/>
</svg>
