<?xml version="1.0" encoding="utf-8"?>
<!-- Generator: Adobe Illustrator 26.0.3, SVG Export Plug-In . SVG Version: 6.00 Build 0)  -->
<svg version="1.1" id="Layer_1" xmlns="http://www.w3.org/2000/svg" xmlns:xlink="http://www.w3.org/1999/xlink" x="0px" y="0px"
	 viewBox="0 0 432 288" style="enable-background:new 0 0 432 288;" xml:space="preserve">
<style type="text/css">
	.st0{fill:#EFEFEF;}
	.st1{fill:#898989;}
	.st2{fill:#FFFFFF;stroke:#000000;stroke-width:2;stroke-miterlimit:10;}
	.st3{fill:none;stroke:#000000;stroke-width:2;stroke-miterlimit:10;}
	.st4{fill:none;stroke:#000000;stroke-width:2;stroke-miterlimit:10;stroke-dasharray:12.0717,12.0717;}
</style>
<rect x="10.8" y="11.1" class="st0" width="410.4" height="265.7"/>
<path class="st1" d="M50.5,243.3V117.1c0-40.1,32.6-72.8,72.8-72.8h222c20,0,36.2,16.2,36.2,36.2v109c0,29.7-24.1,53.8-53.8,53.8
	H50.5z"/>
<path class="st2" d="M327.7,225.3H68.5V117.1c0-30.3,24.5-54.8,54.8-54.8h222c10,0,18.2,8.1,18.2,18.2v109
	C363.5,209.2,347.4,225.3,327.7,225.3z"/>
<g>
	<g>
		<polyline class="st3" points="92.5,207.3 86.5,207.3 86.5,201.3 		"/>
		<path class="st4" d="M86.5,189.2v-72.1c0-20.3,16.5-36.8,36.8-36.8h222c0.1,0,0.2,0.1,0.2,0.2v109c0,9.8-8,17.8-17.8,17.8H98.5"/>
	</g>
</g>
</svg>
