<?xml version="1.0" encoding="utf-8"?>
<!-- Generator: Adobe Illustrator 26.1.0, SVG Export Plug-In . SVG Version: 6.00 Build 0)  -->
<svg version="1.1" id="Layer_1" xmlns="http://www.w3.org/2000/svg" xmlns:xlink="http://www.w3.org/1999/xlink" x="0px" y="0px"
	 viewBox="0 0 432 288" style="enable-background:new 0 0 432 288;" xml:space="preserve">
<style type="text/css">
	.st0{fill:#EFEFEF;}
	.st1{fill:#398FC9;}
</style>
<rect x="10.8" y="11.1" class="st0" width="410.4" height="265.7"/>
<g>
	<path d="M110.9,88.8l-0.3,11.6h1.4c0.9,0,1.6,0.2,2,0.6s0.6,0.8,0.6,1.4s-0.2,1-0.6,1.4s-1.1,0.5-2,0.5l-5.1-0.1
		c-0.9,0-1.6-0.2-2-0.6s-0.6-0.8-0.6-1.4s0.2-1,0.6-1.4s1-0.5,1.8-0.5l0.4-15.2c-0.7-0.1-1.2-0.3-1.5-0.7c-0.3-0.4-0.5-0.8-0.5-1.3
		c0-0.6,0.2-1,0.6-1.4c0.4-0.3,1.1-0.5,2-0.5l4.3,0.1l5,11.8l5.5-11.6l4.3,0.1c0.9,0,1.6,0.2,2,0.6c0.4,0.4,0.6,0.8,0.6,1.4
		c0,0.5-0.2,1-0.6,1.3c-0.4,0.3-0.9,0.5-1.5,0.6l-0.4,15.2c0.8,0,1.4,0.2,1.8,0.6s0.6,0.8,0.6,1.4s-0.2,1-0.6,1.4
		c-0.4,0.4-1.1,0.5-2,0.5l-5.1-0.1c-0.9,0-1.6-0.2-2-0.6s-0.6-0.8-0.6-1.4s0.2-1,0.6-1.4s1.1-0.5,2-0.5h1.4l0.3-11.6l-4.7,9.9
		l-3.4-0.1L110.9,88.8z"/>
	<path d="M143.3,105.1v-0.9c-1,0.5-2.1,0.9-3.2,1.1c-1.2,0.2-2.2,0.3-3.2,0.3c-2.1,0-3.8-0.6-5-1.8c-1.3-1.1-1.9-2.4-1.9-3.7
		c0-1.6,0.9-3.1,2.6-4.5c1.7-1.4,4-2,6.9-1.9c1.2,0,2.5,0.2,4.1,0.5v-0.9c0-0.6-0.2-1.1-0.7-1.4c-0.5-0.4-1.4-0.6-2.8-0.6
		c-1.1,0-2.6,0.2-4.5,0.6c-0.7,0.1-1.2,0.2-1.6,0.2c-0.5,0-1-0.2-1.3-0.6c-0.4-0.4-0.5-0.9-0.5-1.4c0-0.3,0.1-0.6,0.2-0.8
		c0.1-0.2,0.3-0.4,0.5-0.6c0.2-0.1,0.7-0.3,1.4-0.5c1-0.2,1.9-0.4,2.9-0.6c1-0.1,1.9-0.2,2.7-0.2c2.4,0.1,4.3,0.6,5.6,1.7
		s1.9,2.5,1.9,4.3l-0.2,8h0.7c0.9,0,1.6,0.2,2,0.6s0.6,0.8,0.6,1.4s-0.2,1-0.6,1.4c-0.4,0.4-1.1,0.5-2,0.5L143.3,105.1z M143.5,98.1
		c-1.5-0.3-3-0.5-4.3-0.6c-1.6,0-2.9,0.3-4.1,1.1c-0.7,0.5-1.1,1-1.1,1.5c0,0.4,0.2,0.7,0.5,0.9c0.6,0.4,1.5,0.7,2.6,0.7
		c0.9,0,2-0.1,3.2-0.5c1.2-0.3,2.3-0.8,3.2-1.4L143.5,98.1z"/>
	<path d="M162.4,92.2l-0.2,7.8c0,0.8,0.1,1.4,0.5,1.7c0.5,0.4,1.5,0.7,2.8,0.7c2,0,3.8-0.3,5.5-1.1c0.7-0.3,1.2-0.5,1.5-0.5
		c0.5,0,0.9,0.2,1.3,0.6c0.4,0.4,0.5,0.9,0.5,1.4s-0.2,0.9-0.6,1.3c-0.6,0.6-1.9,1.1-3.7,1.5c-1.8,0.5-3.4,0.7-4.6,0.6
		c-2.4-0.1-4.2-0.6-5.4-1.7s-1.8-2.4-1.7-3.9l0.2-8.5h-1.4c-0.9,0-1.6-0.2-2-0.6s-0.6-0.8-0.6-1.4s0.2-1,0.6-1.4
		c0.4-0.3,1.1-0.5,2-0.5h1.4l0.1-3.5c0-0.9,0.2-1.6,0.6-2c0.4-0.4,0.8-0.6,1.4-0.6c0.6,0,1,0.2,1.4,0.6c0.3,0.4,0.5,1.1,0.5,2
		l-0.1,3.5l7.2,0.2c0.9,0,1.6,0.2,2,0.6s0.6,0.8,0.6,1.4s-0.2,1-0.6,1.4c-0.4,0.4-1.1,0.5-2,0.5L162.4,92.2z"/>
	<path d="M182.9,81.5l-0.2,8.3c0.8-0.5,1.6-0.8,2.5-1c0.8-0.2,1.7-0.3,2.5-0.3c1.3,0,2.5,0.3,3.6,0.8c1,0.5,1.9,1.2,2.6,2.2
		c0.7,1,1,2.2,0.9,3.7l-0.2,7.3c1,0,1.6,0.1,1.9,0.3c0.6,0.4,0.9,1,0.9,1.7c0,0.6-0.2,1-0.6,1.4c-0.4,0.4-1.1,0.5-2,0.5l-4.4-0.1
		c-0.9,0-1.6-0.2-2-0.6s-0.6-0.8-0.6-1.4c0-0.7,0.3-1.2,0.9-1.6c0.3-0.2,1-0.3,1.9-0.2l0.2-7c0-1-0.2-1.7-0.6-2.1
		c-0.6-0.6-1.5-0.8-2.6-0.9c-0.9,0-1.6,0.1-2.3,0.4s-1.6,1-2.7,2.1l-0.2,7.3c1,0,1.6,0.1,1.9,0.3c0.6,0.4,0.9,1,0.9,1.7
		c0,0.6-0.2,1-0.6,1.4c-0.4,0.4-1.1,0.5-2,0.5l-4.4-0.1c-0.9,0-1.6-0.2-2-0.6s-0.6-0.8-0.6-1.4c0-0.7,0.3-1.2,1-1.6
		c0.3-0.2,1-0.3,1.9-0.2l0.4-16.8h-0.7c-0.9,0-1.6-0.2-2-0.6s-0.6-0.8-0.6-1.4s0.2-1,0.6-1.4c0.4-0.4,1.1-0.5,2-0.5L182.9,81.5z"/>
	<path d="M212.6,104.8c0,0.7-0.3,1.3-0.8,1.8s-1.2,0.7-2.2,0.7c-0.9,0-1.6-0.3-2.1-0.8s-0.7-1.1-0.7-1.9c0-0.7,0.3-1.3,0.8-1.8
		s1.2-0.7,2.2-0.7c0.9,0,1.6,0.3,2.1,0.8C212.4,103.4,212.6,104.1,212.6,104.8z"/>
	<path class="st1" d="M232.5,90l-0.1,2.4c1.7-1.1,3-1.9,3.9-2.3s1.8-0.5,2.7-0.5c1.3,0,2.5,0.5,3.6,1.5c0.8,0.7,1.2,1.3,1.2,2
		c0,0.6-0.2,1-0.6,1.4c-0.4,0.4-0.9,0.6-1.4,0.5c-0.5,0-1-0.3-1.5-0.8s-1-0.7-1.4-0.8c-0.5,0-1.4,0.3-2.5,1s-2.5,1.6-4.1,3l-0.1,5.8
		l5.5,0.1c0.9,0,1.6,0.2,2,0.6s0.6,0.8,0.6,1.4s-0.2,1-0.6,1.4c-0.4,0.3-1.1,0.5-2,0.5l-11.7-0.3c-0.9,0-1.6-0.2-2-0.6
		s-0.6-0.8-0.6-1.4s0.2-1,0.6-1.4s1.1-0.5,2-0.5l2.3,0.1l0.2-9.4h-1.4c-0.9,0-1.6-0.2-2-0.6s-0.6-0.8-0.6-1.4s0.2-1,0.6-1.4
		c0.4-0.3,1.1-0.5,2-0.5L232.5,90z"/>
	<path class="st1" d="M259.6,107.9V107c-1,0.5-2.1,0.9-3.2,1.1c-1.2,0.2-2.3,0.3-3.2,0.3c-2.1,0-3.8-0.6-5-1.8
		c-1.3-1.1-1.9-2.4-1.9-3.7c0-1.6,0.9-3.1,2.6-4.5s4-2,6.9-1.9c1.2,0,2.5,0.2,4.1,0.5v-0.9c0-0.6-0.2-1.1-0.7-1.4
		c-0.5-0.4-1.4-0.6-2.8-0.6c-1.1,0-2.6,0.2-4.5,0.6c-0.7,0.1-1.2,0.2-1.6,0.2c-0.5,0-1-0.2-1.3-0.6s-0.5-0.9-0.5-1.4
		c0-0.3,0.1-0.6,0.2-0.8c0.1-0.2,0.3-0.4,0.5-0.6c0.2-0.1,0.7-0.3,1.4-0.5c1-0.2,1.9-0.4,2.9-0.6c1-0.1,1.9-0.2,2.7-0.2
		c2.4,0.1,4.3,0.6,5.6,1.7c1.3,1.1,1.9,2.5,1.9,4.3l-0.2,8h0.7c0.9,0,1.6,0.2,2,0.6s0.6,0.8,0.6,1.4s-0.2,1-0.6,1.4s-1.1,0.5-2,0.5
		L259.6,107.9z M259.8,100.9c-1.5-0.3-3-0.5-4.3-0.6c-1.6,0-2.9,0.3-4.1,1.1c-0.7,0.5-1.1,1-1.1,1.5c0,0.4,0.2,0.7,0.5,0.9
		c0.6,0.4,1.5,0.7,2.6,0.7c0.9,0,2-0.1,3.2-0.5c1.2-0.3,2.3-0.8,3.2-1.4V100.9z"/>
	<path class="st1" d="M275.9,91.1v1.3c0.7-0.6,1.5-1,2.4-1.3s1.8-0.4,2.8-0.4c2.3,0.1,4.1,0.8,5.4,2.3c1,1.2,1.5,2.7,1.5,4.5
		l-0.2,7.2c0.8,0,1.4,0.2,1.8,0.6s0.6,0.8,0.6,1.4s-0.2,1-0.6,1.4c-0.4,0.3-1.1,0.5-2,0.5l-3.5-0.1c-0.9,0-1.6-0.2-2-0.6
		s-0.6-0.8-0.6-1.4s0.2-1,0.6-1.4s1-0.5,1.8-0.5l0.2-7.3c0-0.8-0.2-1.5-0.6-1.9c-0.6-0.5-1.5-0.8-2.7-0.8c-0.9,0-1.7,0.1-2.4,0.5
		c-0.7,0.3-1.6,1-2.6,2.1l-0.2,7.2c1,0,1.6,0.1,1.9,0.3c0.6,0.4,0.9,1,0.9,1.7c0,0.6-0.2,1-0.6,1.4s-1.1,0.5-2,0.5l-4.4-0.1
		c-0.9,0-1.6-0.2-2-0.6s-0.6-0.8-0.6-1.4c0-0.7,0.3-1.2,0.9-1.6c0.3-0.2,1-0.3,2-0.2l0.2-9.4c-0.8,0-1.4-0.2-1.8-0.6
		s-0.6-0.8-0.6-1.4s0.2-1,0.6-1.4c0.4-0.3,1.1-0.5,2-0.5L275.9,91.1z"/>
	<path class="st1" d="M312.1,84.6l-0.5,20.7h0.7c0.9,0,1.6,0.2,2,0.6s0.6,0.8,0.6,1.4s-0.2,1-0.6,1.4c-0.4,0.3-1.1,0.5-2,0.5
		l-4.5-0.1v-0.9c-0.9,0.5-1.8,0.9-2.8,1.1s-2,0.3-3,0.3c-2.9-0.1-5.2-1-7-2.7c-1.7-1.7-2.6-3.8-2.5-6.4s1.1-4.8,3-6.7
		c1.9-1.8,4.2-2.7,6.9-2.6c1,0,2,0.2,3,0.5s1.9,0.8,2.8,1.5l0.1-4.8h-0.7c-0.9,0-1.6-0.2-2-0.6S305,87,305,86.4s0.2-1,0.6-1.4
		s1.1-0.5,2-0.5L312.1,84.6z M307.8,101c0-1.6-0.5-3-1.6-4.1s-2.5-1.7-4.1-1.8c-1.6,0-3,0.5-4.1,1.6s-1.7,2.4-1.8,4
		c0,1.4,0.4,2.6,1.4,3.5s2.4,1.4,4.2,1.5c1.8,0,3.3-0.4,4.3-1.3C307.3,103.5,307.8,102.3,307.8,101z"/>
	<path class="st1" d="M336.2,101.4c0,1.5-0.5,2.9-1.3,4.3c-0.9,1.4-2.1,2.5-3.8,3.2c-1.7,0.8-3.4,1.2-5.1,1.1c-1.8,0-3.4-0.5-5-1.3
		c-1.6-0.9-2.8-2-3.6-3.4c-0.8-1.4-1.2-2.9-1.2-4.4c0-1.6,0.5-3.1,1.4-4.5c0.9-1.5,2.2-2.6,3.8-3.4c1.6-0.8,3.3-1.2,5.1-1.2
		c1.8,0,3.5,0.5,5.1,1.4s2.8,2.1,3.6,3.6C335.8,98.3,336.2,99.9,336.2,101.4z M332.3,101.4c0-1.2-0.4-2.4-1.3-3.5
		c-1.2-1.4-2.8-2.2-4.8-2.2c-1.8,0-3.2,0.5-4.4,1.6c-1.2,1.1-1.8,2.4-1.9,3.9c0,1.2,0.5,2.4,1.7,3.4c1.2,1.1,2.6,1.6,4.3,1.7
		c1.7,0,3.2-0.4,4.4-1.5C331.6,103.7,332.2,102.6,332.3,101.4z"/>
	<path class="st1" d="M343.6,92.7v1.1c0.6-0.6,1.2-1,1.7-1.2s1.1-0.3,1.8-0.3c0.6,0,1.1,0.2,1.7,0.5c0.5,0.3,1.1,0.7,1.6,1.3
		c0.7-0.5,1.4-0.9,2.1-1.2c0.7-0.3,1.4-0.4,2.1-0.4c1.4,0,2.6,0.4,3.5,1.2c1.2,1,1.7,2.4,1.7,4l-0.2,8.7c0.8,0,1.4,0.2,1.8,0.6
		s0.6,0.8,0.6,1.4s-0.2,1-0.6,1.4s-1.1,0.5-2,0.5l-3.7-0.1L356,98c0-0.6-0.1-1-0.3-1.2c-0.2-0.2-0.5-0.4-1-0.4
		c-0.4,0-0.8,0.1-1.2,0.3c-0.5,0.3-1.1,0.9-1.7,1.7l-0.2,7.8c0.8,0,1.4,0.2,1.8,0.6s0.6,0.8,0.6,1.4s-0.2,1-0.6,1.4s-1.1,0.5-2,0.5
		l-3.7-0.1l0.3-12.2c0-0.6-0.1-1-0.3-1.2c-0.2-0.2-0.5-0.4-1-0.4s-0.9,0.1-1.4,0.4c-0.4,0.3-1,0.8-1.6,1.7l-0.2,7.8
		c0.8,0,1.4,0.2,1.8,0.6s0.6,0.8,0.6,1.4s-0.2,1-0.6,1.4s-1.1,0.5-2,0.5l-3.5-0.1c-0.9,0-1.6-0.2-2-0.6s-0.6-0.8-0.6-1.4
		s0.2-1,0.6-1.4s1-0.5,1.8-0.5l0.2-9.4c-0.8,0-1.4-0.2-1.8-0.6s-0.6-0.8-0.6-1.4s0.2-1,0.6-1.4c0.4-0.3,1.1-0.5,2-0.5L343.6,92.7z"
		/>
	<path d="M371.2,101.1c0.1-2.2,0.5-4.4,1.3-6.7c0.6-1.7,1.5-3.5,2.7-5.5c0.9-1.4,1.5-2.3,1.9-2.7c0.4-0.3,0.8-0.5,1.3-0.5
		c0.6,0,1,0.2,1.4,0.6s0.5,0.8,0.5,1.4c0,0.4-0.2,0.8-0.5,1.3c-1.4,2.2-2.5,4.3-3.1,6.2c-0.7,1.9-1,3.9-1.1,5.9c0,2,0.2,4,0.8,6
		c0.6,2,1.5,4.1,2.8,6.4c0.3,0.5,0.4,0.9,0.4,1.3c0,0.5-0.2,1-0.6,1.3c-0.4,0.4-0.9,0.5-1.4,0.5s-0.9-0.2-1.2-0.5
		c-0.5-0.5-1.1-1.5-1.9-3c-1.1-2.3-1.9-4.1-2.3-5.6C371.5,105.5,371.2,103.3,371.2,101.1z"/>
	<path d="M397.5,101.8c-0.1,2.2-0.5,4.4-1.3,6.7c-0.6,1.7-1.5,3.5-2.7,5.5c-0.9,1.4-1.5,2.3-1.9,2.7c-0.4,0.3-0.8,0.5-1.3,0.5
		c-0.6,0-1-0.2-1.4-0.6s-0.5-0.8-0.5-1.4c0-0.4,0.2-0.8,0.5-1.3c1.4-2.2,2.5-4.3,3.1-6.2c0.7-1.9,1-3.9,1.1-5.9c0-2-0.2-4-0.8-6
		c-0.6-2-1.5-4.1-2.8-6.4c-0.3-0.5-0.4-1-0.4-1.3c0-0.5,0.2-1,0.6-1.3c0.4-0.4,0.9-0.5,1.4-0.5s0.9,0.2,1.2,0.5
		c0.5,0.4,1.1,1.4,1.9,3c1.1,2.3,1.9,4.1,2.3,5.6C397.3,97.5,397.6,99.6,397.5,101.8z"/>
</g>
<g>
	<path d="M40.4,168.2l0.2,10.5h1.3c0.9,0,1.5,0.1,1.8,0.5c0.4,0.3,0.6,0.7,0.6,1.3c0,0.5-0.2,0.9-0.5,1.3c-0.4,0.3-1,0.5-1.8,0.5
		l-4.6,0.1c-0.9,0-1.5-0.1-1.8-0.4c-0.4-0.3-0.6-0.7-0.6-1.3c0-0.5,0.2-0.9,0.5-1.3c0.3-0.3,0.9-0.5,1.6-0.5L36.8,165
		c-0.6,0-1.1-0.2-1.4-0.5c-0.3-0.3-0.5-0.7-0.5-1.2s0.2-1,0.5-1.3c0.4-0.3,1-0.5,1.8-0.5l3.9-0.1l5.1,10.5l4.5-10.8l3.9-0.1
		c0.9,0,1.5,0.1,1.8,0.4c0.4,0.3,0.6,0.7,0.6,1.3c0,0.5-0.1,0.9-0.5,1.2c-0.3,0.3-0.8,0.5-1.4,0.6l0.3,13.8c0.7,0,1.3,0.1,1.7,0.5
		c0.4,0.3,0.6,0.7,0.6,1.3c0,0.5-0.2,0.9-0.5,1.3c-0.4,0.3-1,0.5-1.8,0.5l-4.7,0.1c-0.8,0-1.4-0.1-1.8-0.4c-0.4-0.3-0.6-0.7-0.6-1.3
		c0-0.5,0.2-0.9,0.5-1.3c0.4-0.3,1-0.5,1.8-0.5h1.3L51.6,168l-3.8,9.2l-3.1,0.1L40.4,168.2z"/>
	<path d="M70.6,181.6v-0.8c-0.9,0.5-1.8,0.9-2.9,1.1c-1.1,0.3-2,0.4-2.9,0.4c-1.9,0-3.4-0.4-4.7-1.4c-1.2-1-1.8-2.1-1.9-3.3
		c0-1.5,0.7-2.9,2.2-4.2s3.6-2,6.2-2.1c1.1,0,2.3,0.1,3.7,0.3v-0.8c0-0.5-0.2-1-0.7-1.3s-1.3-0.5-2.6-0.4c-1,0-2.4,0.3-4.1,0.7
		c-0.6,0.2-1.1,0.3-1.4,0.3c-0.5,0-0.9-0.1-1.2-0.5c-0.3-0.3-0.5-0.8-0.5-1.3c0-0.3,0-0.6,0.2-0.8c0.1-0.2,0.3-0.4,0.5-0.5
		s0.6-0.3,1.3-0.5c0.9-0.3,1.8-0.5,2.7-0.6c0.9-0.2,1.7-0.3,2.5-0.3c2.2-0.1,3.9,0.4,5.1,1.3c1.2,0.9,1.9,2.2,1.9,3.8l0.2,7.3h0.6
		c0.9,0,1.5,0.1,1.8,0.4c0.4,0.3,0.6,0.7,0.6,1.3c0,0.5-0.2,0.9-0.5,1.3c-0.4,0.3-1,0.5-1.8,0.5L70.6,181.6z M70.5,175.3
		c-1.4-0.2-2.7-0.4-3.9-0.3c-1.4,0-2.7,0.4-3.7,1.1c-0.6,0.5-0.9,0.9-0.9,1.4c0,0.3,0.2,0.6,0.5,0.8c0.6,0.4,1.4,0.5,2.4,0.5
		c0.9,0,1.8-0.2,2.9-0.6c1.1-0.4,2-0.8,2.8-1.4L70.5,175.3z"/>
	<path d="M87.5,169.1l0.2,7.1c0,0.8,0.2,1.3,0.5,1.5c0.5,0.4,1.4,0.5,2.6,0.5c1.8,0,3.5-0.5,5-1.3c0.6-0.3,1-0.5,1.4-0.5
		c0.5,0,0.9,0.2,1.2,0.5c0.3,0.3,0.5,0.8,0.5,1.2c0,0.5-0.2,0.9-0.5,1.2c-0.6,0.6-1.7,1.1-3.3,1.6c-1.7,0.5-3,0.8-4.2,0.8
		c-2.2,0.1-3.9-0.4-5-1.3s-1.7-2.1-1.7-3.5l-0.2-7.8h-1.3c-0.9,0-1.5-0.1-1.8-0.4c-0.4-0.3-0.6-0.7-0.6-1.3c0-0.5,0.2-0.9,0.5-1.3
		c0.4-0.3,1-0.5,1.8-0.5h1.3l-0.1-3.2c0-0.8,0.1-1.5,0.4-1.8c0.3-0.4,0.7-0.6,1.3-0.6c0.5,0,0.9,0.2,1.3,0.5c0.3,0.4,0.5,1,0.5,1.8
		l0.1,3.2l6.5-0.2c0.9,0,1.5,0.1,1.8,0.4c0.4,0.3,0.6,0.7,0.6,1.3c0,0.5-0.2,0.9-0.5,1.3c-0.4,0.3-1,0.5-1.8,0.5L87.5,169.1z"/>
	<path d="M105.7,158.4l0.2,7.5c0.7-0.5,1.5-0.8,2.2-1s1.5-0.4,2.3-0.4c1.2,0,2.3,0.2,3.3,0.5c1,0.4,1.8,1,2.4,1.9s1,2,1,3.3l0.2,6.6
		c0.9,0,1.5,0.1,1.8,0.2c0.6,0.3,0.8,0.8,0.9,1.5c0,0.5-0.2,0.9-0.5,1.3c-0.3,0.3-0.9,0.5-1.8,0.5l-4,0.1c-0.8,0-1.4-0.1-1.8-0.4
		c-0.4-0.3-0.6-0.7-0.6-1.3s0.2-1.2,0.8-1.5c0.3-0.2,0.9-0.3,1.8-0.3l-0.1-6.4c0-0.9-0.2-1.5-0.7-1.9c-0.6-0.5-1.4-0.7-2.4-0.7
		c-0.8,0-1.5,0.2-2.1,0.5s-1.4,1-2.4,2l0.2,6.6c0.9,0,1.5,0.1,1.8,0.2c0.6,0.3,0.9,0.8,0.9,1.5c0,0.5-0.2,0.9-0.5,1.3
		c-0.4,0.3-1,0.5-1.8,0.5l-4,0.1c-0.9,0-1.5-0.1-1.8-0.4c-0.4-0.3-0.6-0.7-0.6-1.3s0.3-1.2,0.8-1.5c0.3-0.2,0.9-0.3,1.8-0.3
		l-0.4-15.3H102c-0.9,0-1.5-0.1-1.8-0.4c-0.4-0.3-0.6-0.7-0.6-1.3c0-0.5,0.2-0.9,0.5-1.3c0.4-0.3,1-0.5,1.8-0.5L105.7,158.4z"/>
	<path d="M133.7,178.4c0,0.7-0.2,1.2-0.7,1.7s-1.1,0.7-1.9,0.7c-0.8,0-1.5-0.2-2-0.6c-0.5-0.4-0.7-1-0.7-1.7s0.2-1.2,0.7-1.7
		s1.1-0.7,1.9-0.7s1.5,0.2,2,0.6C133.4,177.1,133.7,177.7,133.7,178.4z"/>
	<path class="st1" d="M151.9,167.6l0.2,8.6l5-0.1c0.9,0,1.5,0.1,1.8,0.4c0.4,0.3,0.6,0.7,0.6,1.3c0,0.5-0.2,0.9-0.5,1.3
		c-0.4,0.3-1,0.5-1.8,0.5l-10.7,0.2c-0.9,0-1.5-0.1-1.8-0.4c-0.4-0.3-0.6-0.7-0.6-1.3c0-0.5,0.2-0.9,0.5-1.3c0.4-0.3,1-0.5,1.8-0.5
		h2.1l-0.2-8.6h-1.7c-0.9,0-1.5-0.1-1.8-0.4c-0.4-0.3-0.6-0.7-0.6-1.3c0-0.5,0.2-0.9,0.5-1.3c0.4-0.3,1-0.5,1.8-0.5h1.7v-1.3
		c0-1.5,0.5-2.8,1.6-3.9c1.1-1,2.8-1.6,5-1.6c1,0,2.1,0,3.4,0.2c1.3,0.1,2.1,0.4,2.5,0.7s0.6,0.7,0.6,1.2s-0.1,1-0.5,1.3
		c-0.3,0.3-0.7,0.5-1.2,0.5c-0.2,0-0.5,0-1-0.1c-1.5-0.3-2.8-0.4-3.9-0.3c-1.2,0-2,0.2-2.4,0.6c-0.4,0.4-0.6,0.8-0.6,1.3v1.3
		l5.4-0.1c0.9,0,1.5,0.1,1.8,0.4c0.4,0.3,0.6,0.7,0.6,1.3c0,0.5-0.2,0.9-0.5,1.3c-0.4,0.3-1,0.5-1.8,0.5L151.9,167.6z"/>
	<path class="st1" d="M174.7,156.8l0.4,18.8l4.2-0.1c0.9,0,1.5,0.1,1.8,0.5c0.4,0.3,0.6,0.7,0.6,1.3c0,0.5-0.2,0.9-0.5,1.3
		c-0.4,0.3-1,0.5-1.8,0.5l-12,0.3c-0.9,0-1.5-0.1-1.8-0.4c-0.4-0.3-0.6-0.7-0.6-1.3c0-0.5,0.2-0.9,0.5-1.3c0.4-0.3,1-0.5,1.8-0.5
		l4.2-0.1l-0.4-15.3l-2.8,0.1c-0.8,0-1.4-0.1-1.8-0.4c-0.4-0.3-0.6-0.7-0.6-1.3c0-0.5,0.2-0.9,0.5-1.3c0.4-0.3,1-0.5,1.8-0.5
		L174.7,156.8z"/>
	<path class="st1" d="M203.6,171c0,1.4-0.3,2.7-1,4s-1.8,2.3-3.3,3.1s-3,1.2-4.6,1.2s-3.2-0.3-4.6-1c-1.5-0.7-2.6-1.7-3.4-2.9
		c-0.8-1.3-1.2-2.6-1.2-4s0.3-2.8,1.1-4.2c0.7-1.4,1.8-2.5,3.3-3.3c1.4-0.8,3-1.2,4.6-1.3c1.6,0,3.2,0.3,4.7,1.1s2.7,1.8,3.4,3.1
		C203.2,168.2,203.6,169.5,203.6,171z M200.1,171.1c0-1.1-0.5-2.2-1.3-3.1c-1.1-1.3-2.6-1.9-4.4-1.8c-1.6,0-2.9,0.6-4,1.6
		c-1,1-1.6,2.2-1.5,3.6c0,1.1,0.6,2.1,1.7,3.1c1.1,0.9,2.4,1.4,4,1.3c1.6,0,2.9-0.5,4-1.5S200.1,172.2,200.1,171.1z"/>
	<path class="st1" d="M224.8,170.5c0,1.4-0.3,2.7-1,4s-1.8,2.3-3.3,3.1s-3,1.2-4.6,1.2s-3.2-0.3-4.6-1c-1.5-0.7-2.6-1.7-3.4-2.9
		c-0.8-1.3-1.2-2.6-1.2-4s0.3-2.8,1.1-4.2c0.7-1.4,1.8-2.5,3.3-3.3c1.4-0.8,3-1.2,4.6-1.3c1.6,0,3.2,0.3,4.7,1.1s2.7,1.8,3.4,3.1
		C224.4,167.7,224.8,169,224.8,170.5z M221.3,170.6c0-1.1-0.5-2.2-1.3-3.1c-1.1-1.3-2.6-1.9-4.4-1.8c-1.6,0-2.9,0.6-4,1.6
		c-1,1-1.6,2.2-1.5,3.6c0,1.1,0.6,2.1,1.7,3.1c1.1,0.9,2.4,1.4,4,1.3c1.6,0,2.9-0.5,4-1.5C220.8,172.7,221.3,171.7,221.3,170.6z"/>
	<path class="st1" d="M235.9,162.1l0.1,2.2c1.5-1.1,2.6-1.8,3.5-2.2c0.8-0.4,1.6-0.6,2.4-0.6c1.1,0,2.3,0.4,3.4,1.2
		c0.7,0.6,1.1,1.1,1.1,1.7c0,0.5-0.2,0.9-0.5,1.3c-0.3,0.4-0.8,0.5-1.3,0.6c-0.4,0-0.9-0.2-1.4-0.6c-0.5-0.4-0.9-0.6-1.3-0.6
		c-0.5,0-1.2,0.3-2.2,1c-1,0.6-2.2,1.6-3.6,2.9l0.1,5.3l5-0.1c0.9,0,1.5,0.1,1.8,0.4c0.4,0.3,0.6,0.7,0.6,1.3c0,0.5-0.2,0.9-0.5,1.3
		c-0.4,0.3-1,0.5-1.8,0.5l-10.7,0.2c-0.9,0-1.5-0.1-1.8-0.4c-0.4-0.3-0.6-0.7-0.6-1.3c0-0.5,0.2-0.9,0.5-1.3c0.4-0.3,1-0.5,1.8-0.5
		h2.1l-0.2-8.6h-1.3c-0.9,0-1.5-0.1-1.8-0.4c-0.4-0.3-0.6-0.7-0.6-1.3c0-0.5,0.2-0.9,0.5-1.3c0.4-0.3,1-0.5,1.8-0.5L235.9,162.1z"/>
	<path d="M256.7,168.7c0-2,0.2-4.1,0.9-6.1c0.5-1.5,1.2-3.2,2.2-5.1c0.7-1.4,1.2-2.2,1.6-2.5c0.3-0.3,0.7-0.5,1.2-0.5
		s0.9,0.2,1.3,0.5s0.5,0.7,0.5,1.2c0,0.3-0.1,0.7-0.4,1.2c-1.2,2.1-2.1,4-2.6,5.8s-0.8,3.6-0.7,5.4c0,1.8,0.4,3.6,1,5.4
		c0.6,1.8,1.6,3.7,2.8,5.7c0.3,0.4,0.4,0.8,0.4,1.2c0,0.5-0.2,0.9-0.5,1.3c-0.3,0.4-0.8,0.5-1.3,0.5c-0.4,0-0.8-0.1-1.1-0.4
		c-0.5-0.4-1.1-1.3-1.9-2.7c-1.1-2-1.9-3.7-2.4-5C257.1,172.6,256.8,170.6,256.7,168.7z"/>
	<path d="M275.5,161.2v1.2c0.6-0.6,1.3-1,2.1-1.3c0.8-0.3,1.6-0.5,2.5-0.5c2.1,0,3.8,0.6,5,1.8c1,1,1.5,2.4,1.5,4l0.2,6.6
		c0.7,0,1.3,0.1,1.7,0.5c0.4,0.3,0.6,0.7,0.6,1.3c0,0.5-0.2,0.9-0.5,1.3c-0.4,0.3-1,0.5-1.8,0.5l-3.2,0.1c-0.9,0-1.5-0.1-1.8-0.4
		c-0.4-0.3-0.6-0.7-0.6-1.3c0-0.5,0.2-0.9,0.5-1.3c0.3-0.3,0.9-0.5,1.6-0.5l-0.2-6.7c0-0.8-0.2-1.3-0.7-1.7
		c-0.6-0.4-1.4-0.7-2.4-0.6c-0.8,0-1.5,0.2-2.1,0.5s-1.4,1-2.3,2.1l0.2,6.6c0.9,0,1.5,0.1,1.8,0.2c0.6,0.3,0.9,0.8,0.9,1.5
		c0,0.5-0.2,0.9-0.5,1.3c-0.4,0.3-1,0.5-1.8,0.5l-4,0.1c-0.9,0-1.5-0.1-1.8-0.4c-0.4-0.3-0.6-0.7-0.6-1.3s0.2-1.2,0.8-1.5
		c0.3-0.2,0.9-0.3,1.8-0.3l-0.2-8.6c-0.7,0-1.3-0.1-1.7-0.5c-0.4-0.3-0.6-0.7-0.6-1.3c0-0.5,0.2-0.9,0.5-1.3c0.4-0.3,1-0.5,1.8-0.5
		L275.5,161.2z"/>
	<path d="M307.7,160.4l0.3,12.1c0.7,0,1.3,0.1,1.7,0.5c0.4,0.3,0.6,0.7,0.6,1.3c0,0.5-0.2,0.9-0.5,1.3c-0.4,0.3-1,0.5-1.8,0.5
		l-3.4,0.1v-0.8c-1,0.5-2,0.9-2.9,1.1c-0.9,0.3-1.8,0.4-2.6,0.4c-1.2,0-2.2-0.2-3-0.7c-0.9-0.5-1.6-1.1-2.1-2
		c-0.4-0.6-0.6-1.4-0.6-2.3l-0.2-7.6h-0.6c-0.9,0-1.5-0.1-1.8-0.4c-0.4-0.3-0.6-0.7-0.6-1.3c0-0.5,0.2-0.9,0.5-1.3
		c0.4-0.3,1-0.5,1.8-0.5l4.1-0.1l0.2,10.5c0,0.7,0.2,1.3,0.6,1.6s0.9,0.5,1.7,0.5c0.7,0,1.5-0.2,2.3-0.5s1.8-0.8,3-1.6l-0.2-7.2
		h-1.3c-0.9,0-1.5-0.1-1.8-0.4c-0.4-0.3-0.6-0.7-0.6-1.3c0-0.5,0.2-0.9,0.5-1.3c0.4-0.3,1-0.5,1.8-0.5L307.7,160.4z"/>
	<path d="M316,160.2v1c0.6-0.6,1.1-1,1.5-1.2c0.5-0.2,1-0.3,1.6-0.4c0.5,0,1,0.1,1.5,0.3s1,0.6,1.5,1.1c0.6-0.5,1.2-0.9,1.8-1.2
		c0.6-0.3,1.3-0.4,1.9-0.4c1.3,0,2.4,0.3,3.2,1c1.1,0.9,1.7,2.1,1.7,3.6l0.2,7.9c0.7,0,1.3,0.1,1.6,0.5c0.4,0.3,0.6,0.7,0.6,1.3
		c0,0.5-0.2,0.9-0.5,1.3c-0.3,0.3-0.9,0.5-1.8,0.5l-3.4,0.1l-0.3-11.2c0-0.5-0.1-0.9-0.3-1.1c-0.2-0.2-0.5-0.3-0.9-0.3
		s-0.7,0.1-1.1,0.3c-0.4,0.3-0.9,0.8-1.5,1.7l0.2,7.1c0.7,0,1.3,0.1,1.6,0.5c0.4,0.3,0.6,0.7,0.6,1.3c0,0.5-0.2,0.9-0.5,1.3
		c-0.3,0.3-0.9,0.5-1.8,0.5l-3.4,0.1l-0.3-11.2c0-0.5-0.1-0.9-0.3-1.1c-0.2-0.2-0.5-0.3-0.9-0.3s-0.8,0.1-1.2,0.4
		c-0.4,0.3-0.9,0.8-1.4,1.6l0.2,7.1c0.7,0,1.3,0.1,1.7,0.5c0.4,0.3,0.6,0.7,0.6,1.3c0,0.5-0.2,0.9-0.5,1.3c-0.4,0.3-1,0.5-1.8,0.5
		L313,176c-0.9,0-1.5-0.1-1.8-0.4c-0.4-0.3-0.6-0.7-0.6-1.3c0-0.5,0.2-0.9,0.5-1.3c0.3-0.3,0.9-0.5,1.6-0.5l-0.2-8.6
		c-0.7,0-1.3-0.1-1.7-0.5c-0.4-0.3-0.6-0.7-0.6-1.3s0.2-0.9,0.5-1.3c0.4-0.3,1-0.5,1.8-0.5L316,160.2z"/>
	<path d="M344.3,166.6c0,2-0.2,4.1-0.9,6.1c-0.5,1.5-1.2,3.2-2.2,5.1c-0.7,1.4-1.2,2.2-1.6,2.5c-0.3,0.3-0.7,0.5-1.2,0.5
		s-0.9-0.2-1.3-0.5s-0.5-0.7-0.5-1.2c0-0.3,0.1-0.7,0.4-1.2c1.2-2.1,2.1-4,2.6-5.8s0.8-3.6,0.7-5.5c0-1.8-0.4-3.6-1-5.4
		c-0.6-1.8-1.6-3.7-2.8-5.7c-0.3-0.5-0.4-0.8-0.4-1.2c0-0.5,0.2-0.9,0.5-1.3c0.3-0.4,0.8-0.5,1.3-0.5c0.4,0,0.8,0.1,1.1,0.4
		c0.5,0.4,1.1,1.3,1.9,2.7c1.1,2,1.9,3.7,2.4,5C343.9,162.7,344.2,164.7,344.3,166.6z"/>
</g>
</svg>
