<?xml version="1.0" encoding="utf-8"?>
<!-- Generator: Adobe Illustrator 26.0.3, SVG Export Plug-In . SVG Version: 6.00 Build 0)  -->
<svg version="1.1" id="Layer_1" xmlns="http://www.w3.org/2000/svg" xmlns:xlink="http://www.w3.org/1999/xlink" x="0px" y="0px"
	 viewBox="0 0 432 288" style="enable-background:new 0 0 432 288;" xml:space="preserve">
<style type="text/css">
	.st0{fill:#EFEFEF;}
	.st1{fill:#494949;}
	.st2{fill:#C6C6C6;}
</style>
<rect x="10.8" y="11.1" class="st0" width="410.4" height="265.7"/>
<path class="st1" d="M359.5,55v145.6c0,5-4.1,9.1-9.1,9.1H136.5c-5,0-9.1-4.1-9.1-9.1V55c0-5,4.1-9.1,9.1-9.1h213.9
	C355.5,46,359.5,50,359.5,55z"/>
<path class="st2" d="M333.8,204.7H136.5c-2.2,0-4.1-1.8-4.1-4.1V55c0-2.2,1.8-4.1,4.1-4.1h197.2c2.2,0,4.1,1.8,4.1,4.1v145.6
	C337.8,202.9,336,204.7,333.8,204.7z"/>
<path class="st2" d="M353.3,125.2v5.3c0,2-1.7,3.7-3.7,3.7h-1.2c-2,0-3.7-1.7-3.7-3.7v-5.3c0-2,1.7-3.7,3.7-3.7h1.2
	C351.7,121.5,353.3,123.1,353.3,125.2z"/>
<g>
	<path class="st1" d="M81.6,243.5c-5.8,0-10.6-4.8-10.6-10.6V105.2c0-5.8,4.8-10.6,10.6-10.6h61.5c5.8,0,10.6,4.8,10.6,10.6V233
		c0,5.8-4.8,10.6-10.6,10.6H81.6z"/>
	<path class="st0" d="M143.1,96.1c5,0,9.1,4.1,9.1,9.1V233c0,5-4.1,9.1-9.1,9.1H81.6c-5,0-9.1-4.1-9.1-9.1V105.2
		c0-5,4.1-9.1,9.1-9.1H143.1 M143.1,93.1H81.6c-6.7,0-12.1,5.4-12.1,12.1V233c0,6.7,5.4,12.1,12.1,12.1h61.5
		c6.7,0,12.1-5.4,12.1-12.1V105.2C155.2,98.5,149.8,93.1,143.1,93.1L143.1,93.1z"/>
</g>
<path class="st2" d="M81.6,220.3c-2.2,0-4.1-1.8-4.1-4.1V105.2c0-2.2,1.8-4.1,4.1-4.1h61.5c2.2,0,4.1,1.8,4.1,4.1v111.1
	c0,2.2-1.8,4.1-4.1,4.1H81.6z"/>
<path class="st2" d="M116.4,236.8h-8.1c-2,0-3.7-1.7-3.7-3.7v-3c0-2,1.7-3.7,3.7-3.7h8.1c2,0,3.7,1.7,3.7,3.7v3
	C120.1,235.1,118.4,236.8,116.4,236.8z"/>
</svg>
