<?xml version="1.0" encoding="utf-8"?>
<!-- Generator: Adobe Illustrator 26.0.2, SVG Export Plug-In . SVG Version: 6.00 Build 0)  -->
<svg version="1.1" id="Layer_1" xmlns="http://www.w3.org/2000/svg" xmlns:xlink="http://www.w3.org/1999/xlink" x="0px" y="0px"
	 viewBox="0 0 432 288" style="enable-background:new 0 0 432 288;" xml:space="preserve">
<style type="text/css">
	.st0{fill:#EFEFEF;}
	.st1{fill:#283FB2;}
	.st2{fill:#339933;}
</style>
<rect x="10.8" y="11.1" class="st0" width="410.4" height="265.7"/>
<path class="st1" d="M257.4,81.7h-3h-49.1v14.7h-29.6v14.7h-29.6v95.1h75.3v-14.7H251v-14.7h29.6V108v-3L257.4,81.7z M258.6,89
	l14.8,14.8h-14.8V89z M217.2,202h-66.9h0v-86.5h0h25.4v76h41.5L217.2,202z M246.8,187.3h-25.4h-4.2h-37.2v-71.8v-4.3v-10.4h25.4
	v17.6v6v8.9v4.2v39.3h11.8h4.3h25.4L246.8,187.3z M251,172.6h-4.2h-25.4h-4.3h-7.6v-35.1v-4.2v-4.7v-6v-21.8v-4.3V86h44.8v22h22
	l0.1,64.5H251z"/>
<rect x="95.7" y="129.3" class="st2" width="14.2" height="14.2"/>
<path class="st0" d="M109.9,129.3v14.2H95.7v-14.2H109.9 M111.9,127.3h-2H95.7h-2v2v14.2v2h2h14.2h2v-2v-14.2V127.3L111.9,127.3z"/>
<rect x="117.1" y="150.7" class="st2" width="14.2" height="14.2"/>
<path class="st0" d="M131.3,150.7v14.2h-14.2v-14.2H131.3 M133.3,148.7h-2h-14.2h-2v2v14.2v2h2h14.2h2v-2v-14.2V148.7L133.3,148.7z"
	/>
<rect x="154.2" y="129.3" class="st2" width="14.2" height="14.2"/>
<path class="st0" d="M168.4,129.3v14.2h-14.2v-14.2H168.4 M170.4,127.3h-2h-14.2h-2v2v14.2v2h2h14.2h2v-2v-14.2V127.3L170.4,127.3z"
	/>
<rect x="175.5" y="150.7" class="st2" width="14.2" height="14.2"/>
<path class="st0" d="M189.7,150.7v14.2h-14.2v-14.2H189.7 M191.7,148.7h-2h-14.2h-2v2v14.2v2h2h14.2h2v-2v-14.2V148.7L191.7,148.7z"
	/>
<rect x="212.6" y="129.3" class="st2" width="14.2" height="14.2"/>
<path class="st0" d="M226.8,129.3v14.2h-14.2v-14.2H226.8 M228.8,127.3h-2h-14.2h-2v2v14.2v2h2h14.2h2v-2v-14.2V127.3L228.8,127.3z"
	/>
<rect x="233.9" y="150.7" class="st2" width="14.2" height="14.2"/>
<path class="st0" d="M248.1,150.7v14.2h-14.2v-14.2H248.1 M250.1,148.7h-2h-14.2h-2v2v14.2v2h2h14.2h2v-2v-14.2V148.7L250.1,148.7z"
	/>
<rect x="233.9" y="129.3" class="st2" width="14.2" height="14.2"/>
<path class="st0" d="M248.1,129.3v14.2h-14.2v-14.2H248.1 M250.1,127.3h-2h-14.2h-2v2v14.2v2h2h14.2h2v-2v-14.2V127.3L250.1,127.3z"
	/>
<rect x="255.3" y="150.7" class="st2" width="14.2" height="14.2"/>
<path class="st0" d="M269.5,150.7v14.2h-14.2v-14.2H269.5 M271.5,148.7h-2h-14.2h-2v2v14.2v2h2h14.2h2v-2v-14.2V148.7L271.5,148.7z"
	/>
<rect x="292.3" y="129.3" class="st2" width="14.2" height="14.2"/>
<path class="st0" d="M306.6,129.3v14.2h-14.2v-14.2H306.6 M308.6,127.3h-2h-14.2h-2v2v14.2v2h2h14.2h2v-2v-14.2V127.3L308.6,127.3z"
	/>
<rect x="313.7" y="150.7" class="st2" width="14.2" height="14.2"/>
<path class="st0" d="M327.9,150.7v14.2h-14.2v-14.2H327.9 M329.9,148.7h-2h-14.2h-2v2v14.2v2h2h14.2h2v-2v-14.2V148.7L329.9,148.7z"
	/>
<path class="st1" d="M64.9,174.2c-0.8,0-1.5-0.3-2.1-0.9L33.4,144l29.3-29.3c1.2-1.2,3.1-1.2,4.2,0c1.2,1.2,1.2,3.1,0,4.2L41.9,144
	L67,169.1c1.2,1.2,1.2,3.1,0,4.2C66.4,173.9,65.7,174.2,64.9,174.2z"/>
<path class="st1" d="M367.1,174.2c-0.8,0-1.5-0.3-2.1-0.9c-1.2-1.2-1.2-3.1,0-4.2l25.1-25.1L365,118.9c-1.2-1.2-1.2-3.1,0-4.2
	c1.2-1.2,3.1-1.2,4.2,0l29.3,29.3l-29.3,29.3C368.6,173.9,367.9,174.2,367.1,174.2z"/>
</svg>
