<?xml version="1.0" encoding="utf-8"?>
<!-- Generator: Adobe Illustrator 26.5.0, SVG Export Plug-In . SVG Version: 6.00 Build 0)  -->
<svg version="1.1" id="Layer_1" xmlns="http://www.w3.org/2000/svg" xmlns:xlink="http://www.w3.org/1999/xlink" x="0px" y="0px"
	 viewBox="0 0 432 288" style="enable-background:new 0 0 432 288;" xml:space="preserve">
<style type="text/css">
	.st0{fill:#EFEFEF;}
	.st1{fill:#333333;}
	.st2{fill:#808080;}
	.st3{fill:#FFFFFF;}
	.st4{fill:#4D4D4D;}
	.st5{fill:#F2F2F2;}
	.st6{fill:#F15A24;}
	.st7{fill:#F7931E;}
	.st8{fill:#FBB03B;}
	.st9{fill:#245F7F;}
</style>
<rect x="10.8000002" y="11.1000004" class="st0" width="410.3999939" height="265.7000122"/>
<g>
	<path class="st1" d="M215.9998627,192.5270081L215.9998627,192.5270081c-2.6269684,0-4.7501373-2.1231689-4.7501373-4.7501221
		V31.850605c0-2.6269608,2.1231689-4.7501183,4.7501373-4.7501183l0,0c2.6269531,0,4.7501221,2.1231575,4.7501221,4.7501183
		v155.9622803C220.7499847,190.4038391,218.6268158,192.5270081,215.9998627,192.5270081z"/>
	<path class="st1" d="M150.3978271,260.3961487L150.3978271,260.3961487
		c-2.375061-1.0795898-3.4546356-3.8864746-2.375061-6.2615356l63.6587982-142.3956299
		c1.0795746-2.375061,3.8864594-3.454628,6.2615204-2.375061l0,0c2.375061,1.0795746,3.4546356,3.8864594,2.375061,6.2615204
		l-63.6587982,142.3596649C155.5797729,260.3961487,152.8088684,261.4397278,150.3978271,260.3961487z"/>
	<path class="st1" d="M213.3009186,109.3639221L213.3009186,109.3639221
		c-2.375061,1.0795746-3.4546356,3.8864594-2.375061,6.2615204l63.6587982,142.3596649
		c1.0795898,2.375061,3.8864746,3.4546204,6.2615356,2.375061l0,0c2.375061-1.0795898,3.4546204-3.8864746,2.375061-6.2615356
		L219.562439,111.7389832C218.4828796,109.3639221,215.6759949,108.2843552,213.3009186,109.3639221z"/>
	<path class="st1" d="M213.3009186,109.3639221L213.3009186,109.3639221
		c-2.375061,1.0795746-3.4546356,3.8864594-2.375061,6.2615204l63.6587982,142.3596649
		c1.0795898,2.375061,3.8864746,3.4546204,6.2615356,2.375061l0,0c2.375061-1.0795898,3.4546204-3.8864746,2.375061-6.2615356
		L219.562439,111.7389832C218.4828796,109.3639221,215.6759949,108.2843552,213.3009186,109.3639221z"/>
	<rect x="103.7242966" y="42.9702034" class="st2" width="224.5511322" height="155.0266266"/>
	<rect x="115.3117065" y="54.3057175" class="st3" width="201.3403168" height="132.3916016"/>
	<path class="st4" d="M328.6352844,197.9968567H103.3644333c-4.3182907,0-7.8448944-3.5266113-7.8448944-7.8448944l0,0
		c0-4.3182983,3.5266037-7.8448944,7.8448944-7.8448944h225.2708435c4.3182983,0,7.8448792,3.5265961,7.8448792,7.8448944l0,0
		C336.5161743,194.5062256,332.9895325,197.9968567,328.6352844,197.9968567z"/>
	<path class="st4" d="M328.6352844,53.6219902H103.3644333c-4.3182907,0-7.8448944-3.5266075-7.8448944-7.8448982l0,0
		c0-4.3182907,3.5266037-7.8448944,7.8448944-7.8448944h225.2708435c4.3182983,0,7.8448792,3.5266037,7.8448792,7.8448944l0,0
		C336.5161743,50.0953827,332.9895325,53.6219902,328.6352844,53.6219902z"/>
	<rect x="115.3117065" y="54.3057175" class="st5" width="201.3403168" height="9.2123556"/>
	<circle class="st6" cx="212.3652954" cy="116.1292496" r="48.3288727"/>
	<path class="st7" d="M212.3652954,116.1292496h48.3288879c0,26.5215073-21.807373,48.3288651-48.3288727,48.3288651
		s-48.3288727-21.8073578-48.3288727-48.3288651s21.807373-48.3288651,48.3288727-48.3288651
		c13.0628204,0,25.5858612,5.2899094,34.6902771,14.6821823L212.3652954,116.1292496z"/>
	<path class="st8" d="M212.3652954,116.1292496l18.8925323,44.5143967
		c-5.9736328,2.5189972-12.3791046,3.8504791-18.8925171,3.8504791c-26.5215149,0-48.3288727-21.807373-48.3288727-48.3288727
		s21.807373-48.3288651,48.3288727-48.3288651c13.0628204,0,25.5858612,5.2899094,34.6902771,14.6821823L212.3652954,116.1292496z"
		/>
	<path class="st9" d="M212.3652954,116.1292496L177.2791748,82.878418
		c9.1403809-9.6441803,21.807373-15.0780334,35.0861206-15.0780334c13.0628204,0,25.5858765,5.2899094,34.6902618,14.6821823
		L212.3652954,116.1292496z"/>
	<rect x="271.1300354" y="126.9609604" class="st9" width="9.2843208" height="6.0096259"/>
	<rect x="271.1300354" y="137.4687958" class="st8" width="9.2843208" height="6.0096259"/>
	<rect x="271.1300354" y="147.9766541" class="st7" width="9.2843208" height="6.0096259"/>
	<rect x="271.1300354" y="158.4485016" class="st6" width="9.2843208" height="6.0096259"/>
	<rect x="284.2648315" y="126.9609604" class="st5" width="22.0232887" height="6.0096259"/>
	<rect x="284.2648315" y="137.4687958" class="st5" width="22.0232887" height="6.0096259"/>
	<rect x="284.2648315" y="147.9766541" class="st5" width="22.0232887" height="6.0096259"/>
	<rect x="284.2648315" y="158.4485016" class="st5" width="22.0232887" height="6.0096259"/>
	<path class="st1" d="M163.7845154,223.8705902v-2.0511932c0-2.051178,1.6553497-3.7065277,3.7065277-3.7065277h94.4626007
		c2.0512085,0,3.706543,1.6553497,3.706543,3.7065277v2.0511932c0,2.0511932-1.6553345,3.706543-3.706543,3.706543h-94.4625854
		C165.4398651,227.5771484,163.7845154,225.9217834,163.7845154,223.8705902z"/>
</g>
</svg>
