<?xml version="1.0" encoding="utf-8"?>
<!-- Generator: Adobe Illustrator 26.0.3, SVG Export Plug-In . SVG Version: 6.00 Build 0)  -->
<svg version="1.1" id="Layer_1" xmlns="http://www.w3.org/2000/svg" xmlns:xlink="http://www.w3.org/1999/xlink" x="0px" y="0px"
	 viewBox="0 0 432 288" style="enable-background:new 0 0 432 288;" xml:space="preserve">
<style type="text/css">
	.st0{fill:#EFEFEF;}
	.st1{fill:#C9455E;}
	.st2{fill:#F7BF21;}
	.st3{fill:#353535;}
</style>
<rect x="10.8" y="11.1" class="st0" width="410.4" height="265.7"/>
<path class="st1" d="M248.3,70.3h-58.2c-10.6,0-19.2-8.6-19.2-19.2v0c0-10.6,8.6-19.2,19.2-19.2h58.2c10.6,0,19.2,8.6,19.2,19.2v0
	C267.6,61.7,259,70.3,248.3,70.3z"/>
<rect x="173.2" y="96.3" class="st2" width="92" height="36.7"/>
<polygon class="st1" points="248.7,171.5 219.2,184.1 189.7,171.5 219.2,159 "/>
<circle class="st2" cx="219.2" cy="233.1" r="23"/>
<path class="st3" d="M298.8,169.5h-44.5l-4-1.7l-29.1-12.4V137h44h4.1V133V96.3v-4.1h-4.1h-44V74.3h27.1c12.8,0,23.3-10.5,23.3-23.3
	c0-12.8-10.5-23.3-23.3-23.3h-58.2c-12.8,0-23.3,10.5-23.3,23.3c0,12.8,10.5,23.3,23.3,23.3h27.1v17.9h-44h-4.1v4.1v16.3h-36v61h51
	l4,1.7l29.5,12.5l1.6,0.7l1.6-0.7l29.5-12.5l4-1.7h40.4v57.5h-48.5c-1-14-12.7-25-27-25c-14.9,0-27.1,12.1-27.1,27.1
	c0,14.9,12.1,27.1,27.1,27.1c14.2,0,25.9-11.1,27-25h52.6V169.5z M170.9,51c0-10.6,8.6-19.2,19.2-19.2h58.2
	c10.6,0,19.2,8.6,19.2,19.2s-8.6,19.2-19.2,19.2h-58.2C179.5,70.3,170.9,61.7,170.9,51z M173.2,96.3h92V133h-44v0h-4.1v0h-44v-16.3
	v-4.1V96.3z M137.2,116.7h31.9V133v4.1h4.1h44v18.4l-29.1,12.4l-4,1.7h-46.9V116.7z M219.2,184.1l-29.5-12.5v0l29.5-12.5l29.5,12.5
	L219.2,184.1z M219.2,256.1c-12.7,0-23-10.3-23-23c0-12.7,10.3-23,23-23s23,10.3,23,23C242.3,245.8,232,256.1,219.2,256.1z"/>
</svg>
