<?xml version="1.0" encoding="utf-8"?>
<!-- Generator: Adobe Illustrator 26.0.1, SVG Export Plug-In . SVG Version: 6.00 Build 0)  -->
<svg version="1.1" id="Layer_1" xmlns="http://www.w3.org/2000/svg" xmlns:xlink="http://www.w3.org/1999/xlink" x="0px" y="0px"
	 viewBox="0 0 432 288" style="enable-background:new 0 0 432 288;" xml:space="preserve">
<style type="text/css">
	.st0{fill:#EFEFEF;}
	.st1{fill:#FFFFFF;}
	.st2{fill:#B2B2B2;}
	.st3{fill:#009900;}
	.st4{fill:#595959;}
	.st5{fill:#B71313;}
</style>
<rect x="10.8" y="11.1" class="st0" width="410.4" height="265.7"/>
<g>
	<path class="st1" d="M46.6,44.1H36.4c-1.8,0-3.2-1.4-3.2-3.2V30.7c0-1.8,1.4-3.2,3.2-3.2h10.2c1.8,0,3.2,1.4,3.2,3.2v10.2
		C49.9,42.7,48.4,44.1,46.6,44.1z"/>
	<path class="st2" d="M46.6,44.6H36.4c-2.1,0-3.7-1.7-3.7-3.7V30.7c0-2.1,1.7-3.7,3.7-3.7h10.2c2.1,0,3.7,1.7,3.7,3.7v10.2
		C50.4,42.9,48.7,44.6,46.6,44.6z M36.4,28c-1.5,0-2.7,1.2-2.7,2.7v10.2c0,1.5,1.2,2.7,2.7,2.7h10.2c1.5,0,2.7-1.2,2.7-2.7V30.7
		c0-1.5-1.2-2.7-2.7-2.7H36.4z"/>
</g>
<g>
	<path class="st3" d="M51.7,25c-0.1-0.2-0.4-0.2-0.6-0.1c-1.1,0.9-2.2,2-3.4,3.1c-2.7,2.8-4.9,5.6-6.7,8.5l-0.5-1.1
		c-1-2.1-1.8-3.2-2.6-3.2c-0.9,0-1.9,0.6-3,1.8c0.7,0.2,1.2,0.7,1.8,1.4c0.5,0.7,1.1,1.7,1.7,3.2l0.4,1c0.2,0.5,0.4,0.9,0.5,1.3
		c0.2,0.5,0.8,0.7,1.2,0.3c0.3-0.2,0.6-0.5,1.1-0.8l1.1-0.8c1.4-3,3.5-6.2,6.1-9.6c1.1-1.5,2.3-2.8,3.3-3.9c0.1-0.1,0.1-0.4,0-0.5
		L51.7,25z"/>
</g>
<path class="st4" d="M196.6,38.8H61.1c-1.7,0-3-1.3-3-3s1.3-3,3-3h135.5c1.7,0,3,1.3,3,3S198.2,38.8,196.6,38.8z"/>
<g>
	<path class="st1" d="M46.6,68.1H36.4c-1.8,0-3.2-1.4-3.2-3.2V54.7c0-1.8,1.4-3.2,3.2-3.2h10.2c1.8,0,3.2,1.4,3.2,3.2v10.2
		C49.9,66.7,48.4,68.1,46.6,68.1z"/>
	<path class="st2" d="M46.6,68.6H36.4c-2.1,0-3.7-1.7-3.7-3.7V54.7c0-2.1,1.7-3.7,3.7-3.7h10.2c2.1,0,3.7,1.7,3.7,3.7v10.2
		C50.4,66.9,48.7,68.6,46.6,68.6z M36.4,52c-1.5,0-2.7,1.2-2.7,2.7v10.2c0,1.5,1.2,2.7,2.7,2.7h10.2c1.5,0,2.7-1.2,2.7-2.7V54.7
		c0-1.5-1.2-2.7-2.7-2.7H36.4z"/>
</g>
<g>
	<path class="st3" d="M51.7,49c-0.1-0.2-0.4-0.2-0.6-0.1c-1.1,0.9-2.2,2-3.4,3.1c-2.7,2.8-4.9,5.6-6.7,8.5l-0.5-1.1
		c-1-2.1-1.8-3.2-2.6-3.2c-0.9,0-1.9,0.6-3,1.8c0.7,0.2,1.2,0.7,1.8,1.4c0.5,0.7,1.1,1.7,1.7,3.2l0.4,1c0.2,0.5,0.4,0.9,0.5,1.3
		c0.2,0.5,0.8,0.7,1.2,0.3c0.3-0.2,0.6-0.5,1.1-0.8l1.1-0.8c1.4-3,3.5-6.2,6.1-9.6c1.1-1.5,2.3-2.8,3.3-3.9c0.1-0.1,0.1-0.4,0-0.5
		L51.7,49z"/>
</g>
<path class="st4" d="M196.6,62.8H61.1c-1.7,0-3-1.3-3-3s1.3-3,3-3h135.5c1.7,0,3,1.3,3,3S198.2,62.8,196.6,62.8z"/>
<g>
	<path class="st1" d="M46.6,92.1H36.4c-1.8,0-3.2-1.4-3.2-3.2V78.7c0-1.8,1.4-3.2,3.2-3.2h10.2c1.8,0,3.2,1.4,3.2,3.2v10.2
		C49.9,90.7,48.4,92.1,46.6,92.1z"/>
	<path class="st2" d="M46.6,92.6H36.4c-2.1,0-3.7-1.7-3.7-3.7V78.7c0-2.1,1.7-3.7,3.7-3.7h10.2c2.1,0,3.7,1.7,3.7,3.7v10.2
		C50.4,90.9,48.7,92.6,46.6,92.6z M36.4,76c-1.5,0-2.7,1.2-2.7,2.7v10.2c0,1.5,1.2,2.7,2.7,2.7h10.2c1.5,0,2.7-1.2,2.7-2.7V78.7
		c0-1.5-1.2-2.7-2.7-2.7H36.4z"/>
</g>
<g>
	<path class="st3" d="M51.7,73c-0.1-0.2-0.4-0.2-0.6-0.1c-1.1,0.9-2.2,2-3.4,3.1c-2.7,2.8-4.9,5.6-6.7,8.5l-0.5-1.1
		c-1-2.1-1.8-3.2-2.6-3.2c-0.9,0-1.9,0.6-3,1.8c0.7,0.2,1.2,0.7,1.8,1.4c0.5,0.7,1.1,1.7,1.7,3.2l0.4,1c0.2,0.5,0.4,0.9,0.5,1.3
		c0.2,0.5,0.8,0.7,1.2,0.3c0.3-0.2,0.6-0.5,1.1-0.8l1.1-0.8c1.4-3,3.5-6.2,6.1-9.6c1.1-1.5,2.3-2.8,3.3-3.9c0.1-0.1,0.1-0.4,0-0.5
		L51.7,73z"/>
</g>
<path class="st4" d="M196.6,86.8H61.1c-1.7,0-3-1.3-3-3s1.3-3,3-3h135.5c1.7,0,3,1.3,3,3S198.2,86.8,196.6,86.8z"/>
<g>
	<path class="st1" d="M46.6,116.1H36.4c-1.8,0-3.2-1.4-3.2-3.2v-10.2c0-1.8,1.4-3.2,3.2-3.2h10.2c1.8,0,3.2,1.4,3.2,3.2v10.2
		C49.9,114.7,48.4,116.1,46.6,116.1z"/>
	<path class="st2" d="M46.6,116.6H36.4c-2.1,0-3.7-1.7-3.7-3.7v-10.2c0-2.1,1.7-3.7,3.7-3.7h10.2c2.1,0,3.7,1.7,3.7,3.7v10.2
		C50.4,114.9,48.7,116.6,46.6,116.6z M36.4,100c-1.5,0-2.7,1.2-2.7,2.7v10.2c0,1.5,1.2,2.7,2.7,2.7h10.2c1.5,0,2.7-1.2,2.7-2.7
		v-10.2c0-1.5-1.2-2.7-2.7-2.7H36.4z"/>
</g>
<path class="st4" d="M196.6,110.8H61.1c-1.7,0-3-1.3-3-3s1.3-3,3-3h135.5c1.7,0,3,1.3,3,3S198.2,110.8,196.6,110.8z"/>
<g>
	<path class="st1" d="M46.6,140.1H36.4c-1.8,0-3.2-1.4-3.2-3.2v-10.2c0-1.8,1.4-3.2,3.2-3.2h10.2c1.8,0,3.2,1.4,3.2,3.2v10.2
		C49.9,138.7,48.4,140.1,46.6,140.1z"/>
	<path class="st2" d="M46.6,140.6H36.4c-2.1,0-3.7-1.7-3.7-3.7v-10.2c0-2.1,1.7-3.7,3.7-3.7h10.2c2.1,0,3.7,1.7,3.7,3.7v10.2
		C50.4,138.9,48.7,140.6,46.6,140.6z M36.4,124c-1.5,0-2.7,1.2-2.7,2.7v10.2c0,1.5,1.2,2.7,2.7,2.7h10.2c1.5,0,2.7-1.2,2.7-2.7
		v-10.2c0-1.5-1.2-2.7-2.7-2.7H36.4z"/>
</g>
<g>
	<path class="st3" d="M51.7,121c-0.1-0.2-0.4-0.2-0.6-0.1c-1.1,0.9-2.2,2-3.4,3.1c-2.7,2.8-4.9,5.6-6.7,8.5l-0.5-1.1
		c-1-2.1-1.8-3.2-2.6-3.2c-0.9,0-1.9,0.6-3,1.8c0.7,0.2,1.2,0.7,1.8,1.4c0.5,0.7,1.1,1.7,1.7,3.2l0.4,1c0.2,0.5,0.4,0.9,0.5,1.3
		c0.2,0.5,0.8,0.7,1.2,0.3c0.3-0.2,0.6-0.5,1.1-0.8l1.1-0.8c1.4-3,3.5-6.2,6.1-9.6c1.1-1.5,2.3-2.8,3.3-3.9c0.1-0.1,0.1-0.4,0-0.5
		L51.7,121z"/>
</g>
<path class="st4" d="M196.6,134.8H61.1c-1.7,0-3-1.3-3-3s1.3-3,3-3h135.5c1.7,0,3,1.3,3,3S198.2,134.8,196.6,134.8z"/>
<g>
	<path class="st1" d="M46.6,164.1H36.4c-1.8,0-3.2-1.4-3.2-3.2v-10.2c0-1.8,1.4-3.2,3.2-3.2h10.2c1.8,0,3.2,1.4,3.2,3.2v10.2
		C49.9,162.7,48.4,164.1,46.6,164.1z"/>
	<path class="st2" d="M46.6,164.6H36.4c-2.1,0-3.7-1.7-3.7-3.7v-10.2c0-2.1,1.7-3.7,3.7-3.7h10.2c2.1,0,3.7,1.7,3.7,3.7v10.2
		C50.4,162.9,48.7,164.6,46.6,164.6z M36.4,148c-1.5,0-2.7,1.2-2.7,2.7v10.2c0,1.5,1.2,2.7,2.7,2.7h10.2c1.5,0,2.7-1.2,2.7-2.7
		v-10.2c0-1.5-1.2-2.7-2.7-2.7H36.4z"/>
</g>
<g>
	<path class="st3" d="M51.7,145c-0.1-0.2-0.4-0.2-0.6-0.1c-1.1,0.9-2.2,2-3.4,3.1c-2.7,2.8-4.9,5.6-6.7,8.5l-0.5-1.1
		c-1-2.1-1.8-3.2-2.6-3.2c-0.9,0-1.9,0.6-3,1.8c0.7,0.2,1.2,0.7,1.8,1.4c0.5,0.7,1.1,1.7,1.7,3.2l0.4,1c0.2,0.5,0.4,0.9,0.5,1.3
		c0.2,0.5,0.8,0.7,1.2,0.3c0.3-0.2,0.6-0.5,1.1-0.8l1.1-0.8c1.4-3,3.5-6.2,6.1-9.6c1.1-1.5,2.3-2.8,3.3-3.9c0.1-0.1,0.1-0.4,0-0.5
		L51.7,145z"/>
</g>
<path class="st4" d="M196.6,158.8H61.1c-1.7,0-3-1.3-3-3s1.3-3,3-3h135.5c1.7,0,3,1.3,3,3S198.2,158.8,196.6,158.8z"/>
<g>
	<path class="st1" d="M46.6,188.1H36.4c-1.8,0-3.2-1.4-3.2-3.2v-10.2c0-1.8,1.4-3.2,3.2-3.2h10.2c1.8,0,3.2,1.4,3.2,3.2v10.2
		C49.9,186.7,48.4,188.1,46.6,188.1z"/>
	<path class="st2" d="M46.6,188.6H36.4c-2.1,0-3.7-1.7-3.7-3.7v-10.2c0-2.1,1.7-3.7,3.7-3.7h10.2c2.1,0,3.7,1.7,3.7,3.7v10.2
		C50.4,186.9,48.7,188.6,46.6,188.6z M36.4,172c-1.5,0-2.7,1.2-2.7,2.7v10.2c0,1.5,1.2,2.7,2.7,2.7h10.2c1.5,0,2.7-1.2,2.7-2.7
		v-10.2c0-1.5-1.2-2.7-2.7-2.7H36.4z"/>
</g>
<path class="st4" d="M196.6,182.8H61.1c-1.7,0-3-1.3-3-3s1.3-3,3-3h135.5c1.7,0,3,1.3,3,3S198.2,182.8,196.6,182.8z"/>
<g>
	<path class="st1" d="M46.6,212.1H36.4c-1.8,0-3.2-1.4-3.2-3.2v-10.2c0-1.8,1.4-3.2,3.2-3.2h10.2c1.8,0,3.2,1.4,3.2,3.2v10.2
		C49.9,210.7,48.4,212.1,46.6,212.1z"/>
	<path class="st2" d="M46.6,212.6H36.4c-2.1,0-3.7-1.7-3.7-3.7v-10.2c0-2.1,1.7-3.7,3.7-3.7h10.2c2.1,0,3.7,1.7,3.7,3.7v10.2
		C50.4,210.9,48.7,212.6,46.6,212.6z M36.4,196c-1.5,0-2.7,1.2-2.7,2.7v10.2c0,1.5,1.2,2.7,2.7,2.7h10.2c1.5,0,2.7-1.2,2.7-2.7
		v-10.2c0-1.5-1.2-2.7-2.7-2.7H36.4z"/>
</g>
<path class="st4" d="M196.6,206.8H61.1c-1.7,0-3-1.3-3-3s1.3-3,3-3h135.5c1.7,0,3,1.3,3,3S198.2,206.8,196.6,206.8z"/>
<g>
	<path class="st1" d="M46.6,236.1H36.4c-1.8,0-3.2-1.4-3.2-3.2v-10.2c0-1.8,1.4-3.2,3.2-3.2h10.2c1.8,0,3.2,1.4,3.2,3.2v10.2
		C49.9,234.7,48.4,236.1,46.6,236.1z"/>
	<path class="st2" d="M46.6,236.6H36.4c-2.1,0-3.7-1.7-3.7-3.7v-10.2c0-2.1,1.7-3.7,3.7-3.7h10.2c2.1,0,3.7,1.7,3.7,3.7v10.2
		C50.4,234.9,48.7,236.6,46.6,236.6z M36.4,220c-1.5,0-2.7,1.2-2.7,2.7v10.2c0,1.5,1.2,2.7,2.7,2.7h10.2c1.5,0,2.7-1.2,2.7-2.7
		v-10.2c0-1.5-1.2-2.7-2.7-2.7H36.4z"/>
</g>
<g>
	<path class="st3" d="M51.7,217c-0.1-0.2-0.4-0.2-0.6-0.1c-1.1,0.9-2.2,2-3.4,3.1c-2.7,2.8-4.9,5.6-6.7,8.5l-0.5-1.1
		c-1-2.1-1.8-3.2-2.6-3.2c-0.9,0-1.9,0.6-3,1.8c0.7,0.2,1.2,0.7,1.8,1.4c0.5,0.7,1.1,1.7,1.7,3.2l0.4,1c0.2,0.5,0.4,0.9,0.5,1.3
		c0.2,0.5,0.8,0.7,1.2,0.3c0.3-0.2,0.6-0.5,1.1-0.8l1.1-0.8c1.4-3,3.5-6.2,6.1-9.6c1.1-1.5,2.3-2.8,3.3-3.9c0.1-0.1,0.1-0.4,0-0.5
		L51.7,217z"/>
</g>
<path class="st4" d="M196.6,230.8H61.1c-1.7,0-3-1.3-3-3s1.3-3,3-3h135.5c1.7,0,3,1.3,3,3S198.2,230.8,196.6,230.8z"/>
<g>
	<path class="st1" d="M46.6,260.1H36.4c-1.8,0-3.2-1.4-3.2-3.2v-10.2c0-1.8,1.4-3.2,3.2-3.2h10.2c1.8,0,3.2,1.4,3.2,3.2v10.2
		C49.9,258.7,48.4,260.1,46.6,260.1z"/>
	<path class="st2" d="M46.6,260.6H36.4c-2.1,0-3.7-1.7-3.7-3.7v-10.2c0-2.1,1.7-3.7,3.7-3.7h10.2c2.1,0,3.7,1.7,3.7,3.7v10.2
		C50.4,258.9,48.7,260.6,46.6,260.6z M36.4,244c-1.5,0-2.7,1.2-2.7,2.7v10.2c0,1.5,1.2,2.7,2.7,2.7h10.2c1.5,0,2.7-1.2,2.7-2.7
		v-10.2c0-1.5-1.2-2.7-2.7-2.7H36.4z"/>
</g>
<path class="st4" d="M196.6,254.8H61.1c-1.7,0-3-1.3-3-3s1.3-3,3-3h135.5c1.7,0,3,1.3,3,3S198.2,254.8,196.6,254.8z"/>
<g>
	<path class="st1" d="M248.9,44.1h-10.2c-1.8,0-3.2-1.4-3.2-3.2V30.7c0-1.8,1.4-3.2,3.2-3.2h10.2c1.8,0,3.2,1.4,3.2,3.2v10.2
		C252.1,42.7,250.6,44.1,248.9,44.1z"/>
	<path class="st2" d="M248.9,44.6h-10.2c-2.1,0-3.7-1.7-3.7-3.7V30.7c0-2.1,1.7-3.7,3.7-3.7h10.2c2.1,0,3.7,1.7,3.7,3.7v10.2
		C252.6,42.9,250.9,44.6,248.9,44.6z M238.7,28c-1.5,0-2.7,1.2-2.7,2.7v10.2c0,1.5,1.2,2.7,2.7,2.7h10.2c1.5,0,2.7-1.2,2.7-2.7V30.7
		c0-1.5-1.2-2.7-2.7-2.7H238.7z"/>
</g>
<g>
	<path class="st3" d="M253.9,25c-0.1-0.2-0.4-0.2-0.6-0.1c-1.1,0.9-2.2,2-3.4,3.1c-2.7,2.8-4.9,5.6-6.7,8.5l-0.5-1.1
		c-1-2.1-1.8-3.2-2.6-3.2c-0.9,0-1.9,0.6-3,1.8c0.7,0.2,1.2,0.7,1.8,1.4c0.5,0.7,1.1,1.7,1.7,3.2l0.4,1c0.2,0.5,0.4,0.9,0.5,1.3
		c0.2,0.5,0.8,0.7,1.2,0.3c0.3-0.2,0.6-0.5,1.1-0.8l1.1-0.8c1.4-3,3.5-6.2,6.1-9.6c1.1-1.5,2.3-2.8,3.3-3.9c0.1-0.1,0.1-0.4,0-0.5
		L253.9,25z"/>
</g>
<path class="st4" d="M398.8,38.8H263.3c-1.7,0-3-1.3-3-3s1.3-3,3-3h135.5c1.7,0,3,1.3,3,3S400.4,38.8,398.8,38.8z"/>
<g>
	<path class="st1" d="M248.9,68.1h-10.2c-1.8,0-3.2-1.4-3.2-3.2V54.7c0-1.8,1.4-3.2,3.2-3.2h10.2c1.8,0,3.2,1.4,3.2,3.2v10.2
		C252.1,66.7,250.6,68.1,248.9,68.1z"/>
	<path class="st2" d="M248.9,68.6h-10.2c-2.1,0-3.7-1.7-3.7-3.7V54.7c0-2.1,1.7-3.7,3.7-3.7h10.2c2.1,0,3.7,1.7,3.7,3.7v10.2
		C252.6,66.9,250.9,68.6,248.9,68.6z M238.7,52c-1.5,0-2.7,1.2-2.7,2.7v10.2c0,1.5,1.2,2.7,2.7,2.7h10.2c1.5,0,2.7-1.2,2.7-2.7V54.7
		c0-1.5-1.2-2.7-2.7-2.7H238.7z"/>
</g>
<path class="st4" d="M398.8,62.8H263.3c-1.7,0-3-1.3-3-3s1.3-3,3-3h135.5c1.7,0,3,1.3,3,3S400.4,62.8,398.8,62.8z"/>
<g>
	<path class="st1" d="M248.9,92.1h-10.2c-1.8,0-3.2-1.4-3.2-3.2V78.7c0-1.8,1.4-3.2,3.2-3.2h10.2c1.8,0,3.2,1.4,3.2,3.2v10.2
		C252.1,90.7,250.6,92.1,248.9,92.1z"/>
	<path class="st2" d="M248.9,92.6h-10.2c-2.1,0-3.7-1.7-3.7-3.7V78.7c0-2.1,1.7-3.7,3.7-3.7h10.2c2.1,0,3.7,1.7,3.7,3.7v10.2
		C252.6,90.9,250.9,92.6,248.9,92.6z M238.7,76c-1.5,0-2.7,1.2-2.7,2.7v10.2c0,1.5,1.2,2.7,2.7,2.7h10.2c1.5,0,2.7-1.2,2.7-2.7V78.7
		c0-1.5-1.2-2.7-2.7-2.7H238.7z"/>
</g>
<path class="st4" d="M398.8,86.8H263.3c-1.7,0-3-1.3-3-3s1.3-3,3-3h135.5c1.7,0,3,1.3,3,3S400.4,86.8,398.8,86.8z"/>
<g>
	<path class="st1" d="M248.9,116.1h-10.2c-1.8,0-3.2-1.4-3.2-3.2v-10.2c0-1.8,1.4-3.2,3.2-3.2h10.2c1.8,0,3.2,1.4,3.2,3.2v10.2
		C252.1,114.7,250.6,116.1,248.9,116.1z"/>
	<path class="st2" d="M248.9,116.6h-10.2c-2.1,0-3.7-1.7-3.7-3.7v-10.2c0-2.1,1.7-3.7,3.7-3.7h10.2c2.1,0,3.7,1.7,3.7,3.7v10.2
		C252.6,114.9,250.9,116.6,248.9,116.6z M238.7,100c-1.5,0-2.7,1.2-2.7,2.7v10.2c0,1.5,1.2,2.7,2.7,2.7h10.2c1.5,0,2.7-1.2,2.7-2.7
		v-10.2c0-1.5-1.2-2.7-2.7-2.7H238.7z"/>
</g>
<g>
	<path class="st3" d="M253.9,97c-0.1-0.2-0.4-0.2-0.6-0.1c-1.1,0.9-2.2,2-3.4,3.1c-2.7,2.8-4.9,5.6-6.7,8.5l-0.5-1.1
		c-1-2.1-1.8-3.2-2.6-3.2c-0.9,0-1.9,0.6-3,1.8c0.7,0.2,1.2,0.7,1.8,1.4c0.5,0.7,1.1,1.7,1.7,3.2l0.4,1c0.2,0.5,0.4,0.9,0.5,1.3
		c0.2,0.5,0.8,0.7,1.2,0.3c0.3-0.2,0.6-0.5,1.1-0.8l1.1-0.8c1.4-3,3.5-6.2,6.1-9.6c1.1-1.5,2.3-2.8,3.3-3.9c0.1-0.1,0.1-0.4,0-0.5
		L253.9,97z"/>
</g>
<path class="st4" d="M398.8,110.8H263.3c-1.7,0-3-1.3-3-3s1.3-3,3-3h135.5c1.7,0,3,1.3,3,3S400.4,110.8,398.8,110.8z"/>
<g>
	<path class="st1" d="M248.9,140.1h-10.2c-1.8,0-3.2-1.4-3.2-3.2v-10.2c0-1.8,1.4-3.2,3.2-3.2h10.2c1.8,0,3.2,1.4,3.2,3.2v10.2
		C252.1,138.7,250.6,140.1,248.9,140.1z"/>
	<path class="st2" d="M248.9,140.6h-10.2c-2.1,0-3.7-1.7-3.7-3.7v-10.2c0-2.1,1.7-3.7,3.7-3.7h10.2c2.1,0,3.7,1.7,3.7,3.7v10.2
		C252.6,138.9,250.9,140.6,248.9,140.6z M238.7,124c-1.5,0-2.7,1.2-2.7,2.7v10.2c0,1.5,1.2,2.7,2.7,2.7h10.2c1.5,0,2.7-1.2,2.7-2.7
		v-10.2c0-1.5-1.2-2.7-2.7-2.7H238.7z"/>
</g>
<g>
	<path class="st3" d="M253.9,121c-0.1-0.2-0.4-0.2-0.6-0.1c-1.1,0.9-2.2,2-3.4,3.1c-2.7,2.8-4.9,5.6-6.7,8.5l-0.5-1.1
		c-1-2.1-1.8-3.2-2.6-3.2c-0.9,0-1.9,0.6-3,1.8c0.7,0.2,1.2,0.7,1.8,1.4c0.5,0.7,1.1,1.7,1.7,3.2l0.4,1c0.2,0.5,0.4,0.9,0.5,1.3
		c0.2,0.5,0.8,0.7,1.2,0.3c0.3-0.2,0.6-0.5,1.1-0.8l1.1-0.8c1.4-3,3.5-6.2,6.1-9.6c1.1-1.5,2.3-2.8,3.3-3.9c0.1-0.1,0.1-0.4,0-0.5
		L253.9,121z"/>
</g>
<path class="st4" d="M398.8,134.8H263.3c-1.7,0-3-1.3-3-3s1.3-3,3-3h135.5c1.7,0,3,1.3,3,3S400.4,134.8,398.8,134.8z"/>
<g>
	<path class="st1" d="M248.9,164.1h-10.2c-1.8,0-3.2-1.4-3.2-3.2v-10.2c0-1.8,1.4-3.2,3.2-3.2h10.2c1.8,0,3.2,1.4,3.2,3.2v10.2
		C252.1,162.7,250.6,164.1,248.9,164.1z"/>
	<path class="st2" d="M248.9,164.6h-10.2c-2.1,0-3.7-1.7-3.7-3.7v-10.2c0-2.1,1.7-3.7,3.7-3.7h10.2c2.1,0,3.7,1.7,3.7,3.7v10.2
		C252.6,162.9,250.9,164.6,248.9,164.6z M238.7,148c-1.5,0-2.7,1.2-2.7,2.7v10.2c0,1.5,1.2,2.7,2.7,2.7h10.2c1.5,0,2.7-1.2,2.7-2.7
		v-10.2c0-1.5-1.2-2.7-2.7-2.7H238.7z"/>
</g>
<path class="st4" d="M398.8,158.8H263.3c-1.7,0-3-1.3-3-3s1.3-3,3-3h135.5c1.7,0,3,1.3,3,3S400.4,158.8,398.8,158.8z"/>
<g>
	<path class="st1" d="M248.9,188.1h-10.2c-1.8,0-3.2-1.4-3.2-3.2v-10.2c0-1.8,1.4-3.2,3.2-3.2h10.2c1.8,0,3.2,1.4,3.2,3.2v10.2
		C252.1,186.7,250.6,188.1,248.9,188.1z"/>
	<path class="st2" d="M248.9,188.6h-10.2c-2.1,0-3.7-1.7-3.7-3.7v-10.2c0-2.1,1.7-3.7,3.7-3.7h10.2c2.1,0,3.7,1.7,3.7,3.7v10.2
		C252.6,186.9,250.9,188.6,248.9,188.6z M238.7,172c-1.5,0-2.7,1.2-2.7,2.7v10.2c0,1.5,1.2,2.7,2.7,2.7h10.2c1.5,0,2.7-1.2,2.7-2.7
		v-10.2c0-1.5-1.2-2.7-2.7-2.7H238.7z"/>
</g>
<g>
	<path class="st3" d="M253.9,169c-0.1-0.2-0.4-0.2-0.6-0.1c-1.1,0.9-2.2,2-3.4,3.1c-2.7,2.8-4.9,5.6-6.7,8.5l-0.5-1.1
		c-1-2.1-1.8-3.2-2.6-3.2c-0.9,0-1.9,0.6-3,1.8c0.7,0.2,1.2,0.7,1.8,1.4c0.5,0.7,1.1,1.7,1.7,3.2l0.4,1c0.2,0.5,0.4,0.9,0.5,1.3
		c0.2,0.5,0.8,0.7,1.2,0.3c0.3-0.2,0.6-0.5,1.1-0.8l1.1-0.8c1.4-3,3.5-6.2,6.1-9.6c1.1-1.5,2.3-2.8,3.3-3.9c0.1-0.1,0.1-0.4,0-0.5
		L253.9,169z"/>
</g>
<path class="st4" d="M398.8,182.8H263.3c-1.7,0-3-1.3-3-3s1.3-3,3-3h135.5c1.7,0,3,1.3,3,3S400.4,182.8,398.8,182.8z"/>
<g>
	<path class="st1" d="M248.9,212.1h-10.2c-1.8,0-3.2-1.4-3.2-3.2v-10.2c0-1.8,1.4-3.2,3.2-3.2h10.2c1.8,0,3.2,1.4,3.2,3.2v10.2
		C252.1,210.7,250.6,212.1,248.9,212.1z"/>
	<path class="st2" d="M248.9,212.6h-10.2c-2.1,0-3.7-1.7-3.7-3.7v-10.2c0-2.1,1.7-3.7,3.7-3.7h10.2c2.1,0,3.7,1.7,3.7,3.7v10.2
		C252.6,210.9,250.9,212.6,248.9,212.6z M238.7,196c-1.5,0-2.7,1.2-2.7,2.7v10.2c0,1.5,1.2,2.7,2.7,2.7h10.2c1.5,0,2.7-1.2,2.7-2.7
		v-10.2c0-1.5-1.2-2.7-2.7-2.7H238.7z"/>
</g>
<path class="st4" d="M398.8,206.8H263.3c-1.7,0-3-1.3-3-3s1.3-3,3-3h135.5c1.7,0,3,1.3,3,3S400.4,206.8,398.8,206.8z"/>
<g>
	<path class="st1" d="M248.9,236.1h-10.2c-1.8,0-3.2-1.4-3.2-3.2v-10.2c0-1.8,1.4-3.2,3.2-3.2h10.2c1.8,0,3.2,1.4,3.2,3.2v10.2
		C252.1,234.7,250.6,236.1,248.9,236.1z"/>
	<path class="st2" d="M248.9,236.6h-10.2c-2.1,0-3.7-1.7-3.7-3.7v-10.2c0-2.1,1.7-3.7,3.7-3.7h10.2c2.1,0,3.7,1.7,3.7,3.7v10.2
		C252.6,234.9,250.9,236.6,248.9,236.6z M238.7,220c-1.5,0-2.7,1.2-2.7,2.7v10.2c0,1.5,1.2,2.7,2.7,2.7h10.2c1.5,0,2.7-1.2,2.7-2.7
		v-10.2c0-1.5-1.2-2.7-2.7-2.7H238.7z"/>
</g>
<path class="st4" d="M398.8,230.8H263.3c-1.7,0-3-1.3-3-3s1.3-3,3-3h135.5c1.7,0,3,1.3,3,3S400.4,230.8,398.8,230.8z"/>
<g>
	<path class="st1" d="M248.9,260.1h-10.2c-1.8,0-3.2-1.4-3.2-3.2v-10.2c0-1.8,1.4-3.2,3.2-3.2h10.2c1.8,0,3.2,1.4,3.2,3.2v10.2
		C252.1,258.7,250.6,260.1,248.9,260.1z"/>
	<path class="st2" d="M248.9,260.6h-10.2c-2.1,0-3.7-1.7-3.7-3.7v-10.2c0-2.1,1.7-3.7,3.7-3.7h10.2c2.1,0,3.7,1.7,3.7,3.7v10.2
		C252.6,258.9,250.9,260.6,248.9,260.6z M238.7,244c-1.5,0-2.7,1.2-2.7,2.7v10.2c0,1.5,1.2,2.7,2.7,2.7h10.2c1.5,0,2.7-1.2,2.7-2.7
		v-10.2c0-1.5-1.2-2.7-2.7-2.7H238.7z"/>
</g>
<g>
	<path class="st3" d="M253.9,241c-0.1-0.2-0.4-0.2-0.6-0.1c-1.1,0.9-2.2,2-3.4,3.1c-2.7,2.8-4.9,5.6-6.7,8.5l-0.5-1.1
		c-1-2.1-1.8-3.2-2.6-3.2c-0.9,0-1.9,0.6-3,1.8c0.7,0.2,1.2,0.7,1.8,1.4c0.5,0.7,1.1,1.7,1.7,3.2l0.4,1c0.2,0.5,0.4,0.9,0.5,1.3
		c0.2,0.5,0.8,0.7,1.2,0.3c0.3-0.2,0.6-0.5,1.1-0.8l1.1-0.8c1.4-3,3.5-6.2,6.1-9.6c1.1-1.5,2.3-2.8,3.3-3.9c0.1-0.1,0.1-0.4,0-0.5
		L253.9,241z"/>
</g>
<path class="st4" d="M398.8,254.8H263.3c-1.7,0-3-1.3-3-3s1.3-3,3-3h135.5c1.7,0,3,1.3,3,3S400.4,254.8,398.8,254.8z"/>
<g>
	<path class="st5" d="M41.5,110.4l-0.2,0.3c-1.3,2-2.4,3-3.2,3c-1,0-1.9-0.8-2.8-2.4c0.1,0,0.2,0,0.3,0c1.1,0,2.3-0.8,3.7-2.5
		l0.3-0.4l-0.4-0.5c-1.2-1.3-1.9-2.4-1.9-3.3c0-0.7,0.7-1.6,2-2.6c0.2,1.3,0.8,2.6,1.7,3.8l0.4,0.5l0.3-0.4c1.4-1.8,2.7-2.7,3.8-2.7
		c0.9,0,1.6,0.7,2,2c-0.1,0-0.2,0-0.3,0c-0.4,0-1,0.3-1.7,0.8c-0.7,0.5-1.3,1.2-1.9,1.8l-0.4,0.5l0.4,0.4c1.4,1.3,2.8,2,4.2,2
		c-0.8,1.6-1.6,2.4-2.5,2.4c-0.8,0-1.9-0.7-3.4-2L41.5,110.4z"/>
</g>
<g>
	<path class="st5" d="M41.5,206.4l-0.2,0.3c-1.3,2-2.4,3-3.2,3c-1,0-1.9-0.8-2.8-2.4c0.1,0,0.2,0,0.3,0c1.1,0,2.3-0.8,3.7-2.5
		l0.3-0.4l-0.4-0.5c-1.2-1.3-1.9-2.4-1.9-3.3c0-0.7,0.7-1.6,2-2.6c0.2,1.3,0.8,2.6,1.7,3.8l0.4,0.5l0.3-0.4c1.4-1.8,2.7-2.7,3.8-2.7
		c0.9,0,1.6,0.7,2,2c-0.1,0-0.2,0-0.3,0c-0.4,0-1,0.3-1.7,0.8s-1.3,1.2-1.9,1.8l-0.4,0.5l0.4,0.4c1.4,1.3,2.8,2,4.2,2
		c-0.8,1.6-1.6,2.4-2.5,2.4c-0.8,0-1.9-0.7-3.4-2L41.5,206.4z"/>
</g>
<g>
	<path class="st5" d="M243.7,206.4l-0.2,0.3c-1.3,2-2.4,3-3.2,3c-1,0-1.9-0.8-2.8-2.4c0.1,0,0.2,0,0.3,0c1.1,0,2.3-0.8,3.7-2.5
		l0.3-0.4l-0.4-0.5c-1.2-1.3-1.9-2.4-1.9-3.3c0-0.7,0.7-1.6,2-2.6c0.2,1.3,0.8,2.6,1.7,3.8l0.4,0.5l0.3-0.4c1.4-1.8,2.7-2.7,3.8-2.7
		c0.9,0,1.6,0.7,2,2c-0.1,0-0.2,0-0.3,0c-0.4,0-1,0.3-1.7,0.8s-1.3,1.2-1.9,1.8l-0.4,0.5l0.4,0.4c1.4,1.3,2.8,2,4.2,2
		c-0.8,1.6-1.6,2.4-2.5,2.4c-0.8,0-1.9-0.7-3.4-2L243.7,206.4z"/>
</g>
<g>
	<path class="st5" d="M243.7,86.4l-0.2,0.3c-1.3,2-2.4,3-3.2,3c-1,0-1.9-0.8-2.8-2.4c0.1,0,0.2,0,0.3,0c1.1,0,2.3-0.8,3.7-2.5
		l0.3-0.4l-0.4-0.5c-1.2-1.3-1.9-2.4-1.9-3.3c0-0.7,0.7-1.6,2-2.6c0.2,1.3,0.8,2.6,1.7,3.8l0.4,0.5l0.3-0.4c1.4-1.8,2.7-2.7,3.8-2.7
		c0.9,0,1.6,0.7,2,2c-0.1,0-0.2,0-0.3,0c-0.4,0-1,0.3-1.7,0.8c-0.7,0.5-1.3,1.2-1.9,1.8l-0.4,0.5l0.4,0.4c1.4,1.3,2.8,2,4.2,2
		c-0.8,1.6-1.6,2.4-2.5,2.4c-0.8,0-1.9-0.7-3.4-2L243.7,86.4z"/>
</g>
</svg>
