<?xml version="1.0" encoding="utf-8"?>
<!-- Generator: Adobe Illustrator 26.0.3, SVG Export Plug-In . SVG Version: 6.00 Build 0)  -->
<svg version="1.1" id="Layer_1" xmlns="http://www.w3.org/2000/svg" xmlns:xlink="http://www.w3.org/1999/xlink" x="0px" y="0px"
	 viewBox="0 0 432 288" style="enable-background:new 0 0 432 288;" xml:space="preserve">
<style type="text/css">
	.st0{fill:#EFEFEF;}
</style>
<rect x="10.8" y="11.1" class="st0" width="410.4" height="265.7"/>
<path d="M98.5,95.1h1.5c4.2,0,7.9,2,11.2,6c3.2,4,4.9,8.5,4.9,13.7c0,5.7-1.9,10.5-5.6,14.4c-3.8,3.9-8.4,5.8-14,5.8
	c-7.2,0-13.2-3.2-17.9-9.6c-4.8-6.4-7.2-14.4-7.2-23.9c0-12.1,3.6-22.6,10.7-31.7c7.1-9.1,16.9-15.5,29.5-19.4v7.3
	c-9.1,7.3-13.7,16.9-13.7,28.7L98.5,95.1z"/>
<path d="M173.6,50.3v7c-4.1,2.7-7.4,6.8-9.9,12.2c-2.5,5.4-3.8,11.1-3.8,17.2c0,3,0.2,5.8,0.7,8.4c5.4,0.3,9.6,2.3,12.8,5.9
	c3.2,3.6,4.8,8.2,4.8,13.8c0,5.7-2,10.5-5.9,14.4c-3.9,3.9-8.9,5.8-14.8,5.8c-7.4,0-13.4-3-18-9.1c-4.6-6-6.9-13.8-6.9-23.4
	c0-7.6,1.6-15,4.9-22.2c3.2-7.2,7.6-13,13.1-17.5C156,58.2,163.7,54.1,173.6,50.3z"/>
<path d="M334.1,189.2c0-11.8-4.6-21.4-13.7-28.7v-7.3c12.5,3.8,22.4,10.3,29.5,19.4c7.1,9.1,10.7,19.6,10.7,31.7
	c0,9.6-2.4,17.5-7.2,23.9c-4.8,6.4-10.8,9.6-17.9,9.6c-5.6,0-10.3-1.9-14-5.8c-3.8-3.9-5.6-8.7-5.6-14.4c0-5.1,1.6-9.7,4.9-13.7
	c3.2-4,7-6,11.2-6h1.5L334.1,189.2z"/>
<path d="M281.5,165.5c5.5,4.5,9.8,10.3,13.1,17.5c3.2,7.2,4.9,14.6,4.9,22.2c0,9.6-2.3,17.4-6.9,23.4c-4.6,6-10.6,9.1-18,9.1
	c-5.9,0-10.8-1.9-14.8-5.8c-3.9-3.9-5.9-8.7-5.9-14.4c0-5.6,1.6-10.2,4.8-13.8c3.2-3.6,7.5-5.6,12.8-5.9c0.5-2.6,0.7-5.4,0.7-8.4
	c0-6-1.3-11.8-3.8-17.2c-2.5-5.4-5.8-9.5-9.9-12.2v-7C268.3,156.9,276,161,281.5,165.5z"/>
</svg>
