<?xml version="1.0" encoding="utf-8"?>
<!-- Generator: Adobe Illustrator 26.2.1, SVG Export Plug-In . SVG Version: 6.00 Build 0)  -->
<svg version="1.1" id="Layer_1" xmlns="http://www.w3.org/2000/svg" xmlns:xlink="http://www.w3.org/1999/xlink" x="0px" y="0px"
	 viewBox="0 0 432 288" style="enable-background:new 0 0 432 288;" xml:space="preserve">
<style type="text/css">
	.st0{fill:#EFEFEF;}
</style>
<rect x="10.8" y="11.1" class="st0" width="410.4" height="265.7"/>
<g>
	<path d="M54.3,127.5L39,160.4c-0.4,0.8-0.7,1.4-1,1.6c-0.4,0.3-0.9,0.5-1.5,0.5c-0.7,0-1.2-0.2-1.7-0.7s-0.7-1-0.7-1.6
		c0-0.4,0.2-1,0.6-1.8L50,125.5c0.4-0.8,0.7-1.4,1-1.6c0.4-0.3,0.9-0.5,1.5-0.5c0.7,0,1.2,0.2,1.7,0.7s0.7,1,0.7,1.6
		C54.8,126.1,54.7,126.7,54.3,127.5z"/>
	<path d="M75.4,131.7v28h2.9c1.1,0,2,0.2,2.5,0.7c0.5,0.4,0.7,1,0.7,1.7s-0.2,1.3-0.7,1.7s-1.3,0.7-2.5,0.7h-7.7V127h7.6
		c1.1,0,2,0.2,2.5,0.7c0.5,0.4,0.7,1,0.7,1.7s-0.2,1.3-0.7,1.7s-1.3,0.7-2.5,0.7L75.4,131.7L75.4,131.7z"/>
	<path d="M101.6,133.1l-5.6,6.7c-0.5,0.6-0.9,1-1.2,1.2s-0.7,0.3-1.1,0.3c-0.7,0-1.2-0.2-1.7-0.7s-0.7-1-0.7-1.7
		c0-0.5,0.3-1.2,1-2.1l9.3-11.2l9.4,11.2c0.5,0.5,0.7,1,0.9,1.2c0.1,0.3,0.2,0.6,0.2,0.9c0,0.7-0.2,1.2-0.7,1.7s-1,0.7-1.7,0.7
		c-0.4,0-0.8-0.1-1.1-0.3s-0.7-0.6-1.2-1.2L101.6,133.1z"/>
	<path d="M135.1,136.3v-1.5c0-1.5-0.4-2.8-1.3-3.7c-0.9-0.9-2-1.4-3.4-1.4c-1.1,0-2.2,0.4-3.2,1.1c-1,0.7-1.7,1.7-2.2,2.8
		c-0.9,2.1-1.3,4.1-1.3,6.2v7.1c0,3.6,0.8,6.4,2.4,8.5c1.1,1.4,2.5,2.1,4.4,2.1c1,0,1.9-0.1,2.8-0.4c0.8-0.3,1.5-0.6,2-1.1
		s0.9-0.7,1.3-0.7c0.5,0,0.9,0.2,1.3,0.5c0.3,0.3,0.5,0.8,0.5,1.3c0,0.8-0.5,1.5-1.6,2.3c-1.6,1.1-3.7,1.6-6.4,1.6
		c-2,0-3.7-0.5-5.1-1.4c-1.7-1.2-3-3-3.9-5.3c-0.9-2.4-1.3-4.7-1.3-7v-7.7c0-3.7,0.9-6.9,2.8-9.5c1.8-2.6,4.3-3.9,7.4-3.9
		c1.4,0,2.7,0.3,3.9,0.9s2.3,1.6,3.1,3c0.9,1.4,1.3,3,1.3,4.7v12.7c0.7,0.3,1,0.8,1,1.6c0,0.5-0.2,1-0.6,1.3c-0.4,0.3-1,0.5-1.9,0.5
		H135v-0.1c-0.7,0.1-1.3,0.2-1.6,0.2c-1.9,0-3.5-0.7-4.9-2.1c-1.4-1.4-2.1-3-2.1-4.9c0-2,0.8-3.7,2.3-5.2
		C130.4,137.3,132.4,136.4,135.1,136.3z M135.1,139.9c-1.6,0.2-2.9,0.6-3.8,1.4c-0.9,0.8-1.3,1.7-1.3,2.7c0,0.9,0.4,1.7,1.1,2.3
		c0.7,0.7,1.7,1,2.8,1c0.2,0,0.6,0,1.1-0.1L135.1,139.9L135.1,139.9z"/>
	<path d="M156.5,159.7v-28h-2.9c-1.1,0-2-0.2-2.5-0.7c-0.5-0.4-0.7-1-0.7-1.7s0.2-1.3,0.7-1.7c0.5-0.4,1.3-0.7,2.5-0.7h7.7v37.5
		h-7.6c-1.1,0-2-0.2-2.5-0.7c-0.5-0.4-0.7-1-0.7-1.7s0.2-1.3,0.7-1.7s1.3-0.7,2.5-0.7L156.5,159.7L156.5,159.7z"/>
	<path d="M189.8,145.9v8c0,1.1-0.2,2-0.7,2.5c-0.4,0.5-1,0.7-1.7,0.7s-1.3-0.2-1.7-0.7s-0.7-1.3-0.7-2.5v-8h-6.8
		c-1.1,0-2-0.2-2.5-0.7c-0.5-0.4-0.7-1-0.7-1.7s0.2-1.3,0.7-1.7s1.3-0.7,2.5-0.6h6.8v-8c0-1.1,0.2-1.9,0.7-2.4
		c0.4-0.5,1-0.7,1.7-0.7s1.3,0.2,1.7,0.7s0.7,1.3,0.7,2.5v8h6.8c1.1,0,2,0.2,2.5,0.7c0.5,0.4,0.7,1,0.7,1.7s-0.2,1.3-0.7,1.7
		s-1.3,0.7-2.5,0.7h-6.8V145.9z"/>
	<path d="M220.9,136.3v-1.5c0-1.5-0.4-2.8-1.3-3.7c-0.9-0.9-2-1.4-3.4-1.4c-1.1,0-2.2,0.4-3.2,1.1c-1,0.7-1.7,1.7-2.2,2.8
		c-0.9,2.1-1.3,4.1-1.3,6.2v7.1c0,3.6,0.8,6.4,2.4,8.5c1.1,1.4,2.5,2.1,4.4,2.1c1,0,1.9-0.1,2.8-0.4c0.8-0.3,1.5-0.6,2-1.1
		s0.9-0.7,1.3-0.7c0.5,0,0.9,0.2,1.3,0.5c0.3,0.3,0.5,0.8,0.5,1.3c0,0.8-0.5,1.5-1.6,2.3c-1.6,1.1-3.7,1.6-6.4,1.6
		c-2,0-3.7-0.5-5.1-1.4c-1.7-1.2-3-3-3.9-5.3c-0.9-2.4-1.3-4.7-1.3-7v-7.7c0-3.7,0.9-6.9,2.8-9.5c1.8-2.6,4.3-3.9,7.4-3.9
		c1.4,0,2.7,0.3,3.9,0.9s2.3,1.6,3.1,3c0.9,1.4,1.3,3,1.3,4.7v12.7c0.7,0.3,1,0.8,1,1.6c0,0.5-0.2,1-0.6,1.3c-0.4,0.3-1,0.5-1.9,0.5
		h-2.1v-0.1c-0.7,0.1-1.3,0.2-1.6,0.2c-1.9,0-3.5-0.7-4.9-2.1c-1.4-1.4-2.1-3-2.1-4.9c0-2,0.8-3.7,2.3-5.2
		C216.1,137.3,218.2,136.4,220.9,136.3z M220.9,139.9c-1.6,0.2-2.9,0.6-3.8,1.4c-0.9,0.8-1.3,1.7-1.3,2.7c0,0.9,0.4,1.7,1.1,2.3
		c0.7,0.7,1.7,1,2.8,1c0.2,0,0.6,0,1.1-0.1L220.9,139.9L220.9,139.9z"/>
	<path d="M246.9,131.7v28h2.9c1.1,0,2,0.2,2.5,0.7c0.5,0.4,0.7,1,0.7,1.7s-0.2,1.3-0.7,1.7s-1.3,0.7-2.5,0.7h-7.7V127h7.6
		c1.1,0,2,0.2,2.5,0.7c0.5,0.4,0.7,1,0.7,1.7s-0.2,1.3-0.7,1.7s-1.3,0.7-2.5,0.7L246.9,131.7L246.9,131.7z"/>
	<path d="M273.1,133.1l-5.6,6.7c-0.5,0.6-0.9,1-1.2,1.2c-0.3,0.2-0.7,0.3-1.1,0.3c-0.7,0-1.2-0.2-1.7-0.7s-0.7-1-0.7-1.7
		c0-0.5,0.3-1.2,1-2.1l9.3-11.2l9.4,11.2c0.4,0.5,0.7,1,0.9,1.2c0.1,0.3,0.2,0.6,0.2,0.9c0,0.7-0.2,1.2-0.7,1.7s-1,0.7-1.7,0.7
		c-0.4,0-0.8-0.1-1.1-0.3c-0.3-0.2-0.7-0.6-1.2-1.2L273.1,133.1z"/>
	<path d="M306.6,136.3v-1.5c0-1.5-0.4-2.8-1.3-3.7s-2-1.4-3.4-1.4c-1.1,0-2.2,0.4-3.2,1.1c-1,0.7-1.7,1.7-2.2,2.8
		c-0.9,2.1-1.3,4.1-1.3,6.2v7.1c0,3.6,0.8,6.4,2.4,8.5c1.1,1.4,2.5,2.1,4.4,2.1c1,0,1.9-0.1,2.8-0.4c0.8-0.3,1.5-0.6,2-1.1
		s0.9-0.7,1.3-0.7c0.5,0,0.9,0.2,1.3,0.5c0.3,0.3,0.5,0.8,0.5,1.3c0,0.8-0.5,1.5-1.6,2.3c-1.6,1.1-3.7,1.6-6.4,1.6
		c-2,0-3.7-0.5-5.1-1.4c-1.7-1.2-3-3-3.9-5.3c-0.9-2.4-1.3-4.7-1.3-7v-7.7c0-3.7,0.9-6.9,2.8-9.5c1.8-2.6,4.3-3.9,7.4-3.9
		c1.4,0,2.7,0.3,3.9,0.9c1.2,0.6,2.3,1.6,3.1,3c0.9,1.4,1.3,3,1.3,4.7v12.7c0.7,0.3,1,0.8,1,1.6c0,0.5-0.2,1-0.6,1.3s-1,0.5-1.9,0.5
		h-2.1v-0.1c-0.7,0.1-1.3,0.2-1.6,0.2c-1.9,0-3.5-0.7-4.9-2.1c-1.4-1.4-2.1-3-2.1-4.9c0-2,0.8-3.7,2.3-5.2
		C301.9,137.3,304,136.4,306.6,136.3z M306.6,139.9c-1.6,0.2-2.9,0.6-3.8,1.4c-0.9,0.8-1.3,1.7-1.3,2.7c0,0.9,0.4,1.7,1.1,2.3
		c0.7,0.7,1.7,1,2.8,1c0.2,0,0.6,0,1.1-0.1L306.6,139.9L306.6,139.9z"/>
	<path d="M328,159.7v-28h-2.9c-1.1,0-2-0.2-2.5-0.7c-0.5-0.4-0.7-1-0.7-1.7s0.2-1.3,0.7-1.7c0.5-0.4,1.3-0.7,2.5-0.7h7.7v37.5h-7.6
		c-1.1,0-2-0.2-2.5-0.7c-0.5-0.4-0.7-1-0.7-1.7s0.2-1.3,0.7-1.7s1.3-0.7,2.5-0.7L328,159.7L328,159.7z"/>
	<path d="M361.3,145.9v8c0,1.1-0.2,2-0.7,2.5c-0.4,0.5-1,0.7-1.7,0.7s-1.3-0.2-1.7-0.7c-0.4-0.5-0.7-1.3-0.7-2.5v-8h-6.8
		c-1.1,0-2-0.2-2.5-0.7c-0.5-0.4-0.7-1-0.7-1.7s0.2-1.3,0.7-1.7s1.3-0.7,2.5-0.6h6.8v-8c0-1.1,0.2-1.9,0.7-2.4
		c0.4-0.5,1-0.7,1.7-0.7s1.3,0.2,1.7,0.7c0.4,0.5,0.7,1.3,0.7,2.5v8h6.8c1.1,0,2,0.2,2.5,0.7c0.5,0.4,0.7,1,0.7,1.7
		s-0.2,1.3-0.7,1.7s-1.3,0.7-2.5,0.7h-6.8V145.9z"/>
	<path d="M397.3,127.5L382,160.4c-0.4,0.8-0.7,1.4-1,1.6c-0.4,0.3-0.9,0.5-1.5,0.5c-0.7,0-1.2-0.2-1.7-0.7s-0.7-1-0.7-1.6
		c0-0.4,0.2-1,0.6-1.8l15.3-32.9c0.4-0.8,0.7-1.4,1-1.6c0.4-0.3,0.9-0.5,1.5-0.5c0.7,0,1.2,0.2,1.7,0.7s0.7,1,0.7,1.6
		C397.9,126.1,397.7,126.7,397.3,127.5z"/>
</g>
</svg>
