<?xml version="1.0" encoding="utf-8"?>
<!-- Generator: Adobe Illustrator 26.0.3, SVG Export Plug-In . SVG Version: 6.00 Build 0)  -->
<svg version="1.1" id="Layer_1" xmlns="http://www.w3.org/2000/svg" xmlns:xlink="http://www.w3.org/1999/xlink" x="0px" y="0px"
	 viewBox="0 0 432 288" style="enable-background:new 0 0 432 288;" xml:space="preserve">
<style type="text/css">
	.st0{fill:#F9EFE1;stroke:#E8BA67;stroke-miterlimit:10;}
	.st1{fill:#FFE5B6;stroke:#E8BA67;stroke-miterlimit:10;}
	.st2{fill:#F7D5D5;stroke:#F27979;stroke-miterlimit:10;}
	.st3{fill:#E8F3F9;stroke:#78C5F4;stroke-miterlimit:10;}
	.st4{fill:#E6D4F4;stroke:#B97BEF;stroke-miterlimit:10;}
	.st5{fill:#C5EAE3;stroke:#5EDDC7;stroke-miterlimit:10;}
	.st6{fill:none;stroke:#000000;stroke-miterlimit:10;}
</style>
<rect x="193.6" y="-171.7" transform="matrix(-1.836970e-16 1 -1 -1.836970e-16 249.5205 -182.4795)" class="st0" width="44.8" height="410.4"/>
<rect x="203.2" y="-162.3" transform="matrix(-1.836970e-16 1 -1 -1.836970e-16 249.5205 -182.4795)" class="st1" width="25.5" height="391.6"/>
<rect x="193.6" y="49.2" transform="matrix(-1.836970e-16 1 -1 -1.836970e-16 470.3795 38.3795)" class="st2" width="44.8" height="410.4"/>
<rect x="84.5" y="-8.1" transform="matrix(-1.836970e-16 1 -1 -1.836970e-16 306.7589 -18.8585)" class="st3" width="156.7" height="304"/>
<rect x="294.4" y="95.5" transform="matrix(-1.836970e-16 1 -1 -1.836970e-16 516.6656 -228.7652)" class="st4" width="156.7" height="97"/>
<rect x="104.5" y="125.1" class="st5" width="116.6" height="44.8"/>
<line class="st6" x1="30" y1="84.5" x2="297.8" y2="84.5"/>
<line class="st6" x1="30" y1="93" x2="297.8" y2="93"/>
<line class="st6" x1="30" y1="101.6" x2="297.8" y2="101.6"/>
<line class="st6" x1="30" y1="110.2" x2="297.8" y2="110.2"/>
<line class="st6" x1="341.8" y1="84.5" x2="403.6" y2="84.5"/>
<line class="st6" x1="341.8" y1="93" x2="403.6" y2="93"/>
<line class="st6" x1="341.8" y1="101.6" x2="403.6" y2="101.6"/>
<line class="st6" x1="341.8" y1="110.2" x2="403.6" y2="110.2"/>
<line class="st6" x1="341.8" y1="118.8" x2="403.6" y2="118.8"/>
<line class="st6" x1="341.8" y1="127.4" x2="403.6" y2="127.4"/>
<line class="st6" x1="341.8" y1="135.9" x2="403.6" y2="135.9"/>
<line class="st6" x1="341.8" y1="144.5" x2="403.6" y2="144.5"/>
<line class="st6" x1="341.8" y1="153.1" x2="403.6" y2="153.1"/>
<line class="st6" x1="341.8" y1="161.7" x2="403.6" y2="161.7"/>
<line class="st6" x1="341.8" y1="170.3" x2="403.6" y2="170.3"/>
<line class="st6" x1="341.8" y1="178.8" x2="403.6" y2="178.8"/>
<line class="st6" x1="341.8" y1="187.4" x2="403.6" y2="187.4"/>
<line class="st6" x1="341.8" y1="196" x2="403.6" y2="196"/>
<line class="st6" x1="341.8" y1="204.6" x2="403.6" y2="204.6"/>
<line class="st6" x1="30" y1="184.9" x2="297.8" y2="184.9"/>
<line class="st6" x1="30" y1="193.5" x2="297.8" y2="193.5"/>
<line class="st6" x1="30" y1="202.1" x2="297.8" y2="202.1"/>
</svg>
