<?xml version="1.0" encoding="utf-8"?>
<!-- Generator: Adobe Illustrator 26.0.1, SVG Export Plug-In . SVG Version: 6.00 Build 0)  -->
<svg version="1.1" id="Layer_1" xmlns="http://www.w3.org/2000/svg" xmlns:xlink="http://www.w3.org/1999/xlink" x="0px" y="0px"
	 viewBox="0 0 432 288" style="enable-background:new 0 0 432 288;" xml:space="preserve">
<style type="text/css">
	.st0{fill:#EFEFEF;}
	.st1{fill:none;}
	.st2{fill:#E18256;}
	.st3{fill:#CDC8AE;}
	.st4{fill:#73A353;}
	.st5{fill:#9FB3B6;}
	.st6{fill:#478EB0;}
	.st7{fill:#7C3D4F;}
	.st8{fill:#E3BC3D;}
</style>
<rect x="10.8" y="11.1" class="st0" width="410.4" height="265.7"/>
<polygon class="st1" points="216,143.7 216,143.7 216,143.7 "/>
<path class="st2" d="M320.5,143.7c0-57.5-46.6-104.2-104-104.5v9v95.3l74.2,59.8l7,5.6C312.4,190.4,320.5,167.3,320.5,143.7z"/>
<path class="st3" d="M170.2,227.3l-4.6,8.3l-4.6,8.3l-4.4,7.8c18.1,10,38.7,15.3,59.5,15.3c37.3,0,72.1-16.6,95.7-45.6l-7-5.6
	l-7.4-5.9L290,204l-73.9-59.5L170.2,227.3z"/>
<path class="st4" d="M118.5,202.7c10.1,16.7,24.4,30.6,41.4,40.2l4.4-7.8l4.6-8.3c22.3-39.9,43-76.9,46.2-82.6l-94.5,1.3l-9.5,0.1
	l-9,0.1C102.4,165.8,108.1,185.5,118.5,202.7z"/>
<path class="st5" d="M138.6,88.1l-7.7-5.6l-7.7-5.6l-7.7-5.6l-7.7-5.6l-7.2-5.3c-17.7,24.4-27,53.2-27,83.4c0,0.4,0,0.8,0,1.2v0.1
	l9-0.1l9.5-0.1l9.5-0.1l9.5-0.1l9.5-0.1l94-1.2L138.6,88.1z"/>
<path class="st6" d="M169,60.6l-4.6-8.3l-4.6-8.3l-4.6-8.3l-4.4-7.8c-16.4,9.2-30.9,22.1-42.1,37.2l7.2,5.3l7.7,5.6l7.7,5.6l7.7,5.6
	l75.4,54.8L169,60.6z"/>
<path class="st7" d="M198.9,49.8l-1.6-9.3l-1.6-8.9c-12.2,2.2-23.9,6.3-34.8,12.4l4.4,7.8l4.6,8.3l45.1,80.8L198.9,49.8z"/>
<path class="st8" d="M215.5,138V48.7c-5.1,0-10.3,0.5-15.5,1.4L215.5,138z"/>
</svg>
