<?xml version="1.0" encoding="utf-8"?>
<!-- Generator: Adobe Illustrator 26.0.2, SVG Export Plug-In . SVG Version: 6.00 Build 0)  -->
<svg version="1.1" id="Layer_1" xmlns="http://www.w3.org/2000/svg" xmlns:xlink="http://www.w3.org/1999/xlink" x="0px" y="0px"
	 viewBox="0 0 432 288" style="enable-background:new 0 0 432 288;" xml:space="preserve">
<style type="text/css">
	.st0{fill:#EFEFEF;}
	.st1{fill:#94B7BF;}
	.st2{fill:#FFFFFF;}
	.st3{fill:#5E5E5E;}
</style>
<rect x="10.8" y="11.1" class="st0" width="410.4" height="265.7"/>
<rect x="48.3" y="47.6" class="st1" width="46.2" height="17.5"/>
<rect x="96.5" y="47.6" class="st1" width="46.2" height="17.5"/>
<rect x="144.7" y="47.6" class="st1" width="46.2" height="17.5"/>
<rect x="192.9" y="47.6" class="st1" width="46.2" height="17.5"/>
<rect x="241.1" y="47.6" class="st1" width="46.2" height="17.5"/>
<rect x="289.3" y="47.6" class="st1" width="46.2" height="17.5"/>
<rect x="337.5" y="47.6" class="st1" width="46.2" height="17.5"/>
<rect x="48.3" y="67.1" class="st1" width="46.2" height="17.5"/>
<rect x="96.5" y="67.1" class="st2" width="46.2" height="17.5"/>
<rect x="144.7" y="67.1" class="st2" width="46.2" height="17.5"/>
<rect x="192.9" y="67.1" class="st2" width="46.2" height="17.5"/>
<rect x="241.1" y="67.1" class="st2" width="46.2" height="17.5"/>
<rect x="289.3" y="67.1" class="st2" width="46.2" height="17.5"/>
<rect x="337.5" y="67.1" class="st2" width="46.2" height="17.5"/>
<rect x="48.3" y="86.6" class="st1" width="46.2" height="17.5"/>
<rect x="96.5" y="86.6" class="st2" width="46.2" height="17.5"/>
<rect x="144.7" y="86.6" class="st2" width="46.2" height="17.5"/>
<rect x="192.9" y="86.6" class="st2" width="46.2" height="17.5"/>
<rect x="241.1" y="86.6" class="st2" width="46.2" height="17.5"/>
<rect x="289.3" y="86.6" class="st2" width="46.2" height="17.5"/>
<rect x="337.5" y="86.6" class="st2" width="46.2" height="17.5"/>
<rect x="48.3" y="106" class="st1" width="46.2" height="17.5"/>
<rect x="96.5" y="106" class="st2" width="46.2" height="17.5"/>
<rect x="144.7" y="106" class="st2" width="46.2" height="17.5"/>
<rect x="192.9" y="106" class="st2" width="46.2" height="17.5"/>
<rect x="241.1" y="106" class="st2" width="46.2" height="17.5"/>
<rect x="289.3" y="106" class="st2" width="46.2" height="17.5"/>
<rect x="337.5" y="106" class="st2" width="46.2" height="17.5"/>
<rect x="48.3" y="125.5" class="st1" width="46.2" height="17.5"/>
<rect x="96.5" y="125.5" class="st2" width="46.2" height="17.5"/>
<rect x="144.7" y="125.5" class="st2" width="46.2" height="17.5"/>
<rect x="192.9" y="125.5" class="st2" width="46.2" height="17.5"/>
<rect x="241.1" y="125.5" class="st2" width="46.2" height="17.5"/>
<rect x="289.3" y="125.5" class="st2" width="46.2" height="17.5"/>
<rect x="337.5" y="125.5" class="st2" width="46.2" height="17.5"/>
<rect x="48.3" y="145" class="st1" width="46.2" height="17.5"/>
<rect x="96.5" y="145" class="st2" width="46.2" height="17.5"/>
<rect x="144.7" y="145" class="st2" width="46.2" height="17.5"/>
<rect x="192.9" y="145" class="st2" width="46.2" height="17.5"/>
<rect x="241.1" y="145" class="st2" width="46.2" height="17.5"/>
<rect x="289.3" y="145" class="st2" width="46.2" height="17.5"/>
<rect x="337.5" y="145" class="st2" width="46.2" height="17.5"/>
<rect x="48.3" y="164.5" class="st1" width="46.2" height="17.5"/>
<rect x="96.5" y="164.5" class="st2" width="46.2" height="17.5"/>
<rect x="144.7" y="164.5" class="st2" width="46.2" height="17.5"/>
<rect x="192.9" y="164.5" class="st2" width="46.2" height="17.5"/>
<rect x="241.1" y="164.5" class="st2" width="46.2" height="17.5"/>
<rect x="289.3" y="164.5" class="st2" width="46.2" height="17.5"/>
<rect x="337.5" y="164.5" class="st2" width="46.2" height="17.5"/>
<rect x="48.3" y="184" class="st1" width="46.2" height="17.5"/>
<rect x="96.5" y="184" class="st2" width="46.2" height="17.5"/>
<rect x="144.7" y="184" class="st2" width="46.2" height="17.5"/>
<rect x="192.9" y="184" class="st2" width="46.2" height="17.5"/>
<rect x="241.1" y="184" class="st2" width="46.2" height="17.5"/>
<rect x="289.3" y="184" class="st2" width="46.2" height="17.5"/>
<rect x="337.5" y="184" class="st2" width="46.2" height="17.5"/>
<rect x="48.3" y="203.4" class="st1" width="46.2" height="17.5"/>
<rect x="96.5" y="203.4" class="st2" width="46.2" height="17.5"/>
<rect x="144.7" y="203.4" class="st2" width="46.2" height="17.5"/>
<rect x="192.9" y="203.4" class="st2" width="46.2" height="17.5"/>
<rect x="241.1" y="203.4" class="st2" width="46.2" height="17.5"/>
<rect x="289.3" y="203.4" class="st2" width="46.2" height="17.5"/>
<rect x="337.5" y="203.4" class="st2" width="46.2" height="17.5"/>
<rect x="48.3" y="222.9" class="st1" width="46.2" height="17.5"/>
<rect x="96.5" y="222.9" class="st2" width="46.2" height="17.5"/>
<rect x="144.7" y="222.9" class="st2" width="46.2" height="17.5"/>
<rect x="192.9" y="222.9" class="st2" width="46.2" height="17.5"/>
<rect x="241.1" y="222.9" class="st2" width="46.2" height="17.5"/>
<rect x="289.3" y="222.9" class="st2" width="46.2" height="17.5"/>
<rect x="337.5" y="222.9" class="st2" width="46.2" height="17.5"/>
<path class="st3" d="M337.5,45.6h-2h-46.2h-2h-46.2h-2h-46.2h-2h-46.2h-2H96.5h-2H46.3v19.5v2v17.5v2V104v2v17.5v2V143v2v17.5v2V182
	v2v17.5v2v17.5v2v19.5h48.2h2h46.2h2h46.2h2h46.2h2h46.2h2h46.2h2h48.2v-19.5v-2v-17.5v-2V184v-2v-17.5v-2V145v-2v-17.5v-2V106v-2
	V86.6v-2V67.1v-2V45.6H337.5z M383.7,240.4h-46.2v-17.5h46.2V240.4z M335.5,240.4h-46.2v-17.5h46.2V240.4z M287.3,240.4h-46.2v-17.5
	h46.2V240.4z M239.1,240.4h-46.2v-17.5h46.2V240.4z M190.9,240.4h-46.2v-17.5h46.2V240.4z M142.7,240.4H96.5v-17.5h46.2V240.4z
	 M94.5,240.4H48.3v-17.5h46.2V240.4z M48.3,47.6h46.2v17.5H48.3V47.6z M96.5,47.6h46.2v17.5H96.5V47.6z M144.7,47.6h46.2v17.5h-46.2
	V47.6z M192.9,47.6h46.2v17.5h-46.2V47.6z M241.1,47.6h46.2v17.5h-46.2V47.6z M289.3,47.6h46.2v17.5h-46.2V47.6z M335.5,84.6h-46.2
	V67.1h46.2V84.6z M335.5,104h-46.2V86.6h46.2V104z M335.5,123.5h-46.2V106h46.2V123.5z M335.5,143h-46.2v-17.5h46.2V143z
	 M335.5,162.5h-46.2V145h46.2V162.5z M335.5,182h-46.2v-17.5h46.2V182z M335.5,201.4h-46.2V184h46.2V201.4z M335.5,220.9h-46.2
	v-17.5h46.2V220.9z M96.5,203.4h46.2v17.5H96.5V203.4z M96.5,184h46.2v17.5H96.5V184z M96.5,164.5h46.2V182H96.5V164.5z M96.5,145
	h46.2v17.5H96.5V145z M96.5,125.5h46.2V143H96.5V125.5z M96.5,106h46.2v17.5H96.5V106z M96.5,86.6h46.2V104H96.5V86.6z M96.5,67.1
	h46.2v17.5H96.5V67.1z M287.3,104h-46.2V86.6h46.2V104z M287.3,123.5h-46.2V106h46.2V123.5z M287.3,143h-46.2v-17.5h46.2V143z
	 M287.3,162.5h-46.2V145h46.2V162.5z M287.3,182h-46.2v-17.5h46.2V182z M287.3,201.4h-46.2V184h46.2V201.4z M144.7,184h46.2v17.5
	h-46.2V184z M144.7,164.5h46.2V182h-46.2V164.5z M144.7,145h46.2v17.5h-46.2V145z M144.7,125.5h46.2V143h-46.2V125.5z M144.7,106
	h46.2v17.5h-46.2V106z M144.7,86.6h46.2V104h-46.2V86.6z M239.1,123.5h-46.2V106h46.2V123.5z M239.1,143h-46.2v-17.5h46.2V143z
	 M239.1,162.5h-46.2V145h46.2V162.5z M239.1,182h-46.2v-17.5h46.2V182z M239.1,104h-46.2V86.6h46.2V104z M192.9,184h46.2v17.5h-46.2
	V184z M287.3,84.6h-46.2V67.1h46.2V84.6z M239.1,84.6h-46.2V67.1h46.2V84.6z M190.9,84.6h-46.2V67.1h46.2V84.6z M144.7,203.4h46.2
	v17.5h-46.2V203.4z M192.9,203.4h46.2v17.5h-46.2V203.4z M241.1,203.4h46.2v17.5h-46.2V203.4z M48.3,67.1h46.2v17.5H48.3V67.1z
	 M48.3,86.6h46.2V104H48.3V86.6z M48.3,106h46.2v17.5H48.3V106z M48.3,125.5h46.2V143H48.3V125.5z M48.3,145h46.2v17.5H48.3V145z
	 M48.3,164.5h46.2V182H48.3V164.5z M48.3,184h46.2v17.5H48.3V184z M48.3,203.4h46.2v17.5H48.3V203.4z M383.7,220.9h-46.2v-17.5h46.2
	V220.9z M383.7,201.4h-46.2V184h46.2V201.4z M383.7,182h-46.2v-17.5h46.2V182z M383.7,162.5h-46.2V145h46.2V162.5z M383.7,143h-46.2
	v-17.5h46.2V143z M383.7,123.5h-46.2V106h46.2V123.5z M383.7,104h-46.2V86.6h46.2V104z M383.7,84.6h-46.2V67.1h46.2V84.6z
	 M383.7,65.1h-46.2V47.6h46.2V65.1z"/>
</svg>
