<?xml version="1.0" encoding="utf-8"?>
<!-- Generator: Adobe Illustrator 26.0.3, SVG Export Plug-In . SVG Version: 6.00 Build 0)  -->
<svg version="1.1" id="Layer_1" xmlns="http://www.w3.org/2000/svg" xmlns:xlink="http://www.w3.org/1999/xlink" x="0px" y="0px"
	 viewBox="0 0 432 288" style="enable-background:new 0 0 432 288;" xml:space="preserve">
<style type="text/css">
	.st0{fill:#EFEFEF;}
	.st1{fill:none;stroke:#231F20;stroke-width:3;stroke-linecap:round;stroke-linejoin:round;stroke-miterlimit:10;}
	.st2{fill:#49021F;}
	.st3{fill:#FE3366;}
	.st4{fill:#330000;}
	.st5{fill:#FA9700;}
	.st6{fill:#001E36;}
	.st7{fill:#31A7FD;}
</style>
<rect x="10.8" y="11.1" class="st0" width="410.4" height="265.7"/>
<path class="st1" d="M308.8,171.5h15.4l10.3-5.6h-36l-3.2-1.7v-3.8h42.5v-5.6h-42.5v-5.6h42.5v-5.6h-42.5c0,0,0-2.9,0-5.7
	s0.9-14.2-8.9-23c-8.2-7.3-14.7-19.5-12.3-36.9c1.8-13.3,12.5-33,42.5-33l0,0l0,0c29.9,0,40.7,19.7,42.5,33
	c2.4,17.4-4.1,29.6-12.3,36.9c-9.9,8.8-8.9,20.2-8.9,23"/>
<g>
	<path class="st2" d="M72.5,143.4c0-18.5,0-37,0-55.5c0.1-0.1,0.1-0.3,0.2-0.4c0.5-4,2.3-7.3,5.4-9.9c2.2-1.8,4.6-2.9,7.4-3.3
		c0.2,0,0.3,0,0.4-0.2c19.5,0,39,0,58.5,0c0.1,0.2,0.3,0.2,0.4,0.2c3.8,0.6,7,2.4,9.5,5.4c1.7,2.1,2.8,4.4,3.2,7.1
		c0,0.1,0.1,0.3,0.2,0.4c0,19,0,38,0,57c-0.2,0.1-0.2,0.4-0.2,0.6c-1,4.8-3.6,8.4-7.9,10.7c-1.4,0.7-2.8,1.2-4.3,1.5
		c-0.2,0-0.4,0-0.5,0.2c-19.7,0-39.4,0-59.1,0c-0.2-0.2-0.4-0.2-0.7-0.2c-3.5-0.7-6.4-2.4-8.7-5.1c-2-2.3-3.1-5-3.5-8
		C72.7,143.6,72.6,143.5,72.5,143.4z M127.5,103.8c-0.1,0-0.2,0-0.3,0c-1.3-0.1-2.6-0.1-3.9,0c-1.9,0.2-3.8,0.6-5.5,1.4
		c-4.5,2.1-7.3,5.6-8.4,10.4c-0.5,2.5-0.4,5,0.2,7.5c0.9,3.7,3,6.5,6.5,8.3c2.2,1.1,4.6,1.7,7.1,1.8c1.5,0.1,3,0,4.6-0.2
		c2.5-0.3,5-0.9,7.3-1.9c0.5-0.2,0.6-0.3,0.6-0.9c-0.1-2-0.2-4-0.2-6c0-10.4,0-20.8,0-31.2c0-0.1,0-0.3,0-0.4c0-0.3-0.1-0.4-0.4-0.4
		c-0.1,0-0.2,0-0.2,0c-2.2,0-4.4,0-6.6,0c-0.7,0-0.7,0-0.7,0.8c0,3.4,0,6.9,0,10.3C127.5,103.5,127.5,103.7,127.5,103.8z
		 M95.6,114.1c0,5.9,0,11.9,0,17.8c0,0.2,0,0.4,0,0.5c0,0.4,0.2,0.5,0.5,0.5c0.1,0,0.2,0,0.3,0c2.1,0,4.1,0,6.2,0
		c0.8,0,0.9-0.1,0.9-0.9c0-12,0-23.9,0-35.9c0-0.1,0-0.3,0-0.4c0-0.3-0.2-0.4-0.5-0.4c-0.1,0-0.2,0-0.2,0c-2.1,0-4.2,0-6.4,0
		c-0.1,0-0.2,0-0.3,0c-0.4,0-0.5,0.2-0.5,0.5c0,0.1,0,0.3,0,0.4C95.6,102.2,95.6,108.1,95.6,114.1z"/>
	<path class="st3" d="M127.5,103.8c0-0.2,0-0.4,0-0.5c0-3.4,0-6.9,0-10.3c0-0.7,0-0.8,0.7-0.8c2.2,0,4.4,0,6.6,0c0.1,0,0.2,0,0.2,0
		c0.3,0,0.4,0.1,0.4,0.4c0,0.1,0,0.3,0,0.4c0,10.4,0,20.8,0,31.2c0,2,0,4,0.2,6c0,0.6,0,0.7-0.6,0.9c-2.3,1-4.8,1.6-7.3,1.9
		c-1.5,0.2-3,0.3-4.6,0.2c-2.5-0.1-4.9-0.6-7.1-1.8c-3.4-1.8-5.6-4.6-6.5-8.3c-0.6-2.5-0.7-5-0.2-7.5c1-4.9,3.9-8.3,8.4-10.4
		c1.8-0.8,3.6-1.2,5.5-1.4c1.3-0.1,2.6-0.1,3.9,0C127.3,103.9,127.3,103.8,127.5,103.8z M127.5,126.2c0-5.3,0-10.4,0-15.6
		c-0.1,0-0.2-0.1-0.3-0.1c-0.3-0.1-0.7-0.1-1-0.1c-2-0.2-3.9,0.2-5.6,1.3c-1.6,1-2.7,2.4-3.1,4.2c-0.5,2-0.4,4.1,0.3,6
		c0.5,1.3,1.2,2.4,2.4,3.2c1.1,0.8,2.3,1.1,3.6,1.2c1,0.1,1.9,0,2.9,0C126.9,126.4,127.2,126.3,127.5,126.2z"/>
	<path class="st3" d="M95.6,114.1c0-5.9,0-11.9,0-17.8c0-0.1,0-0.3,0-0.4c0-0.4,0.1-0.5,0.5-0.5c0.1,0,0.2,0,0.3,0
		c2.1,0,4.2,0,6.4,0c0.1,0,0.2,0,0.2,0c0.3,0,0.4,0.1,0.5,0.4c0,0.1,0,0.3,0,0.4c0,12,0,23.9,0,35.9c0,0.8-0.1,0.9-0.9,0.9
		c-2.1,0-4.1,0-6.2,0c-0.1,0-0.2,0-0.3,0c-0.3,0-0.5-0.2-0.5-0.5c0-0.2,0-0.4,0-0.5C95.6,125.9,95.6,120,95.6,114.1z"/>
	<path class="st2" d="M127.5,126.2c-0.3,0.1-0.5,0.1-0.8,0.1c-1,0-1.9,0.1-2.9,0c-1.3-0.1-2.5-0.5-3.6-1.2c-1.2-0.8-1.9-1.9-2.4-3.2
		c-0.7-2-0.8-4-0.3-6c0.4-1.9,1.6-3.2,3.1-4.2c1.7-1.1,3.6-1.5,5.6-1.3c0.3,0,0.7,0.1,1,0.1c0.1,0,0.2,0,0.3,0.1
		C127.5,115.8,127.5,121,127.5,126.2z"/>
</g>
<g>
	<g>
		<path class="st4" d="M136.6,201.1l-0.2-0.1c-0.1,0-0.2-0.1-0.3-0.2l-0.1-0.1c-6.2-1.4-10.4-5.2-12.3-11.5
			c-0.1-0.2-0.2-0.5-0.3-0.7c-0.1-0.1-0.1-0.3-0.2-0.4l-0.1-0.2v-59.5l0.1-0.2c0.1-0.2,0.2-0.4,0.3-0.5c0.2-0.3,0.3-0.7,0.4-1
			c1.8-4.9,5.1-8.3,9.9-10.2c0.5-0.2,1.1-0.4,1.6-0.6l0.9-0.3h60.3l0.3,0.2l0.1,0.1c5.8,0.9,10,4.4,12.4,10.3
			c0.2,0.5,0.4,1.1,0.6,1.6l0.3,0.9v59.1c0,0-0.2,0.5-0.3,0.7c-0.2,0.3-0.3,0.7-0.4,1c-1.6,5.1-5,8.7-10.2,10.6
			c-0.6,0.2-1.2,0.4-1.8,0.6c-0.3,0.1-0.9,0.3-0.9,0.3L136.6,201.1L136.6,201.1z"/>
		<path class="st0" d="M196.3,116.6c0.1,0.1,0.2,0.3,0.4,0.3c5.9,0.9,9.7,4.4,11.9,9.8c0.3,0.8,0.6,1.5,0.9,2.3
			c0,19.6,0,39.1,0,58.7c-0.2,0.5-0.5,1.1-0.7,1.6c-1.6,4.9-4.8,8.2-9.6,10c-0.8,0.3-1.7,0.5-2.5,0.8c-19.9,0-39.9,0-59.8,0
			c-0.2-0.1-0.4-0.3-0.6-0.3c-6-1.3-9.8-5-11.6-10.8c-0.1-0.4-0.4-0.8-0.6-1.3c0-19.7,0-39.4,0-59c0.2-0.5,0.5-1,0.7-1.6
			c1.7-4.6,4.8-7.8,9.3-9.6c0.8-0.3,1.6-0.6,2.3-0.9C156.4,116.6,176.3,116.6,196.3,116.6 M197,114.6h-0.7h-59.8h-0.4l-0.3,0.1
			L135,115c-0.5,0.2-1.1,0.4-1.6,0.6c-5.1,2-8.6,5.6-10.5,10.8c-0.1,0.3-0.2,0.6-0.4,0.9c-0.1,0.2-0.2,0.4-0.3,0.5l-0.2,0.4v0.4v59
			v0.4l0.2,0.4c0.1,0.2,0.1,0.3,0.2,0.5s0.2,0.4,0.3,0.6c2,6.5,6.3,10.6,12.9,12.1c0.1,0.1,0.2,0.1,0.3,0.2l0.5,0.3h0.5h59.8h0.3
			l0.3-0.1c0.3-0.1,0.5-0.2,0.8-0.2c0.6-0.2,1.2-0.4,1.9-0.6c5.4-2,9.1-5.8,10.8-11.2c0.1-0.3,0.2-0.6,0.4-0.9
			c0.1-0.2,0.2-0.4,0.2-0.6l0.2-0.4v-0.4V129v-0.4l-0.1-0.3c-0.1-0.2-0.2-0.5-0.3-0.7c-0.2-0.6-0.4-1.1-0.6-1.7
			c-2.5-6.2-6.9-9.8-12.9-10.9L197,114.6L197,114.6z"/>
	</g>
	<path class="st5" d="M176.8,175.5c-2.6,0.1-4.9,0.4-7.2,0.3c-0.6,0-1.4-0.8-1.6-1.4c-1-2.5-1.9-5.2-2.8-7.9c-4.1,0-8.1,0-12.2,0
		c-0.4,0-1.1,0.5-1.2,1c-0.6,1.6-1.1,3.3-1.7,5c-1,3.1-1.1,3.2-4.4,3.3c-0.5,0-1,0-1.5,0c-3,0-3-0.1-2-3c3.4-9.9,6.9-19.7,10.2-29.6
		c0.5-1.4,0.8-2.9,1-4.3c0.1-0.9,0.4-1.3,1.4-1.3c2.4,0.1,4.9,0,7.3,0.1c0.6,0,1.4,0.6,1.6,1.1C168.2,150.9,172.4,163,176.8,175.5z
		 M158.6,144.7c-1.5,5.1-2.9,9.6-4.3,14.3c3,0,5.7,0,8.7,0C161.6,154.4,160.2,149.8,158.6,144.7z"/>
	<path class="st5" d="M188.4,147.2c0,9.5,0,18.8,0,28.4c-2,0.1-3.9,0.2-5.8,0.4c-1.7,0.2-2.1-0.6-2.1-2.2c0.1-5.6,0-11.2,0-16.7
		c0-3.3,0-6.5,0-9.9C183.2,147.2,185.7,147.2,188.4,147.2z"/>
	<path class="st5" d="M184.5,144.1c-2.6,0-4.4-1.9-4.4-4.6c0-2.5,2.1-4.5,4.6-4.4c2.5,0,4.4,2,4.3,4.6
		C189,142.3,187.1,144.1,184.5,144.1z"/>
</g>
<g>
	<g>
		<path class="st6" d="M188.6,243.9l-0.2-0.1c-0.1,0-0.2-0.1-0.2-0.1c-1.8-0.3-3.4-0.8-4.8-1.6c-4.8-2.6-7.8-6.6-8.7-11.9
			c-0.1-0.1-0.1-0.2-0.1-0.2l-0.1-0.2v-57.4l0.2-0.4c0.1-0.3,0.2-0.6,0.2-0.9c0.1-0.6,0.3-1.3,0.5-1.9c2.2-5.9,6.5-9.5,12.8-10.7
			c0.1,0,0.1-0.1,0.2-0.1l0.2-0.1h59.5l0.2,0.1c0.1,0,0.2,0.1,0.2,0.1c3.5,0.6,6.5,2.1,8.9,4.5c2.5,2.5,4,5.5,4.6,9
			c0,0.1,0.1,0.1,0.1,0.2l0.1,0.2v57.4l-0.1,0.2c0,0.1-0.1,0.2-0.1,0.2c-0.3,1.7-0.8,3.3-1.5,4.7c-2.6,4.9-6.6,7.8-12,8.8
			c-0.1,0.1-0.2,0.1-0.2,0.1l-0.2,0.1L188.6,243.9L188.6,243.9z"/>
		<path class="st0" d="M247.9,159.4c0.1,0.1,0.3,0.1,0.4,0.2c3.3,0.5,6.1,1.9,8.4,4.2c2.4,2.4,3.8,5.2,4.3,8.5
			c0,0.1,0.1,0.2,0.2,0.3c0,19,0,38,0,56.9c-0.1,0.1-0.1,0.3-0.2,0.4c-0.2,1.6-0.7,3.1-1.4,4.5c-2.4,4.6-6.2,7.4-11.3,8.3
			c-0.1,0-0.3,0.1-0.4,0.2c-19.7,0-39.4,0-59.1,0c-0.1-0.1-0.3-0.1-0.4-0.2c-1.6-0.2-3.1-0.7-4.5-1.5c-4.6-2.4-7.3-6.2-8.2-11.3
			c0-0.1-0.1-0.3-0.2-0.4c0-19,0-38,0-56.9c0.1-0.1,0.1-0.3,0.2-0.4c0.2-0.9,0.3-1.8,0.7-2.7c2.1-5.6,6.2-9,12.1-10.1
			c0.1,0,0.2-0.1,0.3-0.2C208.5,159.4,228.2,159.4,247.9,159.4 M248.3,157.4h-0.4h-59.1h-0.5l-0.4,0.2h-0.1c-6.5,1.2-11,5-13.4,11.3
			c-0.3,0.7-0.4,1.4-0.6,2.1c-0.1,0.2-0.1,0.5-0.2,0.7c0,0.1-0.1,0.1-0.1,0.2l-0.2,0.4v0.4v56.9v0.4l0.2,0.4c0,0,0,0.1,0.1,0.1
			c1,5.6,4.1,9.8,9.2,12.5c1.5,0.8,3.1,1.3,4.9,1.6c0,0,0.1,0,0.1,0.1l0.4,0.2h0.4h59.1h0.4l0.4-0.2c0,0,0.1,0,0.1-0.1
			c5.6-1,9.8-4.1,12.5-9.3c0.8-1.5,1.3-3.1,1.6-4.9c0,0,0-0.1,0.1-0.1l0.2-0.4v-0.4v-56.9v-0.5l-0.2-0.4c0,0,0,0,0-0.1
			c-0.6-3.6-2.2-6.8-4.8-9.3c-2.6-2.6-5.7-4.2-9.3-4.8c0,0-0.1,0-0.1-0.1L248.3,157.4L248.3,157.4z"/>
	</g>
	<path class="st7" d="M202.6,206.4c0,0.2,0,0.4,0,0.5c0,3.5,0,7.1,0,10.6c0,0.7-0.1,0.8-0.8,0.8c-2.1,0-4.2,0-6.3,0
		c-0.7,0-0.7-0.1-0.7-0.7c0-12.1,0-24.1,0-36.2c0-0.6,0-0.7,0.7-0.7c3.9-0.1,7.8-0.2,11.6-0.2c2.8,0,5.6,0.5,8.1,1.8
		c3.7,1.9,5.8,5,6.4,9.2c0.3,2.7,0.1,5.3-1.1,7.7c-1.5,3.2-4.1,5.1-7.4,6.2c-2.4,0.8-4.9,1-7.5,1c-0.9,0-1.8,0-2.6-0.1
		C202.9,206.4,202.8,206.4,202.6,206.4z M202.6,199.7c1.4,0,2.8,0,4.1,0c1.2,0,2.4-0.3,3.5-0.7c1.4-0.5,2.5-1.3,3.2-2.7
		c0.5-1.1,0.6-2.2,0.5-3.4c-0.2-1.9-1-3.4-2.7-4.3c-0.9-0.5-2-0.8-3.1-0.9c-1.7-0.1-3.5-0.1-5.2-0.1c-0.1,0-0.3,0-0.4,0.1
		C202.6,191.7,202.6,195.7,202.6,199.7z"/>
	<path class="st7" d="M225.6,213.8c0-1,0-2,0-2.9c0-0.6,0.2-0.7,0.6-0.4c2.8,1.6,5.8,2.3,9,2.2c0.8,0,1.6-0.2,2.3-0.5
		c1.2-0.4,1.4-1.8,0.5-2.6c-0.5-0.5-1.2-0.9-1.9-1.2c-1.5-0.7-3-1.2-4.4-1.9c-1.5-0.7-2.9-1.6-4.1-2.9c-3-3.3-2.4-8.4,0.5-11.2
		c1.6-1.5,3.4-2.4,5.5-2.7c3.3-0.5,6.5-0.3,9.7,0.5c0.3,0.1,0.6,0.2,0.8,0.3c0.4,0.1,0.6,0.4,0.6,0.9c0,1.9,0,3.8,0,5.7
		c0,0.5-0.4,0.7-0.9,0.4c-0.8-0.3-1.5-0.7-2.3-0.9c-1.9-0.6-3.9-0.8-5.9-0.7c-0.5,0-1,0.1-1.5,0.3c-1.2,0.4-1.6,1.8-0.7,2.7
		c0.4,0.4,0.8,0.7,1.3,0.9c1.3,0.6,2.7,1.1,4,1.7c1.2,0.5,2.3,1.1,3.4,1.8c5.5,3.1,4.9,10.5,0.7,13.6c-1.6,1.2-3.4,1.8-5.3,2.1
		c-3.5,0.5-6.9,0.3-10.3-0.8c-0.4-0.1-0.9-0.3-1.3-0.5c-0.4-0.2-0.6-0.4-0.6-0.9C225.6,215.7,225.6,214.8,225.6,213.8z"/>
</g>
</svg>
