<?xml version="1.0" encoding="utf-8"?>
<!-- Generator: Adobe Illustrator 26.2.1, SVG Export Plug-In . SVG Version: 6.00 Build 0)  -->
<svg version="1.1" id="Layer_1" xmlns="http://www.w3.org/2000/svg" xmlns:xlink="http://www.w3.org/1999/xlink" x="0px" y="0px"
	 viewBox="0 0 432 288" style="enable-background:new 0 0 432 288;" xml:space="preserve">
<style type="text/css">
	.st0{fill:#EFEFEF;}
	.st1{fill:#828282;}
	.st2{fill:#FFFFFF;}
</style>
<rect x="10.8" y="11.1" class="st0" width="410.4" height="265.7"/>
<path d="M307.2,226.1H122.4V63.9c0-1.1,0.9-2,2-2s2,0.9,2,2v158.3h180.8c1.1,0,2,0.9,2,2S308.3,226.1,307.2,226.1z"/>
<g>
	<path class="st1" d="M307.6,68.6H206c-1.1,0-2-0.9-2-2s0.9-2,2-2h101.5c1.1,0,2,0.9,2,2S308.7,68.6,307.6,68.6z"/>
	<g>
		<path class="st2" d="M206.4,72.6c-3.3,0-6-2.7-6-6s2.7-6,6-6c3.3,0,6,2.7,6,6S209.7,72.6,206.4,72.6z"/>
		<path class="st1" d="M206.4,73.4c3.8,0,6.8-3.1,6.8-6.8s-3.1-6.8-6.8-6.8c-3.8,0-6.8,3.1-6.8,6.8S202.6,73.4,206.4,73.4
			C210.1,73.4,202.6,73.4,206.4,73.4z M206.4,61.4c2.9,0,5.2,2.3,5.2,5.2s-2.3,5.2-5.2,5.2c-2.9,0-5.2-2.3-5.2-5.2
			S203.5,61.4,206.4,61.4C209.3,61.4,203.5,61.4,206.4,61.4z"/>
	</g>
</g>
<g>
	<path class="st1" d="M226.4,213.7h-89.5c-1.1,0-2-0.9-2-2s0.9-2,2-2h89.5c1.1,0,2,0.9,2,2S227.5,213.7,226.4,213.7z"/>
	<g>
		<path class="st2" d="M226,205.7c3.3,0,6,2.7,6,6s-2.7,6-6,6c-3.3,0-6-2.7-6-6S222.7,205.7,226,205.7z"/>
		<path class="st1" d="M226,204.9c-3.8,0-6.8,3.1-6.8,6.8c0,3.8,3.1,6.8,6.8,6.8c3.8,0,6.8-3.1,6.8-6.8
			C232.9,208,229.8,204.9,226,204.9C222.3,204.9,229.8,204.9,226,204.9z M226,217c-2.9,0-5.2-2.3-5.2-5.2c0-2.9,2.3-5.2,5.2-5.2
			c2.9,0,5.2,2.3,5.2,5.2C231.3,214.6,228.9,217,226,217C223.2,217,228.9,217,226,217z"/>
	</g>
</g>
<path d="M136.9,213.7c-1.1,0-2-0.9-2-2s0.9-2,2-2c42.1,0,59.2-33.1,77.3-68.2c19.5-37.8,39.7-77,93-77c1.1,0,2,0.9,2,2s-0.9,2-2,2
	c-50.8,0-70.5,38-89.5,74.8C199.9,178,181.4,213.7,136.9,213.7z"/>
</svg>
