<?xml version="1.0" encoding="utf-8"?>
<!-- Generator: Adobe Illustrator 26.0.3, SVG Export Plug-In . SVG Version: 6.00 Build 0)  -->
<svg version="1.1" id="Layer_1" xmlns="http://www.w3.org/2000/svg" xmlns:xlink="http://www.w3.org/1999/xlink" x="0px" y="0px"
	 viewBox="0 0 432 288" style="enable-background:new 0 0 432 288;" xml:space="preserve">
<style type="text/css">
	.st0{fill:#EFEFEF;}
	.st1{fill:#7B2CA8;}
	.st2{fill:#398FC9;}
</style>
<rect x="10.8" y="11.1" class="st0" width="410.4" height="265.7"/>
<path class="st1" d="M47.1,123.9c0.3-0.3,0.5-0.4,0.8-0.4c0.3,0,0.6,0.1,0.8,0.4s0.3,0.7,0.3,1.3v1.6c0,0.6-0.1,1-0.3,1.3
	s-0.5,0.4-0.8,0.4c-0.3,0-0.6-0.1-0.8-0.3c-0.2-0.1-0.3-0.4-0.4-0.9c-0.1-0.4-0.3-0.8-0.6-1c-0.6-0.4-1.3-0.6-2.3-0.6
	c-1.1,0-1.9,0.3-2.5,1c-0.6,0.7-1,1.6-1,2.6c0,1,0.3,1.7,0.9,2.3c0.6,0.6,1.6,0.8,3,0.8c0.9,0,1.7-0.1,2.3-0.3
	c0.3-0.1,0.7-0.3,1-0.7c0.3-0.3,0.6-0.5,0.8-0.5c0.3,0,0.6,0.1,0.8,0.4c0.2,0.2,0.3,0.5,0.3,0.9c0,0.5-0.3,1.1-1,1.6
	c-1,0.7-2.5,1.1-4.4,1.1c-1.7,0-3.1-0.4-4-1.2c-1.3-1.1-2-2.5-2-4.4c0-1.8,0.5-3.2,1.6-4.4s2.4-1.7,4.1-1.7c0.6,0,1.2,0.1,1.7,0.2
	C46.2,123.4,46.7,123.6,47.1,123.9z"/>
<path class="st1" d="M62.8,129.1c0,1-0.2,1.9-0.7,2.8c-0.5,0.9-1.2,1.6-2.1,2.1c-0.9,0.5-1.9,0.8-2.9,0.8c-1,0-2-0.3-2.9-0.8
	c-0.9-0.5-1.6-1.2-2.1-2.1c-0.5-0.9-0.7-1.8-0.7-2.8c0-1,0.2-2,0.7-2.9c0.5-1,1.2-1.7,2.1-2.3c0.9-0.5,1.9-0.8,2.9-0.8
	c1,0,2,0.3,2.9,0.8c0.9,0.6,1.6,1.3,2.1,2.3C62.6,127.2,62.8,128.1,62.8,129.1z M60.6,129.1c0-0.8-0.3-1.5-0.8-2.2
	c-0.7-0.9-1.6-1.4-2.8-1.4c-1,0-1.8,0.4-2.5,1.1c-0.7,0.7-1,1.5-1,2.5c0,0.8,0.3,1.5,1,2.2c0.7,0.7,1.5,1,2.5,1c1,0,1.8-0.3,2.5-1
	C60.2,130.6,60.6,129.9,60.6,129.1z"/>
<path class="st1" d="M68.1,123.4v0.8c0.4-0.4,0.9-0.7,1.3-0.9c0.5-0.2,1-0.3,1.6-0.3c1.3,0,2.4,0.5,3.1,1.4c0.6,0.7,0.9,1.7,0.9,2.9
	v4.6c0.5,0,0.8,0.1,1,0.3c0.2,0.2,0.3,0.5,0.3,0.9c0,0.4-0.1,0.7-0.3,0.9c-0.2,0.2-0.6,0.3-1.1,0.3h-2c-0.5,0-0.9-0.1-1.1-0.3
	c-0.2-0.2-0.3-0.5-0.3-0.9c0-0.4,0.1-0.7,0.3-0.9c0.2-0.2,0.6-0.3,1-0.3v-4.7c0-0.5-0.1-0.9-0.4-1.2c-0.3-0.3-0.9-0.5-1.5-0.5
	c-0.5,0-1,0.1-1.4,0.3c-0.4,0.2-0.9,0.7-1.5,1.4v4.6c0.6,0,0.9,0.1,1.1,0.2c0.4,0.2,0.5,0.6,0.5,1.1c0,0.4-0.1,0.7-0.3,0.9
	c-0.2,0.2-0.6,0.3-1.1,0.3h-2.5c-0.5,0-0.9-0.1-1.1-0.3c-0.2-0.2-0.3-0.5-0.3-0.9c0-0.5,0.2-0.8,0.5-1.1c0.2-0.1,0.5-0.2,1.1-0.2v-6
	c-0.5,0-0.8-0.1-1-0.4s-0.3-0.5-0.3-0.9s0.1-0.7,0.3-0.9c0.2-0.2,0.6-0.3,1.1-0.3H68.1z"/>
<path class="st1" d="M86.2,126.3c-0.4-0.2-0.7-0.4-1.1-0.6c-0.4-0.1-0.8-0.2-1.3-0.2c-0.9,0-1.5,0.2-2.1,0.5
	c-0.2,0.1-0.3,0.3-0.3,0.4c0,0.2,0.2,0.4,0.5,0.5c0.2,0.1,0.8,0.3,1.6,0.4c1.5,0.2,2.5,0.5,3.1,0.7c0.8,0.3,1.3,0.7,1.8,1.3
	c0.4,0.6,0.6,1.2,0.6,1.9c0,0.9-0.4,1.6-1.1,2.2c-1,0.9-2.3,1.3-3.9,1.3c-0.6,0-1.2-0.1-1.8-0.2c-0.5-0.1-1-0.3-1.5-0.5
	c-0.1,0.1-0.2,0.2-0.3,0.2c-0.1,0.1-0.3,0.1-0.4,0.1c-0.3,0-0.6-0.1-0.8-0.4c-0.2-0.3-0.3-0.7-0.3-1.3v-0.8c0-0.6,0.1-1,0.3-1.3
	c0.2-0.3,0.5-0.4,0.8-0.4c0.3,0,0.5,0.1,0.7,0.2c0.2,0.2,0.3,0.4,0.4,0.9c0.3,0.3,0.7,0.6,1.2,0.7c0.5,0.2,1,0.2,1.7,0.2
	c1,0,1.8-0.2,2.4-0.5c0.3-0.2,0.4-0.4,0.4-0.6c0-0.3-0.2-0.6-0.6-0.8c-0.4-0.2-1.2-0.4-2.4-0.5c-1.8-0.2-3-0.6-3.6-1.2
	c-0.6-0.6-0.9-1.3-0.9-2.2c0-0.9,0.3-1.6,1-2.2c0.9-0.8,2.1-1.2,3.6-1.2c0.5,0,1,0.1,1.5,0.2c0.5,0.1,0.9,0.3,1.4,0.5
	c0.1-0.1,0.3-0.2,0.4-0.3c0.1-0.1,0.2-0.1,0.3-0.1c0.3,0,0.6,0.1,0.8,0.4c0.2,0.3,0.3,0.7,0.3,1.3v0.6c0,0.5-0.1,0.9-0.2,1.1
	c-0.2,0.4-0.5,0.6-0.9,0.6c-0.3,0-0.5-0.1-0.7-0.3C86.3,126.9,86.2,126.6,86.2,126.3z"/>
<path class="st1" d="M96.6,125.9v5c0,0.5,0.1,0.9,0.3,1.1c0.3,0.3,0.8,0.4,1.6,0.4c1.1,0,2.2-0.3,3.2-0.8c0.4-0.2,0.7-0.3,0.9-0.3
	c0.3,0,0.5,0.1,0.8,0.4c0.2,0.2,0.3,0.5,0.3,0.9c0,0.3-0.1,0.6-0.3,0.8c-0.4,0.4-1.1,0.7-2.1,1c-1,0.3-1.9,0.5-2.6,0.5
	c-1.4,0-2.4-0.3-3.1-1c-0.7-0.7-1-1.5-1-2.4v-5.4h-0.8c-0.5,0-0.9-0.1-1.1-0.3c-0.2-0.2-0.3-0.5-0.3-0.9c0-0.4,0.1-0.7,0.3-0.9
	c0.2-0.2,0.6-0.3,1.1-0.3h0.8v-2.2c0-0.6,0.1-1,0.3-1.3c0.2-0.3,0.5-0.4,0.8-0.4c0.3,0,0.6,0.1,0.8,0.4c0.2,0.3,0.3,0.7,0.3,1.3v2.2
	h4.1c0.5,0,0.9,0.1,1.1,0.3c0.2,0.2,0.3,0.5,0.3,0.9c0,0.4-0.1,0.7-0.3,0.9c-0.2,0.2-0.6,0.3-1.1,0.3H96.6z"/>
<path class="st2" d="M129.6,129.1c0,1-0.2,1.9-0.7,2.8c-0.5,0.9-1.2,1.6-2.1,2.1c-0.9,0.5-1.9,0.8-2.9,0.8c-1,0-2-0.3-2.9-0.8
	c-0.9-0.5-1.6-1.2-2.1-2.1c-0.5-0.9-0.7-1.8-0.7-2.8c0-1,0.2-2,0.7-2.9c0.5-1,1.2-1.7,2.1-2.3c0.9-0.5,1.9-0.8,2.9-0.8
	c1,0,2,0.3,2.9,0.8c0.9,0.6,1.6,1.3,2.1,2.3C129.4,127.2,129.6,128.1,129.6,129.1z M127.4,129.1c0-0.8-0.3-1.5-0.8-2.2
	c-0.7-0.9-1.6-1.4-2.8-1.4c-1,0-1.8,0.4-2.5,1.1c-0.7,0.7-1,1.5-1,2.5c0,0.8,0.3,1.5,1,2.2c0.7,0.7,1.5,1,2.5,1c1,0,1.8-0.3,2.5-1
	C127.1,130.6,127.4,129.9,127.4,129.1z"/>
<path class="st2" d="M134.4,118.7v5.6c0.5-0.4,1.1-0.7,1.7-0.9c0.6-0.2,1.1-0.3,1.7-0.3c1.5,0,2.9,0.6,3.9,1.8
	c1.1,1.2,1.6,2.6,1.6,4.3c0,1.6-0.5,2.9-1.5,4c-1,1.1-2.4,1.6-4,1.6c-0.6,0-1.2-0.1-1.7-0.3c-0.6-0.2-1.1-0.4-1.6-0.7v0.6h-2.6
	c-0.5,0-0.9-0.1-1.1-0.3c-0.2-0.2-0.3-0.5-0.3-0.9c0-0.4,0.1-0.7,0.3-0.9c0.2-0.2,0.6-0.3,1.1-0.3h0.4v-10.7h-0.4
	c-0.5,0-0.9-0.1-1.1-0.3c-0.2-0.2-0.3-0.5-0.3-0.9c0-0.4,0.1-0.7,0.3-0.9c0.2-0.2,0.6-0.3,1.1-0.3H134.4z M141.1,129.2
	c0-1-0.3-1.9-1-2.6s-1.4-1.1-2.4-1.1c-0.9,0-1.7,0.4-2.4,1.1c-0.6,0.7-1,1.6-1,2.6c0,0.9,0.3,1.7,0.9,2.2c0.6,0.6,1.4,0.9,2.5,0.9
	c1.1,0,1.9-0.3,2.5-0.9C140.8,130.9,141.1,130.1,141.1,129.2z"/>
<path class="st2" d="M151.9,125.9h-4.5c-0.5,0-0.9-0.1-1.1-0.3c-0.2-0.2-0.3-0.5-0.3-0.9c0-0.4,0.1-0.7,0.3-0.9
	c0.2-0.2,0.6-0.3,1.1-0.3h6.8v11.5c0,0.9-0.2,1.6-0.5,2.3c-0.3,0.6-0.8,1.2-1.5,1.7c-0.7,0.5-1.5,0.7-2.3,0.7h-2.5
	c-0.5,0-0.9-0.1-1.1-0.3c-0.2-0.2-0.3-0.5-0.3-0.9c0-0.4,0.1-0.7,0.3-0.9c0.2-0.2,0.6-0.3,1.1-0.3h2.5c0.7,0,1.2-0.2,1.6-0.6
	c0.4-0.4,0.6-0.9,0.6-1.6V125.9z M152.8,118.7v2.6h-2.7v-2.6H152.8z"/>
<path class="st2" d="M169.5,130.2h-9.1c0.2,0.6,0.6,1.2,1.2,1.6c0.6,0.4,1.4,0.6,2.4,0.6c0.8,0,1.9-0.2,3.3-0.6
	c0.6-0.2,1-0.2,1.2-0.2c0.3,0,0.5,0.1,0.8,0.4c0.2,0.2,0.3,0.5,0.3,0.9c0,0.3-0.1,0.6-0.3,0.8c-0.3,0.3-1,0.6-2.1,0.9
	s-2.2,0.4-3.2,0.4c-1.8,0-3.2-0.6-4.3-1.7c-1.1-1.1-1.6-2.5-1.6-4.1c0-1.7,0.6-3.2,1.7-4.2c1.2-1.1,2.5-1.6,4-1.6
	c0.9,0,1.7,0.2,2.5,0.5c0.8,0.4,1.3,0.7,1.7,1.1c0.5,0.6,1,1.3,1.3,2.2c0.2,0.6,0.3,1.3,0.3,2.1V130.2z M167,127.7
	c-0.3-0.7-0.8-1.2-1.3-1.6s-1.2-0.5-2-0.5c-0.8,0-1.4,0.2-2,0.5s-1,0.9-1.3,1.6H167z"/>
<path class="st2" d="M180.8,123.9c0.3-0.3,0.5-0.4,0.8-0.4c0.3,0,0.6,0.1,0.8,0.4s0.3,0.7,0.3,1.3v1.6c0,0.6-0.1,1-0.3,1.3
	s-0.5,0.4-0.8,0.4c-0.3,0-0.6-0.1-0.8-0.3c-0.2-0.1-0.3-0.4-0.4-0.9c-0.1-0.4-0.3-0.8-0.6-1c-0.6-0.4-1.3-0.6-2.3-0.6
	c-1.1,0-1.9,0.3-2.5,1c-0.6,0.7-1,1.6-1,2.6c0,1,0.3,1.7,0.9,2.3c0.6,0.6,1.6,0.8,3,0.8c0.9,0,1.7-0.1,2.3-0.3
	c0.3-0.1,0.7-0.3,1-0.7c0.3-0.3,0.6-0.5,0.8-0.5c0.3,0,0.6,0.1,0.8,0.4c0.2,0.2,0.3,0.5,0.3,0.9c0,0.5-0.3,1.1-1,1.6
	c-1,0.7-2.5,1.1-4.4,1.1c-1.7,0-3.1-0.4-4-1.2c-1.3-1.1-2-2.5-2-4.4c0-1.8,0.5-3.2,1.6-4.4c1.1-1.2,2.4-1.7,4.1-1.7
	c0.6,0,1.2,0.1,1.7,0.2C179.8,123.4,180.3,123.6,180.8,123.9z"/>
<path class="st2" d="M190.1,125.9v5c0,0.5,0.1,0.9,0.3,1.1c0.3,0.3,0.8,0.4,1.6,0.4c1.1,0,2.2-0.3,3.2-0.8c0.4-0.2,0.7-0.3,0.9-0.3
	c0.3,0,0.5,0.1,0.8,0.4c0.2,0.2,0.3,0.5,0.3,0.9c0,0.3-0.1,0.6-0.3,0.8c-0.4,0.4-1.1,0.7-2.1,1c-1,0.3-1.9,0.5-2.6,0.5
	c-1.4,0-2.4-0.3-3.1-1c-0.7-0.7-1-1.5-1-2.4v-5.4h-0.8c-0.5,0-0.9-0.1-1.1-0.3c-0.2-0.2-0.3-0.5-0.3-0.9c0-0.4,0.1-0.7,0.3-0.9
	c0.2-0.2,0.6-0.3,1.1-0.3h0.8v-2.2c0-0.6,0.1-1,0.3-1.3c0.2-0.3,0.5-0.4,0.8-0.4c0.3,0,0.6,0.1,0.8,0.4c0.2,0.3,0.3,0.7,0.3,1.3v2.2
	h4.1c0.5,0,0.9,0.1,1.1,0.3c0.2,0.2,0.3,0.5,0.3,0.9c0,0.4-0.1,0.7-0.3,0.9c-0.2,0.2-0.6,0.3-1.1,0.3H190.1z"/>
<path d="M225.1,126.3h-9.5c-0.5,0-0.9-0.1-1.1-0.3c-0.2-0.2-0.3-0.5-0.3-0.9c0-0.4,0.1-0.7,0.3-0.9c0.2-0.2,0.6-0.3,1.1-0.3h9.5
	c0.5,0,0.9,0.1,1.1,0.3c0.2,0.2,0.3,0.5,0.3,0.9c0,0.4-0.1,0.7-0.3,0.9C226.1,126.1,225.7,126.3,225.1,126.3z M225.1,130.9h-9.5
	c-0.5,0-0.9-0.1-1.1-0.3c-0.2-0.2-0.3-0.5-0.3-0.9c0-0.4,0.1-0.7,0.3-0.9c0.2-0.2,0.6-0.3,1.1-0.3h9.5c0.5,0,0.9,0.1,1.1,0.3
	c0.2,0.2,0.3,0.5,0.3,0.9c0,0.4-0.1,0.7-0.3,0.9C226.1,130.8,225.7,130.9,225.1,130.9z"/>
<path d="M247.5,128.4c0.3,0.3,0.4,0.7,0.5,1c0.1,0.3,0.1,0.8,0.1,1.5v3.9c0,0.3,0.1,0.6,0.2,0.7c0.1,0.1,0.3,0.2,0.6,0.3
	c0.3,0,0.6,0.2,0.7,0.4c0.2,0.2,0.3,0.5,0.3,0.9c0,0.4-0.1,0.7-0.3,0.9c-0.2,0.2-0.5,0.4-0.8,0.4c-0.5,0-1-0.1-1.4-0.4
	c-0.4-0.3-0.8-0.8-1.2-1.4c-0.2-0.4-0.3-0.9-0.3-1.5v-4.4c0-0.3-0.1-0.6-0.2-0.7c-0.1-0.1-0.3-0.2-0.7-0.3c-0.3,0-0.6-0.2-0.8-0.4
	c-0.2-0.2-0.3-0.5-0.3-0.9c0-0.4,0.1-0.7,0.3-0.9c0.2-0.2,0.4-0.3,0.8-0.4c0.3,0,0.5-0.1,0.6-0.2c0.1-0.2,0.2-0.4,0.2-0.7V122
	c0-0.9,0.3-1.7,0.9-2.3c0.6-0.6,1.3-1,2-1c0.3,0,0.6,0.1,0.9,0.4c0.2,0.2,0.3,0.5,0.3,0.9c0,0.3-0.1,0.6-0.3,0.8
	c-0.2,0.2-0.4,0.4-0.8,0.4c-0.3,0-0.5,0.1-0.6,0.2c-0.1,0.2-0.2,0.4-0.2,0.7v3.9c0,0.6,0,1-0.1,1.3
	C248,127.8,247.8,128.1,247.5,128.4z"/>
<path d="M262.2,133.2c0,0.5-0.1,0.9-0.4,1.2c-0.3,0.3-0.7,0.5-1.2,0.5c-0.5,0-0.9-0.2-1.2-0.5c-0.3-0.3-0.4-0.7-0.4-1.2
	c0-0.5,0.1-0.9,0.4-1.2c0.3-0.3,0.7-0.5,1.2-0.5c0.5,0,0.9,0.2,1.2,0.5C262,132.3,262.2,132.7,262.2,133.2z"/>
<path d="M275.5,133.2c0,0.5-0.1,0.9-0.4,1.2c-0.3,0.3-0.7,0.5-1.2,0.5c-0.5,0-0.9-0.2-1.2-0.5c-0.3-0.3-0.4-0.7-0.4-1.2
	c0-0.5,0.1-0.9,0.4-1.2c0.3-0.3,0.7-0.5,1.2-0.5c0.5,0,0.9,0.2,1.2,0.5C275.4,132.3,275.5,132.7,275.5,133.2z"/>
<path d="M288.9,133.2c0,0.5-0.1,0.9-0.4,1.2c-0.3,0.3-0.7,0.5-1.2,0.5c-0.5,0-0.9-0.2-1.2-0.5c-0.3-0.3-0.4-0.7-0.4-1.2
	c0-0.5,0.1-0.9,0.4-1.2c0.3-0.3,0.7-0.5,1.2-0.5c0.5,0,0.9,0.2,1.2,0.5C288.7,132.3,288.9,132.7,288.9,133.2z"/>
<path d="M300,128.4c-0.3-0.3-0.4-0.7-0.5-1c-0.1-0.3-0.1-0.7-0.1-1.3v-3.9c0-0.3-0.1-0.6-0.2-0.7c-0.1-0.1-0.3-0.2-0.6-0.3
	c-0.3,0-0.6-0.2-0.7-0.4c-0.2-0.2-0.3-0.5-0.3-0.8c0-0.4,0.1-0.7,0.3-0.9s0.5-0.4,0.8-0.4c0.5,0,1,0.1,1.4,0.4
	c0.4,0.3,0.8,0.8,1.2,1.4c0.2,0.4,0.3,0.9,0.3,1.4v4.1c0,0.3,0.1,0.6,0.2,0.7c0.1,0.1,0.3,0.2,0.7,0.3s0.6,0.2,0.8,0.4
	c0.2,0.2,0.3,0.5,0.3,0.9c0,0.4-0.1,0.6-0.3,0.9c-0.2,0.2-0.4,0.3-0.8,0.4c-0.3,0-0.5,0.1-0.6,0.2c-0.1,0.2-0.2,0.4-0.2,0.7v4.4
	c0,0.9-0.3,1.7-0.9,2.3c-0.6,0.6-1.3,1-2,1c-0.3,0-0.6-0.1-0.9-0.4s-0.3-0.5-0.3-0.9c0-0.3,0.1-0.6,0.3-0.8c0.2-0.2,0.4-0.4,0.8-0.4
	c0.3,0,0.5-0.1,0.6-0.2c0.1-0.2,0.2-0.4,0.2-0.7v-3.9c0-0.7,0-1.2,0.1-1.5S299.8,128.7,300,128.4z"/>
<path d="M313.2,130.8h2.8l-3.1,5.7c-0.2,0.4-0.4,0.6-0.6,0.6c-0.2,0-0.3-0.1-0.5-0.2c-0.1-0.1-0.2-0.2-0.2-0.4c0-0.1,0-0.2,0.1-0.4
	L313.2,130.8z M316.6,125.2c0,0.5-0.1,0.9-0.4,1.2c-0.3,0.3-0.7,0.5-1.2,0.5c-0.5,0-0.9-0.2-1.2-0.5c-0.3-0.3-0.4-0.7-0.4-1.2
	c0-0.5,0.1-0.8,0.4-1.2c0.3-0.3,0.7-0.5,1.2-0.5c0.5,0,0.9,0.2,1.2,0.5C316.5,124.3,316.6,124.7,316.6,125.2z"/>
<path class="st1" d="M44.8,148.4v13.2h2.7c0.5,0,0.9,0.1,1.1,0.3c0.2,0.2,0.3,0.5,0.3,0.9c0,0.4-0.1,0.7-0.3,0.9
	c-0.2,0.2-0.6,0.3-1.1,0.3h-7.6c-0.5,0-0.9-0.1-1.1-0.3c-0.2-0.2-0.3-0.5-0.3-0.9c0-0.4,0.1-0.7,0.3-0.9c0.2-0.2,0.6-0.3,1.1-0.3
	h2.7v-10.7h-1.8c-0.5,0-0.9-0.1-1.1-0.3c-0.2-0.2-0.3-0.5-0.3-0.9c0-0.4,0.1-0.7,0.3-0.9c0.2-0.2,0.6-0.3,1.1-0.3H44.8z"/>
<path class="st1" d="M62.6,159.9h-9.1c0.2,0.6,0.6,1.2,1.2,1.6c0.6,0.4,1.4,0.6,2.4,0.6c0.8,0,1.9-0.2,3.3-0.6
	c0.6-0.2,1-0.2,1.2-0.2c0.3,0,0.5,0.1,0.8,0.4c0.2,0.2,0.3,0.5,0.3,0.9c0,0.3-0.1,0.6-0.3,0.8c-0.3,0.3-1,0.6-2.1,0.9
	c-1.1,0.3-2.2,0.4-3.2,0.4c-1.8,0-3.2-0.6-4.3-1.7c-1.1-1.1-1.6-2.5-1.6-4.1c0-1.7,0.6-3.2,1.7-4.2c1.2-1.1,2.5-1.6,4-1.6
	c0.9,0,1.7,0.2,2.5,0.5s1.3,0.7,1.7,1.1c0.5,0.6,1,1.3,1.3,2.2c0.2,0.6,0.3,1.3,0.3,2.1V159.9z M60.2,157.4
	c-0.3-0.7-0.8-1.2-1.3-1.6s-1.2-0.5-2-0.5c-0.8,0-1.4,0.2-2,0.5s-1,0.9-1.3,1.6H60.2z"/>
<path class="st1" d="M69.8,155.6v5c0,0.5,0.1,0.9,0.3,1.1c0.3,0.3,0.8,0.4,1.6,0.4c1.1,0,2.2-0.3,3.2-0.8c0.4-0.2,0.7-0.3,0.9-0.3
	c0.3,0,0.5,0.1,0.8,0.4c0.2,0.2,0.3,0.5,0.3,0.9c0,0.3-0.1,0.6-0.3,0.8c-0.4,0.4-1.1,0.7-2.1,1c-1,0.3-1.9,0.5-2.6,0.5
	c-1.4,0-2.4-0.3-3.1-1c-0.7-0.7-1-1.5-1-2.4v-5.4h-0.8c-0.5,0-0.9-0.1-1.1-0.3c-0.2-0.2-0.3-0.5-0.3-0.9c0-0.4,0.1-0.7,0.3-0.9
	c0.2-0.2,0.6-0.3,1.1-0.3h0.8v-2.2c0-0.6,0.1-1,0.3-1.3s0.5-0.4,0.8-0.4c0.3,0,0.6,0.1,0.8,0.4c0.2,0.3,0.3,0.7,0.3,1.3v2.2H74
	c0.5,0,0.9,0.1,1.1,0.3c0.2,0.2,0.3,0.5,0.3,0.9c0,0.4-0.1,0.7-0.3,0.9c-0.2,0.2-0.6,0.3-1.1,0.3H69.8z"/>
<path class="st2" d="M100.6,153.6c0.3-0.3,0.5-0.4,0.8-0.4c0.3,0,0.6,0.1,0.8,0.4c0.2,0.3,0.3,0.7,0.3,1.3v1.6c0,0.6-0.1,1-0.3,1.3
	c-0.2,0.2-0.5,0.4-0.8,0.4c-0.3,0-0.6-0.1-0.8-0.3c-0.2-0.1-0.3-0.4-0.4-0.9c-0.1-0.4-0.3-0.8-0.6-1c-0.6-0.4-1.3-0.6-2.3-0.6
	c-1.1,0-1.9,0.3-2.5,1c-0.6,0.7-1,1.6-1,2.6c0,1,0.3,1.7,0.9,2.3c0.6,0.6,1.6,0.8,3,0.8c0.9,0,1.7-0.1,2.3-0.3
	c0.3-0.1,0.7-0.3,1-0.7c0.3-0.3,0.6-0.5,0.8-0.5c0.3,0,0.6,0.1,0.8,0.4c0.2,0.2,0.3,0.5,0.3,0.9c0,0.5-0.3,1.1-1,1.6
	c-1,0.7-2.5,1.1-4.4,1.1c-1.7,0-3.1-0.4-4-1.2c-1.3-1.1-2-2.5-2-4.4c0-1.8,0.5-3.2,1.6-4.4c1.1-1.2,2.4-1.7,4.1-1.7
	c0.6,0,1.2,0.1,1.7,0.2C99.6,153.1,100.1,153.3,100.6,153.6z"/>
<path class="st2" d="M108.2,148.4v5.3c0.5-0.3,0.9-0.5,1.4-0.7c0.5-0.1,1-0.2,1.4-0.2c0.8,0,1.5,0.1,2.1,0.4
	c0.6,0.3,1.1,0.7,1.5,1.4c0.4,0.6,0.6,1.4,0.6,2.4v4.7c0.6,0,0.9,0.1,1.1,0.2c0.3,0.2,0.5,0.6,0.5,1.1c0,0.4-0.1,0.7-0.3,0.9
	c-0.2,0.2-0.6,0.3-1.1,0.3h-2.5c-0.5,0-0.9-0.1-1.1-0.3c-0.2-0.2-0.3-0.5-0.3-0.9c0-0.5,0.2-0.8,0.5-1.1c0.2-0.1,0.6-0.2,1.1-0.2
	v-4.5c0-0.6-0.1-1.1-0.4-1.3c-0.3-0.3-0.8-0.5-1.5-0.5c-0.5,0-0.9,0.1-1.3,0.3s-0.9,0.7-1.5,1.4v4.6c0.6,0,0.9,0.1,1.1,0.2
	c0.4,0.2,0.5,0.6,0.5,1.1c0,0.4-0.1,0.7-0.3,0.9c-0.2,0.2-0.6,0.3-1.1,0.3h-2.5c-0.5,0-0.9-0.1-1.1-0.3c-0.2-0.2-0.3-0.5-0.3-0.9
	c0-0.5,0.2-0.8,0.5-1.1c0.2-0.1,0.5-0.2,1.1-0.2v-10.7h-0.4c-0.5,0-0.9-0.1-1.1-0.3c-0.2-0.2-0.3-0.5-0.3-0.9c0-0.4,0.1-0.7,0.3-0.9
	c0.2-0.2,0.6-0.3,1.1-0.3H108.2z"/>
<path class="st2" d="M124.9,153.1v8.5h2.7c0.5,0,0.9,0.1,1.1,0.3c0.2,0.2,0.3,0.5,0.3,0.9c0,0.4-0.1,0.7-0.3,0.9
	c-0.2,0.2-0.6,0.3-1.1,0.3H120c-0.5,0-0.9-0.1-1.1-0.3c-0.2-0.2-0.3-0.5-0.3-0.9c0-0.4,0.1-0.7,0.3-0.9c0.2-0.2,0.6-0.3,1.1-0.3h2.7
	v-6h-1.8c-0.5,0-0.9-0.1-1.1-0.3c-0.2-0.2-0.3-0.5-0.3-0.9c0-0.4,0.1-0.7,0.3-0.9c0.2-0.2,0.6-0.3,1.1-0.3H124.9z M124.6,148.4v2.6
	H122v-2.6H124.6z"/>
<path class="st2" d="M138.3,148.4v13.2h2.7c0.5,0,0.9,0.1,1.1,0.3c0.2,0.2,0.3,0.5,0.3,0.9c0,0.4-0.1,0.7-0.3,0.9
	c-0.2,0.2-0.6,0.3-1.1,0.3h-7.6c-0.5,0-0.9-0.1-1.1-0.3c-0.2-0.2-0.3-0.5-0.3-0.9c0-0.4,0.1-0.7,0.3-0.9c0.2-0.2,0.6-0.3,1.1-0.3
	h2.7v-10.7h-1.8c-0.5,0-0.9-0.1-1.1-0.3c-0.2-0.2-0.3-0.5-0.3-0.9c0-0.4,0.1-0.7,0.3-0.9c0.2-0.2,0.6-0.3,1.1-0.3H138.3z"/>
<path class="st2" d="M155.7,148.4v13.2h0.4c0.5,0,0.9,0.1,1.1,0.3c0.2,0.2,0.3,0.5,0.3,0.9c0,0.4-0.1,0.7-0.3,0.9
	c-0.2,0.2-0.6,0.3-1.1,0.3h-2.6v-0.6c-0.5,0.3-1,0.6-1.6,0.7s-1.1,0.3-1.7,0.3c-1.7,0-3-0.5-4-1.6c-1-1.1-1.5-2.4-1.5-4
	c0-1.7,0.5-3.1,1.6-4.3c1.1-1.2,2.4-1.8,3.9-1.8c0.6,0,1.1,0.1,1.7,0.3c0.6,0.2,1.1,0.5,1.7,0.9v-3.1h-0.4c-0.5,0-0.9-0.1-1.1-0.3
	c-0.2-0.2-0.3-0.5-0.3-0.9c0-0.4,0.1-0.7,0.3-0.9c0.2-0.2,0.6-0.3,1.1-0.3H155.7z M153.4,158.9c0-1-0.3-1.9-1-2.6
	c-0.6-0.7-1.4-1.1-2.4-1.1c-0.9,0-1.7,0.4-2.4,1.1c-0.6,0.7-1,1.6-1,2.6c0,0.9,0.3,1.7,0.9,2.2c0.6,0.6,1.4,0.9,2.5,0.9
	c1.1,0,1.9-0.3,2.5-0.9C153.2,160.6,153.4,159.8,153.4,158.9z"/>
<path class="st2" d="M165.1,148.1v13.6h2.3c0.5,0,0.9,0.1,1.1,0.3c0.2,0.2,0.3,0.5,0.3,0.9c0,0.4-0.1,0.7-0.3,0.9
	c-0.2,0.2-0.6,0.3-1.1,0.3h-6.7c-0.5,0-0.9-0.1-1.1-0.3c-0.2-0.2-0.3-0.5-0.3-0.9c0-0.4,0.1-0.7,0.3-0.9c0.2-0.2,0.6-0.3,1.1-0.3
	h2.2v-10.3l-2,0.6c-0.3,0.1-0.6,0.1-0.7,0.1c-0.3,0-0.5-0.1-0.7-0.4s-0.3-0.6-0.3-0.9c0-0.3,0.1-0.6,0.2-0.8c0.2-0.2,0.5-0.4,1-0.5
	L165.1,148.1z"/>
<path d="M195.4,156h-9.5c-0.5,0-0.9-0.1-1.1-0.3c-0.2-0.2-0.3-0.5-0.3-0.9c0-0.4,0.1-0.7,0.3-0.9c0.2-0.2,0.6-0.3,1.1-0.3h9.5
	c0.5,0,0.9,0.1,1.1,0.3c0.2,0.2,0.3,0.5,0.3,0.9c0,0.4-0.1,0.7-0.3,0.9C196.3,155.8,196,156,195.4,156z M195.4,160.6h-9.5
	c-0.5,0-0.9-0.1-1.1-0.3c-0.2-0.2-0.3-0.5-0.3-0.9s0.1-0.7,0.3-0.9c0.2-0.2,0.6-0.3,1.1-0.3h9.5c0.5,0,0.9,0.1,1.1,0.3
	c0.2,0.2,0.3,0.5,0.3,0.9s-0.1,0.7-0.3,0.9C196.3,160.5,196,160.6,195.4,160.6z"/>
<path d="M223.2,158.8c0,1-0.2,1.9-0.7,2.8c-0.5,0.9-1.2,1.6-2.1,2.1c-0.9,0.5-1.9,0.8-2.9,0.8c-1,0-2-0.3-2.9-0.8
	c-0.9-0.5-1.6-1.2-2.1-2.1c-0.5-0.9-0.7-1.8-0.7-2.8c0-1,0.2-2,0.7-2.9c0.5-1,1.2-1.7,2.1-2.3s1.9-0.8,2.9-0.8c1,0,2,0.3,2.9,0.8
	c0.9,0.6,1.6,1.3,2.1,2.3C222.9,156.8,223.2,157.8,223.2,158.8z M220.9,158.8c0-0.8-0.3-1.5-0.8-2.2c-0.7-0.9-1.6-1.4-2.8-1.4
	c-1,0-1.8,0.4-2.5,1.1c-0.7,0.7-1,1.5-1,2.5c0,0.8,0.3,1.5,1,2.2c0.7,0.7,1.5,1,2.5,1c1,0,1.8-0.3,2.5-1
	C220.6,160.3,220.9,159.6,220.9,158.8z"/>
<path d="M227.9,148.4v5.6c0.5-0.4,1.1-0.7,1.7-0.9c0.6-0.2,1.1-0.3,1.7-0.3c1.5,0,2.9,0.6,3.9,1.8c1.1,1.2,1.6,2.6,1.6,4.3
	c0,1.6-0.5,2.9-1.5,4c-1,1.1-2.4,1.6-4,1.6c-0.6,0-1.2-0.1-1.7-0.3s-1.1-0.4-1.6-0.7v0.6h-2.6c-0.5,0-0.9-0.1-1.1-0.3
	c-0.2-0.2-0.3-0.5-0.3-0.9c0-0.4,0.1-0.7,0.3-0.9c0.2-0.2,0.6-0.3,1.1-0.3h0.4v-10.7h-0.4c-0.5,0-0.9-0.1-1.1-0.3
	c-0.2-0.2-0.3-0.5-0.3-0.9c0-0.4,0.1-0.7,0.3-0.9c0.2-0.2,0.6-0.3,1.1-0.3H227.9z M234.6,158.9c0-1-0.3-1.9-1-2.6
	c-0.6-0.7-1.4-1.1-2.4-1.1c-0.9,0-1.7,0.4-2.4,1.1c-0.6,0.7-1,1.6-1,2.6c0,0.9,0.3,1.7,0.9,2.2c0.6,0.6,1.4,0.9,2.5,0.9
	c1.1,0,1.9-0.3,2.5-0.9C234.3,160.6,234.6,159.8,234.6,158.9z"/>
<path d="M245.4,155.6h-4.5c-0.5,0-0.9-0.1-1.1-0.3c-0.2-0.2-0.3-0.5-0.3-0.9c0-0.4,0.1-0.7,0.3-0.9c0.2-0.2,0.6-0.3,1.1-0.3h6.8
	v11.5c0,0.9-0.2,1.6-0.5,2.3c-0.3,0.6-0.8,1.2-1.5,1.7c-0.7,0.5-1.5,0.7-2.3,0.7h-2.5c-0.5,0-0.9-0.1-1.1-0.3
	c-0.2-0.2-0.3-0.5-0.3-0.9c0-0.4,0.1-0.7,0.3-0.9c0.2-0.2,0.6-0.3,1.1-0.3h2.5c0.7,0,1.2-0.2,1.6-0.6s0.6-0.9,0.6-1.6V155.6z
	 M246.3,148.4v2.6h-2.7v-2.6H246.3z"/>
<path d="M263,159.9h-9.1c0.2,0.6,0.6,1.2,1.2,1.6c0.6,0.4,1.4,0.6,2.4,0.6c0.8,0,1.9-0.2,3.3-0.6c0.6-0.2,1-0.2,1.2-0.2
	c0.3,0,0.5,0.1,0.8,0.4c0.2,0.2,0.3,0.5,0.3,0.9c0,0.3-0.1,0.6-0.3,0.8c-0.3,0.3-1,0.6-2.1,0.9c-1.1,0.3-2.2,0.4-3.2,0.4
	c-1.8,0-3.2-0.6-4.3-1.7c-1.1-1.1-1.6-2.5-1.6-4.1c0-1.7,0.6-3.2,1.7-4.2c1.2-1.1,2.5-1.6,4-1.6c0.9,0,1.7,0.2,2.5,0.5
	s1.3,0.7,1.7,1.1c0.5,0.6,1,1.3,1.3,2.2c0.2,0.6,0.3,1.3,0.3,2.1V159.9z M260.6,157.4c-0.3-0.7-0.8-1.2-1.3-1.6s-1.2-0.5-2-0.5
	c-0.8,0-1.4,0.2-2,0.5s-1,0.9-1.3,1.6H260.6z"/>
<path d="M274.3,153.6c0.3-0.3,0.5-0.4,0.8-0.4c0.3,0,0.6,0.1,0.8,0.4c0.2,0.3,0.3,0.7,0.3,1.3v1.6c0,0.6-0.1,1-0.3,1.3
	c-0.2,0.2-0.5,0.4-0.8,0.4c-0.3,0-0.6-0.1-0.8-0.3c-0.2-0.1-0.3-0.4-0.4-0.9c-0.1-0.4-0.3-0.8-0.6-1c-0.6-0.4-1.3-0.6-2.3-0.6
	c-1.1,0-1.9,0.3-2.5,1c-0.6,0.7-1,1.6-1,2.6c0,1,0.3,1.7,0.9,2.3c0.6,0.6,1.6,0.8,3,0.8c0.9,0,1.7-0.1,2.3-0.3
	c0.3-0.1,0.7-0.3,1-0.7c0.3-0.3,0.6-0.5,0.8-0.5c0.3,0,0.6,0.1,0.8,0.4c0.2,0.2,0.3,0.5,0.3,0.9c0,0.5-0.3,1.1-1,1.6
	c-1,0.7-2.5,1.1-4.4,1.1c-1.7,0-3.1-0.4-4-1.2c-1.3-1.1-2-2.5-2-4.4c0-1.8,0.5-3.2,1.6-4.4c1.1-1.2,2.4-1.7,4.1-1.7
	c0.6,0,1.2,0.1,1.7,0.2C273.3,153.1,273.8,153.3,274.3,153.6z"/>
<path d="M283.6,155.6v5c0,0.5,0.1,0.9,0.3,1.1c0.3,0.3,0.8,0.4,1.6,0.4c1.1,0,2.2-0.3,3.2-0.8c0.4-0.2,0.7-0.3,0.9-0.3
	c0.3,0,0.5,0.1,0.8,0.4c0.2,0.2,0.3,0.5,0.3,0.9c0,0.3-0.1,0.6-0.3,0.8c-0.4,0.4-1.1,0.7-2.1,1c-1,0.3-1.9,0.5-2.6,0.5
	c-1.4,0-2.4-0.3-3.1-1c-0.7-0.7-1-1.5-1-2.4v-5.4h-0.8c-0.5,0-0.9-0.1-1.1-0.3c-0.2-0.2-0.3-0.5-0.3-0.9c0-0.4,0.1-0.7,0.3-0.9
	c0.2-0.2,0.6-0.3,1.1-0.3h0.8v-2.2c0-0.6,0.1-1,0.3-1.3s0.5-0.4,0.8-0.4c0.3,0,0.6,0.1,0.8,0.4c0.2,0.3,0.3,0.7,0.3,1.3v2.2h4.1
	c0.5,0,0.9,0.1,1.1,0.3s0.3,0.5,0.3,0.9c0,0.4-0.1,0.7-0.3,0.9s-0.6,0.3-1.1,0.3H283.6z"/>
<path d="M299.2,162.8c0,0.5-0.1,0.9-0.4,1.2c-0.3,0.3-0.7,0.5-1.2,0.5c-0.5,0-0.9-0.2-1.2-0.5c-0.3-0.3-0.4-0.7-0.4-1.2
	c0-0.5,0.1-0.9,0.4-1.2c0.3-0.3,0.7-0.5,1.2-0.5c0.5,0,0.9,0.2,1.2,0.5C299.1,162,299.2,162.4,299.2,162.8z"/>
<path class="st2" d="M314.4,153.6c0.3-0.3,0.5-0.4,0.8-0.4c0.3,0,0.6,0.1,0.8,0.4c0.2,0.3,0.3,0.7,0.3,1.3v1.6c0,0.6-0.1,1-0.3,1.3
	c-0.2,0.2-0.5,0.4-0.8,0.4c-0.3,0-0.6-0.1-0.8-0.3c-0.2-0.1-0.3-0.4-0.4-0.9c-0.1-0.4-0.3-0.8-0.6-1c-0.6-0.4-1.3-0.6-2.3-0.6
	c-1.1,0-1.9,0.3-2.5,1s-1,1.6-1,2.6c0,1,0.3,1.7,0.9,2.3c0.6,0.6,1.6,0.8,3,0.8c0.9,0,1.7-0.1,2.3-0.3c0.3-0.1,0.7-0.3,1-0.7
	c0.3-0.3,0.6-0.5,0.8-0.5c0.3,0,0.6,0.1,0.8,0.4c0.2,0.2,0.3,0.5,0.3,0.9c0,0.5-0.3,1.1-1,1.6c-1,0.7-2.5,1.1-4.4,1.1
	c-1.7,0-3.1-0.4-4-1.2c-1.3-1.1-2-2.5-2-4.4c0-1.8,0.5-3.2,1.6-4.4c1.1-1.2,2.4-1.7,4.1-1.7c0.6,0,1.2,0.1,1.7,0.2
	C313.4,153.1,313.9,153.3,314.4,153.6z"/>
<path class="st2" d="M322,148.4v5.3c0.5-0.3,0.9-0.5,1.4-0.7c0.5-0.1,1-0.2,1.4-0.2c0.8,0,1.5,0.1,2.1,0.4c0.6,0.3,1.1,0.7,1.5,1.4
	c0.4,0.6,0.6,1.4,0.6,2.4v4.7c0.6,0,0.9,0.1,1.1,0.2c0.3,0.2,0.5,0.6,0.5,1.1c0,0.4-0.1,0.7-0.3,0.9c-0.2,0.2-0.6,0.3-1.1,0.3h-2.5
	c-0.5,0-0.9-0.1-1.1-0.3c-0.2-0.2-0.3-0.5-0.3-0.9c0-0.5,0.2-0.8,0.5-1.1c0.2-0.1,0.6-0.2,1.1-0.2v-4.5c0-0.6-0.1-1.1-0.4-1.3
	c-0.3-0.3-0.8-0.5-1.5-0.5c-0.5,0-0.9,0.1-1.3,0.3c-0.4,0.2-0.9,0.7-1.5,1.4v4.6c0.6,0,0.9,0.1,1.1,0.2c0.4,0.2,0.5,0.6,0.5,1.1
	c0,0.4-0.1,0.7-0.3,0.9c-0.2,0.2-0.6,0.3-1.1,0.3h-2.5c-0.5,0-0.9-0.1-1.1-0.3c-0.2-0.2-0.3-0.5-0.3-0.9c0-0.5,0.2-0.8,0.5-1.1
	c0.2-0.1,0.5-0.2,1.1-0.2v-10.7h-0.4c-0.5,0-0.9-0.1-1.1-0.3c-0.2-0.2-0.3-0.5-0.3-0.9c0-0.4,0.1-0.7,0.3-0.9
	c0.2-0.2,0.6-0.3,1.1-0.3H322z"/>
<path class="st2" d="M338.7,153.1v8.5h2.7c0.5,0,0.9,0.1,1.1,0.3c0.2,0.2,0.3,0.5,0.3,0.9c0,0.4-0.1,0.7-0.3,0.9
	c-0.2,0.2-0.6,0.3-1.1,0.3h-7.6c-0.5,0-0.9-0.1-1.1-0.3c-0.2-0.2-0.3-0.5-0.3-0.9c0-0.4,0.1-0.7,0.3-0.9c0.2-0.2,0.6-0.3,1.1-0.3
	h2.7v-6h-1.8c-0.5,0-0.9-0.1-1.1-0.3c-0.2-0.2-0.3-0.5-0.3-0.9c0-0.4,0.1-0.7,0.3-0.9c0.2-0.2,0.6-0.3,1.1-0.3H338.7z M338.4,148.4
	v2.6h-2.7v-2.6H338.4z"/>
<path class="st2" d="M352.1,148.4v13.2h2.7c0.5,0,0.9,0.1,1.1,0.3c0.2,0.2,0.3,0.5,0.3,0.9c0,0.4-0.1,0.7-0.3,0.9
	c-0.2,0.2-0.6,0.3-1.1,0.3h-7.6c-0.5,0-0.9-0.1-1.1-0.3c-0.2-0.2-0.3-0.5-0.3-0.9c0-0.4,0.1-0.7,0.3-0.9c0.2-0.2,0.6-0.3,1.1-0.3
	h2.7v-10.7h-1.8c-0.5,0-0.9-0.1-1.1-0.3c-0.2-0.2-0.3-0.5-0.3-0.9c0-0.4,0.1-0.7,0.3-0.9c0.2-0.2,0.6-0.3,1.1-0.3H352.1z"/>
<path class="st2" d="M369.5,148.4v13.2h0.4c0.5,0,0.9,0.1,1.1,0.3c0.2,0.2,0.3,0.5,0.3,0.9c0,0.4-0.1,0.7-0.3,0.9
	c-0.2,0.2-0.6,0.3-1.1,0.3h-2.6v-0.6c-0.5,0.3-1,0.6-1.6,0.7s-1.1,0.3-1.7,0.3c-1.7,0-3-0.5-4-1.6c-1-1.1-1.5-2.4-1.5-4
	c0-1.7,0.5-3.1,1.6-4.3c1.1-1.2,2.4-1.8,3.9-1.8c0.6,0,1.1,0.1,1.7,0.3c0.6,0.2,1.1,0.5,1.7,0.9v-3.1h-0.4c-0.5,0-0.9-0.1-1.1-0.3
	c-0.2-0.2-0.3-0.5-0.3-0.9c0-0.4,0.1-0.7,0.3-0.9c0.2-0.2,0.6-0.3,1.1-0.3H369.5z M367.2,158.9c0-1-0.3-1.9-1-2.6
	c-0.6-0.7-1.4-1.1-2.4-1.1c-0.9,0-1.7,0.4-2.4,1.1c-0.6,0.7-1,1.6-1,2.6c0,0.9,0.3,1.7,0.9,2.2c0.6,0.6,1.4,0.9,2.5,0.9
	c1.1,0,1.9-0.3,2.5-0.9C366.9,160.6,367.2,159.8,367.2,158.9z"/>
<path class="st2" d="M378.8,148.1v13.6h2.2c0.5,0,0.9,0.1,1.1,0.3c0.2,0.2,0.3,0.5,0.3,0.9c0,0.4-0.1,0.7-0.3,0.9
	c-0.2,0.2-0.6,0.3-1.1,0.3h-6.7c-0.5,0-0.9-0.1-1.1-0.3c-0.2-0.2-0.3-0.5-0.3-0.9c0-0.4,0.1-0.7,0.3-0.9c0.2-0.2,0.6-0.3,1.1-0.3
	h2.2v-10.3l-2,0.6c-0.3,0.1-0.6,0.1-0.7,0.1c-0.3,0-0.5-0.1-0.7-0.4s-0.3-0.6-0.3-0.9c0-0.3,0.1-0.6,0.2-0.8c0.2-0.2,0.5-0.4,1-0.5
	L378.8,148.1z"/>
<path d="M390.3,160.5h2.8l-3.1,5.7c-0.2,0.4-0.4,0.6-0.6,0.6c-0.2,0-0.3-0.1-0.5-0.2c-0.1-0.1-0.2-0.2-0.2-0.4c0-0.1,0-0.2,0.1-0.4
	L390.3,160.5z M393.8,154.8c0,0.5-0.1,0.9-0.4,1.2c-0.3,0.3-0.7,0.5-1.2,0.5c-0.5,0-0.9-0.2-1.2-0.5c-0.3-0.3-0.4-0.7-0.4-1.2
	c0-0.5,0.1-0.8,0.4-1.2c0.3-0.3,0.7-0.5,1.2-0.5s0.9,0.2,1.2,0.5C393.6,154,393.8,154.4,393.8,154.8z"/>
</svg>
