<?xml version="1.0" encoding="utf-8"?>
<!-- Generator: Adobe Illustrator 26.0.3, SVG Export Plug-In . SVG Version: 6.00 Build 0)  -->
<svg version="1.1" id="Layer_1" xmlns="http://www.w3.org/2000/svg" xmlns:xlink="http://www.w3.org/1999/xlink" x="0px" y="0px"
	 viewBox="0 0 432 288" style="enable-background:new 0 0 432 288;" xml:space="preserve">
<style type="text/css">
	.st0{fill:#666666;}
	.st1{fill:#C6C6C6;}
</style>
<rect x="10.8" y="11.1" class="st0" width="410.4" height="265.7"/>
<rect x="51.8" y="65.4" class="st1" width="113.8" height="61.5"/>
<rect x="51.8" y="161" class="st1" width="113.8" height="61.5"/>
<path class="st1" d="M378.7,68.4H184.8c-0.8,0-1.5-0.7-1.5-1.5s0.7-1.5,1.5-1.5h193.9c0.8,0,1.5,0.7,1.5,1.5S379.5,68.4,378.7,68.4z
	"/>
<path class="st1" d="M348.8,126.9h-164c-0.8,0-1.5-0.7-1.5-1.5s0.7-1.5,1.5-1.5h164c0.8,0,1.5,0.7,1.5,1.5S349.6,126.9,348.8,126.9z
	"/>
<path class="st1" d="M378.7,112.3H184.8c-0.8,0-1.5-0.7-1.5-1.5s0.7-1.5,1.5-1.5h193.9c0.8,0,1.5,0.7,1.5,1.5
	S379.5,112.3,378.7,112.3z"/>
<path class="st1" d="M378.7,97.7H184.8c-0.8,0-1.5-0.7-1.5-1.5s0.7-1.5,1.5-1.5h193.9c0.8,0,1.5,0.7,1.5,1.5S379.5,97.7,378.7,97.7z
	"/>
<path class="st1" d="M378.7,83H184.8c-0.8,0-1.5-0.7-1.5-1.5s0.7-1.5,1.5-1.5h193.9c0.8,0,1.5,0.7,1.5,1.5S379.5,83,378.7,83z"/>
<path class="st1" d="M378.7,164H184.8c-0.8,0-1.5-0.7-1.5-1.5s0.7-1.5,1.5-1.5h193.9c0.8,0,1.5,0.7,1.5,1.5S379.5,164,378.7,164z"/>
<path class="st1" d="M348.8,222.5h-164c-0.8,0-1.5-0.7-1.5-1.5s0.7-1.5,1.5-1.5h164c0.8,0,1.5,0.7,1.5,1.5S349.6,222.5,348.8,222.5z
	"/>
<path class="st1" d="M378.7,207.9H184.8c-0.8,0-1.5-0.7-1.5-1.5s0.7-1.5,1.5-1.5h193.9c0.8,0,1.5,0.7,1.5,1.5
	S379.5,207.9,378.7,207.9z"/>
<path class="st1" d="M378.7,193.2H184.8c-0.8,0-1.5-0.7-1.5-1.5s0.7-1.5,1.5-1.5h193.9c0.8,0,1.5,0.7,1.5,1.5
	S379.5,193.2,378.7,193.2z"/>
<path class="st1" d="M378.7,178.6H184.8c-0.8,0-1.5-0.7-1.5-1.5s0.7-1.5,1.5-1.5h193.9c0.8,0,1.5,0.7,1.5,1.5
	S379.5,178.6,378.7,178.6z"/>
</svg>
