<?xml version="1.0" encoding="utf-8"?>
<!-- Generator: Adobe Illustrator 26.0.1, SVG Export Plug-In . SVG Version: 6.00 Build 0)  -->
<svg version="1.1" id="Layer_1" xmlns="http://www.w3.org/2000/svg" xmlns:xlink="http://www.w3.org/1999/xlink" x="0px" y="0px"
	 viewBox="0 0 144 144" style="enable-background:new 0 0 144 144;" xml:space="preserve">
<style type="text/css">
	.st0{opacity:0.2;fill:#26B34B;}
	.st1{opacity:0.2;fill:#E41E26;}
	.st2{opacity:0.2;fill:#D7CA26;}
	.st3{fill:none;stroke:#000000;stroke-miterlimit:10;}
	.st4{fill:none;stroke:#000000;stroke-width:0.25;stroke-miterlimit:10;}
	.st5{font-family:'MyriadPro-Regular';}
	.st6{font-size:8px;}
	.st7{fill:#828282;}
	.st8{font-size:7px;}
</style>
<rect x="17.2" y="3.3" class="st0" width="61.8" height="61.8"/>
<rect x="79" y="65" class="st1" width="61.8" height="61.8"/>
<rect x="79" y="3.3" class="st2" width="61.8" height="61.8"/>
<rect x="17.2" y="65" class="st2" width="61.8" height="61.8"/>
<line class="st3" x1="17.2" y1="3.3" x2="17.2" y2="131.1"/>
<line class="st3" x1="140.7" y1="126.8" x2="12.9" y2="126.8"/>
<line class="st4" x1="79" y1="3.3" x2="79" y2="126.8"/>
<line class="st4" x1="17.2" y1="65" x2="140.7" y2="65"/>
<text transform="matrix(1 0 0 1 51.9675 140.8111)" class="st5 st6">implementation</text>
<text transform="matrix(6.123234e-17 -1 1 6.123234e-17 6.8828 84.3687)" class="st5 st6">importance</text>
<text transform="matrix(1 0 0 1 19.9807 133.4096)" class="st7 st5 st8">easy</text>
<text transform="matrix(1 0 0 1 118.492 133.4096)" class="st7 st5 st8">difficult</text>
<text transform="matrix(6.123234e-17 -1 1 6.123234e-17 13.7131 124.0205)" class="st7 st5 st8">nice to have</text>
<text transform="matrix(6.123234e-17 -1 1 6.123234e-17 13.7131 31.7935)" class="st7 st5 st8">necessary</text>
<text transform="matrix(1 0 0 1 30.6345 95.9458)" class="st5 st8">pet projects</text>
<text transform="matrix(1 0 0 1 89.5415 92.0844)"><tspan x="0" y="0" class="st5 st8">you will never</tspan><tspan x="2.9" y="8.4" class="st5 st8">get to these</tspan></text>
<text transform="matrix(1 0 0 1 29.7424 31.4437)"><tspan x="0" y="0" class="st5 st8">low hanging</tspan><tspan x="12.2" y="8.4" class="st5 st8">fruit</tspan></text>
<text transform="matrix(1 0 0 1 95.1519 31.444)"><tspan x="0" y="0" class="st5 st8">long-term</tspan><tspan x="-3.2" y="8.4" class="st5 st8">investments</tspan></text>
</svg>
