<?xml version="1.0" encoding="utf-8"?>
<!-- Generator: Adobe Illustrator 26.0.1, SVG Export Plug-In . SVG Version: 6.00 Build 0)  -->
<svg version="1.1" id="Layer_1" xmlns="http://www.w3.org/2000/svg" xmlns:xlink="http://www.w3.org/1999/xlink" x="0px" y="0px"
	 viewBox="0 0 51.6 50.3" style="enable-background:new 0 0 51.6 50.3;" xml:space="preserve">
<style type="text/css">
	.st0{fill:#E18256;}
	.st1{fill:#CDC8AE;}
	.st2{fill:#73A353;}
	.st3{fill:#9FB3B6;}
	.st4{fill:#478EB0;}
	.st5{fill:#7C3D4F;}
	.st6{fill:#E3BC3D;}
</style>
<path class="st0" d="M44,34.3L29.7,22.8v-20c11,0.1,19.9,9.1,19.9,20.1c0,4.5-1.5,8.9-4.3,12.5L44,34.3z"/>
<path class="st1" d="M29.5,46.6c-4,0-7.9-1-11.4-2.9l0.8-1.4l10.6-19.1l14.2,11.4l4.1,3.3C43.3,43.5,36.6,46.6,29.5,46.6z"/>
<path class="st2" d="M18.5,41.9c-3.2-1.8-5.9-4.5-7.9-7.7c-2-3.3-3.1-7-3.2-10.8h3.5L29,23.2c-0.9,1.6-4.7,8.4-8.8,15.8l-0.9,1.6
	L18.5,41.9z"/>
<path class="st3" d="M2,22.9c0-5.8,1.8-11.3,5.1-16l1.3,1l20.4,14.8L11,22.9L2,23V22.9z"/>
<path class="st4" d="M10.1,8.6l-1.3-1c2.1-2.9,4.9-5.3,7.9-7L17.6,2l2.7,4.8l8.5,15.3L10.1,8.6z"/>
<path class="st5" d="M20.6,6.6L19.7,5l-0.8-1.4c2-1.1,4.2-1.9,6.5-2.3l0.3,1.6L26,4.7l3,16.9L20.6,6.6z"/>
<path class="st6" d="M26.5,4.9c0.9-0.2,1.9-0.2,2.7-0.2v15.7L26.5,4.9z"/>
</svg>
