<?xml version="1.0" encoding="utf-8"?>
<!-- Generator: Adobe Illustrator 26.0.1, SVG Export Plug-In . SVG Version: 6.00 Build 0)  -->
<svg version="1.1" id="Layer_1" xmlns="http://www.w3.org/2000/svg" xmlns:xlink="http://www.w3.org/1999/xlink" x="0px" y="0px"
	 viewBox="0 0 905 905" style="enable-background:new 0 0 905 905;" xml:space="preserve">
<style type="text/css">
	.st0{fill:#59189F;}
	.st1{fill:#B5287A;}
	.st2{fill:#EB3323;}
	.st3{fill:#EE6F2D;}
	.st4{fill:#F19837;}
	.st5{fill:#F6C644;}
	.st6{fill:#FFFD54;}
	.st7{fill:#99C43C;}
	.st8{fill:#4FA931;}
	.st9{fill:#45A1C3;}
	.st10{fill:#2564AF;}
	.st11{fill:#001A9E;}
	.st12{fill:#FFFFFF;}
</style>
<desc>Created with Sketch.</desc>
<g>
	<path class="st0" d="M151.7,154.2c-51.2,51.7-88.4,115.7-107.5,185.5l113.6,30.7c13.5-50.2,39.7-96.4,76.1-134L151.7,154.2z"/>
	<path class="st1" d="M341.6,43.6c-69.8,18.8-134,55.7-185.9,106.6l82,82.3c37.2-37,83.3-64,133.6-78L341.6,43.6z"/>
	<path class="st2" d="M530.8,153l29.7-109.9c-35.2-9.3-71.7-14-108.4-14c-35.5,0-70.7,4.4-104.8,13.1l29.5,111
		c25.2-6.5,51.1-9.8,77.3-9.8C480,143.3,505.8,146.5,530.8,153z"/>
	<path class="st3" d="M716.5,185.3l33.5-33.5c-51.2-50.9-114.7-87.9-183.9-107.2l-29.5,109.9c50,14,96,40.7,133.1,77.4L716.5,185.3z
		"/>
	<path class="st4" d="M673.3,235.6c36.7,37.5,63.2,83.8,76.8,134.2L860,340.4c-19-69.4-55.7-133.3-106.5-184.9L720,188.9
		L673.3,235.6z"/>
	<path class="st5" d="M861.4,345.5l-110,29.2c6.2,24.5,9.3,49.8,9.3,75.2c0,26.8-3.5,53.4-10.3,79.1l110.9,29.7
		c9-34.7,13.6-70.6,13.6-106.8C874.9,415.9,870.4,380.1,861.4,345.5z"/>
	<path class="st6" d="M859.8,564.7l-110.9-29.9c-14.3,49.7-41.2,95.3-78,132.1l82.2,82.2C803.8,697.6,840.6,634,859.8,564.7z"/>
	<path class="st7" d="M564.9,859.7c69.2-19.1,132.8-56,184.2-106.7L667,670.6c-37.2,35.9-82.8,61.9-132.4,75.3L564.9,859.7z"/>
	<path class="st8" d="M377.4,747l-30.7,114.7c34.3,8.8,69.7,13.2,105.3,13.2c36.6,0,72.9-4.7,108-13.9l-30.5-113.7
		c-24.6,6.2-50,9.4-75.5,9.4C428.1,756.7,402.3,753.4,377.4,747z"/>
	<path class="st9" d="M156,754.1c51.7,50.7,115.6,87.3,185.1,106.1l31-114.6c-49.4-13.7-94.9-39.8-131.9-75.7L156,754.1z"/>
	<path class="st10" d="M44.5,565.7c19.3,69.5,56.5,133.2,107.7,184.7l84.4-84c-36.5-36.6-63.1-82-77.4-131.4L44.5,565.7z"/>
	<path class="st11" d="M156.1,376.6L42.4,346.2c-8.9,34.4-13.4,70-13.4,105.8c0,36.7,4.7,73.1,14,108.3l114.8-30.5
		c-7-25.9-10.5-52.7-10.5-79.8C147.3,425.2,150.3,400.5,156.1,376.6z"/>
	<path class="st12" d="M880,452c0-36.6-4.6-72.9-13.8-108.1l0,0l-0.6-2.4c0,0,0-0.1,0-0.1l-0.5-2l0,0
		c-19.2-70.5-56.4-135.2-107.9-187.5l0,0l-1.7-1.7c0,0,0,0,0,0l-1.8-1.8l0,0C701.5,96.6,636.9,59,566.6,39.5l0,0l-2.4-0.7
		c-0.1,0-0.2,0-0.3-0.1l-1.4-0.4l0,0C526.6,28.9,489.5,24,452,24c-36.2,0-72.1,4.5-106.8,13.5l0,0l-1.6,0.4c0,0,0,0-0.1,0l-2.5,0.6
		l0,0c-71.2,19.1-136.6,56.5-189.4,108.5l0,0l-1.8,1.8c0,0-0.1,0.1-0.1,0.1l-1.3,1.2l0,0C96,203,58.1,268.5,38.8,340l0,0l-0.2,0.9
		c0,0,0,0,0,0l-0.7,2.4l0,0C28.7,378.6,24,415.2,24,452c0,37.3,4.8,74.4,14.3,110.1l0,0l0.5,1.8c0,0,0,0.1,0,0.1l0.7,2.4l0,0
		C59,637.1,96.8,701.9,148.9,754.1l0,0l1.5,1.5c0,0,0,0,0,0l1.8,1.8l0,0c52.5,51.6,117.5,88.8,188.2,107.8l0,0l2.1,0.6l2.1,0.6l0,0
		c34.9,9,71,13.6,107.3,13.6c37,0,73.8-4.8,109.3-14.1l0,0l2.4-0.7c0,0,0,0,0.1,0l2.4-0.6l0,0c70.2-19.4,134.8-56.8,186.9-108.4l0,0
		l1.6-1.6l1.6-1.6l0,0c51.8-52.4,89.4-117.4,108.7-188.1l0,0l0.3-1c0-0.1,0.1-0.2,0.1-0.3l0.7-2.4l0,0C875.3,525.7,880,489,880,452z
		 M452,874.9c-35.7,0-71.1-4.5-105.3-13.2L377.4,747c25,6.4,50.7,9.7,76.6,9.7c25.5,0,50.9-3.2,75.5-9.4L560,861
		C524.9,870.3,488.6,874.9,452,874.9z M341.6,43.6l29.7,110.9c-50.3,14.1-96.4,41-133.6,78l-82-82.3
		C207.5,99.3,271.7,62.5,341.6,43.6z M452,29.1c36.8,0,73.2,4.7,108.4,14L530.8,153c-25-6.4-50.8-9.7-76.7-9.7
		c-26.1,0-52.1,3.3-77.3,9.8l-29.5-111C381.3,33.5,416.5,29.1,452,29.1z M749.9,151.8l-33.5,33.5l-46.8,46.6
		c-37.1-36.7-83-63.4-133.1-77.4l29.5-109.9C635.2,63.9,698.7,100.9,749.9,151.8z M744.9,530.2l-0.3,1.2
		c-14.1,50.4-41.4,96.6-79,133.6l-0.3,0.3c-37.5,36.8-83.9,63.2-134.4,76.5l-0.5,0.1c-24.8,6.5-50.5,9.8-76.3,9.8
		c-26.3,0-52.4-3.4-77.7-10.1l-0.5-0.1c-50.3-13.5-96.6-40-133.9-76.9l-0.2-0.2c-37.2-36.9-64.3-82.8-78.3-133l-0.2-0.5
		c-7.3-26.2-11-53.5-11-80.9c0-25.2,3.1-50.3,9.3-74.5l0.4-1.4c13.2-51.1,39.9-98,77.2-135.9l0.4-0.4c37.5-37.9,84.3-65.2,135.4-79
		l0.6-0.2c25.5-6.8,51.9-10.3,78.4-10.3c26.3,0,52.5,3.4,77.8,10.2l1,0.3c50.9,13.7,97.6,40.9,135,78.4l0.1,0.1
		c37.6,37.8,64.5,84.9,77.9,136.2l0.1,0.2c6.5,24.8,9.7,50.4,9.7,76.2C755.7,477.1,752.1,504.1,744.9,530.2z M750.1,369.8
		c-13.6-50.4-40.1-96.7-76.8-134.2l46.7-46.7l33.5-33.4c50.8,51.6,87.5,115.4,106.5,184.9L750.1,369.8z M233.9,236.4
		c-36.4,37.5-62.7,83.8-76.1,134L44.1,339.7c19.2-69.8,56.3-133.8,107.5-185.5L233.9,236.4z M156.1,376.6
		c-5.9,23.9-8.8,48.6-8.8,73.3c0,27,3.5,53.8,10.5,79.8L43,560.3c-9.3-35.2-14-71.6-14-108.3c0-35.8,4.5-71.4,13.4-105.8
		L156.1,376.6z M159.2,534.9c14.2,49.4,40.9,94.7,77.4,131.4l-84.4,84C101,698.9,63.8,635.1,44.5,565.7L159.2,534.9z M240.2,669.9
		c37,35.9,82.5,62.1,131.9,75.7l-31,114.6c-69.5-18.8-133.4-55.5-185.1-106.1L240.2,669.9z M534.6,746
		c49.6-13.5,95.2-39.5,132.4-75.3l82.1,82.4c-51.4,50.7-115,87.6-184.2,106.7L534.6,746z M670.9,666.9c36.8-36.8,63.7-82.4,78-132.1
		l110.9,29.9c-19.1,69.3-56,132.9-106.7,184.3L670.9,666.9z M750.4,529c6.8-25.7,10.3-52.3,10.3-79.1c0-25.4-3.1-50.7-9.3-75.2
		l110-29.2c9,34.6,13.5,70.4,13.5,106.5c0,36.2-4.6,72.1-13.6,106.8L750.4,529z"/>
</g>
</svg>
