<?xml version="1.0" encoding="utf-8"?>
<!-- Generator: Adobe Illustrator 26.0.1, SVG Export Plug-In . SVG Version: 6.00 Build 0)  -->
<svg version="1.1" id="Layer_1" xmlns="http://www.w3.org/2000/svg" xmlns:xlink="http://www.w3.org/1999/xlink" x="0px" y="0px"
	 viewBox="0 0 432 288" style="enable-background:new 0 0 432 288;" xml:space="preserve">
<style type="text/css">
	.st0{fill:#EFEFEF;}
	.st1{fill:#59189F;}
	.st2{fill:#B5287A;}
	.st3{fill:#EB3323;}
	.st4{fill:#EE6F2D;}
	.st5{fill:#F19837;}
	.st6{fill:#F6C644;}
	.st7{fill:#FFFD54;}
	.st8{fill:#99C43C;}
	.st9{fill:#4FA931;}
	.st10{fill:#45A1C3;}
	.st11{fill:#2564AF;}
	.st12{fill:#001A9E;}
	.st13{fill:#FFFFFF;}
</style>
<rect x="10.8" y="11.1" class="st0" width="410.4" height="265.7"/>
<g>
	<path class="st1" d="M132.2,61c-14.3,14.4-24.6,32.3-30,51.7l31.7,8.6c3.8-14,11.1-26.9,21.2-37.4L132.2,61z"/>
	<path class="st2" d="M185.2,30.1c-19.5,5.3-37.4,15.5-51.8,29.7l22.9,23c10.4-10.3,23.2-17.8,37.3-21.8L185.2,30.1z"/>
	<path class="st3" d="M238,60.6l8.3-30.6c-9.8-2.6-20-3.9-30.2-3.9c-9.9,0-19.7,1.2-29.2,3.6l8.2,30.9c7-1.8,14.3-2.7,21.5-2.7
		C223.8,57.9,231,58.8,238,60.6z"/>
	<path class="st4" d="M289.8,69.6l9.3-9.3c-14.3-14.2-32-24.5-51.3-29.9L239.6,61c14,3.9,26.8,11.3,37.1,21.6L289.8,69.6z"/>
	<path class="st5" d="M277.7,83.6c10.2,10.5,17.6,23.4,21.4,37.4l30.6-8.2c-5.3-19.4-15.5-37.2-29.7-51.6l-9.4,9.3L277.7,83.6z"/>
	<path class="st6" d="M330.2,114.3l-30.7,8.2c1.7,6.8,2.6,13.9,2.6,21c0,7.5-1,14.9-2.9,22l30.9,8.3c2.5-9.7,3.8-19.7,3.8-29.8
		C333.9,133.9,332.7,124,330.2,114.3z"/>
	<path class="st7" d="M329.7,175.4l-30.9-8.4c-4,13.9-11.5,26.6-21.7,36.8l22.9,22.9C314.1,212.5,324.4,194.8,329.7,175.4z"/>
	<path class="st8" d="M247.5,257.7c19.3-5.3,37-15.6,51.4-29.8L276,205c-10.4,10-23.1,17.3-36.9,21L247.5,257.7z"/>
	<path class="st9" d="M195.2,226.3l-8.6,32c9.6,2.4,19.4,3.7,29.4,3.7c10.2,0,20.3-1.3,30.1-3.9l-8.5-31.7
		c-6.9,1.7-13.9,2.6-21.1,2.6C209.3,229,202.2,228.1,195.2,226.3z"/>
	<path class="st10" d="M133.5,228.2c14.4,14.1,32.2,24.4,51.6,29.6l8.6-32c-13.8-3.8-26.5-11.1-36.8-21.1L133.5,228.2z"/>
	<path class="st11" d="M102.4,175.7c5.4,19.4,15.8,37.2,30,51.5l23.5-23.4c-10.2-10.2-17.6-22.9-21.6-36.6L102.4,175.7z"/>
	<path class="st12" d="M133.5,123l-31.7-8.5c-2.5,9.6-3.7,19.5-3.7,29.5c0,10.2,1.3,20.4,3.9,30.2l32-8.5
		c-1.9-7.2-2.9-14.7-2.9-22.2C131,136.5,131.9,129.6,133.5,123z"/>
	<path class="st13" d="M335.4,144c0-10.2-1.3-20.3-3.8-30.1l0,0l-0.2-0.7c0,0,0,0,0,0l-0.2-0.6l0,0c-5.3-19.6-15.7-37.7-30.1-52.3
		l0,0l-0.5-0.5c0,0,0,0,0,0l-0.5-0.5l0,0C285.6,44.9,267.6,34.4,248,29l0,0l-0.7-0.2c0,0,0,0-0.1,0l-0.4-0.1l0,0
		c-10-2.7-20.4-4-30.8-4c-10.1,0-20.1,1.3-29.8,3.8l0,0l-0.4,0.1c0,0,0,0,0,0l-0.7,0.2l0,0C165.2,34,147,44.5,132.2,59l0,0l-0.5,0.5
		c0,0,0,0,0,0l-0.4,0.3l0,0c-14.6,14.7-25.2,33-30.6,52.9l0,0l-0.1,0.2c0,0,0,0,0,0l-0.2,0.7l0,0c-2.6,9.8-3.9,20-3.9,30.3
		c0,10.4,1.3,20.7,4,30.7l0,0l0.1,0.5c0,0,0,0,0,0l0.2,0.7l0,0c5.5,19.7,16,37.8,30.5,52.3l0,0l0.4,0.4c0,0,0,0,0,0l0.5,0.5l0,0
		c14.7,14.4,32.8,24.8,52.5,30.1l0,0l0.6,0.2l0.6,0.2l0,0c9.7,2.5,19.8,3.8,29.9,3.8c10.3,0,20.6-1.3,30.5-3.9l0,0l0.7-0.2
		c0,0,0,0,0,0l0.7-0.2l0,0c19.6-5.4,37.6-15.8,52.1-30.2l0,0l0.4-0.4l0.4-0.4l0,0c14.5-14.6,24.9-32.7,30.3-52.4l0,0l0.1-0.3
		c0,0,0-0.1,0-0.1l0.2-0.7l0,0C334,164.6,335.4,154.3,335.4,144z M216,261.9c-9.9,0-19.8-1.2-29.4-3.7l8.6-32
		c7,1.8,14.1,2.7,21.4,2.7c7.1,0,14.2-0.9,21.1-2.6l8.5,31.7C236.3,260.6,226.2,261.9,216,261.9z M185.2,30.1l8.3,30.9
		c-14,3.9-26.9,11.4-37.3,21.8l-22.9-23C147.8,45.6,165.7,35.4,185.2,30.1z M216,26.1c10.3,0,20.4,1.3,30.2,3.9L238,60.6
		c-7-1.8-14.2-2.7-21.4-2.7c-7.3,0-14.5,0.9-21.5,2.7l-8.2-30.9C196.3,27.3,206.1,26.1,216,26.1z M299.1,60.3l-9.3,9.3l-13,13
		c-10.4-10.2-23.2-17.7-37.1-21.6l8.2-30.7C267.1,35.8,284.8,46.1,299.1,60.3z M297.7,165.8l-0.1,0.3c-3.9,14.1-11.5,26.9-22,37.3
		l-0.1,0.1c-10.4,10.3-23.4,17.6-37.5,21.3l-0.1,0c-6.9,1.8-14.1,2.7-21.3,2.7c-7.3,0-14.6-0.9-21.7-2.8l-0.1,0
		c-14-3.8-26.9-11.2-37.3-21.4l0,0c-10.4-10.3-17.9-23.1-21.8-37.1l0-0.2c-2-7.3-3.1-14.9-3.1-22.6c0-7,0.9-14,2.6-20.8l0.1-0.4
		c3.7-14.2,11.1-27.3,21.5-37.9l0.1-0.1c10.4-10.6,23.5-18.2,37.8-22l0.2,0c7.1-1.9,14.5-2.9,21.9-2.9c7.3,0,14.6,1,21.7,2.8
		l0.3,0.1c14.2,3.8,27.2,11.4,37.6,21.9l0,0c10.5,10.5,18,23.7,21.7,38l0,0.1c1.8,6.9,2.7,14.1,2.7,21.3
		C300.7,151,299.7,158.5,297.7,165.8z M299.1,121.1c-3.8-14.1-11.2-27-21.4-37.4l13-13l9.4-9.3c14.2,14.4,24.4,32.2,29.7,51.6
		L299.1,121.1z M155.2,83.9c-10.2,10.5-17.5,23.4-21.2,37.4l-31.7-8.6c5.3-19.5,15.7-37.3,30-51.7L155.2,83.9z M133.5,123
		c-1.6,6.7-2.5,13.5-2.5,20.5c0,7.5,1,15,2.9,22.2l-32,8.5c-2.6-9.8-3.9-20-3.9-30.2c0-10,1.3-19.9,3.7-29.5L133.5,123z
		 M134.4,167.1c4,13.8,11.4,26.4,21.6,36.6l-23.5,23.4c-14.3-14.3-24.6-32.1-30-51.5L134.4,167.1z M156.9,204.8
		c10.3,10,23,17.3,36.8,21.1l-8.6,32c-19.4-5.3-37.2-15.5-51.6-29.6L156.9,204.8z M239,226c13.8-3.8,26.6-11,36.9-21l22.9,23
		c-14.3,14.1-32.1,24.4-51.4,29.8L239,226z M277,203.9c10.3-10.3,17.8-23,21.7-36.8l30.9,8.4c-5.3,19.3-15.6,37.1-29.8,51.4
		L277,203.9z M299.2,165.5c1.9-7.2,2.9-14.6,2.9-22c0-7.1-0.9-14.1-2.6-21l30.7-8.2c2.5,9.6,3.8,19.6,3.8,29.7
		c0,10.1-1.3,20.1-3.8,29.8L299.2,165.5z"/>
</g>
<path d="M192.6,97c0.7,1.2,0.3,2.8-1,3.6c-1.2,0.7-2.8,0.3-3.6-1c-0.7-1.2-10.9-24.1-10.9-24.1S191.9,95.8,192.6,97z"/>
<path d="M187,187.7c0.7-1.2,2.3-1.7,3.6-1c1.2,0.7,1.7,2.3,1,3.6c-0.7,1.2-15.4,21.4-15.4,21.4S186.3,189,187,187.7z"/>
<path d="M268.4,147.3c-1.4,0-2.6-1.2-2.6-2.6s1.2-2.6,2.6-2.6c1.4,0,26.3,2.6,26.3,2.6S269.8,147.3,268.4,147.3z"/>
</svg>
