<?xml version="1.0" encoding="utf-8"?>
<!-- Generator: Adobe Illustrator 26.0.1, SVG Export Plug-In . SVG Version: 6.00 Build 0)  -->
<svg version="1.1" id="Layer_1" xmlns="http://www.w3.org/2000/svg" xmlns:xlink="http://www.w3.org/1999/xlink" x="0px" y="0px"
	 viewBox="0 0 51.6 50.3" style="enable-background:new 0 0 51.6 50.3;" xml:space="preserve">
<style type="text/css">
	.st0{fill:#C39951;}
	.st1{fill:#D5C3AE;}
	.st2{fill:#A98957;}
	.st3{fill:#A8AFB6;}
	.st4{fill:#518CB0;}
	.st5{fill:#5E574D;}
	.st6{fill:#ECB53E;}
</style>
<path class="st0" d="M44,35.8L29.7,24.3v-20c11,0.1,19.9,9.1,19.9,20.1c0,4.5-1.5,8.9-4.3,12.5L44,35.8z"/>
<path class="st1" d="M29.5,48.1c-4,0-7.9-1-11.4-2.9l0.8-1.4l10.6-19.1l14.2,11.4l4.1,3.3C43.3,45,36.6,48.1,29.5,48.1z"/>
<path class="st2" d="M18.5,43.5c-3.2-1.8-5.9-4.5-7.9-7.7c-2-3.3-3.1-7-3.2-10.8h3.5L29,24.8c-0.9,1.6-4.7,8.4-8.8,15.8l-0.9,1.6
	L18.5,43.5z"/>
<path class="st3" d="M2,24.5c0-5.8,1.8-11.3,5.1-16l1.3,1l20.4,14.8L11,24.5H2L2,24.5z"/>
<path class="st4" d="M10.1,10.2l-1.3-1c2.1-2.9,4.9-5.3,7.9-7l0.9,1.4l2.7,4.8l8.5,15.3L10.1,10.2z"/>
<path class="st5" d="M20.6,8.1l-0.9-1.6l-0.8-1.4c2-1.1,4.2-1.9,6.5-2.3l0.3,1.6L26,6.2l3,16.9L20.6,8.1z"/>
<path class="st6" d="M26.5,6.5c0.9-0.2,1.9-0.2,2.7-0.2V22L26.5,6.5z"/>
</svg>
