<?xml version="1.0" encoding="utf-8"?>
<!-- Generator: Adobe Illustrator 26.0.2, SVG Export Plug-In . SVG Version: 6.00 Build 0)  -->
<svg version="1.1" id="Layer_1" xmlns="http://www.w3.org/2000/svg" xmlns:xlink="http://www.w3.org/1999/xlink" x="0px" y="0px"
	 viewBox="0 0 161.6 53.9" style="enable-background:new 0 0 161.6 53.9;" xml:space="preserve">
<style type="text/css">
	.st0{fill:url(#SVGID_1_);stroke:#828282;stroke-width:2;stroke-miterlimit:10;}
	.st1{fill:#5B5B5B;}
</style>
<linearGradient id="SVGID_1_" gradientUnits="userSpaceOnUse" x1="80.7903" y1="7.2019" x2="80.7903" y2="46.7336">
	<stop  offset="0" style="stop-color:#FFFFFF"/>
	<stop  offset="1" style="stop-color:#ABABAB"/>
</linearGradient>
<path class="st0" d="M138.7,46.7H22.9c-8.5,0-15.4-6.9-15.4-15.4v-8.8c0-8.5,6.9-15.4,15.4-15.4h115.8c8.5,0,15.4,6.9,15.4,15.4v8.8
	C154.1,39.9,147.2,46.7,138.7,46.7z"/>
<g>
	<path class="st1" d="M31.5,32.4c1,0.6,2.4,1.1,3.9,1.1c2.2,0,3.5-1.2,3.5-2.9c0-1.5-0.9-2.5-3.2-3.3c-2.7-1-4.4-2.4-4.4-4.8
		c0-2.6,2.2-4.5,5.4-4.5c1.7,0,3,0.4,3.7,0.8l-0.6,1.8c-0.5-0.3-1.6-0.8-3.2-0.8c-2.3,0-3.2,1.4-3.2,2.5c0,1.6,1,2.3,3.3,3.2
		c2.8,1.1,4.3,2.5,4.3,4.9c0,2.6-1.9,4.8-5.8,4.8c-1.6,0-3.4-0.5-4.3-1.1L31.5,32.4z"/>
	<path class="st1" d="M54.1,31.7c0,1.3,0,2.4,0.1,3.3h-1.9l-0.1-2h0c-0.5,1-1.8,2.2-4,2.2c-1.9,0-4.2-1.1-4.2-5.3v-7h2.2v6.6
		c0,2.3,0.7,3.9,2.7,3.9c1.5,0,2.5-1,2.9-2c0.1-0.3,0.2-0.7,0.2-1.1V23h2.2V31.7z"/>
	<path class="st1" d="M57.7,17.4h2.2v7.6h0c0.8-1.3,2.2-2.2,4.1-2.2c3,0,5.1,2.5,5.1,6.1c0,4.3-2.7,6.4-5.4,6.4
		c-1.7,0-3.1-0.7-4.1-2.2h0l-0.1,2h-1.9c0-0.8,0.1-2,0.1-3.1V17.4z M59.9,30.2c0,0.3,0,0.5,0.1,0.8c0.4,1.5,1.7,2.6,3.3,2.6
		c2.3,0,3.7-1.9,3.7-4.6c0-2.4-1.2-4.5-3.6-4.5c-1.5,0-2.9,1-3.3,2.7c-0.1,0.3-0.1,0.6-0.1,0.9V30.2z"/>
	<path class="st1" d="M71.5,32.8c0.7,0.4,1.8,0.8,2.9,0.8c1.6,0,2.3-0.8,2.3-1.8c0-1-0.6-1.6-2.2-2.2c-2.2-0.8-3.2-2-3.2-3.4
		c0-1.9,1.6-3.5,4.2-3.5c1.2,0,2.3,0.3,2.9,0.7l-0.5,1.6c-0.5-0.3-1.3-0.7-2.5-0.7c-1.3,0-2,0.7-2,1.6c0,1,0.7,1.4,2.3,2.1
		c2.1,0.8,3.2,1.8,3.2,3.6c0,2.1-1.7,3.6-4.5,3.6c-1.3,0-2.5-0.3-3.4-0.8L71.5,32.8z"/>
	<path class="st1" d="M90.3,34.6c-0.6,0.3-1.8,0.7-3.5,0.7c-3.6,0-6-2.5-6-6.1c0-3.7,2.5-6.4,6.5-6.4c1.3,0,2.4,0.3,3,0.6L89.8,25
		c-0.5-0.3-1.3-0.6-2.5-0.6c-2.8,0-4.3,2.1-4.3,4.5c0,2.8,1.8,4.5,4.2,4.5c1.2,0,2.1-0.3,2.7-0.6L90.3,34.6z"/>
	<path class="st1" d="M92.8,26.7c0-1.4,0-2.6-0.1-3.8h1.9l0.1,2.4h0.1c0.5-1.6,1.9-2.6,3.4-2.6c0.2,0,0.4,0,0.6,0v2.1
		c-0.2,0-0.4,0-0.7,0c-1.5,0-2.6,1.1-2.9,2.8c0,0.3-0.1,0.7-0.1,1V35h-2.2V26.7z"/>
	<path class="st1" d="M103.5,19.6c0,0.7-0.5,1.3-1.4,1.3c-0.8,0-1.3-0.6-1.3-1.3s0.5-1.4,1.4-1.4C102.9,18.2,103.5,18.8,103.5,19.6z
		 M101,35V23h2.2v12H101z"/>
	<path class="st1" d="M106.9,17.4h2.2v7.6h0c0.8-1.3,2.2-2.2,4.1-2.2c3,0,5.1,2.5,5.1,6.1c0,4.3-2.7,6.4-5.4,6.4
		c-1.7,0-3.1-0.7-4.1-2.2h0l-0.1,2h-1.9c0-0.8,0.1-2,0.1-3.1V17.4z M109,30.2c0,0.3,0,0.5,0.1,0.8c0.4,1.5,1.7,2.6,3.3,2.6
		c2.3,0,3.7-1.9,3.7-4.6c0-2.4-1.2-4.5-3.6-4.5c-1.5,0-2.9,1-3.3,2.7c-0.1,0.3-0.1,0.6-0.1,0.9V30.2z"/>
	<path class="st1" d="M122.2,29.4c0,3,1.9,4.2,4.1,4.2c1.6,0,2.5-0.3,3.3-0.6l0.4,1.6c-0.8,0.3-2.1,0.8-4,0.8
		c-3.7,0-5.9-2.5-5.9-6.1s2.1-6.5,5.6-6.5c4,0,5,3.4,5,5.6c0,0.4,0,0.8-0.1,1H122.2z M128.6,27.8c0-1.4-0.6-3.5-3-3.5
		c-2.2,0-3.2,2-3.4,3.5H128.6z"/>
</g>
</svg>
