<?xml version="1.0" encoding="utf-8"?>
<!-- Generator: Adobe Illustrator 26.0.1, SVG Export Plug-In . SVG Version: 6.00 Build 0)  -->
<svg version="1.1" id="Layer_1" xmlns="http://www.w3.org/2000/svg" xmlns:xlink="http://www.w3.org/1999/xlink" x="0px" y="0px"
	 viewBox="0 0 432 288" style="enable-background:new 0 0 432 288;" xml:space="preserve">
<style type="text/css">
	.st0{fill:#EFEFEF;}
	.st1{fill:#FFFFFF;}
	.st2{fill:#283FB2;}
	.st3{fill:#C6950C;}
	.st4{fill:#B22424;}
	.st5{fill:#3DA53A;}
	.st6{fill:#6A2C9B;}
	.st7{fill:#D8BF2A;}
</style>
<rect x="10.8" y="11.1" class="st0" width="410.4" height="265.7"/>
<polygon class="st1" points="52.2,42.4 95.7,42.4 99.9,45.3 114.3,59.7 117.1,63.8 117.2,126.5 52.2,126.5 "/>
<polygon class="st1" points="186.1,42.4 229.6,42.4 233.8,45.3 248.2,59.7 251,63.8 251.1,126.5 186.1,126.5 "/>
<polygon class="st1" points="320.5,42.4 364,42.4 368.2,45.3 382.6,59.7 385.4,63.8 385.5,126.5 320.5,126.5 "/>
<polygon class="st1" points="253.4,161.4 296.9,161.4 301.1,164.2 315.5,178.6 318.3,182.8 318.4,245.4 253.4,245.4 "/>
<polygon class="st1" points="119.6,161.4 163.1,161.4 167.3,164.2 181.7,178.6 184.5,182.8 184.6,245.4 119.6,245.4 "/>
<g>
	<path class="st2" d="M98.7,38.2h-2.9H48.1v92.4h73.2V63.8v-2.9L98.7,38.2z M114.3,59.7H99.9V45.3L114.3,59.7z M117.2,126.5h-65
		V42.4h43.5v21.4h21.4L117.2,126.5L117.2,126.5z"/>
	<rect x="42.1" y="101.5" class="st2" width="64.9" height="19.8"/>
	<polygon class="st2" points="66.1,94.7 74.6,79.7 82.1,88.7 93.5,68.8 105.7,94.7 	"/>
</g>
<circle class="st3" cx="77.5" cy="68.8" r="4.5"/>
<g>
	<path class="st4" d="M232.6,38.2h-2.9H182v92.4h73.2V63.8v-2.9L232.6,38.2z M248.2,59.7h-14.4V45.3L248.2,59.7z M251.1,126.5h-65
		V42.4h43.5v21.4H251v62.7H251.1z"/>
	<rect x="176" y="101.5" class="st4" width="64.9" height="19.8"/>
	<polygon class="st4" points="200,94.7 208.5,79.7 216,88.7 227.4,68.8 239.6,94.7 	"/>
</g>
<circle class="st5" cx="211.4" cy="68.8" r="4.5"/>
<g>
	<path class="st5" d="M166.1,157.2h-2.9h-47.7v92.4h73.2v-66.9v-2.9L166.1,157.2z M181.6,178.7h-14.4v-14.4L181.6,178.7z
		 M184.6,245.5h-65v-84.2h43.5v21.4h21.4v62.8H184.6z"/>
	<rect x="109.4" y="220.5" class="st5" width="64.9" height="19.8"/>
	<polygon class="st5" points="133.5,213.7 142,198.7 149.4,207.7 160.9,187.8 173.1,213.7 	"/>
</g>
<circle class="st4" cx="144.8" cy="187.8" r="4.5"/>
<g>
	<path class="st1" d="M59.3,107.4v6.5c0,0.8-0.1,1.5-0.4,1.9c-0.4,0.7-1,1.3-1.8,1.8c-0.8,0.4-1.6,0.6-2.5,0.6
		c-1.1,0-2.7-0.5-4.6-1.4v-3.5c0-0.5,0.1-0.9,0.3-1.1s0.5-0.3,0.8-0.3s0.6,0.1,0.8,0.3c0.2,0.2,0.3,0.6,0.3,1.1v2.1
		c1,0.5,1.8,0.7,2.5,0.7c0.4,0,0.8-0.1,1.2-0.3c0.4-0.2,0.7-0.4,0.9-0.6s0.3-0.5,0.4-0.7c0-0.1,0.1-0.4,0.1-0.9v-6.2h-2.6
		c-0.5,0-0.9-0.1-1.1-0.3s-0.3-0.5-0.3-0.8s0.1-0.6,0.3-0.8s0.6-0.3,1.1-0.3h6c0.5,0,0.9,0.1,1.1,0.3c0.2,0.2,0.3,0.5,0.3,0.8
		s-0.1,0.6-0.3,0.8c-0.2,0.2-0.6,0.3-1.1,0.3H59.3z"/>
	<path class="st1" d="M66.8,113.6v2.2H69c0.5,0,0.9,0.1,1.1,0.3c0.2,0.2,0.3,0.5,0.3,0.8s-0.1,0.6-0.3,0.8S69.5,118,69,118h-4.6
		c-0.5,0-0.9-0.1-1.1-0.3s-0.3-0.5-0.3-0.8s0.1-0.6,0.3-0.8c0.2-0.2,0.6-0.3,1.1-0.3h0.3v-8.4h-0.3c-0.5,0-0.9-0.1-1.1-0.3
		s-0.3-0.5-0.3-0.8s0.1-0.6,0.3-0.8s0.6-0.3,1.1-0.3h4.9c1.4,0,2.6,0.4,3.4,1.2c0.8,0.8,1.3,1.8,1.3,2.9c0,0.6-0.1,1.2-0.4,1.8
		c-0.2,0.4-0.6,0.8-1.1,1.2s-1,0.7-1.5,0.9c-0.5,0.2-1.2,0.3-2.1,0.3h-2.1V113.6z M66.8,111.5h2c0.9,0,1.7-0.2,2.2-0.6
		s0.8-0.9,0.8-1.5c0-0.5-0.2-0.9-0.7-1.3c-0.4-0.4-1.1-0.6-1.9-0.6h-2.5L66.8,111.5L66.8,111.5z"/>
	<path class="st1" d="M78.7,112.7v3.1h5.5v-1.2c0-0.5,0.1-0.9,0.3-1.1s0.5-0.3,0.8-0.3s0.6,0.1,0.8,0.3s0.3,0.6,0.3,1.1v3.3H76.2
		c-0.5,0-0.9-0.1-1.1-0.3s-0.3-0.5-0.3-0.8s0.1-0.6,0.3-0.8c0.2-0.2,0.6-0.3,1.1-0.3h0.3v-8.4h-0.3c-0.5,0-0.9-0.1-1.1-0.3
		s-0.3-0.5-0.3-0.8s0.1-0.6,0.3-0.8s0.6-0.3,1.1-0.3h9.6v3.3c0,0.5-0.1,0.9-0.3,1.1c-0.2,0.2-0.5,0.3-0.8,0.3s-0.6-0.1-0.8-0.3
		c-0.2-0.2-0.3-0.6-0.3-1.1v-1.1h-5v3.1h1.9c0-0.6,0.1-0.9,0.2-1.1c0.2-0.3,0.5-0.5,0.9-0.5c0.3,0,0.6,0.1,0.8,0.3
		c0.2,0.2,0.3,0.6,0.3,1.1v2.5c0,0.5-0.1,0.8-0.2,0.9c-0.2,0.3-0.5,0.5-0.9,0.5s-0.7-0.2-0.9-0.5c-0.1-0.2-0.2-0.5-0.2-1.1h-1.8
		V112.7z"/>
	<path class="st1" d="M99.2,114v2.9c-1,0.5-1.8,0.9-2.5,1.1s-1.4,0.3-2.2,0.3c-1.1,0-2.1-0.2-3-0.5c-0.7-0.3-1.3-0.6-1.7-1
		c-0.4-0.4-0.8-0.9-1.2-1.7c-0.4-0.7-0.5-1.6-0.5-2.5v-1.5c0-1.4,0.4-2.7,1.3-3.8c1.2-1.5,2.8-2.3,4.8-2.3c0.6,0,1.1,0.1,1.7,0.2
		c0.5,0.1,1,0.3,1.5,0.5c0.3-0.3,0.6-0.4,0.8-0.4c0.3,0,0.6,0.1,0.8,0.3c0.2,0.2,0.3,0.6,0.3,1.1v1.4c0,0.5-0.1,0.9-0.3,1.1
		s-0.5,0.3-0.8,0.3s-0.5-0.1-0.6-0.2s-0.3-0.3-0.4-0.7c-0.1-0.4-0.2-0.6-0.3-0.7c-0.2-0.2-0.5-0.4-1-0.5c-0.5-0.2-1-0.2-1.6-0.2
		c-0.9,0-1.6,0.2-2.2,0.5c-0.4,0.3-0.9,0.7-1.2,1.3c-0.4,0.6-0.6,1.3-0.6,2.1v1.5c0,1.2,0.3,2,1,2.6s1.7,0.9,3.2,0.9
		c1,0,1.9-0.2,2.7-0.6V114H95c-0.5,0-0.9-0.1-1.1-0.3c-0.2-0.2-0.3-0.5-0.3-0.8s0.1-0.6,0.3-0.8c0.2-0.2,0.6-0.3,1.1-0.3h3.8
		c0.5,0,0.9,0.1,1.1,0.3c0.2,0.2,0.3,0.5,0.3,0.8s-0.1,0.5-0.2,0.7C99.7,113.8,99.5,113.9,99.2,114z"/>
</g>
<g>
	<path class="st1" d="M194.3,113.6v2.2h2.2c0.5,0,0.9,0.1,1.1,0.3c0.2,0.2,0.3,0.5,0.3,0.8s-0.1,0.6-0.3,0.8s-0.6,0.3-1.1,0.3h-4.6
		c-0.5,0-0.9-0.1-1.1-0.3s-0.3-0.5-0.3-0.8s0.1-0.6,0.3-0.8c0.2-0.2,0.6-0.3,1.1-0.3h0.3v-8.4h-0.3c-0.5,0-0.9-0.1-1.1-0.3
		s-0.3-0.5-0.3-0.8s0.1-0.6,0.3-0.8s0.6-0.3,1.1-0.3h4.9c1.4,0,2.6,0.4,3.4,1.2c0.8,0.8,1.3,1.8,1.3,2.9c0,0.6-0.1,1.2-0.4,1.8
		c-0.2,0.4-0.6,0.8-1.1,1.2s-1,0.7-1.5,0.9c-0.5,0.2-1.2,0.3-2.1,0.3h-2.1V113.6z M194.3,111.5h2c0.9,0,1.7-0.2,2.2-0.6
		s0.8-0.9,0.8-1.5c0-0.5-0.2-0.9-0.7-1.3c-0.4-0.4-1.1-0.6-1.9-0.6h-2.5L194.3,111.5L194.3,111.5z"/>
	<path class="st1" d="M205.7,109.3v6.5h0.8c0.5,0,0.9,0.1,1.1,0.3c0.2,0.2,0.3,0.5,0.3,0.8s-0.1,0.6-0.3,0.8s-0.6,0.3-1.1,0.3h-2.8
		c-0.5,0-0.9-0.1-1.1-0.3c-0.2-0.2-0.3-0.5-0.3-0.8s0.1-0.6,0.3-0.8c0.2-0.2,0.6-0.3,1-0.3v-8.4h-0.3c-0.5,0-0.9-0.1-1.1-0.3
		s-0.3-0.5-0.3-0.8s0.1-0.6,0.3-0.8s0.6-0.3,1.1-0.3h2.5l5.5,8.6v-6.5h-0.8c-0.5,0-0.9-0.1-1.1-0.3c-0.2-0.2-0.3-0.5-0.3-0.8
		s0.1-0.6,0.3-0.8c0.2-0.2,0.6-0.3,1.1-0.3h2.8c0.5,0,0.9,0.1,1.1,0.3s0.3,0.5,0.3,0.8s-0.1,0.6-0.3,0.8c-0.2,0.2-0.5,0.3-1,0.3
		v10.5h-2.1L205.7,109.3z"/>
	<path class="st1" d="M226.7,114v2.9c-1,0.5-1.8,0.9-2.5,1.1s-1.4,0.3-2.2,0.3c-1.1,0-2.1-0.2-3-0.5c-0.7-0.3-1.3-0.6-1.7-1
		s-0.8-0.9-1.2-1.7c-0.4-0.7-0.5-1.6-0.5-2.5v-1.5c0-1.4,0.4-2.7,1.3-3.8c1.2-1.5,2.8-2.3,4.8-2.3c0.6,0,1.1,0.1,1.7,0.2
		c0.5,0.1,1,0.3,1.5,0.5c0.3-0.3,0.6-0.4,0.8-0.4c0.3,0,0.6,0.1,0.8,0.3c0.2,0.2,0.3,0.6,0.3,1.1v1.4c0,0.5-0.1,0.9-0.3,1.1
		s-0.5,0.3-0.8,0.3s-0.5-0.1-0.6-0.2s-0.3-0.3-0.4-0.7c-0.1-0.4-0.2-0.6-0.3-0.7c-0.2-0.2-0.5-0.4-1-0.5s-1-0.2-1.6-0.2
		c-0.9,0-1.6,0.2-2.2,0.5c-0.4,0.3-0.9,0.7-1.2,1.3c-0.4,0.6-0.6,1.3-0.6,2.1v1.5c0,1.2,0.3,2,1,2.6s1.7,0.9,3.2,0.9
		c1,0,1.9-0.2,2.7-0.6V114h-2.2c-0.5,0-0.9-0.1-1.1-0.3c-0.2-0.2-0.3-0.5-0.3-0.8s0.1-0.6,0.3-0.8c0.2-0.2,0.6-0.3,1.1-0.3h3.8
		c0.5,0,0.9,0.1,1.1,0.3c0.2,0.2,0.3,0.5,0.3,0.8s-0.1,0.5-0.2,0.7C227.2,113.8,227,113.9,226.7,114z"/>
</g>
<g>
	<path class="st1" d="M125.6,236.5c-0.2,0.2-0.3,0.4-0.5,0.4c-0.1,0.1-0.3,0.1-0.4,0.1c-0.3,0-0.6-0.1-0.8-0.3
		c-0.2-0.2-0.3-0.6-0.3-1.1v-1.4c0-0.5,0.1-0.9,0.3-1.1c0.2-0.2,0.5-0.3,0.8-0.3s0.5,0.1,0.6,0.2c0.2,0.1,0.3,0.4,0.4,0.7
		s0.2,0.5,0.3,0.6c0.2,0.2,0.6,0.4,1.1,0.7c0.5,0.2,1.1,0.3,1.7,0.3c1,0,1.7-0.2,2.4-0.7c0.4-0.3,0.6-0.6,0.6-1
		c0-0.3-0.1-0.5-0.3-0.7s-0.5-0.4-0.9-0.6c-0.3-0.1-0.9-0.2-1.9-0.4c-1.2-0.2-2.1-0.5-2.7-0.8s-1.1-0.7-1.4-1.3s-0.5-1.2-0.5-1.8
		c0-1,0.4-1.9,1.3-2.7s2-1.2,3.3-1.2c0.6,0,1.1,0.1,1.5,0.2s0.9,0.3,1.3,0.6c0.3-0.3,0.6-0.4,0.8-0.4c0.3,0,0.6,0.1,0.8,0.3
		s0.3,0.6,0.3,1.1v1.6c0,0.5-0.1,0.9-0.3,1.1s-0.5,0.3-0.8,0.3s-0.5-0.1-0.7-0.2c-0.2-0.1-0.3-0.4-0.3-0.7s-0.2-0.6-0.3-0.8
		c-0.2-0.3-0.5-0.5-0.9-0.7s-0.9-0.3-1.4-0.3c-0.8,0-1.4,0.2-1.8,0.5s-0.7,0.7-0.7,1.1c0,0.3,0.1,0.5,0.3,0.8
		c0.2,0.2,0.5,0.4,0.8,0.6c0.2,0.1,0.9,0.3,2,0.5s1.9,0.5,2.5,0.7c0.6,0.3,1.1,0.7,1.5,1.2c0.4,0.6,0.6,1.2,0.6,2
		c0,1.1-0.4,1.9-1.1,2.5c-1,0.8-2.3,1.3-3.8,1.3c-0.6,0-1.2-0.1-1.7-0.2C126.7,237,126.2,236.8,125.6,236.5z"/>
	<path class="st1" d="M141.6,233.9l3.1-7.4h-0.5c-0.5,0-0.9-0.1-1.1-0.3c-0.2-0.2-0.3-0.5-0.3-0.8s0.1-0.6,0.3-0.8s0.6-0.3,1.1-0.3
		h2.9c0.5,0,0.9,0.1,1.1,0.3c0.2,0.2,0.3,0.5,0.3,0.8c0,0.4-0.2,0.7-0.5,0.9c-0.2,0.1-0.5,0.2-1,0.2l-4.4,10.5h-2.1l-4.4-10.5
		c-0.5,0-0.8-0.1-1-0.2c-0.3-0.2-0.5-0.5-0.5-0.9c0-0.3,0.1-0.6,0.3-0.8s0.6-0.3,1.1-0.3h2.9c0.5,0,0.9,0.1,1.1,0.3
		c0.2,0.2,0.3,0.5,0.3,0.8s-0.1,0.6-0.3,0.8s-0.6,0.3-1.1,0.3h-0.5L141.6,233.9z"/>
	<path class="st1" d="M159.9,233.1v2.9c-1,0.5-1.8,0.9-2.5,1.1s-1.4,0.3-2.2,0.3c-1.1,0-2.1-0.2-3-0.5c-0.7-0.3-1.3-0.6-1.7-1
		s-0.8-1-1.2-1.7s-0.5-1.6-0.5-2.5v-1.5c0-1.4,0.4-2.7,1.3-3.8c1.2-1.5,2.8-2.3,4.8-2.3c0.6,0,1.1,0.1,1.7,0.2
		c0.5,0.1,1,0.3,1.5,0.5c0.3-0.3,0.6-0.4,0.8-0.4c0.3,0,0.6,0.1,0.8,0.3s0.3,0.6,0.3,1.1v1.4c0,0.5-0.1,0.9-0.3,1.1
		s-0.5,0.3-0.8,0.3s-0.5-0.1-0.6-0.2c-0.1-0.1-0.3-0.3-0.4-0.7s-0.2-0.6-0.3-0.7c-0.2-0.2-0.5-0.4-1-0.5c-0.5-0.2-1-0.2-1.6-0.2
		c-0.9,0-1.6,0.2-2.2,0.5c-0.4,0.3-0.9,0.7-1.2,1.3s-0.6,1.3-0.6,2.1v1.5c0,1.2,0.3,2,1,2.6s1.7,0.9,3.2,0.9c1,0,1.9-0.2,2.7-0.6
		v-1.5h-2.2c-0.5,0-0.9-0.1-1.1-0.3c-0.2-0.2-0.3-0.5-0.3-0.8s0.1-0.6,0.3-0.8s0.6-0.3,1.1-0.3h3.8c0.5,0,0.9,0.1,1.1,0.3
		c0.2,0.2,0.3,0.5,0.3,0.8s-0.1,0.5-0.2,0.7S160.2,233,159.9,233.1z"/>
</g>
<g>
	<path class="st6" d="M367,38.2h-2.9h-47.7v92.4h73.2V63.8v-2.9L367,38.2z M382.6,59.7h-14.4V45.3L382.6,59.7z M385.5,126.5h-65
		V42.4H364v21.4h21.4v62.7H385.5z"/>
	<rect x="310.4" y="101.5" class="st6" width="64.9" height="19.8"/>
	<polygon class="st6" points="334.5,94.7 342.9,79.7 350.4,88.7 361.9,68.8 374.1,94.7 	"/>
</g>
<circle class="st7" cx="345.8" cy="68.8" r="4.5"/>
<g>
	<path class="st3" d="M299.9,157.2H297h-47.7v92.4h73.2v-66.9v-2.9L299.9,157.2z M315.5,178.7h-14.4v-14.4L315.5,178.7z
		 M318.4,245.5h-65v-84.2H297v21.4h21.4V245.5z"/>
	<rect x="243.3" y="220.5" class="st3" width="64.9" height="19.8"/>
	<polygon class="st3" points="267.4,213.7 275.8,198.7 283.3,207.7 294.8,187.8 307,213.7 	"/>
</g>
<circle class="st2" cx="278.7" cy="187.8" r="4.5"/>
<g>
	<path class="st1" d="M323.6,111.9l-2,6.1h-2.4l-1.3-10.5c-0.3,0-0.6-0.2-0.7-0.3c-0.2-0.2-0.3-0.4-0.3-0.7c0-0.3,0.1-0.6,0.3-0.8
		s0.6-0.3,1.1-0.3h2.9c0.5,0,0.9,0.1,1.1,0.3s0.3,0.5,0.3,0.8s-0.1,0.6-0.3,0.8s-0.6,0.3-1.1,0.3h-1.1l0.7,6l1.7-5h2.2l1.7,5l0.7-6
		H326c-0.5,0-0.9-0.1-1.1-0.3s-0.3-0.5-0.3-0.8s0.1-0.6,0.3-0.8s0.6-0.3,1.1-0.3h2.8c0.5,0,0.9,0.1,1.1,0.3s0.3,0.5,0.3,0.8
		s-0.1,0.5-0.3,0.7c-0.2,0.2-0.4,0.3-0.8,0.4l-1.2,10.5h-2.4L323.6,111.9z"/>
	<path class="st1" d="M334.3,112.7v3.1h5.5v-1.2c0-0.5,0.1-0.9,0.3-1.1c0.2-0.2,0.5-0.3,0.8-0.3s0.6,0.1,0.8,0.3
		c0.2,0.2,0.3,0.6,0.3,1.1v3.3h-10.1c-0.5,0-0.9-0.1-1.1-0.3s-0.3-0.5-0.3-0.8s0.1-0.6,0.3-0.8c0.2-0.2,0.6-0.3,1.1-0.3h0.3v-8.4
		h-0.3c-0.5,0-0.9-0.1-1.1-0.3s-0.3-0.5-0.3-0.8s0.1-0.6,0.3-0.8s0.6-0.3,1.1-0.3h9.6v3.3c0,0.5-0.1,0.9-0.3,1.1
		c-0.2,0.2-0.5,0.3-0.8,0.3s-0.6-0.1-0.8-0.3c-0.2-0.2-0.3-0.6-0.3-1.1v-1.1h-5v3.1h1.9c0-0.6,0.1-0.9,0.2-1.1
		c0.2-0.3,0.5-0.5,0.9-0.5c0.3,0,0.6,0.1,0.8,0.3c0.2,0.2,0.3,0.6,0.3,1.1v2.5c0,0.5-0.1,0.8-0.2,0.9c-0.2,0.3-0.5,0.5-0.9,0.5
		s-0.7-0.2-0.9-0.5c-0.1-0.2-0.2-0.5-0.2-1.1h-1.9V112.7z"/>
	<path class="st1" d="M344.9,115.8v-8.4h-0.3c-0.5,0-0.9-0.1-1.1-0.3s-0.3-0.5-0.3-0.8s0.1-0.6,0.3-0.8s0.6-0.3,1.1-0.3h5.4
		c1.3,0,2.3,0.4,3.1,1.1c0.8,0.7,1.2,1.6,1.2,2.5c0,0.5-0.1,0.9-0.3,1.3c-0.2,0.4-0.5,0.8-0.8,1.1c0.7,0.4,1.2,0.9,1.5,1.4
		s0.5,1.2,0.5,1.8c0,0.5-0.1,1-0.4,1.5c-0.2,0.4-0.4,0.6-0.7,0.8c-0.4,0.3-0.8,0.5-1.3,0.7s-1.2,0.3-1.9,0.3h-6.3
		c-0.5,0-0.9-0.1-1.1-0.3s-0.3-0.5-0.3-0.8s0.1-0.6,0.3-0.8c0.2-0.2,0.6-0.3,1.1-0.3h0.3V115.8z M347.1,110.5h2.4
		c0.8,0,1.5-0.2,2.1-0.6c0.4-0.3,0.6-0.6,0.6-1.1c0-0.4-0.2-0.7-0.5-1c-0.4-0.3-0.9-0.4-1.7-0.4h-2.8v3.1H347.1z M347.1,115.8h3.7
		c0.9,0,1.5-0.1,1.8-0.4c0.3-0.2,0.4-0.5,0.4-0.8c0-0.4-0.3-0.9-0.8-1.3s-1.3-0.6-2.3-0.6h-2.8L347.1,115.8L347.1,115.8z"/>
	<path class="st1" d="M360.9,113.6v2.2h2.2c0.5,0,0.9,0.1,1.1,0.3c0.2,0.2,0.3,0.5,0.3,0.8s-0.1,0.6-0.3,0.8s-0.6,0.3-1.1,0.3h-4.6
		c-0.5,0-0.9-0.1-1.1-0.3s-0.3-0.5-0.3-0.8s0.1-0.6,0.3-0.8c0.2-0.2,0.6-0.3,1.1-0.3h0.3v-8.4h-0.3c-0.5,0-0.9-0.1-1.1-0.3
		s-0.3-0.5-0.3-0.8s0.1-0.6,0.3-0.8s0.6-0.3,1.1-0.3h4.9c1.4,0,2.6,0.4,3.4,1.2c0.8,0.8,1.3,1.8,1.3,2.9c0,0.6-0.1,1.2-0.4,1.8
		c-0.2,0.4-0.6,0.8-1.1,1.2c-0.5,0.4-1,0.7-1.5,0.9c-0.5,0.2-1.2,0.3-2.1,0.3h-2.1V113.6z M360.9,111.5h2c0.9,0,1.7-0.2,2.2-0.6
		s0.8-0.9,0.8-1.5c0-0.5-0.2-0.9-0.7-1.3c-0.4-0.4-1.1-0.6-1.9-0.6h-2.5v4H360.9z"/>
</g>
<g>
	<path class="st1" d="M268.1,233.1v2.9c-1,0.5-1.8,0.9-2.5,1.1s-1.4,0.3-2.2,0.3c-1.1,0-2.1-0.2-3-0.5c-0.7-0.3-1.3-0.6-1.7-1
		c-0.4-0.4-0.8-1-1.2-1.7s-0.5-1.6-0.5-2.5v-1.5c0-1.4,0.4-2.7,1.3-3.8c1.2-1.5,2.8-2.3,4.8-2.3c0.6,0,1.1,0.1,1.7,0.2
		c0.5,0.1,1,0.3,1.5,0.5c0.3-0.3,0.6-0.4,0.8-0.4c0.3,0,0.6,0.1,0.8,0.3c0.2,0.2,0.3,0.6,0.3,1.1v1.4c0,0.5-0.1,0.9-0.3,1.1
		c-0.2,0.2-0.5,0.3-0.8,0.3s-0.5-0.1-0.6-0.2c-0.1-0.1-0.3-0.3-0.3-0.7c-0.1-0.4-0.2-0.6-0.3-0.7c-0.2-0.2-0.5-0.4-1-0.5
		c-0.5-0.2-1-0.2-1.6-0.2c-0.9,0-1.6,0.2-2.2,0.5c-0.4,0.3-0.9,0.7-1.2,1.3c-0.4,0.6-0.6,1.3-0.6,2.1v1.5c0,1.2,0.3,2,1,2.6
		s1.7,0.9,3.2,0.9c1,0,1.9-0.2,2.7-0.6v-1.5H264c-0.5,0-0.9-0.1-1.1-0.3s-0.3-0.5-0.3-0.8s0.1-0.6,0.3-0.8c0.2-0.2,0.6-0.3,1.1-0.3
		h3.8c0.5,0,0.9,0.1,1.1,0.3s0.3,0.5,0.3,0.8s-0.1,0.5-0.2,0.7C268.6,232.9,268.4,233,268.1,233.1z"/>
	<path class="st1" d="M276.6,226.5v8.4h2.2c0.5,0,0.9,0.1,1.1,0.3s0.3,0.5,0.3,0.8s-0.1,0.6-0.3,0.8c-0.2,0.2-0.6,0.3-1.1,0.3h-6.5
		c-0.5,0-0.9-0.1-1.1-0.3s-0.3-0.5-0.3-0.8s0.1-0.6,0.3-0.8c0.2-0.2,0.6-0.3,1.1-0.3h2.2v-8.4h-2.2c-0.5,0-0.9-0.1-1.1-0.3
		s-0.3-0.5-0.3-0.8s0.1-0.6,0.3-0.8c0.2-0.2,0.6-0.3,1.1-0.3h6.5c0.5,0,0.9,0.1,1.1,0.3s0.3,0.5,0.3,0.8s-0.1,0.6-0.3,0.8
		c-0.2,0.2-0.6,0.3-1.1,0.3H276.6z"/>
	<path class="st1" d="M286.9,231.8v3.1h2.2c0.5,0,0.9,0.1,1.1,0.3s0.3,0.5,0.3,0.8s-0.1,0.6-0.3,0.8c-0.2,0.2-0.6,0.3-1.1,0.3h-4.7
		c-0.5,0-0.9-0.1-1.1-0.3s-0.3-0.5-0.3-0.8s0.1-0.6,0.3-0.8c0.2-0.2,0.6-0.3,1.1-0.3h0.3v-8.4h-0.3c-0.5,0-0.9-0.1-1.1-0.3
		s-0.3-0.5-0.3-0.8s0.1-0.6,0.3-0.8c0.2-0.2,0.6-0.3,1.1-0.3h10.1v3.3c0,0.5-0.1,0.9-0.3,1.1c-0.2,0.2-0.5,0.3-0.8,0.3
		s-0.6-0.1-0.8-0.3c-0.2-0.2-0.3-0.6-0.3-1.1v-1.1h-5.5v3.1h1.9c0-0.6,0.1-0.9,0.2-1.1c0.2-0.3,0.5-0.5,0.9-0.5
		c0.3,0,0.6,0.1,0.8,0.3c0.2,0.2,0.3,0.6,0.3,1.1v2.5c0,0.5-0.1,0.9-0.3,1.1c-0.2,0.2-0.5,0.3-0.8,0.3c-0.4,0-0.7-0.2-0.9-0.5
		c-0.1-0.2-0.2-0.5-0.2-1.1L286.9,231.8L286.9,231.8z"/>
</g>
</svg>
