<?xml version="1.0" encoding="utf-8"?>
<!-- Generator: Adobe Illustrator 25.4.1, SVG Export Plug-In . SVG Version: 6.00 Build 0)  -->
<svg version="1.1" id="Layer_6" xmlns="http://www.w3.org/2000/svg" xmlns:xlink="http://www.w3.org/1999/xlink" x="0px" y="0px"
	 viewBox="0 0 360 360" style="enable-background:new 0 0 360 360;" xml:space="preserve">
<style type="text/css">
	.st0{fill:#FFFFFF;}
</style>
<g>
	<path class="st0" d="M127.9,232.7c0,0-119.9,91.4-105.9,105.4S127.9,232.7,127.9,232.7z"/>
	<path class="st0" d="M135.1,228.1c0,0-76.2,95.1-62.5,103.4S135.1,228.1,135.1,228.1z"/>
	<path class="st0" d="M88.7,286.1c0,0-36.1,37-30.7,41.1C63.5,331.2,88.7,286.1,88.7,286.1z"/>
	<path class="st0" d="M115.1,278.5c0,0-26,44.7-19.7,47.3C101.6,328.4,115.1,278.5,115.1,278.5z"/>
	<path class="st0" d="M177.2,213.2c0,0,16.9,48.8,23,45.8C206.2,256,177.2,213.2,177.2,213.2z"/>
	<path class="st0" d="M198.3,214.1c0,0,150.7,2.7,147.8,22.3C343.1,256,198.3,214.1,198.3,214.1z"/>
	<path class="st0" d="M190.5,214.9c0,0,129.2,31.6,122.9,47.9C307,279.1,190.5,214.9,190.5,214.9z"/>
	<path class="st0" d="M186.3,215c0,0,95.7,51.5,87.4,63.1C265.3,289.6,186.3,215,186.3,215z"/>
	<path class="st0" d="M181.3,213.6c0,0,66.3,59.5,57.5,67.1C229.8,288.4,181.3,213.6,181.3,213.6z"/>
	<path class="st0" d="M205.6,212.7c0,0,66.1-16.3,67.1-7.4C273.7,214.1,205.6,212.7,205.6,212.7z"/>
	<path class="st0" d="M208.8,151.7c0,0-42.6,10.2-26.4,26.4S208.8,151.7,208.8,151.7z"/>
	<path class="st0" d="M132.4,225.4c0,0-95.1,76.2-103.4,62.5C20.7,274.2,132.4,225.4,132.4,225.4z"/>
	<path class="st0" d="M74.4,271.8c0,0-37,36.1-41.1,30.7C29.3,297.1,74.4,271.8,74.4,271.8z"/>
	<path class="st0" d="M82,245.5c0,0-44.7,26-47.3,19.7C32.1,258.9,82,245.5,82,245.5z"/>
	<path class="st0" d="M147.3,183.3c0,0-48.8-16.9-45.8-23C104.6,154.3,147.3,183.3,147.3,183.3z"/>
	<path class="st0" d="M146.5,162.2c0,0-2.7-150.7-22.3-147.8S146.5,162.2,146.5,162.2z"/>
	<path class="st0" d="M145.6,170.1c0,0-31.6-129.2-47.9-122.9S145.6,170.1,145.6,170.1z"/>
	<path class="st0" d="M145.6,174.2c0,0-51.5-95.7-63.1-87.4S145.6,174.2,145.6,174.2z"/>
	<path class="st0" d="M146.9,179.2c0,0-59.5-66.3-67.1-57.5C72.2,130.7,146.9,179.2,146.9,179.2z"/>
	<path class="st0" d="M147.8,155c0,0,16.3-66.1,7.4-67.1C146.4,86.8,147.8,155,147.8,155z"/>
</g>
</svg>
