<?xml version="1.0" encoding="utf-8"?>
<!-- Generator: Adobe Illustrator 26.0.1, SVG Export Plug-In . SVG Version: 6.00 Build 0)  -->
<svg version="1.1" id="Layer_1" xmlns="http://www.w3.org/2000/svg" xmlns:xlink="http://www.w3.org/1999/xlink" x="0px" y="0px"
	 viewBox="0 0 432 288" style="enable-background:new 0 0 432 288;" xml:space="preserve">
<style type="text/css">
	.st0{fill:none;stroke:#000000;stroke-miterlimit:10;}
	.st1{fill:#1691C8;}
	.st2{fill:#2727AB;}
	.st3{fill:#9F5CBB;}
	.st4{fill:#AAAAAA;}
	.st5{fill:#CB7C14;}
	.st6{fill:#10B57A;}
	.st7{fill:#3E3E3E;}
	.st8{fill:#FEFDFC;}
</style>
<rect x="10.8" y="11.1" class="st0" width="410.4" height="265.7"/>
<path class="st1" d="M103.5,169.4c-1,0-1.9,0-3,0c1.2,1.2,1.3,2.4,0.8,3.7c-0.2,0.7-0.7,1.2-1.2,1.4c-1.4,0.8-2.9,1-4.6,0.3
	c-0.2,0.3-0.5,0.7-0.8,1.1c0.1,0.2,0.2,0.7,0.5,0.8c0.5,0.2,1.1,0.3,1.6,0.4c1.1,0.1,2.2,0,3.3,0c0.8,0,1.5,0.3,2.2,0.6
	c0.7,0.3,0.9,0.8,1.1,1.4c0.2,0.6,0.1,1.4-0.4,1.9c-1.2,1.4-2.7,2.3-4.6,2.4c-0.8,0-1.6,0-2.5,0c-0.8,0.1-1.4-0.3-2.1-0.5
	c-1-0.3-1.5-1.1-1.6-2.1c-0.1-1.1,0.4-1.9,1.4-2.3c0.1,0,0.1-0.2,0.2-0.2c-1.6-1.7-1.1-2.5,0.1-4c-0.3-0.4-0.5-0.8-0.8-1.3
	c-0.1-0.1-0.2-0.2-0.2-0.4c-0.5-2,0.8-4.2,2.7-4.9c0.2-0.1,0.4-0.1,0.6-0.1c2.3,0,4.7,0,7.1,0C103.5,168.3,103.5,168.8,103.5,169.4z
	 M97.8,178.9c-0.8,0-1.6,0-2.5,0c-0.4,0-1.2,0.9-1.3,1.3c-0.1,0.5,0.3,1.1,0.9,1.4c1.6,0.8,4,0.8,5.5-0.1c0.7-0.4,1.2-1.1,1.1-1.7
	c-0.1-0.4-0.9-0.9-1.6-1C99.2,178.9,98.5,178.9,97.8,178.9z M97.3,169.4c-0.8-0.1-1.4,0.3-2,0.8c-0.5,0.5-0.6,1.2-0.6,1.7
	c0.2,1.6,1.8,2.5,3.3,2.1c0.5-0.2,1-0.6,1.4-1c0.3-0.4,0.4-0.9,0.5-1.4c-0.5-0.4-0.2-1.1-0.8-1.5C98.6,169.7,98.1,169.3,97.3,169.4z
	"/>
<path class="st2" d="M250.8,178.4c-1.2-1.6-1-2.9,0.3-4.1c-1.4-1-1.2-2.5-1.1-3.8c0-0.3,0.2-0.7,0.4-1c0.9-1,1.9-1.8,3.4-1.7
	c2.2,0,4.4,0,6.6,0c0,0.5,0,1,0,1.6c-0.9,0-1.8,0-3,0c0.3,0.4,0.7,0.6,0.7,0.9c0.1,0.4,0.3,0.7,0.3,1c0,1.2-0.3,2.3-1.2,3.1
	c-1.1,1-3.3,1.2-4.7,0.6c-0.1,0-0.2,0.1-0.3,0.1c-0.4,0.4-1,0.7-0.6,1.3c0.3,0.5,0.9,0.8,1.6,0.8c1.3,0,2.6,0,3.9,0
	c0.6,0,1.2,0.1,1.8,0.3c1.8,0.8,1.7,2.8,0.6,3.9c-1.2,1.3-2.7,1.9-4.4,1.9c-0.7,0-1.4,0-2.1,0c-0.8,0-1.5-0.2-2.2-0.6
	c-1.7-0.8-2.1-2.4-0.9-3.8C250.2,178.9,250.5,178.7,250.8,178.4z M251,179.7c0,1.7,0.1,2,1.7,2.3c1.1,0.2,2.3,0.1,3.5,0
	c0.5,0,1-0.3,1.4-0.5c0.5-0.3,1-1.2,0.9-1.7c-0.1-0.4-0.9-0.9-1.5-0.9c-0.2,0-0.4,0-0.7,0c-1.5,0-3.1,0-4.6,0
	C251.5,179.2,251.2,179.5,251,179.7z M256.5,170.6c-0.7-0.8-1.5-1.3-2.6-1.2c-1.2,0.1-2.4,1.2-2.3,2.3c0,1.3,1.2,2.2,2.3,2.3
	c1.1,0.1,1.9-0.3,2.6-1.2C256.5,172.1,256.5,171.3,256.5,170.6z"/>
<path class="st3" d="M157.9,97.1c0-0.7,0-1.3,0-2.3c0.3-0.3,0.8-0.8,1.3-1.3c-1-0.6-0.6-1.6-0.7-2.6c0.3-0.3,0.7-0.7,1.1-1.1
	c-0.4-0.5-0.8-0.9-1-1.4c-0.7-1.8,0-3.5,1.8-4.6c0.7-0.4,1.4-0.7,2.2-0.6c2,0,4,0,6.1,0c0,0.5,0,1.1,0,1.6c-0.8,0-1.6,0-2.6,0
	c0.4,0.8,0.6,1.4,0.7,2.2c0.1,1.5-0.7,2.4-1.7,3.2c-0.4,0.3-1.1,0.5-1.6,0.5c-0.8,0-1.7,0.3-2.5-0.3c-0.3-0.2-0.7,0.2-0.8,0.6
	c-0.2,0.9,0.5,1.6,1.6,1.6c1.3,0,2.6,0,3.9,0c0.4,0,0.7,0.2,1.1,0.2c0.9,0,1.4,0.8,1.9,1.3c0,0.2,0,0.3,0,0.5c0.3,2.2-1.4,3.4-3.4,4
	c-1.4,0.4-2.8,0.3-4.1,0.3C159.9,98.9,158.8,98.3,157.9,97.1z M159.6,95.2c0.1,0.5-0.1,1,0.2,1.5c0.4,0.7,1.2,0.4,1.6,0.9
	c1.2-0.1,2.3,0.2,3.5-0.3c1.7-0.7,1.9-0.8,1.9-2.6c-2.1-0.8-4.2-0.2-6.3-0.4C160.1,94.7,159.8,94.9,159.6,95.2z M160.2,88
	c2,2,3,2,4.9-0.1c0-1.4-0.1-1.7-0.8-2.3c-0.5-0.4-1-0.7-1.7-0.7c-0.7,0-1.2,0.2-1.7,0.7C160.3,86.2,160.1,87.1,160.2,88z"/>
<path class="st3" d="M168.7,235.2c0,0.1,0,0.2,0,0.4c0.3,2.2-1.2,3.4-3.5,4.1c-1.4,0.4-2.8,0.3-4.1,0.2c-1.2-0.1-2.4-0.6-3.2-1.8
	c0-0.6,0-1.2,0-2.1c0.4-0.3,0.9-0.7,1.3-1.1c0-0.7-0.8-0.9-0.7-1.5c0.1-0.5,0-1,0-1.6c0.3-0.2,0.7-0.5,1-0.8c0-0.9-1-1-1-1.9
	c0-0.5-0.5-1-0.2-1.5c0.4-0.7,0.4-1.6,1.1-2.2c0.9-0.8,1.8-1.3,3.1-1.3c2.1,0,4.1,0,6.2,0c0,0.6,0,1,0,1.6c-0.8,0-1.7,0-2.6,0
	c0.7,1.3,1,2.5,0.3,3.8c-0.7,1.3-1.7,2.1-3.2,2.1c-0.4,0-0.9,0-1.3,0c-0.4,0-0.8-0.2-1.2-0.3c-0.7,0.3-0.7,1-0.4,1.5
	c0.2,0.5,0.8,0.8,1.4,0.8c1.2,0,2.4,0,3.6,0C166.7,233.6,167.8,233.9,168.7,235.2z M166.7,235.8c-0.3-0.2-0.5-0.5-0.8-0.5
	c-1.9,0-3.7,0-5.6,0c-0.3,0.3-0.5,0.5-0.9,0.9c0.2,0.5-0.1,1,0.2,1.5c0.4,0.7,1.2,0.4,1.6,0.9c1.2-0.1,2.3,0.2,3.5-0.3
	C166.6,237.6,166.8,237.5,166.7,235.8z M165.1,228.9c0-1.4-0.1-1.8-0.8-2.5c-0.5-0.5-1-0.7-1.7-0.7c-0.7,0-1.3,0.3-1.8,0.8
	c-0.6,0.7-0.8,1.5-0.6,2.3C161.8,230.8,163.3,231,165.1,228.9z"/>
<path class="st4" d="M48,176.8c-2.3-4-4.3-7.9-6.3-11.8c1.1-0.2,10.4-0.3,12.5,0C52.2,168.9,50.1,172.8,48,176.8z"/>
<path class="st4" d="M41.6,24c4.2,0,8.3,0,12.5,0c-1.8,4.1-4.2,7.8-6.1,12C45.7,32,43.7,28,41.6,24z"/>
<path class="st1" d="M351.9,94c-0.8,0-1.5,0-2.3,0c0-2.9,0-5.8,0-8.6c-0.6-0.3-1.2-0.8-1.7-0.2c-0.4,0.5-1,1-1,1.8c0,2.3,0,4.6,0,7
	c-0.5,0-1,0-1.6,0c0-2.4,0-4.8,0-7.1c0-0.6-0.2-1-0.4-1.5c-0.2-0.6-0.9-0.6-1.3-0.2c-0.3,0.3-0.5,0.5-0.9,0.9c0,2.6,0,5.3,0,8
	c-0.8,0-1.5,0-2.3,0c0-3.5,0-7.1,0-10.7c0.6,0,1.2,0,1.9,0c0,0.3,0.1,0.6,0.1,0.6c0.2-0.2,0.5-0.5,0.6-0.6c3-0.1,3-0.1,3.8,1.2
	c0.4-0.4,0.8-0.8,1.3-1.3c0.5,0,0.9,0,1.4,0c1.1,0,1.9,0.8,2,1.9c0.1,0.9,0.3,1.9,0.3,2.8c0.1,1,0,2,0,2.9
	C351.9,91.9,351.9,92.9,351.9,94z"/>
<path class="st1" d="M81.3,178.6c-0.8,0-1.5,0-2.2,0c0-3.6,0-7.1,0-10.7c0.6,0,1.2,0,1.8,0c0.1,0.3,0.1,0.6,0.2,1
	c0.4-0.4,0.6-0.7,1-1.1c0.8,0,1.6-0.1,2.3,0.1c0.5,0.1,0.8,0.8,1.2,1.2c0.3-0.3,0.7-0.8,1.2-1.2c0.7,0.2,1.5-0.1,2.3,0.3
	c0.7,0.4,1.1,0.9,1.1,1.5c0.1,1.5,0.5,2.9,0.4,4.4c-0.1,1.5,0,3,0,4.6c-0.8,0-1.5,0-2.2,0c0-2.9,0-5.8,0-8.6
	c-0.6-0.3-1.1-0.7-1.7-0.2c-0.3,0.3-1,1.3-1,1.8c0,2,0,3.9,0,5.9c0,0.4,0,0.7,0,1.1c-0.6,0-1,0-1.6,0c0-2.4,0-4.8,0-7.2
	c0-0.6-0.2-1.1-0.5-1.6c-0.3-0.5-0.8-0.5-1.2-0.1c-0.3,0.3-0.6,0.6-0.9,0.9C81.3,173.2,81.3,175.8,81.3,178.6z"/>
<path class="st3" d="M120.2,234.9c-0.7,0-1.3,0-1.9,0c0-3.6,0-7.1,0-10.7c0.5,0,1,0,1.5,0c0,0.3,0.1,0.5,0.1,0.8
	c0.1,0,0.2,0.1,0.2,0c0.8-0.9,1.8-0.9,2.9-0.9c0.2,0,0.4,0.1,0.5,0.3c0.3,0.2,0.5,0.5,0.8,0.8c1.4-1,1.4-1,3.5-1
	c1.3,0.8,1.6,2.1,1.6,3.6c0,2.4,0,4.8,0,7.2c-0.7,0-1.2,0-2,0c0-2.4,0-4.8,0-7.1c0-0.6-0.2-1-0.4-1.5c-0.3-0.6-0.9-0.7-1.4-0.2
	c-0.3,0.3-0.5,0.5-0.9,0.9c0,2.6,0,5.3,0,8c-0.6,0-1.2,0-1.9,0c0-2.5,0-4.9,0-7.3c0-0.8-0.2-1.4-0.9-1.8c-1.3,0.4-1.8,1.3-1.7,2.6
	C120.3,230.5,120.2,232.6,120.2,234.9z"/>
<path class="st3" d="M118.3,83.3c0.5,0,1,0,1.6,0c0,0.3,0,0.5,0,0.8c0.1,0,0.2,0.1,0.2,0.1c0.8-1,1.9-1,3.2-0.9c0.3,0.3,0.6,0.6,1,1
	c1.5-1,1.5-1,3.4-1c1.2,0.8,1.6,2,1.6,3.4c0,2.4,0,4.9,0,7.4c-0.6,0-1.2,0-2,0c0-1.2,0-2.4,0-3.7c0-1.1,0-2.2,0-3.3
	c0-0.3,0.1-0.6,0-0.8c-0.2-0.5-0.3-1.2-0.9-1.4c-0.6-0.2-0.9,0.3-1.2,0.6c-0.2,0.2-0.3,0.3-0.5,0.5c0,2.6,0,5.3,0,8
	c-0.6,0-1.2,0-1.9,0c0-2.8,0-5.5,0-8c-0.4-0.5-0.7-0.9-0.9-1.2c-1.4,0.4-1.8,1.3-1.8,2.6c0.1,2.2,0,4.3,0,6.5c-0.7,0-1.3,0-1.9,0
	C118.3,90.5,118.3,87,118.3,83.3z"/>
<path class="st3" d="M275.3,83.3c0.5,0,1,0,1.6,0c0,0.3,0,0.5,0,0.8c0.1,0,0.2,0.1,0.2,0.1c0.8-1,1.9-1,3.2-0.8
	c0.3,0.3,0.6,0.6,1.1,1.1c1-1,2.1-1.3,3.5-1c1.1,0.7,1.5,1.9,1.4,3.3c0,2.4,0,4.9,0,7.4c-0.6,0-1.2,0-2,0c0-1.2,0-2.4,0-3.7
	c0-1.1,0-2.2,0-3.3c0-0.3,0.1-0.6,0-0.8c-0.2-0.5-0.3-1.2-0.9-1.4c-0.6-0.2-0.9,0.3-1.2,0.6c-0.2,0.2-0.3,0.3-0.5,0.5
	c0,2.6,0,5.3,0,8c-0.6,0-1.2,0-1.9,0c0-2.8,0-5.5,0-8c-0.4-0.5-0.7-0.9-0.9-1.2c-1.4,0.4-1.8,1.3-1.8,2.6c0.1,2.2,0,4.3,0,6.5
	c-0.7,0-1.3,0-1.9,0C275.3,90.5,275.3,87,275.3,83.3z"/>
<path class="st5" d="M236.6,191.1c0.8,0,1.4,0,2.2,0c0,2,0,3.9,0,5.9c0.8-0.1,1.2-0.7,1.9-0.9c1.6-0.4,3-0.2,4.3,0.7
	c0.2,0.1,0.4,0.3,0.6,0.6c1.2,2.1,1.5,4.8,0.4,7c-0.5,1-1.2,1.8-2.1,2.3c-0.9,0.5-2.1,0.7-3.1,0.4c-0.8-0.2-1.5-0.8-2.3-1.2
	c0,0.2,0,0.4,0,0.8c-0.7,0-1.3,0-2,0C236.6,201.5,236.6,196.4,236.6,191.1z M238.5,204.1c0.6,0.3,1.3,0.7,1.9,1.1
	c0.6,0.4,1.3,0.3,2,0c1.4-0.7,2.3-1.8,2.3-3.4c0-0.5,0.1-1,0-1.5c-0.4-2.6-2.5-3.5-4.4-2.5c-0.7,0.3-1.3,0.9-1.8,1.3
	C238.5,201,238.5,202.5,238.5,204.1z"/>
<path class="st4" d="M29.1,227.4c-0.5-0.5-0.8-0.8-1.1-1.1c-2-1.8-0.8-4.6,1.3-5.4c1.4-0.6,3-0.5,4.5,0c0.2,0.1,0.5,0.2,0.6,0.4
	c0.5,0.4,0.9,0.9,1.4,1.4c0.1,2.9,0.6,2.5-1.7,5.2c0.2,0.1,0.5,0.2,0.6,0.3c1.5,1.2,2.1,2.6,1.7,4.5c-0.1,0.5-0.4,1.1-0.9,1.4
	c-1,0.7-2.1,1.3-3.4,1.2c-1-0.1-2.1,0.1-3.1-0.3c-1-0.4-1.8-1.1-2.3-2c-0.5-1-0.4-2-0.1-3C26.8,228.7,27.9,228.2,29.1,227.4z
	 M31.6,233.6c0.8,0.2,1.4-0.2,2.1-0.7c0.6-0.4,1.1-1.2,1-1.7c-0.1-0.7-0.3-1.6-1.2-1.9c-0.4-0.1-0.7-0.4-1.1-0.5
	c-2.4-1.1-2.2-0.9-3.8,0.7c-0.1,0.1-0.2,0.1-0.2,0.2c-0.6,0.8-0.6,1.8,0,2.6C29.1,233.3,30.2,233.7,31.6,233.6z M28.9,225.3
	c1.6,1.6,2.2,1.8,4.2,1.7c1-1,1.3-2.1,1-3.4c-1.5-1.9-3.6-1.9-5.2,0.1C28.9,224.2,28.9,224.7,28.9,225.3z"/>
<path class="st4" d="M26.4,261.8c0.4-0.4,0.7-0.7,1-0.9c0.7,0.2,1.4,0.4,2,0.7c1.2,0.6,2.2,0.1,3.1-0.7c0.4-0.3,0.8-0.7,1.1-1.2
	c0.2-0.3,0.3-0.7,0.4-1.1c0.2-0.7,0.3-1.5,0.4-2.4c-0.6,0.4-1,0.7-1.5,1c-1.7,1-3.3,0.9-5,0c-1.2-0.6-1.5-1.6-1.7-2.7
	c-0.1-0.5,0-1.1,0-1.6c-0.1-2.3,1.9-4,4.1-4.2c0.9-0.1,1.8-0.1,2.6,0.3c0.8,0.5,1.6,0.9,2.2,1.8c1.3,2.1,1.2,4.4,1.2,6.7
	c-0.4,0.7-0.3,1.5-0.7,2.2c-0.3,0.6-0.6,1.3-1,1.9c-0.9,1.1-2.1,1.6-3.5,1.8c-0.4,0.1-0.9,0-1.3,0C28.5,263.5,27.5,262.9,26.4,261.8
	z M28.2,254.8c0.3,0.3,0.5,0.5,0.7,0.7c0.5,0.6,1.2,0.8,2,0.8c1.6,0,2.6-1.1,3.5-2.1c0.1-0.1,0.1-0.3,0-0.5
	c-0.5-1.3-0.8-2.8-2.6-3.2c-1.1-0.3-2.1-0.1-2.9,0.6c-0.8,0.6-1,1.8-0.8,2.8C28.2,254.2,28.2,254.5,28.2,254.8z"/>
<path class="st6" d="M303.7,27c0,0.3,0.1,0.6,0.1,0.8c0.6,0.4,1.1,0,1.4-0.3c1.2-0.9,2.6-0.5,3.9-0.6c0.1,0,0.2,0.1,0.3,0.2
	c1.4,0.8,2.5,1.9,2.6,3.6c0,0.4,0.3,0.8,0.3,1.2c-0.1,1.2-0.3,2.4-0.8,3.6c-0.5,1-1.3,1.8-2.3,2.2c-1.2,0.6-2.5,0.5-3.8,0
	c-0.4-0.2-0.7-0.4-1.2-0.7c0,0.9,0,1.7,0,2.6c0,0.9,0,1.7,0,2.6c-0.6,0-1.2,0-1.9,0c0-5,0-10.1,0-15.3C302.6,27,303.1,27,303.7,27z
	 M304,30.1c0,1.6,0,3.2,0,4.9c0.2,0.2,0.3,0.4,0.6,0.5c1.1,0.6,2,1.3,3.4,0.6c1-0.5,1.3-1.3,1.8-2.1c0,0,0.1-0.1,0.1-0.1
	c-0.1-1.1-0.1-2.2-0.2-3.4c-1.2-2.2-2.8-2.5-4.8-1.1C304.7,29.6,304.4,29.8,304,30.1z"/>
<path class="st4" d="M36.2,165.6c-0.3,0.5-0.5,0.9-0.7,1.2c-0.8-0.2-1.6-0.4-2.3-0.8c-1.2-0.6-2.2-0.1-3.1,0.6
	c-1,0.8-1.6,1.9-1.6,3.3c0,0.4-0.2,0.8-0.3,1.4c0.8-0.6,1.6-1.2,2.6-1.4c1.7-0.4,3.3-0.2,4.7,1.1c1,1,1.3,2.3,1.1,3.6
	c-0.3,1.8-1.1,3.4-3.1,4.1c-1.1,0.4-2.1,0.3-3.2,0.2c-0.6-0.1-1.3-0.4-1.9-1c-1-1-1.8-2.1-2-3.6c-0.4-2.3-0.4-2.3,0-4
	c0.1-0.7,0.1-1.3,0.3-2c0.6-1.6,1.5-2.8,3-3.6c0.5-0.3,1.1-0.5,1.8-0.5c1.1,0.1,2.3-0.2,3.3,0.7c0.1,0.1,0.4,0.2,0.5,0.3
	C35.7,165.3,35.9,165.4,36.2,165.6z M28.1,173.6c0.2,0.3,0.4,0.5,0.4,0.8c0,1.4,0.8,2.1,2,2.6c1.1,0.5,2.1,0.4,3-0.3
	c1-0.8,1.5-1.9,1.1-3.2c-0.2-0.6-0.3-1.5-1-1.7c-1-0.3-2-0.7-3.1-0.1C29.6,172.1,28.9,172.8,28.1,173.6z"/>
<path class="st3" d="M160.2,206c0,1.9,0,3.6,0,5.3c-0.6,0-1.2,0-1.9,0c0-5.1,0-10.2,0-15.3c0.5,0,1,0,1.5,0c0,0.3,0,0.5,0,0.9
	c0.4-0.1,0.8,0,1-0.2c1-0.6,2.1-0.9,3.3-0.8c1.5,0.1,2.5,0.8,3.3,2c0.7,1.1,0.9,2.3,0.9,3.4c-0.1,1.7-0.5,3.5-2,4.7
	c-1.5,1.3-3.4,1.3-5,0.7C161,206.6,160.7,206.3,160.2,206z M160.2,204c0.6,0.4,0.9,1.3,1.8,1.1c0.9,0.8,1.9,0.2,2.6-0.1
	c0.9-0.4,1.3-1.5,1.4-2.5c0.1-0.8,0.1-1.6,0-2.4c-0.2-1.9-2.3-3.1-3.6-2.3c-0.8-0.1-1.1,0.6-1.8,0.8c-0.3,0.1-0.5,0.5-0.5,0.9
	C160.2,201.1,160.2,202.5,160.2,204z"/>
<path class="st3" d="M158.3,55.1c0.5,0,1,0,1.5,0c0,0.3,0,0.5,0,0.9c0.4-0.1,0.8,0,1-0.2c1-0.6,2.1-0.9,3.3-0.8
	c1.5,0.1,2.6,0.7,3.3,2c0.4,0.6,0.7,1.2,0.7,2c0,0.4,0.3,0.8,0.3,1.2c-0.3,1.8-0.5,3.6-2,4.9c-1.5,1.3-3.4,1.3-5,0.7
	c-0.4-0.1-0.7-0.4-1.1-0.7c0,1.8,0,3.5,0,5.3c-0.7,0-1.3,0-1.9,0C158.3,65.3,158.3,60.2,158.3,55.1z M160.2,63.2
	c0.6,0.4,0.9,1.3,1.8,1.1c1,0.8,2,0.2,2.7-0.2c0.9-0.5,1.3-1.5,1.3-2.5c0.1-0.8,0.1-1.5,0-2.3c-0.2-1.8-2.2-3-3.6-2.4
	c-0.8,0.3-1.5,0.8-2.2,1.3C160.2,59.8,160.2,61.5,160.2,63.2z"/>
<path class="st3" d="M212.4,93c0,0.4,0,0.6,0,1c-0.6,0-1.1,0-1.6,0c0-5.2,0-10.3,0-15.6c0.6,0,1.2,0,1.9,0c0,2,0,4,0,6
	c0.4,0.2,0.5-0.2,0.6-0.3c2.1-1.5,4.7-1.1,6.2,0.5c0.7,0.7,0.8,1.6,1,2.5c0.1,0.5-0.1,1.1,0,1.6c0.2,1.4-0.4,2.6-1,3.7
	c-0.7,1.2-1.9,1.8-3.4,1.9C214.7,94.5,213.5,94.1,212.4,93z M212.6,86.3c0,1.5,0,2.9,0,4.4c0,0.5,0.2,0.8,0.5,1.1
	c0.3,0.2,0.6,0.4,0.9,0.6c2.1,1.2,4.3-0.5,4.5-2.6c0.1-0.8,0.1-1.5,0-2.3c-0.2-1.8-2.2-3.1-3.6-2.5
	C214.1,85.4,213.4,85.8,212.6,86.3z"/>
<path class="st3" d="M128.4,65.9c-0.6,0-1.2,0-1.8,0c0-0.3-0.1-0.6-0.1-1c-0.5,0.3-0.9,0.7-1.3,0.9c-1.1,0.5-2.3,0.7-3.4,0.4
	c-1.1-0.3-2.1-1-2.7-2.1c-0.4-0.7-0.6-1.5-0.7-2.3c-0.1-1.2,0.1-2.3,0.5-3.5c0.6-1.7,2-2.3,3.3-3.2c1.4,0,2.8-0.2,3.9,0.9
	c0.1,0.1,0.2,0,0.3,0.1c0,0,0.1,0,0.1-0.1c0,0,0.1-0.1,0.1-0.1c0-1.9,0-3.7,0-5.6c0.6,0,1.2,0,1.9,0
	C128.4,55.4,128.4,60.6,128.4,65.9z M126.5,58.2c-0.3-0.3-0.4-0.5-0.6-0.6c-1.2-0.9-3-1.4-4.3,0.1c-1.3,1.4-1.4,2.9-1,4.7
	c0.6,2.5,3.7,2.9,5,1.4c0.3-0.3,0.6-0.6,0.9-0.9C126.5,61.3,126.5,59.8,126.5,58.2z"/>
<path class="st3" d="M128.4,206.7c-0.6,0-1.2,0-1.9,0c0-0.3,0-0.5,0-0.8c-0.1,0-0.2-0.1-0.3-0.1c-0.4,0.3-0.8,0.6-1.3,0.9
	c-0.1,0.1-0.2,0-0.3,0c-2.5,0.8-4,0.2-5.4-1.6c-0.6-0.7-0.8-1.8-0.9-2.7c-0.2-1.1,0.1-2.2,0.5-3.4c0.5-1.7,2-2.3,3.3-3.2
	c1.4,0,2.8-0.2,3.9,0.9c0.1,0.1,0.2,0,0.3,0.1c0,0,0.1,0,0.1-0.1c0,0,0.1-0.1,0.1-0.1c0-1.9,0-3.7,0-5.6c0.6,0,1.2,0,1.9,0
	C128.4,196.3,128.4,201.4,128.4,206.7z M126.5,199.1c-0.6-0.5-1-1.1-1.9-1.3c-1.1-0.3-2-0.2-2.9,0.5c-1.3,1.2-1.7,2.7-1.4,4.3
	c0.2,0.8,0.4,1.7,1.2,2.3c1,0.8,2.8,0.9,3.9-0.1c0.4-0.4,0.8-0.7,1.1-1.1C126.5,202.1,126.5,200.6,126.5,199.1z"/>
<path class="st6" d="M212.6,30.7c0,2.3,0,4.6,0,7c-0.7,0-1.5,0-2.2,0c0-5.2,0-10.4,0-15.6c0.7,0,1.4,0,2.2,0c0,2.1,0,4.2,0,6.6
	c0.4-0.4,0.6-0.6,0.9-0.9c1.4-1.1,3-1.2,4.6-0.8c1.2,0.3,2,1.7,2,3c0,2.5,0,5,0,7.6c-0.7,0-1.3,0-2,0c0-2.2,0-4.4,0-6.6
	c0-0.7-0.2-1.4-0.8-1.8c-0.8-0.7-1.4-1.1-2.5-0.4c-0.3,0.2-0.6,0.2-0.8,0.3C213.6,29.6,213.2,30.1,212.6,30.7z"/>
<path class="st1" d="M233.3,227.9c0,1.1,0,2.3-0.3,3.5c-0.4,1.5-1.9,3.5-3.4,3.7c-1.2,0.2-2.5,0.3-3.7-0.5c-1-0.7-1.7-1.5-2.2-2.7
	c-0.8-2.1-0.8-4.3-0.5-6.4c0.2-1.7,1-3.4,2.5-4.5c0.3-0.2,0.7-0.4,1.1-0.5c1.2-0.2,2.5-0.3,3.6,0.3c0.8,0.4,1.4,1.2,1.9,2.1
	c0.8,1.3,1,2.7,0.9,4.2C233.3,227.4,233.3,227.6,233.3,227.9z M231.7,228c-0.2-0.8-0.4-1.5-0.4-2.2c0-1-0.4-1.9-1-2.7
	c-0.4-0.5-1.1-0.7-1.7-0.9c-0.7-0.2-1.4,0-1.9,0.5c-1,0.9-1.7,1.9-1.7,3.4c0,1.2,0.1,2.4,0,3.6c-0.1,0.9,0.3,1.6,0.7,2.3
	c0.6,1.1,1.8,1.8,2.8,1.6c1.1-0.2,2-1,2.4-2.1C231.3,230.4,231.5,229.2,231.7,228z"/>
<path class="st4" d="M26.7,147.4c0.6,0.3,1.1,0.4,1.3,0.8c0.5,0.8,1.3,0.6,2,0.9c0.6,0.3,1.4,0,2.1-0.2c0.9-0.2,1.2-1.1,2-1.5
	c0-0.6,0-1.2,0-1.8c0-1-0.5-1.7-1.4-2c-1.2-0.4-2.4-0.8-3.6-0.2c-0.3,0.1-0.6,0-1,0.1c-0.4,0-0.9,0.1-1.1-0.4c-0.2-0.4,0-0.7,0.1-1
	c0.2-0.6,0.1-1.3,0.1-1.9c0-1.3-0.2-2.6,0.5-3.8c2.6,0,5.2,0,8,0c0,0.5,0,1,0,1.6c-2.1,0-4.3,0-6.4,0c-0.3,1.3,0.2,2.6-0.6,4.1
	c1.3-0.6,2.4-0.5,3.4-0.4c3.5,0.1,5,3.4,4,5.7c0,1.1-0.7,1.9-1.5,2.4c-0.9,0.7-2,1.1-3.2,1c-1.4,0-2.8-0.2-4-1
	c-0.2-0.1-0.5-0.2-0.7-0.4c-0.5-0.4-0.7-0.8-0.2-1.4C26.6,147.9,26.6,147.7,26.7,147.4z"/>
<path class="st5" d="M289.3,191.1c0.6,0,1.2,0,1.9,0c0,3.4,0,6.7,0,10.2c1.8-1.8,3.6-3.6,5.2-5.2c0.9,0,1.6,0,2.3,0
	c0,0.1,0.1,0.2,0,0.2c-1.3,1.4-2.6,2.8-3.8,4.1c1.5,2,3.1,4.1,4.7,6.3c-0.9,0-1.6,0-2.4,0c-1.2-1.6-2.4-3.2-3.7-5
	c-0.4,0.4-0.8,0.8-1.2,1.1c-0.4,0.4-0.8,0.8-1.2,1.2c0,0.9,0,1.7,0,2.7c-0.6,0-1.2,0-1.9,0C289.3,201.5,289.3,196.4,289.3,191.1z"/>
<path class="st4" d="M27.6,82.6c-0.4-0.4-0.7-0.7-1.1-1.1c1-1,2.2-1.8,3.8-1.8c1,0,2-0.1,3,0.3c0.9,0.4,1.7,0.8,2.1,1.7
	c0.2,0.3,0.3,0.6,0.3,1c0,0.5,0,1.1,0,1.7c-0.8,0.7-1.7,1.5-2.6,2.3c0.9,0.1,1.6,0.6,2.2,1.3c0.5,0.5,0.9,1.3,1,2
	c0.1,0.7-0.1,1.5-0.5,2.1c-1.1,1.4-2.5,2.3-4.4,2.4c-1.6,0-3-0.3-4.3-1c-0.3-0.2-0.6-0.5-0.8-0.8c-0.1-0.2-0.1-0.5-0.1-0.8
	c0.1-0.3,0.3-0.5,0.5-0.9c0.5,0.3,0.9,0.6,1.4,0.8c1.5,1,3.1,1.3,4.8,0.4c0.8-0.4,1.2-0.9,1.2-1.8c0-0.4,0-0.8,0-1.3
	c-0.6-0.4-1.2-1.1-1.9-1.3c-0.9-0.3-1.9-0.3-3-0.4c0-0.5,0-0.9,0-1.5c0.8-0.1,1.7-0.2,2.5-0.4c1-0.2,1.6-0.9,2-1.8
	c0.3-0.7-0.6-1.7-1.5-2.1c-1.1-0.5-2.1-0.2-3.1,0.2C28.6,82,28.1,82.3,27.6,82.6z"/>
<path class="st1" d="M341.7,34.7c0.5,0.4,0.8,0.9,1.3,1.1c0.7,0.3,1.6,0.5,2.3,0.7c0.7,0.2,1.3-0.2,2-0.4c1-0.3,1.2-1.3,1.7-2.1
	c-0.4-0.6-0.3-1.4-1.1-1.8c-0.7-0.3-1.4-0.4-2-0.7c-0.7-0.3-1.4,0-2.1-0.3c0-0.5,0-0.9,0-1.5c1.6-0.2,3.3-0.3,4.5-1.8
	c0,0,0.1-0.1,0.1-0.2c0.1-0.7,0-1.5-0.5-1.9c-0.8-0.6-1.9-1-2.9-0.7c-0.7,0.2-1.3,0.6-1.9,0.9c-0.8,0.5-0.8,0.5-1.5-0.1
	c-0.2-0.1-0.3-0.3-0.4-0.4c0.9-1.1,2.7-2,3.9-2.1c1.1,0,2.1-0.1,3.1,0.3c2.1,0.9,2.8,2.5,1.9,4.7c-0.2,0.6-0.5,1-1.1,1.2
	c-0.4,0.1-0.8,0.5-1.3,0.8c1.1,0.2,1.8,0.7,2.5,1.3c1.3,1.3,1.3,4.2-0.9,5.4c-2,1.2-4,1.2-6,0.6c-0.8-0.2-1.4-0.8-2.1-1.2
	c-0.4-0.3-0.3-0.7-0.1-1C341.1,35.2,341.4,35,341.7,34.7z"/>
<path class="st6" d="M323.8,35.4c0.7,0.3,0.6,0.9,0.6,1.5c-0.1,0-0.2,0.1-0.3,0.1c-1.3,0.9-2.8,1.1-4.3,1c-1.6-0.1-2.9-0.7-3.9-1.9
	c-2.1-2.5-1.4-5.9,0.4-7.8c1-1,2.2-1.6,3.6-1.5c1,0.1,1.9,0,2.9,0.5c1.5,0.8,2,2,2.2,3.5c0.1,0.6,0,1.2,0,1.9c-1.4,0-2.7,0-4.1,0
	c-1.4,0-2.7,0-4,0c-0.3,0.9,0,1.5,0.5,2.1c0.5,0.6,1.1,1,2,1.2c0.8,0.2,1.4,0.5,2.2,0c0.3-0.2,0.8,0.1,1.2-0.3
	C323,35.6,323.4,35.6,323.8,35.4z M316.5,31.4c2.3,0,4.5,0,6.9,0c-0.2-0.4-0.4-0.6-0.4-0.9c0-1.2-1.1-1.4-1.8-2
	C319.3,28.3,317.1,28.9,316.5,31.4z"/>
<path class="st1" d="M154.6,178.6c-0.6,0-1.1,0-1.7,0c0-0.4,0-0.8,0-1.4c-1.6,1.4-3.3,2-5.3,1.7c-1.3-0.1-2.9-1.7-2.8-3
	c0-0.5,0.2-1.2,0.5-1.6c0.5-0.6,1-1.2,1.9-1.4c1.1-0.2,2-0.9,3.2-0.6c0.7-0.5,1.4-0.3,2.2-0.3c0.2-1.1-0.3-1.9-1.2-2.3
	c-1.3-0.6-2.4-0.1-3.6,0.2c-0.6,0.2-1.1,0.8-1.8,0.2c-0.1-0.2-0.2-0.5-0.4-0.8c0-0.1,0.1-0.2,0.1-0.3c0.4-0.2,0.8-0.3,1.1-0.5
	c1.5-1,3.2-1,4.9-0.8c1.5,0.1,3,1.9,3,3.4C154.7,173.6,154.6,176,154.6,178.6z M152.7,173.3c-1.2,0.1-2.4,0.1-3.4,0.4
	c-0.9,0.3-2.1,0.4-2.4,1.6c-0.1,0.3-0.1,0.7,0,0.9c0.4,0.6,1,1,1.8,1.1c1.6,0.1,2.9-0.6,3.9-1.8
	C152.7,174.8,152.7,174.1,152.7,173.3z"/>
<path class="st4" d="M25.7,118.4c-0.3-1.3,0.2-2,0.9-2.9c1.2-1.4,2.4-2.8,3.4-4.3c0.8-1.1,1.7-2,2.6-3c0.7,0,1.4,0,2.2,0
	c0,2.8,0,5.6,0,8.4c0.7,0,1.3,0,2,0c0,0.6,0,1.1,0,1.7c-0.6,0-1.2,0-1.9,0c0,1.4,0,2.6,0,3.9c-0.6,0-1.2,0-1.9,0c0-0.6,0-1.2,0-1.8
	c0-0.6,0-1.3,0-2C30.4,118.4,28.1,118.4,25.7,118.4z M32.7,110.1c-1.7,2.2-3.3,4.2-5.1,6.5c1,0,1.8,0,2.6,0c0.8,0,1.7,0,2.5,0
	C32.7,114.4,32.7,112.3,32.7,110.1z"/>
<path class="st3" d="M192.1,200.2c-0.2-0.3-0.4-0.4-0.4-0.5c0-0.9-0.4-1.5-1.2-1.8c-0.8-0.3-1.6-0.6-2.5-0.2c-0.4,0.2-1,0.3-1.4,0.5
	c-0.4,0.2-0.8,0.4-1.2,0.7c-0.8-1.5-0.7-1.8,0.8-2.3c1.2-0.4,2.5-0.7,3.8-0.7c1.9,0.1,3.2,1.3,3.7,3.1c0.4,1.4,0.2,2.8,0.3,4.1
	c0,1.1,0,2.3,0,3.4c-1.8,0.2-1.8,0.2-2-1.1c-0.9,0.5-1.7,1-2.6,1.4c-1.2,0.6-3.7,0-4.5-1c-1.3-1.5-0.8-3.3,0.9-4.4
	c0.6-0.4,2.6-1,3.4-1c0.5,0,0.9-0.2,1.3-0.3C190.8,200.1,191.4,200.2,192.1,200.2z M192,201.5c-1.2,0.1-2.4,0.1-3.4,0.4
	c-0.8,0.3-1.7,0.4-2.3,1.2c-0.4,0.6-0.3,1.7,0.4,2c0.4,0.2,0.8,0.3,1.2,0.3c1.7,0.2,3-0.7,4.1-1.8C192,203,192,202.3,192,201.5z"/>
<path class="st3" d="M192,59.3c-0.1-0.2-0.3-0.3-0.3-0.5c0-0.6-0.3-1.1-0.9-1.4c-0.9-0.5-1.8-0.8-2.7-0.5c-0.9,0.4-2,0.4-2.8,1.3
	c-0.2-0.4-0.4-0.6-0.5-0.9c-0.2-0.6-0.1-1,0.4-1.2c2-0.8,4.1-1.5,6.3-0.7c1,0.4,1.6,1.2,2,2.1c0.3,0.7,0.3,1.5,0.4,2.3
	c0,2,0,3.9,0,5.9c-1.7,0.3-1.7,0.3-2.1-1.1c-1.4,1.2-3,2-4.9,1.6c-1.7-0.4-3-1.3-2.9-3.1c0.1-1.1,0.7-1.9,1.6-2.4c0.9-0.6,2-0.8,3-1
	C189.8,59.5,190.9,59.4,192,59.3z M191.9,60.6c-1.1,0.1-2.2,0.2-3.2,0.4c-0.8,0.2-1.7,0.4-2.3,1.1c-0.6,0.7-0.4,1.7,0.3,2.1
	c0.7,0.5,1.6,0.4,2.3,0.3c1-0.2,1.9-0.7,2.6-1.5c0.6-0.6,0.2-1.3,0.3-2C192,61,192,60.9,191.9,60.6z"/>
<path class="st3" d="M139.6,228.3c0-0.9-0.3-1.6-1-2c-0.6-0.4-1.4-0.7-2.2-0.6c-0.7,0.2-1.5,0.3-2.2,0.7c-0.5,0.3-0.9,0.3-1.4,0.3
	c-0.2-0.3-0.4-0.7-0.5-1c0.1-0.1,0.2-0.2,0.2-0.3c0.4-0.2,0.8-0.3,1.1-0.5c1.5-1,3.2-0.9,4.9-0.8c1.4,0.1,2.9,1.9,3,3.3
	c0,2.4,0,4.9,0,7.4c-0.5,0-1,0-1.6,0c0-0.4-0.1-0.8-0.1-1.2c-0.1,0-0.2,0.1-0.3,0.1c-0.9,0.4-1.6,1.1-2.6,1.3
	c-1.3,0.3-3.2,0.3-4.2-0.6c-0.5-0.4-0.8-1.2-1.1-1.8c-0.2-0.4,0-0.9,0.3-1.3c0.6-1.1,1.1-1.6,2.3-2c0.9-0.3,1.9-0.5,2.8-0.7
	C137.9,228.5,138.7,228.5,139.6,228.3z M139.5,229.7c-1.2,0.1-2.3,0.2-3.4,0.4c-0.5,0.1-1.1,0.3-1.5,0.6c-1.1,0.6-1.1,1.9-0.1,2.5
	c0.4,0.2,0.9,0.4,1.3,0.4c1.5,0,2.8-0.6,3.8-1.8C139.5,231.1,139.5,230.5,139.5,229.7z"/>
<path class="st3" d="M139.5,87.7c0.2-2-1.7-3.1-3.5-2.6c-0.8,0.2-1.6,0.3-2.3,0.8c-0.2,0.2-0.6,0-0.9,0c-0.2-0.4-0.3-0.7-0.5-1
	c0-0.1,0.1-0.2,0.1-0.3c0.4-0.2,0.8-0.3,1.1-0.5c1.5-1,3.2-1,4.9-0.8c1.5,0.1,3,1.9,3,3.4c0,2.4,0,4.8,0,7.3c-0.5,0-1,0-1.6,0
	c0-0.4,0-0.7-0.1-1.3c-0.5,0.3-0.8,0.6-1.2,0.8c-1.5,0.9-3.8,1.3-5.3,0.3c-2.2-1.4-1.9-3.4-0.2-4.7c1.1-0.9,2.4-1.3,3.9-1.3
	C137.8,87.8,138.5,87.2,139.5,87.7z M139.6,88.8c-1.2,0.1-2.2,0.2-3.3,0.4c-0.6,0.1-1.3,0.4-1.8,0.7c-0.6,0.3-1,1.5-0.6,1.9
	c0.5,0.6,1,1,1.9,1c1.6,0,2.9-0.6,3.9-1.8C139.6,90.2,139.6,89.6,139.6,88.8z"/>
<path class="st5" d="M303.8,60.9c-0.2,1.5,0.5,2.4,1.6,3c0.8,0.4,1.7,0.9,2.7,0.7c0.9-0.2,1.7-0.6,2.6-0.9c0.6,0.4,0.6,0.4,0.6,1.5
	c-0.1,0-0.3,0-0.4,0.1c-1.3,1.2-2.9,1-4.5,1c-1-0.1-2-0.6-2.8-1.1c-0.8-0.6-1.3-1.6-1.7-2.5c-0.8-2.2-0.1-4.2,1.3-5.9
	c0.8-0.9,2-1.5,3.3-1.6c0.9,0,1.9,0,2.8,0.3c1.6,0.6,2.8,2,2.8,3.7c0,0.6,0,1.2,0,1.8C309.2,60.9,306.5,60.9,303.8,60.9z
	 M303.8,59.6c2.1,0,4.3,0,6.5,0c-0.2-1.3-0.7-2.3-2-2.7c-1.9-0.6-3.4,0.1-4.6,1.7c0,0.2,0,0.4,0,0.7
	C303.7,59.4,303.7,59.5,303.8,59.6z"/>
<path class="st1" d="M337.4,93.3c-0.6,0.3-1.1,0.6-1.7,0.8c-2,0.7-4,0.4-5.8-0.6c-0.9-0.5-1.4-1.4-1.8-2.3c-1-2.2-0.5-4.3,0.9-6.1
	c1-1.2,2.3-1.8,4-1.8c1.2,0,2.3,0.2,3.4,1c1.1,0.8,1.5,1.8,1.7,2.9c0.1,0.6,0,1.3,0,2c-2.7,0-5.4,0-8.1,0c-0.1,0.6-0.1,1,0.2,1.5
	c0.3,0.7,0.8,1.1,1.4,1.5c1.4,1,2.8,0.8,4.3,0.2c0.3-0.1,0.6-0.3,1-0.5C337.6,92,337.5,92.7,337.4,93.3z M336.5,87.8
	c-0.6-1.6-0.8-2-1.3-2.4c-0.8-0.7-1.7-0.6-2.6-0.5c-1.4,0.1-2.8,1.5-2.9,2.9c2,0,3.9,0,5.9,0C335.8,87.8,336.1,87.8,336.5,87.8z"/>
<path class="st1" d="M89.8,32.8c-2.8,0-5.4,0-8.1,0c-0.3,1,0.1,1.7,0.7,2.3c1.5,1.4,2.9,1.8,5.1,0.8c0.3-0.1,0.6-0.3,1-0.5
	c0.6,0.6,0.6,0.6,0.7,1.5c-0.6,0.3-1.2,0.6-1.8,0.8c-2,0.8-4,0.3-5.8-0.7c-0.9-0.5-1.4-1.4-1.8-2.3c-1.1-2.4-0.3-5,1.3-6.4
	c1-0.9,2.1-1.5,3.5-1.4c0.8,0.1,1.5,0,2.3,0.3c1.7,0.6,2.5,1.9,2.9,3.5C89.9,31.3,89.8,32.1,89.8,32.8z M88.2,31.4
	c-0.2-0.5-0.2-1.1-0.5-1.5c-0.2-0.4-0.6-0.7-0.9-0.9c-0.2-0.2-0.5-0.4-0.8-0.5c-0.3-0.1-0.6,0-1,0c-1.9,0-3.2,1-3.7,2.9
	C83.6,31.4,85.8,31.4,88.2,31.4z"/>
<path class="st1" d="M116,32.8c-2.9,0-5.6,0-8.4,0c0.1,1.3,0.6,2.1,1.6,2.9c1,0.7,2.1,1,3.3,0.5c0.7-0.2,1.5-0.4,2.2-0.8
	c0.2,0.3,0.4,0.7,0.6,1c-0.5,1.2-1.7,1.5-2.6,1.6c-1.2,0.2-2.4,0.2-3.6-0.2c-1.2-0.4-2-1.2-2.7-2.1c-0.6-0.7-1-1.7-0.8-2.7
	c0.1-0.7-0.1-1.4,0.2-2.2c0.6-1.9,1.8-3.1,3.7-3.6c3.2-0.9,6.4,0.8,6.6,4.5C116,32,116,32.3,116,32.8z M114,31.5
	c0.2-1-0.1-1.7-0.8-2.2c-0.8-0.7-1.8-0.7-2.8-0.7c-0.5,0-2.1,0.7-2.1,1c-0.1,0.7-1.3,1-0.7,1.9C109.7,31.5,111.8,31.5,114,31.5z"/>
<path class="st5" d="M257.2,228.4c0.1-1-0.3-1.7-1-2.1c-0.8-0.4-1.7-0.8-2.6-0.3c-0.7,0.4-1.4,0.6-2.1,0.8c-0.3,0.1-0.6,0-0.9,0
	c-0.2-0.4-0.4-0.8-0.5-1.1c1-0.5,1.9-1,3-1.3c1.5-0.4,3-0.4,4.3,0.2c1.1,0.5,1.9,1.6,1.9,2.9c0.1,2.5,0,5,0,7.5c-0.5,0-1,0-1.6,0
	c0-0.4,0-0.8,0-1.3c-0.5,0.3-1,0.6-1.4,0.9c-1.2,1-2.7,0.8-4.1,0.8c-0.4,0-0.9-0.3-1.2-0.6c-0.4-0.3-0.8-0.8-1.2-1.2
	c0-0.4,0-0.8,0-1.2c-0.1-1.8,0.8-2.3,2.1-2.8c1-0.4,2-0.9,3.1-0.7C255.5,228.2,256.3,228.4,257.2,228.4z M257.5,229.7
	c-0.6,0-1.2-0.1-1.6,0c-0.4,0.2-0.9,0.3-1.3,0.3c-0.7,0-1.4,0.4-2,0.6c-0.9,0.2-1.1,0.9-1.2,1.6c-0.1,0.6,0.5,0.9,1.1,1.1
	c0.9,0.3,1.7,0.5,2.5,0c0.9-0.4,1.7-0.9,2.5-1.4C257.5,231.2,257.5,230.5,257.5,229.7z"/>
<path class="st6" d="M246.7,32.8c0.4,1.5-0.7,2.5-1.3,3.8c-1.1,0.6-2,1.6-3.5,1.5c-0.5,0-1,0-1.5,0c-0.5,0-0.9-0.1-1.3-0.3
	c-2.1-1.1-3.3-2.7-3.2-5.1c0-0.7-0.3-1.4,0.3-2c0.3-2,1.8-3.1,3.4-3.5c1.7-0.5,3.6-0.4,5.2,1C246.2,29.3,246.9,30.8,246.7,32.8z
	 M244.8,32.2c-0.1-0.4-0.4-1.1-0.6-1.8c-0.4-1-1.1-1.7-2.1-1.8c-1.1-0.2-2.2,0.1-3,1c-0.5,0.6-0.6,1.3-0.9,1.9
	c-0.5,1.2-0.1,2.2,0.4,3.2c0.8,1.6,3,2.3,4.4,1.4C244,35.2,244.7,34.1,244.8,32.2z"/>
<path class="st4" d="M33.5,54.6c-0.6-0.3-0.9-0.9-1.5-1.2c-1.3-0.6-2.4-0.1-3.5,0.6c-0.4,0.3-0.8,0.6-1.3,0.9
	c-0.4-0.4-0.7-0.7-1.1-1.1c1.4-1.2,2.7-2.3,4.8-2.3c1.4,0,2.7,0.3,3.7,1.4c0.5,0.5,0.8,1.1,0.8,1.8c0,0.4,0.4,1,0.2,1.3
	c-0.4,0.7-0.3,1.6-0.8,2.3c-0.5,0.6-0.8,1.4-1.4,2c-1.3,1.3-2.6,2.6-4,4c2.4,0,4.6,0,6.9,0c0,0.6,0.1,1.1,0.1,1.6
	c-3.4,0-6.7,0-10.1,0c-0.3-0.7-0.1-1.2,0.5-1.7c0.8-0.7,1.6-1.4,2.4-2.1c0.8-0.7,1.5-1.5,2.2-2.2c0.8-0.8,1.4-1.8,1.8-2.8
	C33.5,56.3,33.4,55.4,33.5,54.6z"/>
<path class="st6" d="M250,28.6c0-0.6,0-1.1,0-1.7c0.9,0,1.9,0,2.8,0c0.2-1,0-1.9,0.4-2.8c0.6-1.4,1.7-2.4,3.2-2.5
	c1.3,0,2.7-0.2,4,0.5c0,0.4,0,0.9,0,1.4c0,0-0.1,0.1-0.2,0.1c-0.7,0-1.3-0.1-2-0.3c-1.1-0.3-2.2,0.1-3,1.1c0,0.8,0,1.5,0,2.4
	c0.7,0.2,1.4,0.1,2,0.1c0.7,0,1.4,0,2.2,0c0,0.5,0,1,0,1.6c-1.3,0-2.7,0-4.2,0c0,3.1,0,6.1,0,9.1c-0.8,0-1.5,0-2.3,0c0-3,0-6,0-9
	C252,28.6,251.1,28.6,250,28.6z"/>
<path class="st5" d="M288.3,229.6c0-1.2,0.2-2.3,0.9-3.4c0.7-1.2,1.8-1.7,2.9-2c2.4-0.7,5,0.5,6.3,2.7c0.3,0.6,0.2,1.2,0.4,1.8
	c0.2,0.6,0.5,1,0.1,1.7c-0.3,0.6-0.1,1.4-0.5,2.1c-1,1.7-2.4,2.7-4.4,2.7c-0.8,0-1.5,0-2.3-0.3c-1.9-0.6-3.3-2.6-3.3-4.4
	C288.3,230.3,288.3,230,288.3,229.6z M296.8,229.6c0.1-1.7-0.5-2.9-2.2-3.6c-1.9-0.8-3.9,0.5-4.4,2.5c-0.2,0.7-0.2,1.5,0,2.3
	c0.2,0.7,0.5,1.6,1,2c1.7,1.4,4.2,1.1,5.2-1.2C296.8,231,296.8,230.3,296.8,229.6z"/>
<path class="st6" d="M292.9,37.8c-1.7-3.6-3.3-7.1-5-10.7c0.7-0.2,1.5,0,2.1-0.1c1.1,2.8,2.4,5.5,3.8,8.6c1.3-3.1,2.1-5.9,3.4-8.6
	c0.6,0,1.2,0,1.9,0c-0.4,1.1-0.6,2.2-1.1,3.1c-1.2,2.4-1.9,5-3.1,7.4c-0.3,0.6-0.5,1.2-0.7,1.8c-0.4,1.1-1.3,1.8-2.1,2.6
	c-0.3,0.3-0.8,0.4-1.3,0.4c-0.8,0.1-1.6,0-2.4,0c-0.5-0.7,0.4-1.2,0.2-2c0.7,0,1.3,0.8,1.8,0c0.8,0.1,1.2-0.5,1.6-0.9
	C292.3,39,292.6,38.4,292.9,37.8z"/>
<path class="st6" d="M186.4,30.6c0,2.4,0,4.7,0,7.1c-0.7,0-1.4,0-2.2,0c0-3.5,0-7.1,0-10.7c0.1,0,0.2-0.1,0.3-0.1c0.5,0,1,0,1.6,0
	c0,0.4,0,0.8,0,1.5c0.5-0.2,0.9-0.2,1.1-0.4c1.3-1.3,2.9-1.1,4.5-1c1.1,0.1,2.2,1.7,2.3,3c0,2.3,0,4.6,0,6.9c0,0.3,0,0.5,0,0.8
	c-0.6,0-1.2,0-2,0c0-2.1,0-4.2,0-6.3c0-0.5,0-0.9-0.3-1.4c-0.8-1.4-1.8-1.9-3.2-1.1C187.8,29.4,187.1,30,186.4,30.6z"/>
<path class="st5" d="M267.3,207.1c-1,0.2-2-0.2-2.9-0.9c-1.1-0.8-1.8-1.8-2.2-3.2c-0.8-2.7,0.9-6.2,3.6-7c1.3-0.4,2.7-0.4,4,0.3
	c1.4,0.7,2.2,1.9,2.7,3.2c0.6,1.5,0.5,3.1-0.2,4.5c-0.9,1.8-2.3,3-4.4,3C267.8,207.1,267.6,207.1,267.3,207.1z M264,202
	c-0.1,0.5,0.4,1.2,0.7,1.8c0.4,0.9,1.2,1.5,2.1,1.6c1.1,0.1,2.1-0.1,2.9-0.9c1.3-1.4,1.6-3.8,0.5-5.4c-0.9-1.4-3.6-2.4-5.3-0.3
	C264.4,199.6,264.1,200.6,264,202z"/>
<path class="st1" d="M150,38c-2.3,0.3-3.8-0.9-4.8-2.5c-1.1-1.7-1.1-3.8-0.1-5.7c0.9-1.7,2.3-3,4.5-2.9c0.8,0,1.6-0.1,2.5,0.3
	c1.4,0.7,2.2,1.7,2.8,3c0.8,1.6,0.6,3.2,0.1,4.7c-0.3,0.9-1.2,1.8-2,2.4C152.1,37.9,151,38.3,150,38z M146.5,32.7
	c-0.2,0.8,0.3,1.4,0.7,2.1c1.1,1.9,3.5,2.2,5.1,0.6c0.7-0.7,1-1.7,1.1-2.6c0.2-1.1-0.2-2.1-0.8-2.9c-1.3-1.8-3.9-1.9-5.2,0
	C146.8,30.7,146.4,31.6,146.5,32.7z"/>
<path class="st5" d="M270,231.5c0-2.4,0-4.8,0-7.3c0.7,0,1.4,0,2.2,0c0,3.6,0,7.1,0,10.7c-0.6,0-1.2,0-1.9,0c0-0.5,0-1,0-1.8
	c-0.5,0.5-0.8,0.8-1.2,1.2c-1.3,1.1-2.8,1.2-4.3,0.9c-1.2-0.2-2.4-2.2-2.4-3.7c0-2.4,0-4.8,0-7.3c0.6,0,1.2,0,2,0c0,1.8,0,3.6,0,5.5
	c0,0.9,0.1,1.8,0.3,2.6c0.2,0.8,1,1.1,1.7,1.3c0.7,0.2,1.5-0.1,2-0.6C268.9,232.5,269.4,232,270,231.5z"/>
<path class="st3" d="M267.3,94.4c-1.5,0.1-2.6-0.6-3.6-1.5c-1.1-1-1.7-2.3-1.6-3.8c0-0.7-0.3-1.5,0.3-2.2c0.2-1.7,1.4-2.5,2.7-3.3
	c1.2-0.7,2.5-0.6,3.8-0.3c1.3,0.2,2.3,1,3,2.1c0.8,1.3,1.3,2.8,0.9,4.3c-0.2,1-0.6,2.1-1.3,2.9c-0.9,0.9-1.3,1.2-2.6,1.6
	C268.4,94.4,267.8,94.4,267.3,94.4z M264.1,89c0,0.9,0.1,1.3,0.7,2.2c1.1,1.9,3.6,2.1,5.1,0.6c0.7-0.7,0.9-1.7,1.1-2.6
	c0.2-1.1-0.2-2.1-0.8-2.9c-1.2-1.7-3.6-1.8-5-0.2C264.6,86.6,264.1,88.1,264.1,89z"/>
<path class="st3" d="M228.4,83.2c1.5-0.1,2.6,0.6,3.6,1.5c1.1,1,1.7,2.3,1.6,3.8c0,0.7,0.3,1.5-0.3,2.2c-0.2,1.7-1.4,2.5-2.7,3.3
	c-1.2,0.7-2.5,0.6-3.8,0.3c-1.3-0.2-2.3-1-3-2.1c-0.8-1.3-1.3-2.8-0.9-4.3c0.2-1,0.6-2.1,1.3-2.9c0.9-0.9,1.3-1.2,2.6-1.6
	C227.3,83.2,227.8,83.3,228.4,83.2z M231.6,88.8c0-1-0.2-1.5-0.7-2.3c-1.1-1.9-3.6-2.1-5.1-0.6c-0.7,0.7-1,1.7-1.1,2.6
	c-0.2,1.1,0.2,2.1,0.8,2.9c1.2,1.7,3.4,1.8,4.9,0.4C231.4,91,231.7,90,231.6,88.8z"/>
<path class="st2" d="M241.6,167.8c1.5-0.2,2.6,0.6,3.6,1.5c1.2,1.1,1.6,2.5,1.6,4.1c0,1.5-0.4,2.8-1.6,3.9c-1.1,1-2.2,1.5-3.8,1.6
	c-3.5,0.1-5.5-2.8-5.5-5.7C235.9,170.6,237.8,167.5,241.6,167.8z M244.7,173.4c0.1-1.4-0.5-2.5-1.5-3.4c-1-0.8-2.9-0.9-3.9,0
	c-1.3,1.2-2.2,3.6-0.8,5.8c1.2,1.8,3.5,2,4.9,0.6C244.4,175.5,244.8,174.5,244.7,173.4z"/>
<path class="st2" d="M267.2,178.9c-1.4,0.2-2.5-0.5-3.5-1.5c-1.2-1.1-1.6-2.5-1.6-4.1c0-1.5,0.4-2.8,1.5-4c1.1-1,2.2-1.6,3.8-1.6
	c3.6-0.1,5.5,2.9,5.5,5.7C272.9,175.9,271.1,179.2,267.2,178.9z M270.9,173.3c0.1-0.7-0.2-1.3-0.6-2c-0.6-1.2-1.4-1.8-2.8-1.9
	c-1.5-0.1-2.3,0.9-3.2,1.8c-0.3,0.3-0.5,2.5-0.3,3.1c0.2,0.8,0.6,1.5,1.2,2.1c1.1,1.1,3.2,1.1,4.3,0.1
	C270.6,175.6,271,174.6,270.9,173.3z"/>
<path class="st3" d="M196.5,55.2c0.2,0,0.4-0.1,0.5-0.1c1.6,0,1.6,0,2.1,1.6c0,0.1,0.1,0.2,0.1,0.3c1,2.2,2,4.4,3.1,6.8
	c0.6-1.5,1.2-2.9,1.7-4.3c0.6-1.4,1.1-2.8,1.7-4.3c0.6,0,1.2,0,2,0c-0.4,0.9-0.8,1.6-1.1,2.4c-0.9,2.9-2.5,5.5-3.3,8.5
	c-0.7,0.7-0.7,1.7-1.3,2.4c-0.9,1.3-2,2-3.6,2c-0.5,0-1.1,0-1.8,0c0.2-0.6,0.3-1.1,0.5-1.6c0.9,0,1.9,0.1,2.7-0.6
	c0.8-0.6,1-1.5,1.5-2.3C199.8,62.4,198.2,58.8,196.5,55.2z"/>
<path class="st3" d="M205.8,196c0.7,0,1.2,0,1.8,0c0,0,0.1,0.1,0.1,0.1c-0.6,1.4-1.1,2.9-1.7,4.3c-1.1,2.6-2.1,5.2-3.2,7.8
	c-0.6,1.5-2.1,3.2-4.3,3.1c-0.5,0-1,0-1.5,0c0-0.2,0.2-1.4,0.3-1.7c2.3,0.4,3.4-1.1,4.1-2.9c-1.6-3.6-3.3-7.1-5-10.7
	c0.7,0,1.3,0,2.1,0c1.2,2.7,2.4,5.5,3.7,8.5c0.4-0.8,0.9-1.5,1.1-2.3C204,200.1,205,198.1,205.8,196z"/>
<path class="st1" d="M170.9,177c0.2-0.2,0.4-0.4,0.4-0.5c0-0.7,0.4-0.5,0.8-0.5c0.2,0,0.5,0.2,0.7,0.3c3,1.2,3,1.4,6,0.3
	c0.1-1.3,0-1.2-1-1.9c-0.9-0.6-2-0.5-2.9-0.9c-0.8-0.4-1.6-0.6-2.4-1c-1.3-0.8-1.5-2.3-0.5-3.5c0.9-1,2-1.5,3.3-1.4
	c0.2,0,0.4,0,0.7,0c1.4-0.3,2.5,0.5,3.7,1c0.5,0.2,0.6,0.9,0.4,1.2c-0.3,0.5-0.6,0.5-1.2,0.2c-1-0.4-2-0.9-3.1-0.8
	c-0.6,0-1.1,0.2-1.6,0.4c-0.6,0.2-0.7,1.4-0.1,1.8c0.7,0.4,1.4,0.6,2.1,0.8c1.3,0.3,2.5,0.7,3.7,1.3c0.8,0.4,0.9,1,1.2,1.7
	c0.4,0.6-0.1,1-0.2,1.4c-0.5,1.4-1.7,1.9-3,2.1C175.5,179.3,173,178.6,170.9,177z"/>
<path class="st1" d="M157.9,177.1c0.2-0.4,0.4-0.7,0.6-1.2c0.5,0.2,1,0.3,1.4,0.6c0.9,0.5,1.9,0.7,2.9,0.8c1.1,0.1,2-0.4,3-0.8
	c0.2-0.9-0.1-1.5-1-1.9c-1-0.3-1.9-0.8-2.9-1c-0.9-0.2-1.7-0.7-2.5-1.1c-1.3-0.7-1.4-2.2-0.5-3.3c0.9-1,1.9-1.6,3.3-1.5
	c0.2,0,0.3,0,0.5,0c1.4-0.2,2.6,0.3,3.7,1c0.6,0.4,0.9,0.8,0.7,1.2c-0.2,0.5-0.6,0.5-1.4,0.2c-0.8-0.3-1.5-0.5-2.3-0.7
	c-0.8-0.2-1.6,0.1-2.3,0.4c-0.8,0.2-0.7,1.6-0.1,1.8c0.7,0.3,1.4,0.6,2.1,0.7c1.1,0.3,2.2,0.7,3.3,1.1c1.1,0.4,1.6,1.3,1.6,2.2
	c0,1-0.5,2-1.5,2.5c-0.7,0.4-1.5,0.7-2.3,0.7c-1.2-0.1-2.3,0.2-3.5-0.3C159.7,178.2,158.7,177.8,157.9,177.1z"/>
<path class="st5" d="M298.5,65.9c-0.7,0-1.3,0-2,0c0-2.3-0.1-4.6,0-6.9c0.1-0.9-0.7-1.2-0.8-1.8c-0.7-0.1-1.4-0.7-2.2-0.3
	c-1,0.5-1.9,1.1-2.7,2.1c0,2.2,0,4.5,0,6.9c-0.6,0-1.2,0-1.9,0c0-3.6,0-7.1,0-10.7c0.5,0,1,0,1.5,0c0.2,0.5-0.2,1.3,0.5,1.5
	c0.5-0.3,1-0.6,1.4-0.9c1.2-1,2.6-0.6,3.8-0.6c1,0,2.2,1.7,2.2,2.7C298.5,60.5,298.5,63.1,298.5,65.9z"/>
<path class="st5" d="M259.5,65.9c-0.7,0-1.3,0-2,0c0-2.1,0-4.3,0-6.4c0-1-0.3-2-1.5-2.5c-0.7-0.3-1.3-0.4-1.9,0
	c-0.3,0.2-0.8,0.2-1.1,0.5c-0.5,0.4-0.9,0.9-1.5,1.4c0,2.3,0,4.6,0,7c-0.6,0-1.2,0-1.9,0c0-3.6,0-7.1,0-10.7c0.6,0,1.2,0,1.9,0
	c0,0.5,0,1.1,0,1.8c0.4-0.3,0.7-0.4,0.9-0.6c1.2-1.3,2.8-1.3,4.4-1.2c0.4,0,0.8,0.4,1.2,0.7c0.4,0.3,0.7,0.7,1,1
	c-0.1,1,0.5,1.8,0.4,2.8c-0.1,1,0,2.1,0,3.1C259.5,63.8,259.5,64.7,259.5,65.9z"/>
<path class="st6" d="M200.2,24c0.7,0,1.3,0,2,0c0,0.9,0,1.9,0,2.9c1.7,0,3.2,0,4.9,0c0,0.5,0,1,0,1.5c0,0,0,0-0.1,0
	c-1.6,0-3.1,0-4.8,0c0,2.1,0,4,0,6c0,0.6,0.3,1.1,0.6,1.4c0.4,0.3,0.9,0.5,1.4,0.6c0.6,0,1.1,0.2,1.7-0.2c0.3-0.2,0.9-0.1,1.5-0.1
	c0,0.5,0.1,1-0.1,1.2c-0.4,0.4-1,0.7-1.5,0.7c-1.2,0-2.4,0.2-3.6-0.2c-1.1-0.3-1.6-1.1-1.9-1.9c-0.3-0.8-0.3-1.7-0.4-2.6
	c-0.1-1.5,0-3,0-4.7c-1,0-1.9,0-2.9,0c0-0.6,0-1.1,0-1.7c0.8,0,1.6,0,2.4,0c0.5,0,0.8-0.3,0.8-0.8C200.2,25.4,200.2,24.7,200.2,24z"
	/>
<path class="st3" d="M184.5,224.2c0.5,0,1,0,1.6,0c0,0.5,0,1.1,0,1.8c0.5-0.4,0.8-0.5,1-0.8c1.4-1.3,3.1-1.3,4.8-1
	c1.1,0.2,2.1,1.8,2.1,3c0,2.5,0,5,0,7.6c-0.6,0-1.2,0-2,0c0-2.2,0-4.4,0-6.6c0-1-0.5-1.7-1.3-2.1c-0.4-0.2-0.7-0.5-1.2-0.3
	c-0.5,0.2-1.1,0.3-1.5,0.6c-0.6,0.4-1,1-1.6,1.5c0,2.3,0,4.6,0,7c-0.6,0-1.2,0-1.9,0C184.5,231.4,184.5,227.8,184.5,224.2z"/>
<path class="st3" d="M194,94c-0.7,0-1.3,0-2,0c0-2.3,0-4.5,0-6.7c0-1-0.5-1.7-1.3-2.1c-0.4-0.2-0.7-0.5-1.2-0.3
	c-0.5,0.2-1.1,0.3-1.5,0.6c-0.6,0.4-1,1-1.5,1.5c0,2.3,0,4.6,0,7c-0.3,0-0.6,0.1-0.9,0.1c-0.3,0-0.6,0-1,0c0-3.6,0-7.1,0-10.7
	c0.5,0,1,0,1.6,0c0,0.5,0,1,0,1.7c0.4-0.2,0.6-0.3,0.8-0.5c1.3-1.5,3.1-1.4,4.9-1.3c0.5,0.1,1.2,0.6,1.5,1.1
	c0.4,0.7,0.8,1.5,0.8,2.5C193.9,89.2,194,91.6,194,94z"/>
<path class="st1" d="M66.5,36.2c0.2-0.4,0.4-0.7,0.6-1.2c0.5,0.2,1,0.3,1.4,0.6c1.1,0.6,2.3,0.9,3.6,0.8c0.8,0,1.5-0.2,2.1-0.9
	c0.4-0.4,0.4-0.8,0-1.2c-0.7-0.7-1.6-0.9-2.5-1.1c-1-0.3-2.9-0.8-3.5-1.3c-1.5-1.2-1.7-2.5,0-4c0.8-0.7,1.6-0.9,2.6-0.9
	c1.6-0.1,3.1,0.3,4.5,1c0.2,0.1,0.4,0.3,0.6,0.5c-0.2,0.4-0.4,0.8-0.6,1.2c-0.3-0.1-0.6-0.2-0.9-0.3c-1-0.3-1.9-0.8-3-0.7
	c-0.6,0-1.1,0.1-1.7,0.3c-0.6,0.2-0.8,1.4-0.2,1.8c0.3,0.2,0.7,0.4,1.1,0.5c1.1,0.4,2.3,0.6,3.4,1c0.7,0.3,1.4,0.7,2,1
	c0.1,0.1,0.1,0.4,0.2,0.5c0.4,0.7,0.3,1.4,0.1,2c-0.1,0.5-0.3,1.3-1.1,1.3c-0.8,0.8-1.8,1-2.9,1c-1.3,0-2.6,0.1-3.8-0.7
	c-0.1-0.1-0.4,0-0.5,0C67.5,37,67,36.6,66.5,36.2z"/>
<path class="st3" d="M144.6,205.2c0.3-0.3,0.5-0.5,0.7-0.8c0.4-0.4,0.7-0.3,1.1,0c1.2,0.8,2.5,1.2,4,1.1c1-0.1,2-0.3,2.6-1.2
	c-0.3-1.7-1.7-1.7-2.9-2.1c-0.9-0.3-1.8-0.4-2.6-0.8c-0.7-0.4-1.4-1-2-1.5c0-0.4,0-0.8,0-1.2c0.1-0.9,0.5-1.6,1.4-2.1
	c1.7-1,5.3-1,6.8,0.5c0.2,0.2,0.4,0.2,0.8,0.4c-0.2,0.3-0.4,0.5-0.5,0.7c-0.4,0.5-0.7,0.4-1.2,0.2c-0.9-0.4-1.8-0.9-2.8-0.8
	c-0.6,0.1-1.2,0.2-1.8,0.3c-0.6,0.2-0.8,0.9-0.3,1.4c0.6,0.7,1.4,1,2.3,1.2c1.1,0.3,2.2,0.7,3.3,1.1c1,0.4,1.7,1.1,1.7,2.4
	c0,1.2-0.7,1.9-1.7,2.4c-0.8,0.4-1.6,0.6-2.5,0.7c-1.7,0.1-3.2-0.1-4.7-1C145.7,205.8,145.3,205.6,144.6,205.2z"/>
<path class="st3" d="M145.5,58.9c0-0.3,0-0.7,0-1c0-1,0.5-1.7,1.5-2.2c2.2-1,4.8-0.9,6.8,0.6c0.2,0.1,0.4,0.2,0.8,0.4
	c-0.3,0.3-0.5,0.6-0.7,0.8c-0.3,0.4-0.7,0.4-1.1,0.1c-1-0.6-2.1-1-3.2-0.8c-0.5,0.1-1,0.2-1.5,0.3c-0.5,0.2-0.7,0.9-0.3,1.3
	c0.6,0.7,1.4,1,2.3,1.3c1.3,0.3,2.5,0.7,3.7,1.3c1.5,0.9,1.8,2.5,0.7,3.8c-0.8,1-1.9,1.4-3.1,1.5c-0.3,0-0.5,0-0.8,0
	c-1.9,0.1-3.6-0.3-5-1.6c-0.1-0.1-0.3-0.1-0.7-0.2c0.4-0.4,0.6-0.7,0.9-0.9c0.3-0.3,0.6-0.3,1,0c1.2,0.8,2.5,1.2,3.9,1.1
	c1,0,2-0.3,2.6-1.2c-0.3-1.6-1.6-1.8-2.8-2.1C147.9,60.8,147.1,60.5,145.5,58.9z"/>
<path class="st6" d="M278.5,28.6c-1,0-1.9,0-2.9,0c0-0.5,0-1,0-1.6c0.9,0,1.8,0,2.7,0c0.1-1,0.3-2,0.4-3c0.6,0,1.1,0,1.6,0
	c0,0.9,0,1.8,0,2.9c0.9,0.1,1.7,0,2.6,0c0.9,0,1.7,0,2.6,0c0,0.5,0,1,0,1.6c-1.7,0-3.4,0-5.2,0c0,1.8,0.1,3.5,0,5.1
	c-0.1,1.8,1.8,3.3,3.6,2.6c0.3-0.1,0.7-0.1,1.1-0.2c0.5,0,0.8,0.2,0.9,0.7c0.1,0.5-0.2,0.9-0.6,0.9c-0.6,0-1.1,0.5-1.8,0.4
	c-0.5-0.1-1.1-0.1-1.6,0c-1.8,0.1-3.5-1.5-3.4-3.5C278.5,32.6,278.5,30.6,278.5,28.6z"/>
<path class="st1" d="M141.8,28.6c-1.7,0-3.4,0-5.2,0c0,1.7,0.1,3.4,0,5.1c-0.1,1.9,1.8,3.3,3.6,2.7c0.4-0.1,0.8-0.2,1.2-0.2
	c0.4,0,0.7,0.3,0.8,0.7c0.1,0.5-0.2,0.8-0.5,0.9c-0.5,0.2-1,0.3-1.5,0.4c-0.9,0.1-1.7,0-2.6,0c-0.3,0-0.7-0.1-1-0.3
	c-1.2-0.8-2.1-1.7-2-3.3c0.1-1.9,0-3.8,0-5.8c-1,0-1.9,0-2.9,0c0-0.6,0-1.1,0-1.6c0.9,0,1.8,0,2.7,0c0.1-1,0.3-2,0.4-3
	c0.6,0,1.1,0,1.6,0c0,0.9,0,1.8,0,2.9c0.9,0.1,1.7,0,2.6,0c0.9,0,1.7,0,2.7,0C141.8,27.4,141.8,27.9,141.8,28.6z"/>
<path class="st5" d="M275.6,224.1c1,0,1.9,0,2.8,0c0.1-1,0.2-1.9,0.3-2.9c0.6,0,1.2,0,1.7,0c0,0.9,0,1.9,0,2.8c1.7,0,3.4,0,5.2,0
	c0,0.6,0.1,1.1,0.1,1.6c-1.7,0-3.4,0-5.2,0c0,0.7,0,1.3,0,1.9c0,0.7,0,1.3,0,2s-0.1,1.3,0,2c0.2,1.4,2,2.5,3.5,1.9
	c0.5-0.2,0.9-0.2,1.4-0.2c0.2,0,0.6,0.3,0.7,0.6c0.2,0.4,0,0.8-0.4,0.9c-0.4,0.2-0.9,0.4-1.3,0.4c-1,0.1-2.1,0.1-3.1,0
	c-1.1-0.1-2.7-1.8-2.7-3.1c0-1.8,0-3.6,0-5.4c0-0.3,0-0.6,0-1c-1,0-1.9,0-2.9,0C275.6,225.2,275.6,224.8,275.6,224.1z"/>
<path class="st3" d="M259.4,84.9c-1.7,0-3.4,0-5.2,0c0,1.7,0.1,3.4,0,5.1c-0.1,2,1.8,3.3,3.6,2.7c0.4-0.1,0.8-0.2,1.2-0.2
	c0.5,0,0.7,0.4,0.8,0.8c0,0.5-0.3,0.8-0.6,0.8c-0.6,0-1,0.3-1.5,0.4c-0.9,0-1.8,0.1-2.6,0c-1.2-0.2-2-1-2.4-2
	c-0.2-0.5-0.4-1.2-0.4-1.8c0.1-1.8,0-3.7,0-5.6c-1,0-1.9,0-2.9,0c0-0.6,0-1.1,0-1.6c0.9,0,1.8,0,2.7,0c0.1-1,0.3-2,0.4-3
	c0.6,0,1.1,0,1.6,0c0,0.9,0,1.8,0,2.9c0.9,0.1,1.7,0,2.6,0c0.9,0,1.7,0,2.7,0C259.4,83.8,259.4,84.3,259.4,84.9z"/>
<path class="st3" d="M236.2,85c0-0.6,0-1.1,0-1.6c0.9,0,1.9,0,2.8,0c0.2-1,0.4-2,0.6-3c0.5,0,1,0,1.5,0c0,0.9,0,1.8,0,2.9
	c0.9,0.1,1.7,0,2.6,0c0.9,0,1.7,0,2.7,0c0,0.5,0,1,0,1.6c-1.7,0-3.4,0-5.2,0c0,1.9,0,3.8,0,5.6c0,1,1,2.2,2,2.3c0.7,0,1.4,0.3,2-0.2
	c0.1-0.1,0.4-0.1,0.6-0.1c0.5,0,0.8,0.2,0.9,0.7c0.1,0.5-0.2,0.8-0.6,1c-1.2,0.5-3.9,0.5-4.9,0c-0.5-0.3-0.9-0.8-1.3-1.3
	c-0.5-0.7-0.7-1.4-0.7-2.3c0.1-1.8,0-3.6,0-5.4C238.2,85,237.3,85,236.2,85z"/>
<path class="st4" d="M26.9,37.7c0-0.5,0-1,0-1.5c1.3,0,2.5,0,3.9,0c0-1.7,0-3.4,0-5.1c0-1.7,0-3.4,0-5.1c-1,0-1.9,0-2.9,0
	c0-0.6,0-1.1,0-1.7c1.1,0.1,2.1-0.1,3-0.6c0.5-0.2,1.1,0,1.8,0c0,4.1,0,8.2,0,12.4c1.2,0,2.4,0,3.6,0c0,0.6,0,1.1,0,1.6
	C33.2,37.7,30.1,37.7,26.9,37.7z"/>
<path class="st5" d="M284.7,199c-0.6-0.6-1.5-0.9-2.2-1.3c-1-0.4-1.8,0-2.6,0.3c-0.6,0.2-1.1,0.6-1.5,1.3c-0.9,1.4-0.7,2.8-0.3,4.2
	c0.1,0.2,0.2,0.3,0.3,0.5c0.6,0.9,1.6,1.1,2.5,1.4c0.8,0.3,1.6-0.2,2.4-0.5c0.6-0.2,1.1-0.5,1.6-0.8c1,0.9,0.8,1.3-0.1,2
	c-1.4,1.1-3.1,1.1-4.7,0.9c-1-0.1-2.1-0.6-2.9-1.3c-0.9-0.7-1.2-1.7-1.6-2.8c-0.4-1.2-0.1-2.2,0.1-3.3c0-0.2,0.2-0.4,0.3-0.5
	c1.1-1.9,2.6-3.2,4.9-3.2c1.1,0,2.2-0.1,3.2,0.6C285.5,197.5,285.6,197.4,284.7,199z"/>
<path class="st1" d="M128.2,35.1c0.7,0.4,0.7,1,0.6,1.6c-0.1,0-0.2,0.1-0.3,0.1c-1.3,1.1-2.8,1.5-4.5,1.3c-2.9-0.4-4.6-1.6-5-4.2
	c-0.8-1.2,0-2.3,0-3.5c0-0.3,0.4-0.7,0.7-1c1.4-1.8,3.2-2.6,5.5-2.5c1.1,0.1,1.9,0.4,2.7,1c0.7,0.5,0.7,0.6,0.3,1.5
	c-0.1,0.2-0.1,0.4-0.2,0.7c-0.8-0.5-1.6-0.9-2.3-1.2c-1-0.5-1.8,0-2.6,0.2c-0.7,0.2-1.2,0.8-1.7,1.5c-0.8,1.4-0.5,2.7-0.1,4.1
	c0.1,0.3,0.4,0.5,0.6,0.7c1.3,1.1,3.1,1.6,4.6,0.7C127,35.6,127.5,35.4,128.2,35.1z"/>
<path class="st1" d="M127.8,170.8c-0.7-0.6-1.5-0.9-2.2-1.3c-1-0.4-1.8,0-2.6,0.3c-0.6,0.2-1.1,0.6-1.5,1.3
	c-0.9,1.4-0.8,2.8-0.3,4.2c0.2,0.5,0.7,1.1,1.1,1.3c1.3,0.6,2.7,1.2,4.1,0.2c0.5-0.3,1.1-0.6,1.6-0.8c0.8,0.2,0.6,0.9,0.7,1.5
	c-0.3,0.2-0.5,0.3-0.8,0.5c-0.9,0.6-1.8,1.1-3,1.1c-1.4,0-2.6-0.3-3.9-0.9c-1.2-0.6-1.8-1.6-2.1-2.7c-0.6-1.8-0.5-1.8,0-3.8
	c0-0.2,0.2-0.4,0.3-0.5c1.1-1.9,2.6-3.2,4.9-3.2c1.1,0,2.2-0.1,3.2,0.6C128.6,169.3,128.7,169.2,127.8,170.8z"/>
<path class="st1" d="M102.4,36.1c0.1,0.2,0.1,0.4,0.2,0.6c0.2,0.4,0.1,0.9-0.2,1c-0.6,0.2-1.2,0.3-1.8,0.4c-0.4,0.1-0.8,0-1.1,0
	c-1.9,0-3.1-1.3-3.1-3.2c0-3.7,0-7.4,0-11.2c-1.2,0-2.3,0-3.6,0c0-0.6,0-1.1,0-1.6c1.8,0,3.6,0,5.5,0c0,2.4,0,4.8,0,7.2
	c0,1.7,0,3.4,0,5.1c0,0.7,0.3,1.4,0.8,1.7c0.5,0.3,1.2,0.7,1.9,0.2C101.4,36,102,36.1,102.4,36.1z"/>
<path class="st5" d="M253.3,192.7c-1.3,0-2.4,0-3.5,0c0-0.5,0-1,0-1.6c1.8,0,3.5,0,5.5,0c0,0.4,0,0.9,0,1.4c0,3.6,0,7.2,0,10.8
	c0,1,0.3,1.7,1.3,2c0.4,0.1,0.9,0.3,1.2,0.1c0.5-0.4,1-0.1,1.6-0.3c0.2,0.4,0.4,0.7,0.5,1c-0.2,0.8-0.8,0.7-1.3,0.7
	c-1.6,0.3-3.1,0.6-4.4-0.7c-0.6-0.6-0.9-1.3-0.9-2.1c0-3.3,0-6.5,0-9.8C253.3,193.8,253.3,193.3,253.3,192.7z"/>
<path class="st2" d="M223.5,162.9c1.8,0,3.6,0,5.5,0c0,4.4,0,8.8,0,13.3c0.4,0.3,0.9,0.5,1.3,0.9c0.4,0.4,1,0.3,1.2,0.2
	c0.6-0.5,1.1-0.2,1.7-0.3c0.1,0.5,0.3,1-0.1,1.3c-0.4,0.3-0.9,0.5-1.4,0.6c-0.5,0.1-1,0-1.5,0c-1.9,0-3.2-1.3-3.2-3.1
	c0-3.4,0-6.8,0-10.1c0-0.4,0-0.7,0-1.2c-1.2,0-2.4,0-3.5,0C223.5,164,223.5,163.5,223.5,162.9z"/>
<path class="st5" d="M268.3,63.4c0.5,0.5,0.9,0.9,1.3,1.3c0.9-0.1,1.9-0.3,3-0.5c0,0.5,0.2,1,0,1.3c-0.3,0.4-0.8,0.6-1.3,0.7
	c-0.9,0.1-1.7,0.2-2.6,0.1c-1.1-0.1-2.2-1.7-2.2-2.9c0-3.4,0-6.8,0-10.1c0-0.4,0-0.9,0-1.3c-1.2,0-2.4,0-3.5,0c0-0.6,0-1.1,0-1.6
	c1.8,0,3.6,0,5.5,0C268.3,54.6,268.3,59,268.3,63.4z"/>
<path class="st1" d="M132.1,164.6c0-0.6,0-1.1,0-1.6c1.8,0,3.6,0,5.5,0c0,4.4,0,8.7,0,13.1c0.5,0.4,0.9,0.8,1.4,1.3
	c0.8-0.1,1.8-0.2,3-0.4c-0.1,0.6,0,1.1-0.2,1.3c-0.3,0.3-0.9,0.6-1.3,0.7c-0.8,0.1-1.6,0.1-2.4,0c-1-0.1-2.2-1.6-2.3-2.7
	c0-1.5,0-3.1,0-4.6c0-2.3,0-4.7,0-7.1C134.5,164.6,133.3,164.6,132.1,164.6z"/>
<path class="st3" d="M174.6,192.6c-1.3,0-2.4,0-3.6,0c0-0.5,0-1,0-1.5c1.8,0,3.6,0,5.5,0c0,3.9,0,7.9,0,11.8c0,0.4,0,0.9,0.1,1.2
	c0.4,1.2,1.5,1.6,2.8,1.2c0.2-0.1,0.4-0.1,0.6-0.2c0.2,0,0.4,0,0.6,0c0.2,0.4,0.3,0.7,0.5,1c-0.2,0.7-0.8,0.6-1.2,0.7
	c-1,0.4-2.7,0.4-3.5-0.1c-0.7-0.5-1.3-1.1-1.5-2.1c-0.2-0.9-0.3-1.8-0.3-2.7C174.6,198.9,174.6,195.9,174.6,192.6z"/>
<path class="st3" d="M174.6,51.8c-1.2,0-2.4,0-3.5,0c0-0.5,0-1,0-1.5c0,0,0,0,0.1,0c1.8,0,3.6,0,5.5,0c0,1.2,0,2.4,0,3.5
	c0,2.8,0,5.7,0,8.5c0,1.9,1.2,2.7,3,2.1c0.3-0.1,0.7-0.1,1.1-0.2c0.2,0.4,0.3,0.7,0.5,1c-0.1,0.8-0.9,0.7-1.3,0.8
	c-1,0.3-2,0.3-3.1-0.1c-1.1-0.5-1.7-1.1-1.9-2.3c-0.1-0.7-0.3-1.4-0.3-2.2c0-2.9,0-5.8,0-8.7C174.6,52.5,174.6,52.2,174.6,51.8z"/>
<path class="st7" d="M324.3,180.9c0,0.4,0,0.6,0,0.8c-0.1,0.1-0.1,0.2-0.2,0.2c-0.9,0-1.9,0.1-2.8,0c-1.6-0.1-2.5-1.1-2.6-2.7
	c0-1.6,0-3.3,0-4.9c-0.7-1-1.8-1.1-2.9-1.3c0-0.3,0-0.5,0-0.8c0.6-0.2,1.2-0.3,1.8-0.5c0.8-0.2,1.1-0.7,1.1-1.5c0-1.4,0-2.8,0-4.3
	c0-0.8,0.2-1.4,0.7-2c0.5-0.6,1.3-0.7,2-0.8c0.9-0.1,1.8,0,2.8,0c0,0.3,0,0.5,0,0.8c0,0-0.1,0.1-0.2,0.1c-0.8,0.1-1.5,0.1-2.3,0.3
	c-1,0.3-1.3,0.9-1.3,1.6c0,0.7-0.1,1.4,0.2,2.2c0.4,1,0.1,2.2-0.3,3.3c-0.2,0.6-0.8,1-1.6,1c1.6,0.3,1.9,1.5,1.9,2.8
	c0,1.1-0.2,2.2-0.3,3.3c0,0.3,0.1,0.6,0.1,0.9c0.2,1.1,1.2,1.1,2,1.3C323.1,181,323.7,180.9,324.3,180.9z"/>
<path class="st7" d="M389.8,22.3c0,0.4,0,0.6,0,0.8c-0.1,0.1-0.1,0.2-0.2,0.2c-0.9,0.1-1.8-0.2-2.7,0.3c-1,0.5-1,0.4-1,1.4
	c0,1.8,0,3.6,0,5.4c-0.5,0.4-1,0.9-1.5,1.3c0.4,0.4,1.2,0.2,1.4,1.1c0.1,0.4,0.2,0.7,0.2,1.1c0,1.4,0,2.8,0,4.3c0,0.5-0.3,1,0.3,1.3
	c0.5,0.3,1,0.5,1.6,0.5c0.6,0.1,1.3,0,2,0c0,0.3,0,0.5,0,0.8c0,0-0.1,0.1-0.2,0.1c-0.9,0-1.9,0-2.8,0c-0.4,0-0.9-0.1-1.3-0.3
	c-1-0.4-1.5-1.3-1.5-2.4c0-0.8-0.1-1.6,0.2-2.5c0.3-0.7,0.1-1.6,0.1-2.4c-0.8-1.1-2.1-0.9-3.2-1.3c0-0.2,0-0.5,0-0.8
	c1.1-0.4,2.4-0.1,3.3-1.4c-0.1-1.4-0.2-3-0.4-4.5c-0.1-0.9,0.3-1.6,0.7-2.1c0.4-0.5,1.1-1,2-1C387.7,22.3,388.7,22.3,389.8,22.3z"/>
<path class="st4" d="M36.6,192.7c0.2,0.7,0.1,1.1-0.4,1.6c-2.1,2-3,4.7-4.1,7.3c0,0.1,0,0.2,0,0.3c-0.1,1.5-0.3,3.1-0.4,4.7
	c-0.6,0.1-1.4,0-2.2,0.1c0.4-2.3,0.5-4.6,1.3-6.7c0.8-2.1,2-3.9,3.3-5.7c-2.6,0-5.1,0-7.8,0c0-0.6-0.1-1.1-0.1-1.6
	C29.7,192.7,33.1,192.7,36.6,192.7z"/>
<path class="st7" d="M72.6,116.2c-0.9-0.2-1.5-0.5-1.7-0.9c-0.3-0.7-0.8-1.5-0.4-2.2c0.4-1,0.2-1.9,0.3-2.8c0-0.4,0-0.9,0-1.3
	c-1-1.3-2.4-1.2-3.9-1.2c0-0.3,0-0.5,0-0.9c0,0,0.1-0.1,0.2-0.1c0.6,0,1.2,0,1.8,0c1.4-0.1,2.6,0.3,3.5,1.5c0,2,0,4.1,0,6.1
	c0.7,1.1,1.8,1.1,2.9,1.3c0,0.3,0,0.5,0,0.8c-0.6,0.2-1.2,0.3-1.8,0.5c-0.8,0.2-1.1,0.7-1.1,1.5c0,1.9,0,3.7,0,5.6
	c-0.4,0.3-0.8,0.8-1.3,1.1c-1.3,0.6-2.7,0.3-4.2,0.4c0-0.3,0-0.5,0-0.9c0,0,0.1-0.1,0.2-0.1c0.8,0,1.7,0,2.5-0.3
	c0.9-0.4,1.2-0.6,1.2-1.6c-0.1-1,0.2-2-0.3-3c-0.4-0.8,0.3-1.7,0.4-2.6C70.9,116.7,71.7,116.4,72.6,116.2z"/>
<path class="st7" d="M72.4,257c-0.7-0.2-1.3-0.4-1.4-0.8c-0.3-0.7-0.8-1.5-0.5-2.2c0.5-1.1,0.2-2.1,0.3-3.2c0-0.3,0-0.7,0-1
	c-1-1.3-2.4-1.2-3.9-1.2c0-0.3,0-0.6-0.1-1c1.4,0.2,2.7-0.1,4,0.3c0.7,0.2,1,0.8,1.6,1.1c0,1.9,0,3.7,0,5.5c0,1,0.3,1.3,1.2,1.6
	c0.5,0.2,1.1,0.3,1.7,0.5c0,0.2,0,0.4,0,0.7c-0.5,0.2-1,0.4-1.6,0.4c-0.7,0-0.9,0.5-1.3,0.8c0,2.1,0,4.1,0,6.2
	c-0.9,1.3-2.2,1.6-3.6,1.6c-0.6,0-1.2,0-1.9,0c0-0.3,0-0.6-0.1-1c1.5,0,3,0.1,3.9-1.2c0-0.8,0-1.5,0-2.3c0-0.4,0-0.8-0.2-1.2
	c-0.5-0.9,0.3-1.8,0.3-2.7C70.9,257.7,71.8,257.2,72.4,257z"/>
<path class="st1" d="M321.1,80c0,4.2,0,8.3,0,12.4c1.2,0,2.3,0,3.5,0c0,0.6,0,1.1,0,1.6c-3.1,0-6.2,0-9.4,0c0-0.5,0-1,0-1.6
	c1.4,0,2.7,0,4.1,0c0-3.4,0-6.8,0-10.2c-1.1,0-2.1,0-3.2,0c0-0.4-0.1-0.7,0-1c0.1-0.3,0.4-0.6,0.6-0.6c1.1,0.1,2-0.3,3-0.7
	C320.1,79.9,320.5,80,321.1,80z"/>
<path class="st7" d="M115,180.9c0,0.4,0,0.6,0,0.9c-2,0-4,0-6.1,0c0-6.1,0-12.3,0-18.6c2,0,4.1,0,6.1,0c0,0.3,0,0.6,0,0.9
	c-1.5,0-2.9,0-4.5,0c0,5.6,0,11.1,0,16.8C112,180.9,113.5,180.9,115,180.9z"/>
<path class="st7" d="M356,41.8c-0.3-0.4-0.6-0.8-0.9-1.2c0,0,0.1-0.2,0.2-0.3c1.3-1.1,2.3-2.5,3-4c0.4-0.9,0.8-1.9,0.8-2.9
	c0-1,0-2.1,0-3.1c0-1.8-0.6-3.3-1.6-4.7c-0.7-1-1.5-1.9-2.4-3c0.3-0.3,0.6-0.7,0.9-1C362.6,26.4,362.9,36.5,356,41.8z"/>
<path class="st7" d="M336.9,40.6c-0.4,0.4-0.8,0.7-1.1,1.1c-1-0.5-1.8-1.3-2.5-2.3c-0.7-0.9-1.2-1.8-1.7-2.7c-0.5-1-0.6-2.1-0.8-3.3
	c-0.2-1.1-0.3-2.2,0-3.3c0.2-1.1,0.3-2.3,0.8-3.3c0.4-1,1.1-1.8,1.7-2.7c0.7-0.9,1.3-1.9,2.7-2.3c0.2,0.2,0.5,0.5,0.9,0.9
	C330.8,27.2,331.4,36.9,336.9,40.6z"/>
<path class="st1" d="M161.5,37.7c-0.8,0-1.5,0-2.3,0c0-3.6,0-7.1,0-10.7c0.6,0,1.2,0,1.9,0c0,0.7,0,1.4,0,2.3c0.8-1.2,1.9-1.8,3-2.2
	c1.2-0.4,2.6-0.4,3.9,0.3c0,0.2,0,0.4,0,0.6c-0.1,0.8-0.5,1.1-1.2,0.8c-1.9-0.8-3.3,0.2-4.7,1.2c-0.5,0.4-0.7,1-0.7,1.7
	C161.5,33.7,161.5,35.6,161.5,37.7z"/>
<path class="st7" d="M295.1,181.8c-2,0-3.8,0-5.8,0c0-0.3,0-0.5,0-0.9c1.4,0,2.9,0,4.5,0c0-5.6,0-11.1,0-16.7
	c-0.7-0.1-1.4,0-2.2-0.1c-0.8,0-1.5,0-2.3,0c0-0.3,0-0.6,0-0.9c1.9,0,3.8,0,5.8,0C295.1,169.4,295.1,175.5,295.1,181.8z"/>
<path class="st3" d="M148.4,87.4c0,2.2,0,4.4,0,6.6c-0.6,0-1.3,0-1.9,0c0-3.6,0-7.1,0-10.7c0.5,0,1,0,1.6,0c0,0.7,0,1.4,0,2.4
	c0.3-0.3,0.4-0.4,0.5-0.5c0.2-0.2,0.3-0.3,0.5-0.5c0.9-1,2.1-1.5,3.5-1.5c0.5,0,1,0,1.5,0c0.7,0,0.9,0.2,1,1c0,0.3,0,0.6,0,0.9
	C149.7,84.9,150.4,85.6,148.4,87.4z"/>
<path class="st3" d="M154.9,226.1c-0.8-0.1-1.5-0.3-2.3-0.4c-0.8-0.1-1.6,0.3-2.3,0.7c-0.7,0.4-1.1,1.1-1.8,1.9c0,2,0,4.2,0,6.5
	c-0.7,0-1.3,0-2,0c0-3.5,0-7.1,0-10.7c0.5,0,1,0,1.6,0c0,0.7,0,1.4,0,2.1c0.4,0.1,0.5-0.2,0.6-0.4c1.2-1.4,2.7-1.9,4.5-1.8
	C155,224.2,155,224.1,154.9,226.1z"/>
<path class="st1" d="M73.7,178.6c-0.6,0-1.2,0-1.9,0c0-3,0-6,0-9.1c-0.9-0.1-1.7,0-2.6,0c-0.9,0-1.7,0-2.7,0c0-0.5,0-1,0-1.6
	c2.3-0.1,4.7,0,7.1-0.1C73.7,171.4,73.7,174.9,73.7,178.6z"/>
<path class="st3" d="M176.3,84.9c-1.7,0-3.3,0-4.9,0c0-0.5,0-1,0-1.6c2.2,0,4.5,0,6.8,0c0,3.5,0,7,0,10.6c-0.6,0-1.2,0-1.9,0
	C176.3,91,176.3,88.1,176.3,84.9z"/>
<path class="st3" d="M137,56.7c-1.7,0-3.3,0-4.9,0c0-0.5,0-1,0-1.6c2.2,0,4.5,0,6.8,0c0,3.5,0,7,0,10.6c-0.6,0-1.2,0-1.9,0
	C137,62.9,137,59.9,137,56.7z"/>
<path class="st3" d="M137,197.6c-1.7,0-3.3,0-4.9,0c0-0.5,0-1,0-1.6c2.2,0,4.5,0,6.8,0c0,3.5,0,7,0,10.6c-0.6,0-1.2,0-1.9,0
	C137,203.7,137,200.7,137,197.6z"/>
<path class="st5" d="M280.8,56.7c-1.7,0-3.3,0-4.9,0c0-0.5,0-1,0-1.6c2.2,0,4.5,0,6.8,0c0,3.5,0,7,0,10.6c-0.6,0-1.2,0-1.9,0
	C280.8,62.9,280.8,59.9,280.8,56.7z"/>
<path class="st3" d="M171.4,225.8c0-0.6,0-1.1,0-1.6c2.2,0,4.5,0,6.8,0c0,3.5,0,7.1,0,10.7c-0.5,0-1.1,0-1.8,0c0,0,0,0-0.1-0.1
	c0,0,0-0.1,0-0.1c0-2.9,0-5.9,0-8.9C174.7,225.8,173.1,225.8,171.4,225.8z"/>
<path class="st5" d="M243.4,55.1c0,3.6,0,7.1,0,10.7c-0.5,0-1,0-1.6,0c0-3,0-6,0-9.1c-1.8,0-3.5,0-5.2,0c0-0.6,0-1.1,0-1.6
	C238.8,55.1,241,55.1,243.4,55.1z"/>
<path class="st7" d="M320,65.9c-0.9,0.3-1.5-0.2-1.9-0.8c0-0.5,0-1.1,0-1.6c0.2-0.2,0.5-0.5,0.8-0.8c0.4,0,0.8,0,1.3,0
	c0.8-0.1,1.2,0.4,1.5,1c0.9,2,0.1,4.9-1.7,6.2c-0.6,0.4-1.3,0.8-2,1.1c-0.2-0.4-0.4-0.8-0.6-1.2C318.6,68.7,320.3,68,320,65.9z"/>
<path class="st7" d="M304.9,239.9c-0.2-0.4-0.4-0.7-0.6-1.1c1.2-1,2.9-1.7,2.7-3.8c-0.4,0-0.8,0.1-1.1,0c-0.3-0.1-0.6-0.5-0.8-0.8
	c0-0.5,0-1.1,0-1.6c0.3-0.2,0.5-0.5,0.9-0.8c0.6,0,1.2,0,2,0c1.2,1.2,1.4,2.7,0.9,4.3C307.9,238.2,307.5,238.5,304.9,239.9z"/>
<path class="st7" d="M307,206.8c-0.5-0.1-0.9,0-1.2-0.1c-1-0.5-1.1-2.2-0.2-2.9c0.9-0.8,2.7-0.3,3.1,0.7c0.8,2.2,0.2,4.9-2.1,6.2
	c-0.5,0.3-1,0.7-1.6,1.1c-0.2-0.4-0.4-0.8-0.7-1.2C305.5,209.6,307.1,208.9,307,206.8z"/>
<path class="st7" d="M187.2,171.7c-1.3,0.7-1.3,0.7-1.9,2.1c-0.2-0.1-0.4-0.2-0.6-0.3c-0.2-0.1-0.4-0.1-0.5-0.2c0-1,0.5-1.7,1-2.3
	c0.8-1,2.2-1.3,3.5-0.5c0.6,0.4,1.2,0.8,1.8,1.2c0.7,0.4,1.2,0.2,1.6-0.5c0.2-0.3,0.4-0.6,0.6-0.9c0.1-0.1,0.2-0.2,0.3-0.3
	c0.2,0.1,0.3,0.2,0.5,0.3c0.2,0.1,0.4,0.1,0.7,0.2c-0.3,1.1-0.6,2.2-1.7,2.8c-0.7,0.4-1.4,0.3-2.2,0.3c-0.7,0-1-0.7-1.6-0.9
	C188.1,172.5,187.6,172,187.2,171.7z"/>
<path class="st7" d="M356.8,98.6c0-0.5,0-0.8,0-1.2c1.8-0.3,2.2-1.8,2.6-3.2c-1.8-0.2-2.4-0.7-2.3-2.3c0.4-0.4,0.8-0.7,1.2-1.1
	c0.5,0,1.1,0,1.6,0c0.4,0.4,0.8,0.8,1.2,1.1c0,0.8,0,1.6,0,2.5c0,1-0.3,1.8-1,2.5c-0.3,0.3-0.6,0.6-0.9,0.9
	C358.5,98.4,357.8,98.7,356.8,98.6z"/>
<path class="st2" d="M276.8,163.6c0.9,0,1.7,0,2.6,0c0,0.8,0,1.6,0,2.4c0,0.8-0.4,1.5-0.4,2.3c0.1,0.8-0.2,1.5-0.3,2.4
	c-0.5,0-1,0-1.6,0.1c0-0.6,0-1.1,0-1.6c-0.1-0.9-0.3-1.8-0.3-2.6C276.8,165.5,276.8,164.6,276.8,163.6z"/>
<path class="st2" d="M216.6,163.6c0.9,0,1.7,0,2.6,0c-0.2,1,0.3,1.9-0.4,2.8c0,0,0,0.1,0,0.2c0.2,1.4-0.3,2.7-0.4,4.1
	c-0.5,0-0.9,0-1.4,0C216.6,168.4,216.4,166,216.6,163.6z"/>
<path class="st2" d="M282.6,170.7c-0.7-1.2-0.2-2.6-0.6-3.7c-0.4-1.2-0.1-2.3-0.3-3.5c0.9,0,1.7,0,2.7,0c-0.1,1.4,0.3,2.8-0.3,4.2
	c-0.2,0.5,0,1.1,0,1.6C284,170.6,284,170.7,282.6,170.7z"/>
<path class="st2" d="M211.3,163.5c0.9,0,1.7,0,2.5,0c0.5,2.4-0.3,4.7-0.2,7.1c-0.6,0-1,0-1.5,0c-0.1-0.6-0.3-1.1-0.3-1.7
	c-0.1-0.6-0.1-1.3-0.1-1.9c-0.1-0.6-0.3-1.1-0.3-1.7C211.3,164.9,211.3,164.3,211.3,163.5z"/>
<path class="st7" d="M206.7,173.4c0,0.5,0,1,0,1.5c-3,0-6,0-9.1,0c0-0.5,0-1-0.1-1.5C200.6,173.4,203.6,173.4,206.7,173.4z"/>
<path class="st7" d="M197.6,170.3c0-0.5,0-1,0-1.5c3,0,6.1,0,9.1,0c0,0.5,0,1,0,1.5C203.7,170.3,200.6,170.3,197.6,170.3z"/>
<path class="st6" d="M231.9,30.6c0,0.5,0,1,0,1.5c-2.5,0-5,0-7.5,0c0-0.5,0-1,0-1.5C226.9,30.6,229.4,30.6,231.9,30.6z"/>
<path class="st6" d="M271.2,30.6c0,0.5,0,1,0,1.5c-2.5,0-5,0-7.5,0c0-0.5,0-1,0-1.5C266.3,30.6,268.7,30.6,271.2,30.6z"/>
<path class="st3" d="M198.6,88.4c0-0.5,0-1,0-1.5c2.4,0,4.7,0,7.1,0c0,0.5,0,1,0.1,1.5C203.4,88.4,201,88.4,198.6,88.4z"/>
<path class="st7" d="M307.5,195.6c0.4,0.4,0.8,0.8,1.1,1.2c0,0.4,0,0.9,0,1.3c-0.4,0.4-0.8,0.8-1.2,1.2c-0.6-0.2-1.4,0.3-2-0.4
	c-0.4-0.4-0.8-0.9-0.8-1.5c0-0.6,0.4-1.1,0.8-1.5C305.8,195.6,305.8,195.6,307.5,195.6z"/>
<path class="st7" d="M214.4,199.2c-0.7-0.7-1.5-1.2-1.1-2.4c0.3-0.3,0.7-0.7,1.3-1.2c0.4,0.1,1.2-0.4,1.7,0.3
	c0.4,0.4,0.8,0.9,0.8,1.4c0.1,0.4-0.3,0.9-0.6,1.4C216.2,199.3,216.1,199.2,214.4,199.2z"/>
<path class="st7" d="M214.4,66.2c-0.4-0.4-0.8-0.8-1.1-1.2c0-0.4,0-0.9,0-1.3c0.4-0.4,0.8-0.8,1.2-1.2c0.6,0.2,1.4-0.3,1.9,0.4
	c0.4,0.4,0.8,0.9,0.8,1.5c0,0.6-0.4,1.1-0.8,1.5C216.1,66.2,216.1,66.2,214.4,66.2z"/>
<path class="st7" d="M292.7,82.9c0.6,0,1.1,0,1.7,0c0.7,0.7,1.6,1.3,0.9,2.7c-0.2,0.2-0.5,0.5-0.9,0.9c-0.5,0-1,0-1.6,0
	C291.2,85.1,291.2,84.6,292.7,82.9z"/>
<path class="st7" d="M203,235.3c-0.6,0-1.1,0-1.6,0c-0.4-0.4-0.8-0.8-1.2-1.2c0-0.4,0-0.9,0-1.3c0.4-0.4,0.8-0.8,1.1-1.1
	c1.3-0.2,2.3,0,2.7,1.3C204.4,234.1,203.6,234.6,203,235.3z"/>
<path class="st7" d="M216.1,207.1c-0.5,0-1,0-1.5,0c-1.3-1.1-1.3-1.1-1.2-2.5c0.3-0.3,0.7-0.7,1.1-1.1c0.5,0,1,0,1.6,0
	C217.6,204.9,217.6,205.4,216.1,207.1z"/>
<path class="st7" d="M176.7,34.4c0.4,0.4,0.8,0.8,1.1,1.1c0,0.4,0,0.8,0,1.3c-0.3,0.3-0.8,0.6-1.3,1.1c-0.4-0.1-1.2,0.4-1.7-0.3
	c-0.4-0.4-0.8-0.9-0.8-1.4c-0.1-0.4,0.3-0.9,0.6-1.4C175.1,34.2,176,34.5,176.7,34.4z"/>
<path class="st7" d="M176.7,30.2c-0.5,0-1,0-1.6,0c-1.5-1.2-1.6-2.3,0-3.6c0.5,0,1.1,0,1.7,0c0.3,0.4,0.7,0.8,1.1,1.2
	c0,0.4,0,0.8,0,1.3C177.5,29.4,177.1,29.8,176.7,30.2z"/>
<path class="st7" d="M203,227.4c-0.5,0-1.1,0-1.7,0c-0.3-0.4-0.7-0.8-1.1-1.2c0-0.4,0-0.8,0-1.3c0.4-0.4,0.8-0.7,1.2-1.1
	c0.5,0,1,0,1.6,0C204.4,225,204.5,226.1,203,227.4z"/>
<path class="st7" d="M305.8,223.8c0.5,0,1.1,0,1.6,0c0.4,0.4,0.8,0.8,1.2,1.1c0,0.5,0,0.9,0,1.3c-0.4,0.4-0.8,0.8-1.1,1.2
	c-0.6,0-1.1,0-1.7,0C304.3,226.1,304.4,225,305.8,223.8z"/>
<path class="st7" d="M294.3,90.8c0.4,0.4,0.8,0.8,1.2,1.2c0,0.4,0,0.9,0,1.3c-0.4,0.4-0.8,0.8-1.2,1.2c-0.6-0.2-1.4,0.3-2-0.4
	c-0.4-0.4-0.8-0.9-0.8-1.5c0-0.6,0.4-1,0.8-1.5C293,90.5,293.7,91,294.3,90.8z"/>
<path class="st7" d="M214.5,58.4c-0.4-0.4-0.8-0.8-1.2-1.2c0-0.4,0-0.9,0-1.3c0.4-0.4,0.8-0.8,1.2-1.2c0.6,0.2,1.4-0.3,2,0.4
	c0.4,0.4,0.8,0.9,0.8,1.5c0,0.6-0.4,1-0.8,1.5C215.8,58.7,215.1,58.2,214.5,58.4z"/>
<path class="st7" d="M320.5,54.7c0.4,0.4,0.8,0.8,1.2,1.2c0,0.4,0,0.9,0,1.3c-0.4,0.4-0.8,0.8-1.2,1.2c-0.6-0.2-1.4,0.3-2-0.4
	c-0.4-0.4-0.8-0.9-0.8-1.5c0-0.6,0.4-1,0.8-1.5C319.2,54.4,319.9,54.9,320.5,54.7z"/>
<path class="st7" d="M360.7,85.7c-0.3,0.3-0.5,0.5-0.8,0.8c-0.3,0-0.7,0-1.2,0c-1-0.1-1.6-0.7-1.6-1.8c0-1,0.6-1.8,1.6-1.8
	c0.3,0,0.5,0,0.8,0c0.6,0,1.2,0.6,1.2,1.2C360.7,84.6,360.7,85.1,360.7,85.7z"/>
<path class="st5" d="M240.9,50.6c0.3-0.3,0.5-0.5,0.7-0.7c0.6,0,1.2,0,1.7,0c1,1.4,1,1.4,0,2.9c-0.5,0-1.1,0-1.7,0
	c-0.2-0.2-0.4-0.4-0.7-0.7C240.9,51.6,240.9,51.1,240.9,50.6z"/>
<path class="st5" d="M280.1,52c0-0.4,0-0.9,0-1.3c0.3-0.3,0.5-0.5,0.9-0.9c0.6,0.1,1.3,0.3,2,0.4c0,0.2,0.1,0.3,0.1,0.4
	c0,2.2,0.3,2.3-2.1,2.2C280.7,52.5,280.4,52.2,280.1,52z"/>
<path class="st3" d="M175.6,80.5c0-0.7,0-1.4,0-2c0.6-0.5,1.4-0.5,2.1-0.5c0.3,0.3,0.5,0.5,0.8,0.8c0.2,0.9,0.1,1.7-0.8,2.1
	C177.1,81.2,176.3,81,175.6,80.5z"/>
<path class="st3" d="M175.6,221.4c0-0.6,0-1.3,0-2c0.7-0.4,1.4-0.8,2.3-0.4c0.6,0.3,0.7,0.7,0.7,2c-0.2,0.2-0.5,0.5-0.7,0.7
	C177.1,222,176.3,221.8,175.6,221.4z"/>
<path class="st1" d="M71.2,162.8c0.7-0.1,1.4-0.2,2.1-0.3c1.1,1.5,1.1,1.5,0,3.1c-0.6-0.1-1.3-0.2-2.1-0.3
	C71.2,164.4,71.2,163.7,71.2,162.8z"/>
<path class="st3" d="M139.2,192.9c-0.2,0.2-0.5,0.5-0.7,0.7c-0.4,0-0.9,0-1.4,0c-0.2-0.2-0.5-0.5-0.7-0.8c0.1-0.6-0.2-1.2,0.4-1.7
	c0.3-0.2,0.6-0.4,1-0.4c0.4,0,0.8,0,1.1,0.4C139.2,191.5,139.2,191.5,139.2,192.9z"/>
<path class="st3" d="M139.2,52c-0.2,0.2-0.5,0.5-0.7,0.7c-0.4,0-0.9,0-1.4,0c-0.2-0.2-0.5-0.5-0.7-0.8c0.1-0.6-0.2-1.2,0.4-1.7
	c0.3-0.2,0.6-0.4,1-0.4c0.4,0,0.8,0,1.1,0.4C139.2,50.7,139.2,50.7,139.2,52z"/>
<path class="st8" d="M97.8,178.9c0.7,0,1.4,0,2.1,0c0.7,0,1.6,0.5,1.6,1c0.1,0.5-0.4,1.3-1.1,1.7c-1.6,0.9-4,0.9-5.5,0.1
	c-0.6-0.3-1-0.9-0.9-1.4c0.1-0.4,0.9-1.3,1.3-1.3C96.2,178.9,97,178.9,97.8,178.9z"/>
<path class="st8" d="M97.3,169.4c0.7-0.1,1.3,0.3,1.8,0.7c0.6,0.4,0.2,1.1,0.8,1.5c-0.2,0.5-0.2,1-0.5,1.4c-0.3,0.4-0.9,0.8-1.4,1
	c-1.5,0.4-3.1-0.5-3.3-2.1c-0.1-0.5,0.1-1.2,0.6-1.7C95.9,169.7,96.5,169.3,97.3,169.4z"/>
<path class="st8" d="M251,179.7c0.3-0.3,0.5-0.5,0.8-0.8c1.5,0,3,0,4.6,0c0.2,0,0.4,0,0.7,0c0.6,0.1,1.4,0.5,1.5,0.9
	c0.1,0.4-0.4,1.4-0.9,1.7c-0.5,0.2-0.9,0.5-1.4,0.5c-1.2,0.1-2.4,0.2-3.5,0C251.1,181.7,251,181.4,251,179.7z"/>
<path class="st8" d="M256.5,170.6c0,0.8,0,1.5,0,2.3c-0.7,0.8-1.5,1.3-2.6,1.2c-1.1-0.1-2.2-1-2.3-2.3c0-1.1,1.1-2.2,2.3-2.3
	C255,169.3,255.9,169.7,256.5,170.6z"/>
<path class="st8" d="M159.6,95.2c0.3-0.3,0.6-0.6,0.9-0.9c2.1,0.3,4.2-0.4,6.3,0.4c0,1.8-0.2,1.9-1.9,2.6c-1.2,0.5-2.3,0.2-3.5,0.3
	c-0.4-0.5-1.2-0.2-1.6-0.9C159.4,96.2,159.7,95.7,159.6,95.2z"/>
<path class="st8" d="M160.2,88c-0.1-0.9,0.1-1.8,0.8-2.5c0.5-0.4,1-0.7,1.7-0.7c0.7,0,1.2,0.3,1.7,0.7c0.7,0.6,0.7,0.9,0.8,2.3
	C163.2,90,162.3,90.1,160.2,88z"/>
<path class="st8" d="M166.7,235.8c0,1.7-0.2,1.8-1.9,2.5c-1.2,0.5-2.3,0.2-3.5,0.3c-0.4-0.5-1.2-0.2-1.6-0.9c-0.3-0.5,0-1.1-0.2-1.5
	c0.3-0.3,0.6-0.6,0.9-0.9c1.9,0,3.7,0,5.6,0C166.2,235.3,166.5,235.6,166.7,235.8z"/>
<path class="st8" d="M165.1,228.9c-1.8,2.1-3.3,1.9-4.9,0.1c-0.2-0.9,0-1.7,0.6-2.3c0.5-0.5,1-0.8,1.8-0.8c0.7,0,1.2,0.2,1.7,0.7
	C165,227.1,165.1,227.4,165.1,228.9z"/>
<path class="st8" d="M238.5,204.1c0-1.7,0-3.2,0-4.9c0.5-0.4,1.1-1,1.8-1.3c1.9-1,4-0.1,4.4,2.5c0.1,0.5,0,1,0,1.5
	c0,1.6-0.9,2.7-2.3,3.4c-0.6,0.3-1.3,0.3-2,0C239.8,204.9,239.1,204.5,238.5,204.1z"/>
<path class="st8" d="M31.6,233.6c-1.4,0.1-2.5-0.3-3.3-1.3c-0.6-0.8-0.6-1.7,0-2.6c0.1-0.1,0.2-0.2,0.2-0.2c1.6-1.5,1.4-1.7,3.8-0.7
	c0.4,0.2,0.7,0.4,1.1,0.5c0.9,0.3,1,1.2,1.2,1.9c0.1,0.6-0.3,1.3-1,1.7C33.1,233.4,32.4,233.8,31.6,233.6z"/>
<path class="st8" d="M28.9,225.3c0-0.5,0-1.1,0-1.6c1.5-2,3.6-2,5.2-0.1c0.3,1.3-0.1,2.5-1,3.4C31,227.1,30.4,226.9,28.9,225.3z"/>
<path class="st8" d="M28.2,254.8c0-0.3,0-0.6,0-0.8c-0.2-1.1,0-2.2,0.8-2.8c0.8-0.7,1.8-0.9,2.9-0.6c1.8,0.4,2.1,1.8,2.6,3.2
	c0.1,0.1,0.1,0.4,0,0.5c-1,1-1.9,2.1-3.5,2.1c-0.8,0-1.4-0.2-2-0.8C28.7,255.2,28.5,255.1,28.2,254.8z"/>
<path class="st8" d="M304,30.1c0.4-0.3,0.7-0.5,0.9-0.6c2-1.5,3.6-1.2,4.8,1.1c0.1,1.1,0.1,2.2,0.2,3.4c0,0,0,0.1-0.1,0.1
	c-0.5,0.8-0.9,1.6-1.8,2.1c-1.4,0.7-2.4,0-3.4-0.6c-0.2-0.1-0.4-0.4-0.6-0.5C304,33.3,304,31.7,304,30.1z"/>
<path class="st8" d="M28.1,173.6c0.8-0.7,1.5-1.4,2.4-1.9c1.2-0.6,2.1-0.2,3.1,0.1c0.7,0.2,0.8,1.1,1,1.7c0.4,1.3-0.1,2.4-1.1,3.2
	c-0.9,0.7-1.9,0.8-3,0.3c-1.2-0.5-2-1.2-2-2.6C28.5,174.1,28.3,173.9,28.1,173.6z"/>
<path class="st8" d="M160.2,204c0-1.5,0-3,0-4.4c0-0.4,0.1-0.8,0.5-0.9c0.6-0.2,1-1,1.8-0.8c1.3-0.8,3.4,0.4,3.6,2.3
	c0.1,0.8,0.1,1.6,0,2.4c-0.1,1-0.5,2-1.4,2.5c-0.7,0.4-1.7,1-2.6,0.1C161.1,205.3,160.8,204.4,160.2,204z"/>
<path class="st8" d="M160.2,63.2c0-1.7,0-3.4,0-5c0.7-0.5,1.4-0.9,2.2-1.3c1.5-0.6,3.5,0.5,3.6,2.4c0.1,0.8,0.1,1.5,0,2.3
	c-0.1,1-0.5,2-1.3,2.5c-0.8,0.4-1.8,1-2.7,0.2C161.1,64.5,160.9,63.6,160.2,63.2z"/>
<path class="st8" d="M212.6,86.3c0.8-0.5,1.5-0.9,2.3-1.3c1.4-0.6,3.4,0.7,3.6,2.5c0.1,0.8,0.1,1.5,0,2.3c-0.2,2-2.4,3.7-4.5,2.6
	c-0.3-0.2-0.6-0.4-0.9-0.6c-0.3-0.3-0.6-0.6-0.5-1.1C212.7,89.2,212.6,87.8,212.6,86.3z"/>
<path class="st8" d="M126.5,58.2c0,1.6,0,3.1,0,4.6c-0.3,0.3-0.6,0.6-0.9,0.9c-1.3,1.5-4.5,1.1-5-1.4c-0.4-1.8-0.3-3.3,1-4.7
	c1.3-1.5,3.2-1,4.3-0.1C126,57.7,126.2,57.9,126.5,58.2z"/>
<path class="st8" d="M126.5,199.1c0,1.5,0,3,0,4.7c-0.3,0.3-0.7,0.7-1.1,1.1c-1.1,1-2.8,0.9-3.9,0.1c-0.8-0.6-1-1.5-1.2-2.3
	c-0.3-1.6,0-3.1,1.4-4.3c0.9-0.8,1.8-0.8,2.9-0.5C125.4,198,125.9,198.5,126.5,199.1z"/>
<path class="st8" d="M231.7,228c-0.2,1.1-0.4,2.4-0.8,3.5c-0.4,1.1-1.3,1.8-2.4,2.1c-1,0.2-2.2-0.5-2.8-1.6
	c-0.4-0.7-0.7-1.4-0.7-2.3c0.1-1.2,0.1-2.4,0-3.6c-0.1-1.4,0.6-2.5,1.7-3.4c0.5-0.5,1.2-0.7,1.9-0.5c0.6,0.2,1.3,0.5,1.7,0.9
	c0.6,0.7,1,1.6,1,2.7C231.3,226.5,231.6,227.2,231.7,228z M228.3,226.1c-0.8,0-1.6,0.8-1.6,1.5c0.1,0.8,0.8,1.5,1.8,1.5
	c0.6,0,1.2-0.9,1.2-1.6C229.6,226.7,229,226.1,228.3,226.1z"/>
<path class="st8" d="M316.5,31.4c0.6-2.6,2.8-3.1,4.7-2.9c0.7,0.6,1.8,0.8,1.8,2c0,0.3,0.2,0.5,0.4,0.9
	C321,31.4,318.8,31.4,316.5,31.4z"/>
<path class="st8" d="M152.7,173.3c0,0.8,0,1.5,0,2.1c-1,1.3-2.3,1.9-3.9,1.8c-0.8,0-1.4-0.5-1.8-1.1c-0.1-0.2-0.1-0.6,0-0.9
	c0.3-1.3,1.5-1.3,2.4-1.6C150.3,173.4,151.5,173.4,152.7,173.3z"/>
<path class="st8" d="M32.7,110.1c0,2.2,0,4.3,0,6.5c-0.8,0.1-1.6,0-2.5,0c-0.8,0-1.6,0-2.6,0C29.4,114.4,31,112.3,32.7,110.1z"/>
<path class="st8" d="M192,201.5c0,0.9,0,1.5,0,2.2c-1.1,1.1-2.4,1.9-4.1,1.8c-0.4,0-0.8-0.2-1.2-0.3c-0.7-0.3-0.8-1.4-0.4-2
	c0.6-0.8,1.5-0.9,2.3-1.2C189.6,201.6,190.8,201.6,192,201.5z"/>
<path class="st8" d="M191.9,60.6c0,0.3,0.1,0.4,0.1,0.5c-0.1,0.7,0.3,1.4-0.3,2c-0.7,0.8-1.7,1.3-2.6,1.5c-0.7,0.2-1.6,0.2-2.3-0.3
	c-0.7-0.5-0.9-1.4-0.3-2.1c0.6-0.7,1.5-0.9,2.3-1.1C189.7,60.7,190.8,60.7,191.9,60.6z"/>
<path class="st8" d="M139.5,229.7c0,0.8,0,1.5,0,2.2c-1,1.2-2.2,1.8-3.8,1.8c-0.4,0-0.9-0.2-1.3-0.4c-1-0.6-1-1.9,0.1-2.5
	c0.5-0.3,1-0.5,1.5-0.6C137.2,229.9,138.3,229.8,139.5,229.7z"/>
<path class="st8" d="M139.6,88.8c0,0.8,0,1.4,0,2.2c-0.9,1.3-2.3,1.8-3.9,1.8c-0.8,0-1.4-0.5-1.9-1c-0.4-0.4,0-1.5,0.6-1.9
	c0.6-0.3,1.2-0.6,1.8-0.7C137.3,89,138.4,88.9,139.6,88.8z"/>
<path class="st8" d="M303.8,59.6c0-0.1-0.1-0.2-0.1-0.3c0-0.3,0-0.5,0-0.7c1.2-1.6,2.7-2.3,4.6-1.7c1.3,0.4,1.8,1.4,2,2.7
	C308.1,59.6,305.9,59.6,303.8,59.6z"/>
<path class="st8" d="M336.5,87.8c-0.4,0-0.7,0-1,0c-2,0-3.9,0-5.9,0c0.1-1.4,1.5-2.8,2.9-2.9c0.9-0.1,1.8-0.2,2.6,0.5
	C335.7,85.9,335.9,86.2,336.5,87.8z"/>
<path class="st8" d="M88.2,31.4c-2.3,0-4.6,0-6.8,0c0.5-1.9,1.8-2.9,3.7-2.9c0.3,0,0.7-0.1,1,0c0.3,0.1,0.6,0.3,0.8,0.5
	c0.3,0.3,0.7,0.6,0.9,0.9C87.9,30.4,88,30.9,88.2,31.4z"/>
<path class="st8" d="M114,31.5c-2.2,0-4.3,0-6.4,0c-0.6-0.9,0.6-1.2,0.7-1.9c0.1-0.4,1.7-1,2.1-1c1,0,2,0,2.8,0.7
	C113.9,29.8,114.2,30.5,114,31.5z"/>
<path class="st8" d="M257.5,229.7c0,0.8,0,1.5,0,2.3c-0.8,0.5-1.7,0.9-2.5,1.4c-0.8,0.4-1.7,0.3-2.5,0c-0.6-0.2-1.2-0.5-1.1-1.1
	c0.1-0.7,0.3-1.4,1.2-1.6c0.7-0.2,1.3-0.6,2-0.6c0.5,0,0.9-0.1,1.3-0.3C256.3,229.6,256.9,229.7,257.5,229.7z"/>
<path class="st8" d="M244.8,32.2c0,1.9-0.7,3-1.9,3.8c-1.3,0.9-3.6,0.2-4.4-1.4c-0.5-1-0.9-2-0.4-3.2c0.3-0.6,0.3-1.4,0.9-1.9
	c0.8-0.9,1.9-1.1,3-1c1,0.2,1.8,0.8,2.1,1.8C244.4,31.1,244.6,31.9,244.8,32.2z"/>
<path class="st8" d="M296.8,229.6c0,0.7,0,1.3-0.3,2c-1,2.3-3.5,2.5-5.2,1.2c-0.5-0.4-0.8-1.3-1-2c-0.2-0.7-0.2-1.5,0-2.3
	c0.5-2,2.5-3.3,4.4-2.5C296.4,226.7,296.9,228,296.8,229.6z"/>
<path class="st8" d="M264,202c0.1-1.4,0.4-2.4,1-3.2c1.6-2.1,4.3-1.1,5.3,0.3c1.1,1.6,0.8,4.1-0.5,5.4c-0.8,0.8-1.8,1-2.9,0.9
	c-1-0.1-1.7-0.8-2.1-1.6C264.4,203.1,263.9,202.5,264,202z"/>
<path class="st8" d="M146.5,32.7c-0.1-1.1,0.3-2.1,0.8-2.8c1.3-1.8,3.9-1.8,5.2,0c0.6,0.8,1,1.8,0.8,2.9c-0.2,1-0.4,1.9-1.1,2.6
	c-1.5,1.5-4,1.3-5.1-0.6C146.8,34.1,146.2,33.5,146.5,32.7z"/>
<path class="st8" d="M264.1,89c0-0.9,0.5-2.4,1-3c1.4-1.6,3.8-1.5,5,0.2c0.6,0.8,1,1.8,0.8,2.9c-0.2,0.9-0.4,1.9-1.1,2.6
	c-1.5,1.5-4,1.3-5.1-0.6C264.2,90.3,264.1,89.9,264.1,89z"/>
<path class="st8" d="M231.6,88.8c0,1.1-0.2,2.1-1.1,3c-1.5,1.4-3.7,1.3-4.9-0.4c-0.6-0.8-1-1.8-0.8-2.9c0.2-1,0.4-1.9,1.1-2.6
	c1.5-1.5,4-1.3,5.1,0.6C231.5,87.3,231.6,87.9,231.6,88.8z"/>
<path class="st8" d="M244.7,173.4c0.1,1.2-0.3,2.2-1.2,3c-1.4,1.4-3.7,1.2-4.9-0.6c-1.5-2.2-0.5-4.6,0.8-5.8c1-0.9,2.9-0.9,3.9,0
	C244.3,170.9,244.8,172,244.7,173.4z"/>
<path class="st8" d="M270.9,173.3c0.1,1.4-0.4,2.4-1.3,3.3c-1.1,1-3.2,1-4.3-0.1c-0.6-0.6-1-1.3-1.2-2.1c-0.2-0.6,0-2.8,0.3-3.1
	c0.9-0.9,1.6-1.9,3.2-1.8c1.4,0.1,2.2,0.7,2.8,1.9C270.7,171.9,271.1,172.5,270.9,173.3z"/>
<path class="st1" d="M228.3,226.1c0.7,0,1.3,0.6,1.4,1.4c0.1,0.7-0.6,1.5-1.2,1.6c-1,0.1-1.7-0.6-1.8-1.5
	C226.7,226.8,227.5,226.1,228.3,226.1z"/>
</svg>
