<?xml version="1.0" encoding="utf-8"?>
<!-- Generator: Adobe Illustrator 26.0.3, SVG Export Plug-In . SVG Version: 6.00 Build 0)  -->
<svg version="1.1" id="Layer_1" xmlns="http://www.w3.org/2000/svg" xmlns:xlink="http://www.w3.org/1999/xlink" x="0px" y="0px"
	 viewBox="0 0 432 330.2" style="enable-background:new 0 0 432 330.2;" xml:space="preserve">
<style type="text/css">
	.st0{fill:#F9EFE1;stroke:#E8BA67;stroke-miterlimit:10;}
	.st1{fill:#FFE5B6;stroke:#E8BA67;stroke-miterlimit:10;}
	.st2{fill:#F7D5D5;stroke:#F27979;stroke-miterlimit:10;}
	.st3{fill:#E8F3F9;stroke:#78C5F4;stroke-miterlimit:10;}
	.st4{fill:#E6D4F4;stroke:#B97BEF;stroke-miterlimit:10;}
	.st5{fill:#C5EAE3;stroke:#5EDDC7;stroke-miterlimit:10;}
	.st6{fill:none;stroke:#000000;stroke-miterlimit:10;}
</style>
<rect x="10.8" y="11.2" class="st0" width="410.4" height="75.1"/>
<rect x="20.2" y="44.6" class="st1" width="391.6" height="32.1"/>
<rect x="10.8" y="275.2" class="st2" width="410.4" height="44.8"/>
<rect x="10.9" y="96.1" class="st3" width="304" height="169.5"/>
<rect x="324.2" y="96.1" class="st4" width="97" height="169.5"/>
<rect x="104.5" y="168.3" class="st5" width="116.6" height="44.8"/>
<line class="st6" x1="30" y1="127.7" x2="297.8" y2="127.7"/>
<line class="st6" x1="30" y1="136.2" x2="297.8" y2="136.2"/>
<line class="st6" x1="30" y1="144.8" x2="297.8" y2="144.8"/>
<line class="st6" x1="30" y1="153.4" x2="297.8" y2="153.4"/>
<line class="st6" x1="341.8" y1="127.7" x2="403.6" y2="127.7"/>
<line class="st6" x1="341.8" y1="136.2" x2="403.6" y2="136.2"/>
<line class="st6" x1="341.8" y1="144.8" x2="403.6" y2="144.8"/>
<line class="st6" x1="341.8" y1="153.4" x2="403.6" y2="153.4"/>
<line class="st6" x1="341.8" y1="162" x2="403.6" y2="162"/>
<line class="st6" x1="341.8" y1="170.6" x2="403.6" y2="170.6"/>
<line class="st6" x1="341.8" y1="179.1" x2="403.6" y2="179.1"/>
<line class="st6" x1="341.8" y1="187.7" x2="403.6" y2="187.7"/>
<line class="st6" x1="341.8" y1="196.3" x2="403.6" y2="196.3"/>
<line class="st6" x1="341.8" y1="204.9" x2="403.6" y2="204.9"/>
<line class="st6" x1="341.8" y1="213.5" x2="403.6" y2="213.5"/>
<line class="st6" x1="341.8" y1="222" x2="403.6" y2="222"/>
<line class="st6" x1="341.8" y1="230.6" x2="403.6" y2="230.6"/>
<line class="st6" x1="341.8" y1="239.2" x2="403.6" y2="239.2"/>
<line class="st6" x1="341.8" y1="247.8" x2="403.6" y2="247.8"/>
<line class="st6" x1="30" y1="228.1" x2="297.8" y2="228.1"/>
<line class="st6" x1="30" y1="236.7" x2="297.8" y2="236.7"/>
<line class="st6" x1="30" y1="245.3" x2="297.8" y2="245.3"/>
<g>
	<path d="M23.9,22.6V27h4.3v-4.4h2.6v11.5h-2.6v-4.8h-4.3v4.8h-2.6V22.6H23.9z"/>
	<path d="M39.9,29.2h-4.2v2.7h4.7v2.1h-7.3V22.6h7.1v2.1h-4.5v2.4h4.2V29.2z"/>
	<path d="M44.8,31.1L44,34.1h-2.7l3.5-11.5h3.4l3.6,11.5H49l-0.9-2.9H44.8z M47.7,29.2L47,26.8c-0.2-0.7-0.4-1.5-0.6-2.2h0
		c-0.2,0.7-0.3,1.5-0.5,2.2l-0.7,2.4H47.7z"/>
	<path d="M53.3,22.8c1-0.2,2.2-0.2,3.5-0.2c2.2,0,3.6,0.4,4.7,1.2c1.2,0.9,1.9,2.3,1.9,4.3c0,2.2-0.8,3.7-1.9,4.6
		c-1.2,1-3,1.5-5.3,1.5c-1.3,0-2.3-0.1-2.9-0.2V22.8z M55.9,32.1c0.2,0.1,0.6,0.1,0.9,0.1c2.3,0,3.9-1.3,3.9-4
		c0-2.4-1.4-3.6-3.6-3.6c-0.6,0-1,0.1-1.2,0.1V32.1z"/>
	<path d="M71.9,29.2h-4.2v2.7h4.7v2.1h-7.3V22.6h7.1v2.1h-4.5v2.4h4.2V29.2z"/>
	<path d="M74.2,22.8c0.8-0.1,2.1-0.2,3.5-0.2c1.7,0,2.9,0.3,3.7,0.9c0.7,0.5,1.1,1.3,1.1,2.4c0,1.5-1,2.5-2,2.8v0.1
		c0.8,0.3,1.2,1.1,1.5,2.1c0.4,1.3,0.7,2.8,0.9,3.2h-2.7c-0.2-0.3-0.5-1.3-0.8-2.7c-0.3-1.4-0.8-1.8-1.9-1.8h-0.8v4.5h-2.6V22.8z
		 M76.8,27.7h1c1.3,0,2.1-0.6,2.1-1.6c0-1.1-0.7-1.6-1.9-1.6c-0.6,0-1,0.1-1.2,0.1V27.7z"/>
</g>
<g>
	<path d="M22.3,288.2h7v2.1h-4.4v2.6h4.1v2.1h-4.1v4.6h-2.6V288.2z"/>
	<path d="M41.8,293.8c0,3.8-2.3,6-5.6,6c-3.4,0-5.4-2.6-5.4-5.8c0-3.4,2.2-6,5.6-6C39.9,288,41.8,290.7,41.8,293.8z M33.5,294
		c0,2.2,1.1,3.8,2.8,3.8c1.8,0,2.8-1.7,2.8-3.9c0-2.1-1-3.8-2.8-3.8C34.5,290.1,33.5,291.7,33.5,294z"/>
	<path d="M54,293.8c0,3.8-2.3,6-5.6,6c-3.4,0-5.4-2.6-5.4-5.8c0-3.4,2.2-6,5.6-6C52.1,288,54,290.7,54,293.8z M45.7,294
		c0,2.2,1.1,3.8,2.8,3.8c1.8,0,2.8-1.7,2.8-3.9c0-2.1-1-3.8-2.8-3.8C46.7,290.1,45.7,291.7,45.7,294z"/>
	<path d="M57.4,290.4h-3.1v-2.2h8.8v2.2H60v9.3h-2.6V290.4z"/>
	<path d="M71.3,294.8h-4.2v2.7h4.7v2.1h-7.3v-11.5h7.1v2.1h-4.5v2.4h4.2V294.8z"/>
	<path d="M73.6,288.4c0.8-0.1,2.1-0.2,3.5-0.2c1.7,0,2.9,0.3,3.7,0.9c0.7,0.5,1.1,1.3,1.1,2.4c0,1.5-1,2.5-2,2.8v0.1
		c0.8,0.3,1.2,1.1,1.5,2.1c0.4,1.3,0.7,2.8,0.9,3.2h-2.7c-0.2-0.3-0.5-1.3-0.8-2.7c-0.3-1.4-0.8-1.8-1.9-1.8h-0.8v4.5h-2.6V288.4z
		 M76.2,293.3h1c1.3,0,2.1-0.6,2.1-1.6c0-1.1-0.7-1.6-1.9-1.6c-0.6,0-1,0.1-1.2,0.1V293.3z"/>
</g>
<g>
	<path d="M24,116.6l-0.8,2.9h-2.7L24,108h3.4l3.6,11.5h-2.8l-0.9-2.9H24z M26.9,114.6l-0.7-2.4c-0.2-0.7-0.4-1.5-0.6-2.2h0
		c-0.2,0.7-0.3,1.5-0.5,2.2l-0.7,2.4H26.9z"/>
	<path d="M32.5,108.2c0.8-0.1,2.1-0.2,3.5-0.2c1.7,0,2.9,0.3,3.7,0.9c0.7,0.5,1.1,1.3,1.1,2.4c0,1.5-1,2.5-2,2.8v0.1
		c0.8,0.3,1.2,1.1,1.5,2.1c0.4,1.3,0.7,2.8,0.9,3.2h-2.7c-0.2-0.3-0.5-1.3-0.8-2.7c-0.3-1.4-0.8-1.8-1.9-1.8h-0.8v4.5h-2.6V108.2z
		 M35.1,113.1h1c1.3,0,2.1-0.6,2.1-1.6c0-1.1-0.7-1.6-1.9-1.6c-0.6,0-1,0.1-1.2,0.1V113.1z"/>
	<path d="M44.8,110.2h-3.1V108h8.8v2.2h-3.1v9.3h-2.6V110.2z"/>
	<path d="M54.5,108v11.5h-2.6V108H54.5z"/>
	<path d="M65.1,119.2c-0.5,0.2-1.5,0.5-2.9,0.5c-4,0-6-2.5-6-5.7c0-3.9,2.8-6.1,6.3-6.1c1.3,0,2.4,0.3,2.8,0.5l-0.5,2.1
		c-0.5-0.2-1.3-0.4-2.2-0.4c-2.1,0-3.7,1.2-3.7,3.8c0,2.3,1.4,3.7,3.7,3.7c0.8,0,1.6-0.2,2.2-0.4L65.1,119.2z"/>
	<path d="M66.9,108h2.6v9.3H74v2.2h-7.2V108z"/>
	<path d="M82.4,114.7h-4.2v2.7h4.7v2.1h-7.3V108h7.1v2.1h-4.5v2.4h4.2V114.7z"/>
</g>
<g>
	<path d="M115.4,180h7v2.1H118v2.6h4.1v2.1H118v4.6h-2.6V180z"/>
	<path d="M127,180v11.5h-2.6V180H127z"/>
	<path d="M138.8,190.9c-0.8,0.3-2.3,0.6-3.8,0.6c-2.1,0-3.6-0.5-4.7-1.5c-1.1-1-1.6-2.5-1.6-4.2c0-3.8,2.8-6,6.5-6
		c1.5,0,2.6,0.3,3.2,0.6l-0.5,2.1c-0.6-0.3-1.4-0.5-2.7-0.5c-2.2,0-3.8,1.2-3.8,3.7c0,2.4,1.5,3.8,3.6,3.8c0.6,0,1.1-0.1,1.3-0.2
		v-2.4h-1.8v-2h4.3V190.9z"/>
	<path d="M143.4,180v6.6c0,2,0.7,3,2.1,3c1.4,0,2.1-1,2.1-3V180h2.6v6.4c0,3.5-1.8,5.2-4.8,5.2c-2.9,0-4.6-1.6-4.6-5.3V180H143.4z"
		/>
	<path d="M152.4,180.2c0.8-0.1,2.1-0.2,3.5-0.2c1.7,0,2.9,0.3,3.7,0.9c0.7,0.5,1.1,1.3,1.1,2.4c0,1.5-1,2.5-2,2.8v0.1
		c0.8,0.3,1.2,1.1,1.5,2.1c0.4,1.3,0.7,2.8,0.9,3.2h-2.7c-0.2-0.3-0.5-1.3-0.8-2.7c-0.3-1.4-0.8-1.8-1.9-1.8H155v4.5h-2.6V180.2z
		 M155,185.1h1c1.3,0,2.1-0.6,2.1-1.6c0-1.1-0.7-1.6-1.9-1.6c-0.6,0-1,0.1-1.2,0.1V185.1z"/>
	<path d="M169.3,186.6h-4.2v2.7h4.7v2.1h-7.3V180h7.1v2.1h-4.5v2.4h4.2V186.6z"/>
</g>
<g>
	<path d="M338.6,116.6l-0.8,2.9h-2.7l3.5-11.5h3.4l3.6,11.5h-2.8l-0.9-2.9H338.6z M341.5,114.6l-0.7-2.4c-0.2-0.7-0.4-1.5-0.6-2.2h0
		c-0.2,0.7-0.3,1.5-0.5,2.2l-0.7,2.4H341.5z"/>
	<path d="M347.1,116.8c0.7,0.4,1.8,0.7,2.9,0.7c1.2,0,1.8-0.5,1.8-1.2c0-0.7-0.5-1.1-1.9-1.6c-1.9-0.7-3.1-1.7-3.1-3.4
		c0-2,1.6-3.5,4.3-3.5c1.3,0,2.2,0.3,2.9,0.6l-0.6,2.1c-0.5-0.2-1.3-0.5-2.4-0.5c-1.1,0-1.7,0.5-1.7,1.1c0,0.7,0.6,1.1,2.1,1.6
		c2,0.7,3,1.8,3,3.4c0,1.9-1.5,3.6-4.6,3.6c-1.3,0-2.6-0.4-3.2-0.7L347.1,116.8z"/>
	<path d="M358.8,108v11.5h-2.6V108H358.8z"/>
	<path d="M361.1,108.2c1-0.2,2.2-0.2,3.5-0.2c2.2,0,3.6,0.4,4.7,1.2c1.2,0.9,1.9,2.3,1.9,4.3c0,2.2-0.8,3.7-1.9,4.6
		c-1.2,1-3,1.5-5.3,1.5c-1.3,0-2.3-0.1-2.9-0.2V108.2z M363.7,117.6c0.2,0.1,0.6,0.1,0.9,0.1c2.3,0,3.9-1.3,3.9-4
		c0-2.4-1.4-3.6-3.6-3.6c-0.6,0-1,0.1-1.2,0.1V117.6z"/>
	<path d="M379.7,114.7h-4.2v2.7h4.7v2.1h-7.3V108h7.1v2.1h-4.5v2.4h4.2V114.7z"/>
</g>
<g>
	<path d="M32.1,67.3V55.9h3l2.4,4.2c0.7,1.2,1.4,2.6,1.9,3.9h0.1c-0.2-1.5-0.2-3.1-0.2-4.8v-3.3h2.4v11.5h-2.7l-2.4-4.4
		c-0.7-1.2-1.4-2.7-2-4l-0.1,0c0.1,1.5,0.1,3.1,0.1,5v3.5H32.1z"/>
	<path d="M46.5,64.4l-0.8,2.9H43l3.5-11.5h3.4l3.6,11.5h-2.8l-0.9-2.9H46.5z M49.4,62.4L48.7,60c-0.2-0.7-0.4-1.5-0.6-2.2h0
		c-0.2,0.7-0.3,1.5-0.5,2.2l-0.7,2.4H49.4z"/>
	<path d="M56.7,67.3L53,55.9h2.8l1.4,4.8c0.4,1.4,0.7,2.7,1,4.1h0.1c0.3-1.4,0.6-2.7,1-4l1.5-4.9h2.8l-3.9,11.5H56.7z"/>
</g>
</svg>
