<?xml version="1.0" encoding="utf-8"?>
<!-- Generator: Adobe Illustrator 26.0.1, SVG Export Plug-In . SVG Version: 6.00 Build 0)  -->
<svg version="1.1" id="Layer_1" xmlns="http://www.w3.org/2000/svg" xmlns:xlink="http://www.w3.org/1999/xlink" x="0px" y="0px"
	 viewBox="0 0 432 288" style="enable-background:new 0 0 432 288;" xml:space="preserve">
<style type="text/css">
	.st0{fill:#EFEFEF;}
	.st1{fill:#E18256;}
	.st2{fill:#FFFFFF;}
	.st3{fill:#CDC8AE;}
	.st4{fill:#73A353;}
	.st5{fill:#9FB3B6;}
	.st6{fill:#478EB0;}
	.st7{fill:#7C3D4F;}
	.st8{fill:#E3BC3D;}
</style>
<rect x="10.8" y="11.1" class="st0" width="410.4" height="265.7"/>
<g>
	<path class="st1" d="M216.2,143.6V39c57.6,0.1,104.5,47.1,104.5,104.7c0,23.8-8.2,47-23.1,65.5L216.2,143.6z"/>
	<path class="st2" d="M216.5,39.2c57.4,0.3,104,47,104,104.5c0,23.6-8.1,46.7-22.8,65.2l-7-5.6l-74.2-59.8V48.2V39.2 M216,38.7v9.5
		v95.5l74.3,59.9l7.4,5.9c14.5-18,23.3-40.9,23.3-65.9C320.9,85.7,273.9,38.7,216,38.7L216,38.7z"/>
</g>
<g>
	<path class="st3" d="M216,267.4c-21,0-41.7-5.3-59.9-15.4l60-107.8l96,77.4C288.4,250.7,253.4,267.4,216,267.4z"/>
	<path class="st2" d="M216.1,144.5L290,204l7.4,5.9l7.4,5.9l7,5.6c-23.6,29-58.4,45.6-95.7,45.6c-20.8,0-41.4-5.3-59.5-15.3l4.4-7.8
		l4.6-8.3l4.6-8.3L216.1,144.5 M216,143.7l-46.4,83.5l-4.6,8.3l-4.6,8.3l-4.6,8.3c17.8,9.9,38.4,15.6,60.2,15.6
		c39,0,73.7-18,96.4-46.1l-7.4-5.9l-7.4-5.9l-7.4-5.9L216,143.7L216,143.7z"/>
</g>
<g>
	<path class="st4" d="M160,243.2c-35.3-19.9-57.6-57.4-58.2-97.8l113.7-1.4c-2.3,4.2-23.6,42-46.5,82.9L160,243.2z"/>
	<path class="st2" d="M215.1,144.2c-3.2,5.7-23.9,42.7-46.2,82.6l-4.6,8.3l-4.4,7.8c-17-9.6-31.3-23.5-41.4-40.2
		c-10.4-17.2-16.1-36.9-16.4-57l9-0.1l9.5-0.1L215.1,144.2 M216,143.7l-95.5,1.2L111,145l-9.5,0.1c0.5,42.3,24,79,58.5,98.4
		c1.5-2.8,3.1-5.5,4.6-8.3c1.5-2.8,3.1-5.5,4.6-8.3C193.7,183.4,216,143.7,216,143.7L216,143.7z"/>
</g>
<g>
	<path class="st5" d="M73.4,144.9c0-0.4,0-0.8,0-1.2c0-30.3,9.4-59.2,27.1-83.6l114.7,83.4l-141.8,1.8L73.4,144.9z"/>
	<path class="st2" d="M100.6,60.4l7.2,5.3l7.7,5.6l7.7,5.6l7.7,5.6l7.7,5.6l76,55.3l-94,1.2l-9.5,0.1l-9.5,0.1l-9.5,0.1l-9.5,0.1
		l-9,0.1l0-0.1c0-0.4,0-0.8,0-1.2C73.6,113.6,82.9,84.8,100.6,60.4 M100.4,59.7c-17.2,23.6-27.3,52.6-27.3,84c0,0.6,0,1.2,0,1.8
		l9.5-0.1l9.5-0.1l9.5-0.1l9.5-0.1l9.5-0.1l95.5-1.2l-77.2-56.2l-7.7-5.6l-7.7-5.6l-7.7-5.6l-7.7-5.6L100.4,59.7L100.4,59.7z"/>
</g>
<g>
	<path class="st6" d="M108.4,65.2c11.2-15.4,25.9-28.4,42.5-37.7l64.3,115.3L108.4,65.2z"/>
	<path class="st2" d="M150.8,27.9l4.4,7.8l4.6,8.3l4.6,8.3l4.6,8.3l45.4,81.4L139,87.2l-7.7-5.6l-7.7-5.6l-7.7-5.6l-7.2-5.3
		C119.9,50,134.4,37.1,150.8,27.9 M151,27.2c-16.9,9.5-31.6,22.5-42.9,38.1l7.7,5.6l7.7,5.6l7.7,5.6l7.7,5.6l77.2,56.2l-46.5-83.4
		l-4.6-8.3l-4.6-8.3l-4.6-8.3L151,27.2L151,27.2z"/>
</g>
<g>
	<path class="st7" d="M160.6,43.9c11-6.1,22.9-10.4,35.3-12.6l19.6,111L160.6,43.9z"/>
	<path class="st2" d="M195.7,31.6l1.6,8.9l1.6,9.3l16.1,91.1l-45.1-80.8l-4.6-8.3l-4.4-7.8C171.8,37.9,183.5,33.8,195.7,31.6
		 M196.1,31c-12.8,2.2-24.9,6.6-35.9,12.8l4.6,8.3l4.6,8.3l46.5,83.4l-16.6-94l-1.6-9.3L196.1,31L196.1,31z"/>
</g>
<g>
	<path class="st8" d="M199.7,49.9c5.4-0.9,10.8-1.4,16-1.4v92.4L199.7,49.9z"/>
	<path class="st2" d="M215.5,48.7V138L200,50.1C205.2,49.2,210.4,48.7,215.5,48.7 M216,48.2c-5.7,0-11.2,0.5-16.6,1.5l16.6,94V48.2
		L216,48.2z"/>
</g>
</svg>
