<?xml version="1.0" encoding="utf-8"?>
<!-- Generator: Adobe Illustrator 26.0.1, SVG Export Plug-In . SVG Version: 6.00 Build 0)  -->
<svg version="1.1" id="Layer_1" xmlns="http://www.w3.org/2000/svg" xmlns:xlink="http://www.w3.org/1999/xlink" x="0px" y="0px"
	 viewBox="0 0 432 288" style="enable-background:new 0 0 432 288;" xml:space="preserve">
<style type="text/css">
	.st0{fill:#EFEFEF;}
	.st1{fill:#565656;}
	.st2{clip-path:url(#SVGID_00000028295099061467998680000015383108994881513361_);fill:#F2F2F2;}
	.st3{clip-path:url(#SVGID_00000028295099061467998680000015383108994881513361_);}
	.st4{fill:#FFFFFF;}
	
		.st5{clip-path:url(#SVGID_00000028295099061467998680000015383108994881513361_);fill:none;stroke:#000000;stroke-width:9;stroke-linecap:round;stroke-miterlimit:10;}
</style>
<rect x="10.8" y="11.1" class="st0" width="410.4" height="265.7"/>
<g>
	<path class="st1" d="M113.9,80.4V77l4.4-4.3c10.7-10.2,15.6-15.6,15.6-21.9c0-4.2-2-8.2-8.2-8.2c-3.8,0-6.9,1.9-8.9,3.5l-1.8-4
		c2.8-2.4,7-4.2,11.8-4.2c9,0,12.8,6.2,12.8,12.2c0,7.7-5.6,14-14.4,22.4l-3.3,3.1v0.1h18.7v4.7H113.9z"/>
	<path class="st1" d="M159.1,43.9H159l-7.3,3.9l-1.1-4.3l9.1-4.9h4.8v41.8h-5.5V43.9z"/>
	<path class="st1" d="M204.3,37.1h5.7v29c0,11.5-5.7,15-13.1,15c-2.1,0-4.6-0.5-6-1l0.8-4.6c1.2,0.5,2.8,0.8,4.8,0.8
		c5,0,7.9-2.3,7.9-10.7V37.1z"/>
	<path class="st1" d="M240.9,73c0,2.7,0.1,5.3,0.5,7.5h-5.1l-0.5-3.9h-0.2c-1.7,2.4-5.1,4.6-9.5,4.6c-6.3,0-9.5-4.4-9.5-8.9
		c0-7.5,6.7-11.6,18.7-11.6V60c0-2.5-0.7-7.2-7.1-7.1c-3,0-6,0.8-8.2,2.3l-1.3-3.8c2.6-1.6,6.4-2.7,10.3-2.7
		c9.5,0,11.8,6.5,11.8,12.7V73z M235.5,64.6c-6.2-0.1-13.2,1-13.2,7c0,3.7,2.4,5.4,5.3,5.4c4.1,0,6.8-2.6,7.7-5.2
		c0.2-0.6,0.3-1.3,0.3-1.8V64.6z"/>
	<path class="st1" d="M250.1,57.7c0-3.3-0.1-5.9-0.3-8.4h5l0.3,5.1h0.1c1.5-2.9,5.1-5.8,10.3-5.8c4.3,0,11,2.6,11,13.2v18.5h-5.7
		V62.5c0-5-1.9-9.2-7.2-9.2c-3.7,0-6.6,2.6-7.6,5.8c-0.3,0.7-0.4,1.7-0.4,2.6v18.7h-5.7V57.7z"/>
	<path class="st1" d="M311.8,71.9c0,3.3,0.1,6.1,0.3,8.6h-5l-0.3-5.1h-0.1c-1.4,2.5-4.8,5.8-10.3,5.8c-4.9,0-10.7-2.8-10.7-13.6
		V49.3h5.7v17.2c0,5.9,1.9,10,6.9,10c3.8,0,6.4-2.6,7.5-5.2c0.3-0.8,0.5-1.8,0.5-2.9v-19h5.7V71.9z"/>
	<path class="st1" d="M343.1,73c0,2.7,0.1,5.3,0.5,7.5h-5.1l-0.5-3.9h-0.2c-1.7,2.4-5.1,4.6-9.5,4.6c-6.3,0-9.5-4.4-9.5-8.9
		c0-7.5,6.7-11.6,18.7-11.6V60c0-2.5-0.7-7.2-7.1-7.1c-3,0-6,0.8-8.2,2.3l-1.3-3.8c2.6-1.6,6.4-2.7,10.3-2.7
		c9.5,0,11.8,6.5,11.8,12.7V73z M337.6,64.6c-6.2-0.1-13.2,1-13.2,7c0,3.7,2.4,5.4,5.3,5.4c4.1,0,6.8-2.6,7.7-5.2
		c0.2-0.6,0.3-1.3,0.3-1.8V64.6z"/>
	<path class="st1" d="M352.2,59c0-3.7-0.1-6.8-0.3-9.7h5l0.3,6.2h0.2c1.4-4.2,4.9-6.8,8.7-6.8c0.6,0,1,0.1,1.5,0.1v5.3
		c-0.6-0.1-1.2-0.1-1.9-0.1c-4,0-6.8,3-7.6,7.2c-0.1,0.8-0.2,1.7-0.2,2.6v16.6h-5.7V59z"/>
	<path class="st1" d="M376.9,49.3l6.8,18.4c0.8,2.1,1.5,4.5,2.1,6.4h0.1c0.6-1.9,1.2-4.2,2-6.5l6.2-18.3h6l-8.5,22.2
		c-4.1,10.7-6.8,16.1-10.7,19.5c-2.8,2.4-5.5,3.3-6.9,3.6l-1.4-4.7c1.4-0.5,3.3-1.4,5-2.8c1.5-1.2,3.4-3.4,4.8-6.3
		c0.3-0.6,0.5-1,0.5-1.4c0-0.3-0.1-0.8-0.5-1.5l-11.4-28.7H376.9z"/>
	<path class="st1" d="M271.4,157.6v-3.5l4.4-4.3c10.7-10.2,15.6-15.6,15.6-21.9c0-4.2-2-8.2-8.2-8.2c-3.8,0-6.9,1.9-8.9,3.5l-1.8-4
		c2.8-2.4,7-4.2,11.8-4.2c9,0,12.8,6.2,12.8,12.2c0,7.7-5.6,14-14.4,22.4l-3.3,3.1v0.1H298v4.7H271.4z"/>
	<path class="st1" d="M332.2,136.2c0,14.2-5.3,22.1-14.5,22.1c-8.2,0-13.8-7.7-13.9-21.5c0-14.1,6.1-21.7,14.6-21.7
		C327.1,115.1,332.2,122.9,332.2,136.2z M309.5,136.9c0,10.9,3.3,17,8.5,17c5.7,0,8.5-6.8,8.5-17.4c0-10.3-2.6-17-8.5-17
		C313.1,119.5,309.5,125.5,309.5,136.9z"/>
	<path class="st1" d="M337.3,157.6v-3.5l4.4-4.3c10.7-10.2,15.6-15.6,15.6-21.9c0-4.2-2-8.2-8.2-8.2c-3.8,0-6.9,1.9-8.9,3.5l-1.8-4
		c2.8-2.4,7-4.2,11.8-4.2c9,0,12.8,6.2,12.8,12.2c0,7.7-5.6,14-14.4,22.4l-3.3,3.1v0.1H364v4.7H337.3z"/>
	<path class="st1" d="M370.3,157.6v-3.5l4.4-4.3c10.7-10.2,15.6-15.6,15.6-21.9c0-4.2-2-8.2-8.2-8.2c-3.8,0-6.9,1.9-8.9,3.5l-1.8-4
		c2.8-2.4,7-4.2,11.8-4.2c9,0,12.8,6.2,12.8,12.2c0,7.7-5.6,14-14.4,22.4l-3.3,3.1v0.1H397v4.7H370.3z"/>
	<path class="st1" d="M217.8,234.8v-3.5l4.4-4.3c10.7-10.2,15.6-15.6,15.6-21.9c0-4.2-2-8.2-8.2-8.2c-3.8,0-6.9,1.9-8.9,3.5l-1.8-4
		c2.8-2.4,7-4.2,11.8-4.2c9,0,12.8,6.2,12.8,12.2c0,7.7-5.6,14-14.4,22.4l-3.3,3.1v0.1h18.7v4.7H217.8z"/>
	<path class="st1" d="M251.3,208.8c0-2.4,1.6-4.1,3.8-4.1c2.3,0,3.8,1.7,3.8,4.1c0,2.3-1.5,4-3.9,4
		C252.9,212.8,251.3,211,251.3,208.8z M251.3,231.5c0-2.4,1.6-4.1,3.8-4.1c2.3,0,3.8,1.7,3.8,4.1c0,2.2-1.5,4-3.9,4
		C252.9,235.5,251.3,233.7,251.3,231.5z"/>
	<path class="st1" d="M291.9,213.4c0,14.2-5.3,22.1-14.5,22.1c-8.2,0-13.8-7.7-13.9-21.5c0-14.1,6.1-21.7,14.6-21.7
		C286.9,192.3,291.9,200.1,291.9,213.4z M269.2,214.1c0,10.9,3.3,17,8.5,17c5.7,0,8.5-6.8,8.5-17.4c0-10.3-2.6-17-8.5-17
		C272.8,196.6,269.2,202.7,269.2,214.1z"/>
	<path class="st1" d="M322,197.7h-15.9l-1.6,10.7c1-0.1,1.9-0.2,3.4-0.2c3.3,0,6.4,0.6,9,2.3c3.3,1.8,6,5.5,6,10.7
		c0,8.2-6.5,14.3-15.6,14.3c-4.6,0-8.4-1.3-10.4-2.6l1.4-4.3c1.7,1,5.1,2.3,9,2.3c5.3,0,9.9-3.5,9.8-9.1c0-5.4-3.7-9.2-12-9.2
		c-2.4,0-4.3,0.2-5.9,0.4L302,193h20V197.7z"/>
	<path class="st1" d="M344.2,204.8c1.9-0.3,4.4-0.6,7.5-0.6c3.9,0,6.7,0.9,8.5,2.5c1.6,1.4,2.7,3.6,2.7,6.3c0,2.7-0.8,4.9-2.3,6.5
		c-2.1,2.2-5.4,3.3-9.3,3.3c-1.2,0-2.3,0-3.2-0.3v12.2h-3.9V204.8z M348.2,219.4c0.9,0.2,1.9,0.3,3.2,0.3c4.7,0,7.6-2.3,7.6-6.4
		c0-4.1-2.9-6-7.2-6c-1.7,0-3,0.1-3.7,0.3V219.4z"/>
	<path class="st1" d="M393.2,221.4c-0.2-4.2-0.5-9.4-0.5-13.1h-0.1c-1.1,3.5-2.3,7.3-3.8,11.5l-5.4,14.7h-3l-5-14.4
		c-1.4-4.3-2.6-8.2-3.5-11.8H372c-0.1,3.8-0.3,8.8-0.6,13.4l-0.8,13h-3.7l2.1-30.3h5l5.2,14.7c1.3,3.7,2.3,7.1,3.1,10.2h0.1
		c0.8-3.1,1.9-6.4,3.2-10.2l5.4-14.7h5l1.9,30.3h-3.9L393.2,221.4z"/>
</g>
<g>
	<defs>
		<rect id="SVGID_1_" x="10.8" y="11.1" width="410.4" height="265.7"/>
	</defs>
	<clipPath id="SVGID_00000143604395985218015670000007471729219458180242_">
		<use xlink:href="#SVGID_1_"  style="overflow:visible;"/>
	</clipPath>
	
		<circle style="clip-path:url(#SVGID_00000143604395985218015670000007471729219458180242_);fill:#F2F2F2;" cx="78.5" cy="212.6" r="140.5"/>
	<path style="clip-path:url(#SVGID_00000143604395985218015670000007471729219458180242_);" d="M78.6,79.6
		c23.2,0,46.2,6.2,66.4,17.8c30.8,17.8,52.8,46.5,62,80.8s4.5,70.2-13.3,100.9c-11.9,20.6-29.1,37.6-49.7,49.3
		c-20,11.3-42.7,17.3-65.7,17.3c-23.2,0-46.2-6.2-66.4-17.8c-30.8-17.8-52.8-46.5-62-80.8s-4.5-70.2,13.3-100.9
		c11.9-20.6,29.1-37.6,49.7-49.3C32.9,85.6,55.6,79.6,78.6,79.6 M78.6,67.6c-50.1,0-98.9,26-125.7,72.5
		c-40,69.4-16.3,158.1,53.1,198.1c22.8,13.2,47.8,19.5,72.4,19.5c50.1,0,98.9-26,125.7-72.5c40-69.4,16.3-158.1-53.1-198.1
		C128.1,73.9,103.2,67.6,78.6,67.6L78.6,67.6z"/>
	<g style="clip-path:url(#SVGID_00000143604395985218015670000007471729219458180242_);">
		<rect x="74.1" y="96" class="st4" width="8.8" height="18.6"/>
		<polygon points="82.8,96 74.1,96 74.1,114.6 82.8,114.6 82.8,96 		"/>
	</g>
	<g style="clip-path:url(#SVGID_00000143604395985218015670000007471729219458180242_);">
		<rect x="176.5" y="208.3" class="st4" width="18.6" height="8.8"/>
		<polygon points="195.1,208.3 176.5,208.3 176.5,217 195.1,217 195.1,208.3 		"/>
	</g>
	<g style="clip-path:url(#SVGID_00000143604395985218015670000007471729219458180242_);">
		<rect x="22.7" y="114.4" transform="matrix(0.866 -0.5 0.5 0.866 -56.5175 28.4203)" class="st4" width="4.2" height="10.5"/>
		<polygon points="24,114.1 20.3,116.2 25.6,125.3 29.2,123.2 24,114.1 		"/>
	</g>
	<g style="clip-path:url(#SVGID_00000143604395985218015670000007471729219458180242_);">
		<rect x="169.3" y="261.1" transform="matrix(0.5 -0.866 0.866 0.5 -144.9303 281.6185)" class="st4" width="4.2" height="10.5"/>
		<polygon points="167.9,261.9 165.8,265.5 174.9,270.8 177,267.1 167.9,261.9 		"/>
	</g>
	<g style="clip-path:url(#SVGID_00000143604395985218015670000007471729219458180242_);">
		<rect x="166.2" y="156.9" transform="matrix(0.866 -0.5 0.5 0.866 -56.5175 107.0095)" class="st4" width="10.5" height="4.2"/>
		<polygon points="174.9,154.5 165.8,159.8 167.9,163.4 177,158.2 174.9,154.5 		"/>
	</g>
	<g style="clip-path:url(#SVGID_00000143604395985218015670000007471729219458180242_);">
		<rect x="126.9" y="117.6" transform="matrix(0.5 -0.866 0.866 0.5 -37.5755 174.2637)" class="st4" width="10.5" height="4.2"/>
		<polygon points="132.9,114.1 127.7,123.2 131.3,125.3 136.6,116.2 132.9,114.1 		"/>
	</g>
	
		<line style="clip-path:url(#SVGID_00000143604395985218015670000007471729219458180242_);fill:none;stroke:#000000;stroke-width:9;stroke-linecap:round;stroke-miterlimit:10;" x1="78.5" y1="212.6" x2="118.5" y2="142.5"/>
	
		<line style="clip-path:url(#SVGID_00000143604395985218015670000007471729219458180242_);fill:none;stroke:#000000;stroke-width:9;stroke-linecap:round;stroke-miterlimit:10;" x1="78.5" y1="212.6" x2="124.1" y2="189.9"/>
</g>
</svg>
