<?xml version="1.0" encoding="utf-8"?>
<!-- Generator: Adobe Illustrator 26.0.2, SVG Export Plug-In . SVG Version: 6.00 Build 0)  -->
<svg version="1.1" id="Layer_1" xmlns="http://www.w3.org/2000/svg" xmlns:xlink="http://www.w3.org/1999/xlink" x="0px" y="0px"
	 viewBox="0 0 432 288" style="enable-background:new 0 0 432 288;" xml:space="preserve">
<style type="text/css">
	.st0{fill:#EFEFEF;}
	.st1{fill:#494949;}
</style>
<rect x="10.8" y="11.1" class="st0" width="410.4" height="265.7"/>
<path class="st1" d="M349.6,178.6l-21-19.7l3.8-28.5l39.7-14.1c-11.8-8.7-27.6-11.6-42.4-6.3c-13,4.6-22.6,14.6-27.3,26.5h-174
	c-9.8-21.3-34.3-31.9-56.8-23.9c-14.9,5.3-25.3,17.5-28.9,31.7l39.7-14.1l21,19.7l-3.8,28.5l-39.7,14.1c11.8,8.7,27.6,11.6,42.4,6.3
	c13-4.6,22.6-14.6,27.3-26.5h174c9.8,21.3,34.3,31.9,56.8,23.9c14.9-5.3,25.3-17.5,28.9-31.7L349.6,178.6z"/>
<g>
	<g>
		<path d="M254.2,56.4c5,5.3,8.8,11.3,11.2,17.9c2.4,6.6,3.6,13.8,3.6,21.6c0,16.9-5.4,30.8-16.2,41.5s-25.6,17.2-44.5,19.4v30.3
			h-12.6v-52c5.8-0.5,11.5-1.4,17.2-2.8s10.7-3.7,15.2-6.9c4.7-3.4,8.3-7.5,10.9-12.3c2.6-4.8,3.9-11.5,3.9-20.1
			c0-13.7-2.9-24.3-8.7-31.6c-5.8-7.3-14.3-11-25.5-11c-4.2,0-7.9,0.6-11,1.9c-3.2,1.2-5.5,2.4-6.9,3.5c0.5,2.2,1.1,5.4,1.9,9.5
			c0.8,4.1,1.2,7.3,1.2,9.5c0,3.4-1.5,6.5-4.4,9.3c-2.9,2.8-7.2,4.2-12.8,4.2c-4.9,0-8.5-1.7-10.6-5.1s-3.2-7.3-3.2-11.8
			c0-3.7,1-7.2,3-10.8s5.2-6.9,9.5-10.2c3.7-2.9,8.6-5.4,14.9-7.5s12.8-3.2,19.6-3.2c9.7,0,18.3,1.5,25.8,4.6
			C243.2,47.1,249.4,51.2,254.2,56.4z M221.3,223.1c0,5.1-1.9,9.5-5.6,13.1c-3.7,3.6-8.1,5.4-13.2,5.4s-9.5-1.8-13.2-5.4
			c-3.7-3.6-5.6-8-5.6-13.1c0-5.1,1.9-9.5,5.6-13.2c3.7-3.7,8.1-5.6,13.2-5.6s9.5,1.9,13.2,5.6C219.4,213.5,221.3,217.9,221.3,223.1
			z"/>
		<path class="st0" d="M209.9,39.5c9.7,0,18.3,1.5,25.8,4.6c7.5,3.1,13.7,7.2,18.5,12.3c5,5.3,8.8,11.3,11.2,17.9
			c2.4,6.6,3.6,13.8,3.6,21.6c0,16.9-5.4,30.8-16.2,41.5c-10.8,10.7-25.6,17.2-44.5,19.4v30.3h-12.6v-52c5.8-0.5,11.5-1.4,17.2-2.8
			s10.7-3.7,15.2-6.9c4.7-3.4,8.3-7.5,10.9-12.3c2.6-4.8,3.9-11.5,3.9-20.1c0-13.7-2.9-24.3-8.7-31.6c-5.8-7.3-14.3-11-25.5-11
			c-4.2,0-7.9,0.6-11,1.9c-3.2,1.2-5.5,2.4-6.9,3.5c0.5,2.2,1.1,5.4,1.9,9.5c0.8,4.1,1.2,7.3,1.2,9.5c0,3.4-1.5,6.5-4.4,9.3
			c-2.9,2.8-7.2,4.2-12.8,4.2c-4.9,0-8.5-1.7-10.6-5.1c-2.1-3.4-3.2-7.3-3.2-11.8c0-3.7,1-7.2,3-10.8c2-3.5,5.2-6.9,9.5-10.2
			c3.7-2.9,8.6-5.4,14.9-7.5C196.6,40.5,203.1,39.5,209.9,39.5 M202.5,204.3c5.1,0,9.5,1.9,13.2,5.6c3.7,3.7,5.6,8.1,5.6,13.2
			s-1.9,9.5-5.6,13.1c-3.7,3.6-8.1,5.4-13.2,5.4c-5.1,0-9.5-1.8-13.2-5.4c-3.7-3.6-5.6-8-5.6-13.1s1.9-9.5,5.6-13.2
			C192.9,206.1,197.4,204.3,202.5,204.3 M209.9,32.5c-7.5,0-14.8,1.2-21.8,3.5c-7.1,2.4-12.6,5.2-17,8.7c-5,3.8-8.8,8-11.2,12.3
			c-2.6,4.6-3.9,9.4-3.9,14.2c0,5.8,1.4,11,4.2,15.5c2.4,3.8,7.2,8.4,16.5,8.4c7.4,0,13.3-2.1,17.6-6.1c5.4-5.2,6.6-10.6,6.6-14.3
			c0-2.7-0.4-6.2-1.3-10.8c-0.3-1.6-0.6-3.1-0.9-4.5c0.5-0.2,1-0.4,1.6-0.7c2.3-0.9,5.2-1.4,8.5-1.4c9,0,15.5,2.7,20,8.3
			c4.8,6,7.2,15.2,7.2,27.3c0,7.4-1,13-3.1,16.8c-2.1,3.9-5,7.2-8.8,10c-3.8,2.7-8.1,4.6-12.8,5.8c-5.3,1.3-10.7,2.2-16,2.6
			c-3.6,0.3-6.4,3.3-6.4,7v52c0,3.9,3.1,7,7,7h12.6c3.9,0,7-3.1,7-7v-24.3c17.5-3,31.7-9.9,42.4-20.5c12.1-12,18.3-27.7,18.3-46.5
			c0-8.6-1.4-16.7-4.1-24c-2.7-7.5-7-14.4-12.7-20.3c-5.5-5.8-12.6-10.5-21-14C230,34.2,220.5,32.5,209.9,32.5L209.9,32.5z
			 M202.5,197.3c-7,0-13.1,2.6-18.2,7.6c-5,5-7.6,11.2-7.6,18.2c0,7.1,2.6,13.2,7.7,18.1c5,4.9,11.1,7.4,18.1,7.4s13.1-2.5,18.1-7.4
			c5.1-5,7.7-11.1,7.7-18.1c0-7-2.6-13.1-7.6-18.2S209.5,197.3,202.5,197.3L202.5,197.3z"/>
	</g>
</g>
</svg>
