<?xml version="1.0" encoding="utf-8"?>
<!-- Generator: Adobe Illustrator 26.0.1, SVG Export Plug-In . SVG Version: 6.00 Build 0)  -->
<svg version="1.1" id="Layer_1" xmlns="http://www.w3.org/2000/svg" xmlns:xlink="http://www.w3.org/1999/xlink" x="0px" y="0px"
	 viewBox="0 0 432 288" style="enable-background:new 0 0 432 288;" xml:space="preserve">
<style type="text/css">
	.st0{fill:#EFEFEF;}
	.st1{fill:none;stroke:#757575;stroke-width:0.75;stroke-miterlimit:10;}
	.st2{fill:none;stroke:#757575;stroke-width:0.75;stroke-miterlimit:10;stroke-dasharray:4.0407,4.0407;}
</style>
<rect x="10.8" y="11.1" class="st0" width="410.4" height="265.7"/>
<g>
	<g>
		<line class="st1" x1="22.1" y1="107.8" x2="24.1" y2="107.8"/>
		<line class="st2" x1="28.1" y1="107.8" x2="405.9" y2="107.8"/>
		<line class="st1" x1="407.9" y1="107.8" x2="409.9" y2="107.8"/>
	</g>
</g>
<g>
	<g>
		<line class="st1" x1="21.9" y1="123.8" x2="23.9" y2="123.8"/>
		<line class="st2" x1="27.9" y1="123.8" x2="405.7" y2="123.8"/>
		<line class="st1" x1="407.8" y1="123.8" x2="409.8" y2="123.8"/>
	</g>
</g>
<g>
	<g>
		<line class="st1" x1="22.1" y1="154" x2="24.1" y2="154"/>
		<line class="st2" x1="28.1" y1="154" x2="405.9" y2="154"/>
		<line class="st1" x1="407.9" y1="154" x2="409.9" y2="154"/>
	</g>
</g>
<g>
	<g>
		<line class="st1" x1="22.1" y1="173.8" x2="24.1" y2="173.8"/>
		<line class="st2" x1="28.1" y1="173.8" x2="405.9" y2="173.8"/>
		<line class="st1" x1="407.9" y1="173.8" x2="409.9" y2="173.8"/>
	</g>
</g>
<g>
	<g>
		<line class="st1" x1="22.1" y1="104" x2="24.1" y2="104"/>
		<line class="st2" x1="28.1" y1="104" x2="405.9" y2="104"/>
		<line class="st1" x1="407.9" y1="104" x2="409.9" y2="104"/>
	</g>
</g>
<g>
	<path d="M39.5,111.6l1.5-5.7c0.1-0.8,0.2-1.2,0.4-1.4c0.2-0.2,0.4-0.3,0.6-0.3c0.5,0,1,0.5,1.5,1.6c0.4,0.8,0.8,1.3,1.1,1.5
		c0.3,0.2,0.7,0.4,1.2,0.4l0.4,0l1.6,0.2l8.9,0.1l10.5,0h3.1l5.8-0.1c0.2,0,0.6,0,0.9,0.1c1.7,0.1,2.8,0.2,3.2,0.2
		c0.4,0,0.7-0.1,0.9-0.4c0.1-0.1,0.5-0.9,1.2-2.5c0.3-0.7,0.7-1.1,1.2-1.1c0.2,0,0.5,0,0.8,0.1c0.1,0.5,0.2,0.9,0.2,1.3l0,1.5l0,3.2
		c0,0.8-0.1,3.3-0.2,7.5c0,0.3-0.1,0.5-0.1,0.7c-0.3,0.2-0.5,0.3-0.7,0.3c-0.2,0-0.4-0.1-0.5-0.3c-0.2-0.2-0.3-0.8-0.6-1.7
		c-0.5-2.2-1.1-3.8-1.9-4.8c-0.5-0.6-1.2-1.1-2.2-1.3c-0.9-0.3-3.2-0.4-6.7-0.4c-2.9,0-5,0-6.3,0c-0.1,1-0.1,1.9-0.1,2.7l0.3,23.3
		c0,0.9-0.1,2.7-0.2,5.3l0,5l0,2.8c0,0.9,0.2,1.5,0.5,1.9s1.1,0.7,2.4,1.1c2.3,0.6,3.8,0.9,4.6,1.1c0.5,0,0.9,0.2,1.2,0.3v1.1
		l-5.3-0.1c-2.9,0-5.1-0.1-6.6-0.2l-5.5,0.3l-4,0.2c-1.1,0-1.8,0-2.1-0.1l-0.5-0.2c0-0.6,0.2-0.9,0.3-1.1c0.2-0.2,0.6-0.3,1.4-0.4
		c1.1-0.1,2.3-0.4,3.7-0.8c1.4-0.4,2.4-0.8,2.8-1.2c0.2-0.2,0.4-0.6,0.5-1.1c0.2-1.1,0.3-3.3,0.3-6.5v-6.4l-0.1-13.9l-0.2-3l0-10
		c-1.6,0-3.6,0-6,0c-3.6,0-5.8,0.2-6.6,0.7c-1.2,0.7-3.1,2.7-5.5,6c-0.8,1.2-1.5,1.9-2.1,1.9l-0.3-0.1c-0.1-0.2-0.2-0.3-0.2-0.4
		c0-0.3,0.2-1.2,0.6-2.7C39.1,113.6,39.4,112.3,39.5,111.6z"/>
	<path d="M80.6,124.4c0.6,0,1-0.1,1.4-0.1h1.8l2.4-0.1l3.2,0.1l2.6-0.1c1.4,0,2.6,0.1,3.7,0.3c0.1,0.3,0.2,0.5,0.2,0.6l0,0.3
		c-0.5,0.3-1.3,0.4-2.4,0.5c-1.6,0.1-2.7,0.4-3.3,0.8l-0.1,0.4c0,0.3,0.1,0.6,0.3,1.1c0.1,0.3,0.3,0.8,0.5,1.4
		c0.6,1.9,1.7,5.4,3.6,10.8c1.3,3.8,2.6,7.1,3.7,9.9c0.7-1.5,1.5-3.4,2.4-5.8l3.2-8.9c0.7-1.9,1.3-3.9,1.7-5.8
		c0.1-0.8,0.2-1.4,0.2-1.8c0-0.4-0.2-0.7-0.5-1.1c-0.3-0.3-1-0.6-2-0.8c-1.8-0.5-2.7-0.7-2.9-0.8c-0.1-0.1-0.2-0.4-0.3-0.7
		c0.2-0.1,0.3-0.2,0.5-0.3h2.3l2.5,0l3.8,0l2.4,0l0.6,0c0.2,0,0.5,0,0.9,0.1c0.2,0.1,0.4,0.3,0.4,0.6c0,0.3-0.1,0.5-0.3,0.7
		l-0.8,0.1c-1.5,0.2-2.6,0.6-3.3,1.1c-0.4,0.3-0.8,0.9-1.1,1.9c-0.1,0.4-0.3,0.8-0.5,1.4c-0.1,0.3-0.3,0.8-0.5,1.5
		c-0.2,0.7-0.5,1.5-0.9,2.5l-0.5,1.1l0,0.2l-6.4,16.8l-4.7,12.6c-0.3,0.6-0.7,1.4-1.1,2.3c-1,1.8-1.5,2.8-1.7,2.9
		c-0.8,0.9-1.4,1.6-2,2l-1.9,0.8c-0.4,0.1-0.8,0.2-1.2,0.2c-1.1,0-2-0.2-2.5-0.7c-0.5-0.5-0.8-1.2-0.8-2c0-0.8,0.4-1.5,1.2-2.2
		c0.3-0.1,0.5-0.2,0.8-0.3l0.5-0.1c2.2,0.4,3.6,0.6,4.2,0.6c0.5-0.3,0.9-0.6,1.2-1c1.2-1.8,2.3-3.9,3.2-6.1c0.9-2.2,1.3-3.8,1.3-4.5
		c0-0.9-0.3-2.1-1-3.7l-4.2-11c-0.6-1.4-2.3-6.1-5.2-14c-0.2-0.5-0.4-0.9-0.7-1.1l-2.6-0.9l-0.8-0.2c-0.4-0.2-0.6-0.4-0.6-0.8
		L80.6,124.4z"/>
	<path d="M113.1,173.7c0-0.3,0-0.5,0-0.8c0-0.2,0-0.4,0.1-0.7l3.8-0.8c0.6-0.3,1.1-0.7,1.5-1.1c0.1-0.5,0.2-0.9,0.2-1.4
		c0-3.9-0.1-11.2-0.3-22l-0.1-13.7c-0.1-2.2-0.2-3.6-0.4-4.1c-0.1-0.3-0.3-0.5-0.6-0.7c-0.6-0.5-1.9-0.9-3.8-1.2l0.2-1.1
		c2.7-1.2,4.5-2.1,5.4-2.7c0.9-0.6,1.8-1.5,2.6-2.7l0.5-0.1c0.2,0,0.4,0.1,0.8,0.2c0,1.6,0,2.6,0,3.1l0,4.1c1.9-1.4,3.8-2.4,5.8-3.1
		c2-0.7,4.1-1,6.2-1c3.9,0,7.1,1.4,9.8,4.1c2.7,2.7,4,6.2,4,10.5c0,3.2-0.7,6-2.2,8.6c-1.5,2.5-3.5,4.4-6.2,5.7
		c-2.6,1.3-5.3,1.9-7.9,1.9c-2.3,0-4.8-0.6-7.7-1.8c-0.5-0.2-0.9-0.4-1.3-0.5c-0.1,2-0.1,3.8-0.1,5.3c0,7.8,0.2,12.1,0.6,13
		c0.2,0.5,0.9,0.8,2.1,0.9c2,0.2,3.3,0.4,4,0.9c0.4,0.2,0.6,0.7,0.8,1.4l-3.7,0.1l-3.4-0.1l-5.6,0L113.1,173.7z M122.9,130.7
		c-0.1,0.4-0.1,0.7-0.1,1c0,8.9,0.1,13.9,0.3,15c0.4,2,1.1,3.4,2.1,4.2c1.6,1.3,4,1.9,7,1.9c3.1,0,5.8-1.1,7.9-3.2
		c2.2-2.2,3.2-5,3.2-8.4c0-4.2-1.1-7.4-3.4-9.9c-2.3-2.4-5.3-3.6-9-3.6c-1.6,0-3,0.3-4.4,0.8C125.2,128.8,124,129.6,122.9,130.7z"/>
	<path d="M154.1,138.9c0-1.7,0.4-3.5,1.1-5.5c0.7-1.9,1.8-3.7,3.2-5.2c1.5-1.5,3-2.7,4.6-3.4c2.3-1.1,5.1-1.6,8.3-1.6
		c4.7,0,8.6,1.6,11.7,4.8c3.1,3.2,4.7,7.1,4.7,11.6c0,4-1.6,7.6-4.9,10.7c-3.3,3.1-7.5,4.7-12.5,4.7c-3.1,0-6-0.8-8.8-2.4
		c-2.1-1.2-3.8-3-5.3-5.4C154.9,144.8,154.1,142,154.1,138.9z M170.8,153.6c1.9,0,3.7-0.5,5.5-1.5s3.2-2.7,4.2-4.9
		c1.1-2.3,1.6-4.9,1.6-7.9c0-2-0.4-4.2-1.2-6.8c-0.8-2.6-2.1-4.5-3.8-5.8c-1.7-1.3-3.7-1.9-6-1.9c-1.7,0-3.3,0.4-5.1,1.2
		c-1.7,0.8-3.2,2.3-4.4,4.5c-1.2,2.2-1.8,5.3-1.8,9.4c0,4.6,1,8,3.1,10.3C165.1,152.4,167.7,153.6,170.8,153.6z"/>
	<path d="M200.8,156.5c-0.3-0.2-1.3-0.6-2.9-1.2c-1.9-1.2-3.1-2.1-3.6-2.7c-0.5-0.6-0.8-1.3-0.8-2c0-0.7,0.2-1.2,0.6-1.6
		c0.6-0.6,1.6-1.1,3.3-1.7c1.6-0.5,3-1,4-1.5c-0.3-0.2-0.8-0.5-1.5-1c-3.7-2.3-5.6-5.5-5.6-9.6c0-3.4,1.2-6.2,3.5-8.5
		c2.4-2.3,5.4-3.5,9.1-3.5c1.7,0,3.2,0.2,4.6,0.7c0.8,0.3,2,0.9,3.6,1.9c1,0.6,1.6,1,1.8,1.1c0.4,0.1,0.9,0.2,1.4,0.2
		c0.4,0,1.5-0.1,3.1-0.3c1.6-0.2,2.6-0.3,2.9-0.3c0.6,0,1.1,0.1,1.4,0.3c0.3,0.5,0.5,1.3,0.5,2.5c0,0.4-0.1,0.7-0.3,0.9
		c-0.2,0.2-0.5,0.3-0.9,0.3c-0.7,0-1.9-0.2-3.5-0.7c-1.6-0.4-2.6-0.7-2.9-0.7c-0.1,0-0.4,0-0.7,0.1c1.1,2.2,1.6,4.1,1.6,5.9
		c0,1.8-0.6,3.6-1.7,5.5c-1.1,1.9-2.7,3.4-4.7,4.4c-2,1-4,1.5-6,1.5c-0.2,0-0.6,0-1.3,0c-2.3,0-4.4,0.6-6.3,1.7
		c-0.9,0.6-1.4,1.1-1.4,1.6c0,0.5,0.5,1,1.4,1.5c2.4,1.3,6.9,2,13.5,2.2c2.9,0.1,5.1,0.5,6.7,1.2c1.6,0.7,2.8,1.8,3.6,3.2
		c0.8,1.4,1.2,2.9,1.2,4.4c0,2-0.7,3.9-2.1,5.6s-3.5,3.1-6.3,4.2c-2.8,1.1-6,1.6-9.7,1.6c-4,0-7.1-0.5-9.3-1.5c-2.2-1-3.7-2-4.6-3.2
		c-0.9-1.2-1.4-2.3-1.4-3.4c0-1,0.5-2.2,1.5-3.7c1-1.5,3.1-3,6.2-4.6C199.8,157,200.4,156.7,200.8,156.5z M198,169.8
		c2.3,1.8,5.2,2.6,8.6,2.6c2.5,0,5-0.4,7.4-1.2c2.5-0.8,4.3-1.9,5.4-3.4c1.1-1.5,1.7-2.8,1.7-4.2c0-0.8-0.2-1.6-0.6-2.4
		c-0.4-0.8-0.9-1.4-1.6-2c-0.7-0.5-1.6-0.9-2.7-1.2c-0.8-0.2-1.9-0.4-3.4-0.5c-4.2-0.3-6.8-0.5-7.7-0.5c-2.7,0-5.1,0.9-7.2,2.7
		c-1.6,1.4-2.4,3.1-2.4,5C195.5,166.8,196.3,168.4,198,169.8z M199.3,135.1c0,2.3,0.3,4.1,1,5.7c0.7,1.5,1.6,2.6,2.8,3.4
		c1.2,0.7,2.4,1.1,3.6,1.1c2.2,0,4-0.8,5.4-2.5c1.4-1.7,2.2-4.2,2.2-7.6c0-3.4-0.8-6-2.3-7.8s-3.3-2.7-5.4-2.7
		c-2.4,0-4.2,0.9-5.4,2.6C199.9,128.8,199.3,131.5,199.3,135.1z"/>
	<path d="M228.5,154.1l-0.1-0.5c0-0.2,0.1-0.4,0.3-0.8l2.2-0.5l3.1-0.6c0.2-0.1,0.4-0.3,0.5-0.5c0.2-0.3,0.2-1.3,0.2-2.9
		c0-8.5-0.1-13.4-0.2-14.7c-0.1-1.3-0.3-2.1-0.7-2.5c-0.4-0.4-1.3-0.6-2.7-0.8c-0.9-0.1-1.5-0.3-2-0.5l0.2-1.1
		c2.6-1.1,4.4-2,5.3-2.8c1.3-1.1,2.3-2.6,3.2-4.4l1.3,0c0.2,1.3,0.2,4,0.2,8.3l0,0.6c0,0.1,0,0.4,0.1,0.7c1-1.7,2.1-3.3,3.6-4.8
		l0.9-0.9c0.4-0.4,0.7-0.7,1-0.9c1.8-1.1,3.1-1.6,3.9-1.6c1.1,0,2,0.4,2.7,1.1c0.7,0.7,1.1,1.6,1.1,2.7c0,0.9-0.2,1.5-0.8,2
		c-0.7,0.6-1.5,0.9-2.3,0.9c-0.4,0-1.2-0.2-2.4-0.6c-1.2-0.4-2-0.6-2.3-0.6c-0.7,0-1.2,0.1-1.5,0.3c-0.7,0.6-1.6,1.7-2.6,3.4
		c-0.8,1.3-1.2,2.5-1.2,3.5l0.2,6.2l0.1,7.5c0.1,0.9,0.2,1.4,0.3,1.7c0.1,0.2,0.3,0.4,0.8,0.6c2.7,0.2,4.3,0.4,4.8,0.5
		c0.3,0,0.6,0,0.8,0.1c1.1,0,1.8,0.2,2.3,0.5c0.2,0.1,0.3,0.3,0.3,0.6c0,0.2-0.1,0.4-0.3,0.6l-4.2-0.1l-1.6,0l-2.3,0h-3.8l-2.1,0.1
		L228.5,154.1z"/>
	<path d="M283.2,148.9c0.1,0.3,0.2,0.6,0.2,0.7c0,0.4-0.3,1-0.9,2c-0.8,1.3-1.6,2.2-2.6,2.7c-0.6,0.4-1.4,0.6-2.5,0.6
		c-1.8,0-3.2-0.6-4.1-1.7c-0.6-0.7-0.9-1.8-1.2-3.5l-4.2,2.9c-1.5,0.9-2.6,1.4-3.4,1.6c-1.3,0.3-2.8,0.5-4.5,0.5
		c-1.3,0-2.3-0.4-3-1.1c-0.7-0.8-1.1-1.7-1.1-2.9c0-1.7,1.1-3.8,3.2-6.2c2.1-2.4,5-4.4,8.6-5.9c2.6-1.1,4.1-1.8,4.7-2.1
		c0-0.8,0.1-1.7,0.1-2.7c0-3.2-0.4-5.3-1.3-6.5c-0.9-1.1-2.2-1.7-3.8-1.7c-1.7,0-3.4,0.7-4.9,2c-0.9,0.9-1.6,2.5-2.1,4.8
		c-0.2,0.7-0.4,1.4-0.9,2.1c-1.1,0.7-1.9,1.1-2.6,1.1c-0.6,0-1.1-0.2-1.5-0.5c-0.3-0.2-0.4-0.4-0.4-0.6c0-0.7,0.7-2.1,2.1-4.4
		c1.4-2.3,3.1-4,5.3-5.1c2.1-1.1,4-1.7,5.5-1.7c2.2,0,3.8,0.2,4.8,0.6c1.1,0.4,2,1.1,2.8,2c0.8,1,1.3,2,1.5,3.2
		c0.1,0.6,0.2,2.5,0.2,5.9l-0.1,6l0,4.4c0,0.6,0,1.1,0,1.5c0,0.7,0,1.3,0,1.6c0,0.8,0.2,1.5,0.7,2c0.5,0.5,1,0.8,1.7,0.8
		c1,0,1.8-0.5,2.4-1.4l0.5-0.6C282.5,149.1,282.8,149,283.2,148.9z M272.2,147.8c0.2-3.2,0.3-5.4,0.3-6.7c0-0.7,0-1.6-0.1-2.7
		c-1.7,0.6-3.5,1.5-5.4,2.7c-1.9,1.2-3.4,2.6-4.5,4.2c-0.8,1.2-1.2,2.2-1.2,3.3c0,1,0.3,1.8,1,2.4c0.7,0.7,1.5,1,2.5,1
		c0.8,0,1.7-0.3,2.8-0.8C269.1,150.5,270.6,149.4,272.2,147.8z"/>
	<path d="M284.8,173.7c0-0.3,0-0.5,0-0.8c0-0.2,0-0.4,0.1-0.7l3.8-0.8c0.6-0.3,1.1-0.7,1.5-1.1c0.1-0.5,0.2-0.9,0.2-1.4
		c0-3.9-0.1-11.2-0.3-22l-0.1-13.7c-0.1-2.2-0.2-3.6-0.4-4.1c-0.1-0.3-0.3-0.5-0.6-0.7c-0.6-0.5-1.9-0.9-3.8-1.2l0.2-1.1
		c2.7-1.2,4.5-2.1,5.4-2.7c0.9-0.6,1.8-1.5,2.6-2.7l0.5-0.1c0.2,0,0.4,0.1,0.8,0.2c0,1.6,0,2.6,0,3.1l0,4.1c1.9-1.4,3.8-2.4,5.8-3.1
		c2-0.7,4.1-1,6.2-1c3.9,0,7.1,1.4,9.8,4.1c2.7,2.7,4,6.2,4,10.5c0,3.2-0.7,6-2.2,8.6c-1.5,2.5-3.5,4.4-6.2,5.7
		c-2.6,1.3-5.3,1.9-7.9,1.9c-2.3,0-4.8-0.6-7.7-1.8c-0.5-0.2-0.9-0.4-1.3-0.5c0,2-0.1,3.8-0.1,5.3c0,7.8,0.2,12.1,0.6,13
		c0.2,0.5,0.9,0.8,2.1,0.9c2,0.2,3.3,0.4,4,0.9c0.4,0.2,0.6,0.7,0.8,1.4l-3.7,0.1l-3.4-0.1l-5.6,0L284.8,173.7z M294.6,130.7
		c-0.1,0.4-0.1,0.7-0.1,1c0,8.9,0.1,13.9,0.3,15c0.4,2,1.1,3.4,2.1,4.2c1.6,1.3,4,1.9,7,1.9c3.1,0,5.8-1.1,7.9-3.2
		c2.2-2.2,3.2-5,3.2-8.4c0-4.2-1.1-7.4-3.4-9.9c-2.3-2.4-5.3-3.6-9-3.6c-1.6,0-3,0.3-4.4,0.8C297,128.8,295.7,129.6,294.6,130.7z"/>
	<path d="M324.6,153.1c2.9-0.5,4.6-0.9,5.1-1.2c0.3-0.2,0.4-0.6,0.4-1.2l0-2.5l0-4.4l-0.1-11.2l0-4.2v-3l0.1-3.6
		c0-5.7-0.1-9.1-0.2-10.2c-0.1-1.1-0.3-1.8-0.7-2.1c-0.6-0.6-2.3-1.2-5-1.8v-0.2c0-0.2,0-0.4,0.1-0.8c0.4,0,0.7-0.1,1-0.2
		c0.3-0.1,0.6-0.1,0.9-0.1c3-0.9,5.1-1.7,6.5-2.5h1.8c0,0.7,0.1,2.9,0.1,6.7l0,4.8l0,6.2l-0.2,7.6c0,0.5,0,1,0.1,1.5
		c1.6-1.8,2.7-3,3.5-3.6c1.3-1.1,2.7-1.9,4.2-2.5c1.5-0.6,3-0.9,4.7-0.9c3.1,0,5.6,1.3,7.6,3.9c1.1,1.5,1.7,3.7,1.7,6.5l-0.1,3.8
		l0,2.1l-0.2,3.7c-0.1,3.1-0.2,4.9-0.2,5.5c0,0.7,0,1.5,0.1,2.6l2.1,0.5c1.4,0.3,2.5,0.6,3.3,0.8l0,1.2l-8-0.2c-0.5,0-1.7,0-3.7,0.2
		c-1.2,0-1.9,0.1-2.1,0.1h-0.8c-0.1-0.2-0.2-0.4-0.2-0.6v-0.3c0.4-0.5,1-0.8,2-0.9l2.3-0.5c0.3-0.2,0.5-0.5,0.5-0.8
		c0.1-0.7,0.2-3.9,0.3-9.7l0.1-2.8c0.1-2.9-0.1-5.3-0.7-7.3c-0.4-1.3-1.1-2.4-2.4-3.2s-2.7-1.2-4.3-1.2c-1.4,0-2.6,0.3-3.8,0.9
		c-0.8,0.4-1.8,1.2-3,2.2s-2,2-2.4,2.7c-0.3,0.5-0.5,1.3-0.5,2.5l0,2.6l-0.1,2.7c0,0.2,0,1.8,0.1,4.7l0,2.4l0.1,2.6
		c0,0.4,0.1,0.6,0.1,0.8l5.3,1.3c0.3,0.1,0.7,0.2,1.2,0.5l0.1,0.4c0,0.1-0.1,0.3-0.2,0.6c-0.7,0-1.3,0-1.7,0l-2.9,0l-6.5,0.1
		l-4.8,0.2c-0.2,0-0.6-0.1-1.1-0.1l0-0.3C324.3,153.6,324.4,153.4,324.6,153.1z"/>
	<path d="M361.4,124.4c0.6,0,1-0.1,1.4-0.1h1.8l2.4-0.1l3.2,0.1l2.6-0.1c1.4,0,2.6,0.1,3.7,0.3c0.1,0.3,0.1,0.5,0.1,0.6l0,0.3
		c-0.5,0.3-1.3,0.4-2.4,0.5c-1.6,0.1-2.7,0.4-3.3,0.8l-0.1,0.4c0,0.3,0.1,0.6,0.3,1.1c0.1,0.3,0.3,0.8,0.5,1.4
		c0.6,1.9,1.7,5.4,3.6,10.8c1.3,3.8,2.6,7.1,3.7,9.9c0.7-1.5,1.5-3.4,2.4-5.8l3.2-8.9c0.7-1.9,1.3-3.9,1.7-5.8
		c0.2-0.8,0.2-1.4,0.2-1.8c0-0.4-0.2-0.7-0.5-1.1c-0.3-0.3-1-0.6-2-0.8c-1.8-0.5-2.7-0.7-2.9-0.8s-0.2-0.4-0.3-0.7
		c0.2-0.1,0.3-0.2,0.5-0.3h2.3l2.5,0l3.8,0l2.4,0l0.6,0c0.2,0,0.5,0,0.9,0.1c0.2,0.1,0.4,0.3,0.4,0.6c0,0.3-0.1,0.5-0.3,0.7
		l-0.8,0.1c-1.5,0.2-2.6,0.6-3.3,1.1c-0.4,0.3-0.8,0.9-1.1,1.9c-0.1,0.4-0.3,0.8-0.5,1.4c-0.1,0.3-0.3,0.8-0.5,1.5s-0.5,1.5-0.9,2.5
		l-0.5,1.1l0,0.2l-6.4,16.8l-4.7,12.6c-0.3,0.6-0.7,1.4-1.1,2.3c-1,1.8-1.5,2.8-1.7,2.9c-0.8,0.9-1.4,1.6-2,2l-1.9,0.8
		c-0.4,0.1-0.8,0.2-1.2,0.2c-1.1,0-2-0.2-2.5-0.7c-0.5-0.5-0.8-1.2-0.8-2c0-0.8,0.4-1.5,1.2-2.2c0.2-0.1,0.5-0.2,0.8-0.3l0.5-0.1
		c2.2,0.4,3.6,0.6,4.2,0.6c0.5-0.3,0.9-0.6,1.2-1c1.2-1.8,2.3-3.9,3.2-6.1c0.9-2.2,1.3-3.8,1.3-4.5c0-0.9-0.3-2.1-1-3.7l-4.2-11
		c-0.6-1.4-2.3-6.1-5.2-14c-0.2-0.5-0.4-0.9-0.7-1.1l-2.6-0.9l-0.8-0.2c-0.4-0.2-0.6-0.4-0.6-0.8L361.4,124.4z"/>
</g>
</svg>
