<?xml version="1.0" encoding="utf-8"?>
<!-- Generator: Adobe Illustrator 26.0.1, SVG Export Plug-In . SVG Version: 6.00 Build 0)  -->
<svg version="1.1" id="Layer_1" xmlns="http://www.w3.org/2000/svg" xmlns:xlink="http://www.w3.org/1999/xlink" x="0px" y="0px"
	 viewBox="0 0 1900 2085" style="enable-background:new 0 0 1900 2085;" xml:space="preserve">
<style type="text/css">
	.st0{fill-rule:evenodd;clip-rule:evenodd;fill:#D8D8D8;fill-opacity:0.2;}
	.st1{fill:none;stroke:#FFFFFF;stroke-width:5;}
	.st2{filter:url(#Adobe_OpacityMaskFilter);}
	.st3{fill-rule:evenodd;clip-rule:evenodd;fill:#FFFFFF;}
	.st4{mask:url(#mask-2_00000127008458144721507670000017884408907030988451_);}
	.st5{fill-rule:evenodd;clip-rule:evenodd;fill:#59189F;stroke:#FFFFFF;stroke-width:5;}
	.st6{fill-rule:evenodd;clip-rule:evenodd;fill:#B5287A;stroke:#FFFFFF;stroke-width:5;}
	.st7{fill-rule:evenodd;clip-rule:evenodd;fill:#EB3323;stroke:#FFFFFF;stroke-width:5;}
	.st8{fill-rule:evenodd;clip-rule:evenodd;fill:#EE6F2D;stroke:#FFFFFF;stroke-width:5;}
	.st9{fill-rule:evenodd;clip-rule:evenodd;fill:#F19837;stroke:#FFFFFF;stroke-width:5;}
	.st10{fill-rule:evenodd;clip-rule:evenodd;fill:#F6C644;stroke:#FFFFFF;stroke-width:5;}
	.st11{fill-rule:evenodd;clip-rule:evenodd;fill:#FFFD54;stroke:#FFFFFF;stroke-width:5;}
	.st12{fill-rule:evenodd;clip-rule:evenodd;fill:#99C43C;stroke:#FFFFFF;stroke-width:5;}
	.st13{fill-rule:evenodd;clip-rule:evenodd;fill:#4FA931;stroke:#FFFFFF;stroke-width:5;}
	.st14{fill-rule:evenodd;clip-rule:evenodd;fill:#45A1C3;stroke:#FFFFFF;stroke-width:5;}
	.st15{fill-rule:evenodd;clip-rule:evenodd;fill:#2564AF;stroke:#FFFFFF;stroke-width:5;}
	.st16{fill-rule:evenodd;clip-rule:evenodd;fill:#001A9E;stroke:#FFFFFF;stroke-width:5;}
	.st17{filter:url(#Adobe_OpacityMaskFilter_00000071553229733200913450000007914099647930070952_);}
	.st18{mask:url(#mask-2_00000142140674654282832690000009689482619953796995_);}
	.st19{fill-rule:evenodd;clip-rule:evenodd;fill:#FFFFFF;fill-opacity:0.4;}
	.st20{filter:url(#Adobe_OpacityMaskFilter_00000179621519694816069530000015049092116791007369_);}
	.st21{mask:url(#mask-2_00000105403591030191088600000004067167571062682000_);}
	.st22{fill-rule:evenodd;clip-rule:evenodd;fill:#FFFFFF;fill-opacity:0.5;}
	.st23{fill-rule:evenodd;clip-rule:evenodd;fill:#D8D8D8;}
	.st24{filter:url(#Adobe_OpacityMaskFilter_00000177471972239803227310000005492033714647720862_);}
	.st25{mask:url(#mask-6_00000101802011607194179450000017080392262444283307_);}
	.st26{filter:url(#Adobe_OpacityMaskFilter_00000097472898930889586550000001873788715004884661_);}
	.st27{mask:url(#mask-8_00000142148110456582034040000006871435086402117541_);}
	.st28{filter:url(#Adobe_OpacityMaskFilter_00000050621763039293254680000002847678743045733297_);}
	.st29{mask:url(#mask-10_00000148622396788374336980000014988728693784492698_);}
	.st30{fill-rule:evenodd;clip-rule:evenodd;}
	.st31{fill:none;stroke:#333333;stroke-width:10;}
	.st32{fill:none;stroke:#000000;stroke-width:10;stroke-linecap:square;}
</style>
<desc>Created with Sketch.</desc>
<g id="Page-1">
	<g id="color-schemes">
		<g id="monochromatic" transform="translate(32.000000, 139.000000)">
			<g id="Combined-Shape">
				<g>
					<path id="path-1_00000121963934667282700780000014769741384421347246_" class="st0" d="M421,842C188.5,842,0,653.5,0,421
						S188.5,0,421,0s421,188.5,421,421S653.5,842,421,842z M423,549c71.8,0,130-58.2,130-130s-58.2-130-130-130s-130,58.2-130,130
						S351.2,549,423,549z"/>
				</g>
				<path class="st1" d="M421,844.5C187.1,844.5-2.5,654.9-2.5,421S187.1-2.5,421-2.5S844.5,187.1,844.5,421S654.9,844.5,421,844.5z
					 M423,546.5c70.4,0,127.5-57.1,127.5-127.5S493.4,291.5,423,291.5S295.5,348.6,295.5,419S352.6,546.5,423,546.5z"/>
			</g>
			<defs>
				<filter id="Adobe_OpacityMaskFilter" filterUnits="userSpaceOnUse" x="-14.6" y="-15.3" width="873.2" height="874.1">
					<feColorMatrix  type="matrix" values="1 0 0 0 0  0 1 0 0 0  0 0 1 0 0  0 0 0 1 0"/>
				</filter>
			</defs>
			
				<mask maskUnits="userSpaceOnUse" x="-14.6" y="-15.3" width="873.2" height="874.1" id="mask-2_00000127008458144721507670000017884408907030988451_">
				<g class="st2">
					<path id="path-1_00000147924624064698626740000009468293050324425653_" class="st3" d="M421,842C188.5,842,0,653.5,0,421
						S188.5,0,421,0s421,188.5,421,421S653.5,842,421,842z M423,549c71.8,0,130-58.2,130-130s-58.2-130-130-130s-130,58.2-130,130
						S351.2,549,423,549z"/>
				</g>
			</mask>
			<g id="Group" class="st4">
				<g id="Path-2" transform="translate(-110.000000, -111.000000)">
					<polygon class="st5" points="533,533 215.5,215.5 101.5,416.5 					"/>
					<polygon class="st6" points="532.9,533.2 416.7,99.5 217.5,216.6 					"/>
					<polygon class="st7" points="532.9,533.2 649.1,99.5 418.1,101.3 					"/>
					<polygon class="st8" points="531.4,532.9 848.9,215.4 647.9,101.4 					"/>
					<polygon class="st9" points="531,532.3 964.7,416.1 847.7,216.9 					"/>
					<polygon class="st10" points="531.2,531.8 964.9,648 963.1,416.9 					"/>
					<polygon class="st11" points="531.6,532.2 849.1,849.7 963.1,648.7 					"/>
					<polygon class="st12" points="532.1,532.3 648.3,966 847.5,849 					"/>
					<polygon class="st13" points="532.8,532 416.6,965.7 647.7,963.9 					"/>
					<polygon class="st14" points="532.8,532.8 215.3,850.3 416.3,964.3 					"/>
					<polygon class="st15" points="532.9,533.3 99.2,649.5 216.2,848.8 					"/>
					<polygon class="st16" points="532.5,533.7 98.8,417.5 100.6,648.6 					"/>
				</g>
			</g>
			<defs>
				
					<filter id="Adobe_OpacityMaskFilter_00000167363244309700241570000011097932035146608552_" filterUnits="userSpaceOnUse" x="117" y="113" width="612" height="612">
					<feColorMatrix  type="matrix" values="1 0 0 0 0  0 1 0 0 0  0 0 1 0 0  0 0 0 1 0"/>
				</filter>
			</defs>
			
				<mask maskUnits="userSpaceOnUse" x="117" y="113" width="612" height="612" id="mask-2_00000142140674654282832690000009689482619953796995_">
				<g style="filter:url(#Adobe_OpacityMaskFilter_00000167363244309700241570000011097932035146608552_);">
					<path id="path-1_00000016051927331017854700000016492628677512747917_" class="st3" d="M421,842C188.5,842,0,653.5,0,421
						S188.5,0,421,0s421,188.5,421,421S653.5,842,421,842z M423,549c71.8,0,130-58.2,130-130s-58.2-130-130-130s-130,58.2-130,130
						S351.2,549,423,549z"/>
				</g>
			</mask>
			<g id="Oval" class="st18">
				<g>
					<circle id="path-3" class="st19" cx="423" cy="419" r="301"/>
				</g>
				<circle class="st1" cx="423" cy="419" r="303.5"/>
			</g>
			<defs>
				
					<filter id="Adobe_OpacityMaskFilter_00000053503479326806691710000012917648608317566649_" filterUnits="userSpaceOnUse" x="217" y="213" width="412" height="412">
					<feColorMatrix  type="matrix" values="1 0 0 0 0  0 1 0 0 0  0 0 1 0 0  0 0 0 1 0"/>
				</filter>
			</defs>
			
				<mask maskUnits="userSpaceOnUse" x="217" y="213" width="412" height="412" id="mask-2_00000105403591030191088600000004067167571062682000_">
				<g style="filter:url(#Adobe_OpacityMaskFilter_00000053503479326806691710000012917648608317566649_);">
					<path id="path-1_00000047029595118237821410000010633091266278816686_" class="st3" d="M421,842C188.5,842,0,653.5,0,421
						S188.5,0,421,0s421,188.5,421,421S653.5,842,421,842z M423,549c71.8,0,130-58.2,130-130s-58.2-130-130-130s-130,58.2-130,130
						S351.2,549,423,549z"/>
				</g>
			</mask>
			<g id="Oval_00000109008120271094216830000018050272954744904094_" class="st21">
				<g>
					<circle id="path-4" class="st22" cx="423" cy="419" r="201"/>
				</g>
				<circle class="st1" cx="423" cy="419" r="203.5"/>
			</g>
		</g>
		<g id="complementary" transform="translate(1018.000000, 139.000000)">
			<g id="Mask">
				<g>
					<path id="path-5_00000080206395267077808370000001559657152546739609_" class="st23" d="M421,842C188.5,842,0,653.5,0,421
						S188.5,0,421,0s421,188.5,421,421S653.5,842,421,842z M423,720c166.2,0,301-134.8,301-301S589.2,118,423,118S122,252.8,122,419
						S256.8,720,423,720z"/>
				</g>
				<path class="st1" d="M421,844.5C187.1,844.5-2.5,654.9-2.5,421S187.1-2.5,421-2.5S844.5,187.1,844.5,421S654.9,844.5,421,844.5z
					 M423,717.5c164.9,0,298.5-133.6,298.5-298.5S587.9,120.5,423,120.5S124.5,254.1,124.5,419S258.1,717.5,423,717.5z"/>
			</g>
			<defs>
				
					<filter id="Adobe_OpacityMaskFilter_00000093161008105367883560000005149883031297639299_" filterUnits="userSpaceOnUse" x="-14.6" y="-15.3" width="873.2" height="874.1">
					<feColorMatrix  type="matrix" values="1 0 0 0 0  0 1 0 0 0  0 0 1 0 0  0 0 0 1 0"/>
				</filter>
			</defs>
			
				<mask maskUnits="userSpaceOnUse" x="-14.6" y="-15.3" width="873.2" height="874.1" id="mask-6_00000101802011607194179450000017080392262444283307_">
				<g style="filter:url(#Adobe_OpacityMaskFilter_00000093161008105367883560000005149883031297639299_);">
					<path id="path-5_00000072999332620928083210000016372921432113122742_" class="st3" d="M421,842C188.5,842,0,653.5,0,421
						S188.5,0,421,0s421,188.5,421,421S653.5,842,421,842z M423,720c166.2,0,301-134.8,301-301S589.2,118,423,118S122,252.8,122,419
						S256.8,720,423,720z"/>
				</g>
			</mask>
			<g id="Group_00000086678407863049761230000013434736637608085166_" class="st25">
				<g id="Path-2_00000018951041794266045170000001486195557251144375_" transform="translate(-110.000000, -111.000000)">
					<polygon class="st5" points="533,533 215.5,215.5 101.5,416.5 					"/>
					<polygon class="st6" points="532.9,533.2 416.7,99.5 217.5,216.6 					"/>
					<polygon class="st7" points="532.9,533.2 649.1,99.5 418.1,101.3 					"/>
					<polygon class="st8" points="531.4,532.9 848.9,215.4 647.9,101.4 					"/>
					<polygon class="st9" points="531,532.3 964.7,416.1 847.7,216.9 					"/>
					<polygon class="st10" points="531.2,531.8 964.9,648 963.1,416.9 					"/>
					<polygon class="st11" points="531.6,532.2 849.1,849.7 963.1,648.7 					"/>
					<polygon class="st12" points="532.1,532.3 648.3,966 847.5,849 					"/>
					<polygon class="st13" points="532.8,532 416.6,965.7 647.7,963.9 					"/>
					<polygon class="st14" points="532.8,532.8 215.3,850.3 416.3,964.3 					"/>
					<polygon class="st15" points="532.9,533.3 99.2,649.5 216.2,848.8 					"/>
					<polygon class="st16" points="532.5,533.7 98.8,417.5 100.6,648.6 					"/>
				</g>
			</g>
		</g>
		<g id="analogous" transform="translate(32.000000, 1221.000000)">
			<g id="Mask_00000104692576242415214160000013933827356246420398_">
				<g>
					<path id="path-7_00000008124260901250025630000001631117517463519920_" class="st23" d="M421,842C188.5,842,0,653.5,0,421
						S188.5,0,421,0s421,188.5,421,421S653.5,842,421,842z M423,720c166.2,0,301-134.8,301-301S589.2,118,423,118S122,252.8,122,419
						S256.8,720,423,720z"/>
				</g>
				<path class="st1" d="M421,844.5C187.1,844.5-2.5,654.9-2.5,421S187.1-2.5,421-2.5S844.5,187.1,844.5,421S654.9,844.5,421,844.5z
					 M423,717.5c164.9,0,298.5-133.6,298.5-298.5S587.9,120.5,423,120.5S124.5,254.1,124.5,419S258.1,717.5,423,717.5z"/>
			</g>
			<defs>
				
					<filter id="Adobe_OpacityMaskFilter_00000018232454198457071160000009218907332582874276_" filterUnits="userSpaceOnUse" x="-14.6" y="-15.3" width="873.2" height="874.1">
					<feColorMatrix  type="matrix" values="1 0 0 0 0  0 1 0 0 0  0 0 1 0 0  0 0 0 1 0"/>
				</filter>
			</defs>
			
				<mask maskUnits="userSpaceOnUse" x="-14.6" y="-15.3" width="873.2" height="874.1" id="mask-8_00000142148110456582034040000006871435086402117541_">
				<g style="filter:url(#Adobe_OpacityMaskFilter_00000018232454198457071160000009218907332582874276_);">
					<path id="path-7_00000041260218454555369670000004593034683951582375_" class="st3" d="M421,842C188.5,842,0,653.5,0,421
						S188.5,0,421,0s421,188.5,421,421S653.5,842,421,842z M423,720c166.2,0,301-134.8,301-301S589.2,118,423,118S122,252.8,122,419
						S256.8,720,423,720z"/>
				</g>
			</mask>
			<g id="Group_00000055706321565593983690000003928634008588734088_" class="st27">
				<g id="Path-2_00000018935522146387547760000011579262595546485122_" transform="translate(-110.000000, -111.000000)">
					<polygon class="st5" points="533,533 215.5,215.5 101.5,416.5 					"/>
					<polygon class="st6" points="532.9,533.2 416.7,99.5 217.5,216.6 					"/>
					<polygon class="st7" points="532.9,533.2 649.1,99.5 418.1,101.3 					"/>
					<polygon class="st8" points="531.4,532.9 848.9,215.4 647.9,101.4 					"/>
					<polygon class="st9" points="531,532.3 964.7,416.1 847.7,216.9 					"/>
					<polygon class="st10" points="531.2,531.8 964.9,648 963.1,416.9 					"/>
					<polygon class="st11" points="531.6,532.2 849.1,849.7 963.1,648.7 					"/>
					<polygon class="st12" points="532.1,532.3 648.3,966 847.5,849 					"/>
					<polygon class="st13" points="532.8,532 416.6,965.7 647.7,963.9 					"/>
					<polygon class="st14" points="532.8,532.8 215.3,850.3 416.3,964.3 					"/>
					<polygon class="st15" points="532.9,533.3 99.2,649.5 216.2,848.8 					"/>
					<polygon class="st16" points="532.5,533.7 98.8,417.5 100.6,648.6 					"/>
				</g>
			</g>
		</g>
		<g id="triadic" transform="translate(1018.000000, 1221.000000)">
			<g id="Mask_00000058578326041363155080000005368453292374428298_">
				<g>
					<path id="path-9_00000183220680443842298010000014660216238341153471_" class="st23" d="M421,842C188.5,842,0,653.5,0,421
						S188.5,0,421,0s421,188.5,421,421S653.5,842,421,842z M423,720c166.2,0,301-134.8,301-301S589.2,118,423,118S122,252.8,122,419
						S256.8,720,423,720z"/>
				</g>
				<path class="st1" d="M421,844.5C187.1,844.5-2.5,654.9-2.5,421S187.1-2.5,421-2.5S844.5,187.1,844.5,421S654.9,844.5,421,844.5z
					 M423,717.5c164.9,0,298.5-133.6,298.5-298.5S587.9,120.5,423,120.5S124.5,254.1,124.5,419S258.1,717.5,423,717.5z"/>
			</g>
			<defs>
				
					<filter id="Adobe_OpacityMaskFilter_00000065076968217719479650000002235544066502559664_" filterUnits="userSpaceOnUse" x="-14.6" y="-15.3" width="873.2" height="874.1">
					<feColorMatrix  type="matrix" values="1 0 0 0 0  0 1 0 0 0  0 0 1 0 0  0 0 0 1 0"/>
				</filter>
			</defs>
			
				<mask maskUnits="userSpaceOnUse" x="-14.6" y="-15.3" width="873.2" height="874.1" id="mask-10_00000148622396788374336980000014988728693784492698_">
				<g style="filter:url(#Adobe_OpacityMaskFilter_00000065076968217719479650000002235544066502559664_);">
					<path id="path-9_00000089554105051572417770000000992068610400040368_" class="st3" d="M421,842C188.5,842,0,653.5,0,421
						S188.5,0,421,0s421,188.5,421,421S653.5,842,421,842z M423,720c166.2,0,301-134.8,301-301S589.2,118,423,118S122,252.8,122,419
						S256.8,720,423,720z"/>
				</g>
			</mask>
			<g id="Group_00000163049457136459124280000006605121011408402576_" class="st29">
				<g id="Path-2_00000051351257970666158820000004754368150924678815_" transform="translate(-110.000000, -111.000000)">
					<polygon class="st5" points="533,533 215.5,215.5 101.5,416.5 					"/>
					<polygon class="st6" points="532.9,533.2 416.7,99.5 217.5,216.6 					"/>
					<polygon class="st7" points="532.9,533.2 649.1,99.5 418.1,101.3 					"/>
					<polygon class="st8" points="531.4,532.9 848.9,215.4 647.9,101.4 					"/>
					<polygon class="st9" points="531,532.3 964.7,416.1 847.7,216.9 					"/>
					<polygon class="st10" points="531.2,531.8 964.9,648 963.1,416.9 					"/>
					<polygon class="st11" points="531.6,532.2 849.1,849.7 963.1,648.7 					"/>
					<polygon class="st12" points="532.1,532.3 648.3,966 847.5,849 					"/>
					<polygon class="st13" points="532.8,532 416.6,965.7 647.7,963.9 					"/>
					<polygon class="st14" points="532.8,532.8 215.3,850.3 416.3,964.3 					"/>
					<polygon class="st15" points="532.9,533.3 99.2,649.5 216.2,848.8 					"/>
					<polygon class="st16" points="532.5,533.7 98.8,417.5 100.6,648.6 					"/>
				</g>
			</g>
		</g>
		<path id="MONOCHROMATIC" class="st30" d="M285.5,85V55h-9l-7.3,18.1L261.9,55h-9v30h6.4V64l8.5,21h2.8l8.5-21v21H285.5z
			 M305.7,85.5c-9,0-15.7-6.5-15.7-15.5s6.6-15.5,15.7-15.5c9.1,0,15.7,6.5,15.7,15.5S314.8,85.5,305.7,85.5z M305.7,79.9
			c5.5,0,9.1-4.3,9.1-9.9c0-5.6-3.6-9.9-9.1-9.9s-9.1,4.2-9.1,9.9C296.6,75.6,300.1,79.9,305.7,79.9z M352.7,85V55h-6.4v18.9
			L332.4,55h-6.6v30h6.4V65.4L346.6,85H352.7z M372.9,85.5c-9,0-15.7-6.5-15.7-15.5s6.6-15.5,15.7-15.5c9.1,0,15.7,6.5,15.7,15.5
			S382,85.5,372.9,85.5z M372.9,79.9c5.5,0,9.1-4.3,9.1-9.9c0-5.6-3.6-9.9-9.1-9.9s-9.1,4.2-9.1,9.9
			C363.8,75.6,367.4,79.9,372.9,79.9z M407.6,85.5c6.6,0,10.4-3.6,12.6-7.4l-5.5-2.7c-1.3,2.5-4,4.4-7.1,4.4c-5.4,0-9.4-4.2-9.4-9.9
			s4-9.9,9.4-9.9c3.1,0,5.8,1.9,7.1,4.4l5.5-2.7c-2.1-3.7-5.9-7.3-12.6-7.3c-9,0-16,6.3-16,15.5S398.6,85.5,407.6,85.5z M451,85V55
			h-6.4v11.8h-14.2V55H424v30h6.4V72.4h14.2V85H451z M481.2,85h-7.3L468,74.3h-4.7V85h-6.4V55h14c6.3,0,10.1,4.1,10.1,9.7
			c0,5.3-3.3,8.1-6.6,8.9L481.2,85z M470,68.7c2.6,0,4.5-1.5,4.5-4c0-2.5-1.9-4.1-4.5-4.1h-6.7v8.1H470z M500.1,85.5
			c-9,0-15.7-6.5-15.7-15.5s6.6-15.5,15.7-15.5c9.1,0,15.7,6.5,15.7,15.5S509.2,85.5,500.1,85.5z M500.1,79.9c5.5,0,9.1-4.3,9.1-9.9
			c0-5.6-3.6-9.9-9.1-9.9S491,64.4,491,70C491,75.6,494.5,79.9,500.1,79.9z M552.8,85V55h-9l-7.3,18.1L529.2,55h-9v30h6.4V64l8.5,21
			h2.8l8.5-21v21H552.8z M586.7,85h-7.3l-1.8-5.1h-12.9l-1.9,5.1h-7.3l11.6-30h8L586.7,85z M575.8,74.3l-4.7-12.9l-4.7,12.9H575.8z
			 M602.9,85V60.6h8.7V55h-23.9v5.6h8.8V85H602.9z M622.1,85V55h-6.4v30H622.1z M642.6,85.5c6.6,0,10.4-3.6,12.6-7.4l-5.5-2.7
			c-1.3,2.5-4,4.4-7.1,4.4c-5.4,0-9.4-4.2-9.4-9.9s4-9.9,9.4-9.9c3.1,0,5.8,1.9,7.1,4.4l5.5-2.7c-2.1-3.7-5.9-7.3-12.6-7.3
			c-9,0-16,6.3-16,15.5S633.6,85.5,642.6,85.5z"/>
		<path id="ANALOGOUS" class="st30" d="M344,1174h-7.3l-1.8-5.1H322l-1.9,5.1h-7.3l11.6-30h8L344,1174z M333.1,1163.3l-4.7-12.9
			l-4.7,12.9H333.1z M373.6,1174v-30h-6.4v18.9l-13.9-18.9h-6.6v30h6.4v-19.6l14.3,19.6H373.6z M407.5,1174h-7.3l-1.8-5.1h-12.9
			l-1.9,5.1h-7.3l11.6-30h8L407.5,1174z M396.7,1163.3l-4.7-12.9l-4.7,12.9H396.7z M429.4,1174v-5.6h-12.7V1144h-6.4v30H429.4z
			 M448.1,1174.5c-9,0-15.7-6.5-15.7-15.5s6.6-15.5,15.7-15.5c9.1,0,15.7,6.5,15.7,15.5S457.2,1174.5,448.1,1174.5z M448.1,1168.9
			c5.5,0,9.1-4.3,9.1-9.9c0-5.6-3.6-9.9-9.1-9.9s-9.1,4.2-9.1,9.9C439,1164.6,442.6,1168.9,448.1,1168.9z M482.8,1174.6
			c5.4,0,9.7-2.2,12.8-5.7v-11.5h-14.3v5.6h7.9v3.6c-1.2,1.1-3.7,2.3-6.4,2.3c-5.4,0-9.4-4.2-9.4-9.9s4-9.9,9.4-9.9
			c3.2,0,5.8,1.8,7.1,3.9l5.3-2.9c-2.2-3.6-6.2-6.7-12.4-6.7c-8.8,0-16,6-16,15.5C466.9,1168.5,474.1,1174.6,482.8,1174.6z
			 M514.9,1174.5c-9,0-15.7-6.5-15.7-15.5s6.6-15.5,15.7-15.5c9.1,0,15.7,6.5,15.7,15.5S524,1174.5,514.9,1174.5z M514.9,1168.9
			c5.5,0,9.1-4.3,9.1-9.9c0-5.6-3.6-9.9-9.1-9.9c-5.5,0-9.1,4.2-9.1,9.9C505.8,1164.6,509.4,1168.9,514.9,1168.9z M548.7,1174.5
			c9.1,0,13.5-5.1,13.5-12.6v-18h-6.5v17.8c0,4.2-2.4,7.1-7,7.1c-4.6,0-7.1-2.9-7.1-7.1V1144h-6.5v18
			C535.1,1169.4,539.5,1174.5,548.7,1174.5z M578.8,1174.5c8.1,0,12-4.1,12-9.6c0-11.2-17.2-8-17.2-12.8c0-1.8,1.5-3,4.3-3
			c3.1,0,6.3,1,8.7,3.3l3.6-4.7c-3-2.7-6.9-4.2-11.7-4.2c-7.1,0-11.4,4.1-11.4,9.1c0,11.3,17.3,7.6,17.3,13c0,1.7-1.7,3.3-5.2,3.3
			c-4.1,0-7.4-1.8-9.5-4l-3.5,4.9C568.9,1172.6,573,1174.5,578.8,1174.5z"/>
		<path id="TRIADIC" class="st30" d="M1371.3,1174v-24.4h8.7v-5.6h-23.9v5.6h8.8v24.4H1371.3z M1408.5,1174h-7.3l-5.9-10.7h-4.7
			v10.7h-6.4v-30h14c6.3,0,10.1,4.1,10.1,9.7c0,5.3-3.3,8.1-6.6,8.9L1408.5,1174z M1397.3,1157.7c2.6,0,4.5-1.5,4.5-4
			s-1.9-4.1-4.5-4.1h-6.7v8.1H1397.3z M1419.5,1174v-30h-6.4v30H1419.5z M1453.4,1174h-7.3l-1.8-5.1h-12.9l-1.9,5.1h-7.3l11.6-30h8
			L1453.4,1174z M1442.5,1163.3l-4.7-12.9l-4.7,12.9H1442.5z M1468,1174h-11.8v-30h11.8c9.4,0,15.9,6,15.9,15S1477.4,1174,1468,1174
			z M1468,1168.4c5.9,0,9.4-4.3,9.4-9.4c0-5.3-3.2-9.4-9.4-9.4h-5.4v18.8H1468z M1494.9,1174v-30h-6.4v30H1494.9z M1515.4,1174.5
			c6.6,0,10.4-3.6,12.6-7.4l-5.5-2.7c-1.3,2.5-4,4.4-7.1,4.4c-5.4,0-9.4-4.2-9.4-9.9s4-9.9,9.4-9.9c3.1,0,5.8,1.9,7.1,4.4l5.5-2.7
			c-2.1-3.7-5.9-7.3-12.6-7.3c-9,0-16,6.3-16,15.5S1506.4,1174.5,1515.4,1174.5z"/>
		<path id="COMPLEMENTARY" class="st30" d="M1259.5,85.5c6.6,0,10.4-3.6,12.6-7.4l-5.5-2.7c-1.3,2.5-4,4.4-7.1,4.4
			c-5.4,0-9.4-4.2-9.4-9.9s4-9.9,9.4-9.9c3.1,0,5.8,1.9,7.1,4.4l5.5-2.7c-2.1-3.7-5.9-7.3-12.6-7.3c-9,0-16,6.3-16,15.5
			S1250.5,85.5,1259.5,85.5z M1290.1,85.5c-9,0-15.7-6.5-15.7-15.5s6.6-15.5,15.7-15.5c9.1,0,15.7,6.5,15.7,15.5
			S1299.2,85.5,1290.1,85.5z M1290.1,79.9c5.5,0,9.1-4.3,9.1-9.9c0-5.6-3.6-9.9-9.1-9.9s-9.1,4.2-9.1,9.9
			C1281,75.6,1284.6,79.9,1290.1,79.9z M1342.8,85V55h-9l-7.3,18.1l-7.3-18.1h-9v30h6.4V64l8.5,21h2.8l8.5-21v21H1342.8z M1355.2,85
			h-6.4V55h14c6.5,0,10.1,4.4,10.1,9.7c0,5.2-3.6,9.7-10.1,9.7h-7.6V85z M1362,68.7c2.5,0,4.4-1.6,4.4-4c0-2.5-1.9-4.1-4.4-4.1h-6.8
			v8.1H1362z M1395.9,85v-5.6h-12.7V55h-6.4v30H1395.9z M1421.6,85v-5.6h-14.8v-6.8h14.5V67h-14.5v-6.3h14.8V55h-21.2v30H1421.6z
			 M1459.2,85V55h-9l-7.3,18.1l-7.3-18.1h-9v30h6.4V64l8.5,21h2.8l8.5-21v21H1459.2z M1486.3,85v-5.6h-14.8v-6.8h14.5V67h-14.5v-6.3
			h14.8V55h-21.2v30H1486.3z M1518.2,85V55h-6.4v18.9L1497.9,55h-6.6v30h6.4V65.4L1512,85H1518.2z M1537.5,85V60.6h8.7V55h-23.9v5.6
			h8.8V85H1537.5z M1578.3,85h-7.3l-1.8-5.1h-12.9l-1.9,5.1h-7.3l11.6-30h8L1578.3,85z M1567.4,74.3l-4.7-12.9l-4.7,12.9H1567.4z
			 M1605.4,85h-7.3l-5.9-10.7h-4.7V85h-6.4V55h14c6.3,0,10.1,4.1,10.1,9.7c0,5.3-3.3,8.1-6.6,8.9L1605.4,85z M1594.2,68.7
			c2.6,0,4.5-1.5,4.5-4c0-2.5-1.9-4.1-4.5-4.1h-6.7v8.1H1594.2z M1624.8,85V72.7l11.5-17.7h-7.3l-7.4,12.1l-7.5-12.1h-7.3l11.6,17.7
			V85H1624.8z"/>
		<g id="Group-2" transform="translate(1147.000000, 381.000000)">
			<circle id="Oval-2" class="st31" cx="31.5" cy="328.5" r="31.5"/>
			<circle id="Oval-2_00000106866658071218292600000008772018418179729797_" class="st31" cx="558.5" cy="31.5" r="31.5"/>
			<path id="Line" class="st32" d="M58.5,308.5l473-261"/>
		</g>
		
			<g id="Group-2_00000001658895649781906140000015526270093558892971_" transform="translate(1472.000000, 1578.500000) rotate(-330.000000) translate(-1472.000000, -1578.500000) translate(1178.000000, 1321.000000)">
			<circle id="Oval-2_00000054242126785317043170000010605667812066397114_" class="st31" cx="31.5" cy="483.5" r="31.5"/>
			<circle id="Oval-2_00000158720419468278076550000015279295331726580145_" class="st31" cx="295.5" cy="31.5" r="31.5"/>
			<circle id="Oval-2_00000129886990881362869340000009901949863596791955_" class="st31" cx="556.5" cy="483.5" r="31.5"/>
			<path id="Line_00000052063018786897706700000014313246374208427700_" class="st32" d="M58.5,463.5L296,67"/>
			<path id="Line_00000070119120513145527220000009768002016420438920_" class="st32" d="M58.5,463.5l471.6,0"/>
			<path id="Line_00000084521242063898107300000016375630947761454764_" class="st32" d="M299,65l231.1,398.5"/>
		</g>
		
			<g id="Group-2_00000109732760624396730570000010312477356791908007_" transform="translate(311.397367, 1879.976458) rotate(-330.000000) translate(-311.397367, -1879.976458) translate(129.397367, 1827.476458)">
			<circle id="Oval-2_00000029732155921233838320000004053954386378816441_" class="st31" cx="32.1" cy="31.6" r="31.5"/>
			<circle id="Oval-2_00000088813104189690122560000016038230533008550293_" class="st31" cx="332.5" cy="32.5" r="31.5"/>
			<circle id="Oval-2_00000123410317029583328170000014582925211951399822_" class="st31" cx="189.3" cy="73.3" r="31.5"/>
			<path id="Line_00000149369904566960358500000003588885421552170930_" class="st32" d="M62.7,40.6l93.1,21.3"/>
			<path id="Line_00000090996296439717131760000005804023996436913592_" class="st32" d="M220.8,62.5l81.3-19.2"/>
		</g>
	</g>
</g>
</svg>
